<?xml version="1.0" encoding="UTF-8"?>
<!DOCTYPE svg PUBLIC "-//W3C//DTD SVG 1.1//EN" "http://www.w3.org/Graphics/SVG/1.1/DTD/svg11.dtd">
<svg xmlns="http://www.w3.org/2000/svg" version="1.1" width="87px" height="85px" style="shape-rendering:geometricPrecision; text-rendering:geometricPrecision; image-rendering:optimizeQuality; fill-rule:evenodd; clip-rule:evenodd" xmlns:xlink="http://www.w3.org/1999/xlink">
<g><path style="opacity:1" fill="#fefdfd" d="M -0.5,-0.5 C 28.5,-0.5 57.5,-0.5 86.5,-0.5C 86.5,27.8333 86.5,56.1667 86.5,84.5C 57.5,84.5 28.5,84.5 -0.5,84.5C -0.5,56.1667 -0.5,27.8333 -0.5,-0.5 Z"/></g>
<g><path style="opacity:1" fill="#545152" d="M 75.5,10.5 C 76.4688,16.2766 75.8021,16.6099 73.5,11.5C 72.7659,10.2921 72.4326,8.95875 72.5,7.5C 73.5,7.5 74.5,7.5 75.5,7.5C 75.5,8.5 75.5,9.5 75.5,10.5 Z"/></g>
<g><path style="opacity:1" fill="#605a56" d="M 71.5,12.5 C 72.505,18.8254 71.505,19.1587 68.5,13.5C 67.962,11.8828 67.6287,10.2161 67.5,8.5C 68.5,8.5 69.5,8.5 70.5,8.5C 70.2322,10.099 70.5655,11.4324 71.5,12.5 Z"/></g>
<g><path style="opacity:1" fill="#f0bc78" d="M 64.5,23.5 C 63.3065,22.7281 62.3065,21.7281 61.5,20.5C 61.5923,18.1523 62.5923,16.4856 64.5,15.5C 64.9081,16.6431 65.5748,17.6431 66.5,18.5C 67.4339,16.9052 67.4339,15.2385 66.5,13.5C 67.1667,13.5 67.8333,13.5 68.5,13.5C 71.505,19.1587 72.505,18.8254 71.5,12.5C 71.8417,11.6618 72.5084,11.3284 73.5,11.5C 75.8021,16.6099 76.4688,16.2766 75.5,10.5C 80.5863,8.41664 82.4196,10.0833 81,15.5C 79.6012,16.2266 78.1012,16.7266 76.5,17C 75.6361,19.0713 74.3028,20.738 72.5,22C 69.7462,22.2724 67.0795,22.7724 64.5,23.5 Z"/></g>
<g><path style="opacity:1" fill="#575455" d="M 66.5,13.5 C 67.4339,15.2385 67.4339,16.9052 66.5,18.5C 65.5748,17.6431 64.9081,16.6431 64.5,15.5C 63.6433,14.1982 63.1433,12.8649 63,11.5C 65.1489,10.1602 66.3155,10.8269 66.5,13.5 Z"/></g>
<g><path style="opacity:1" fill="#6e6660" d="M 61.5,20.5 C 62.3065,21.7281 63.3065,22.7281 64.5,23.5C 63.791,24.404 62.791,24.7373 61.5,24.5C 59.3082,29.3666 55.9749,33.3666 51.5,36.5C 49.7376,35.7377 48.7376,34.4044 48.5,32.5C 52.7713,28.5672 57.1046,24.5672 61.5,20.5 Z"/></g>
<g><path style="opacity:1" fill="#c53035" d="M 41.5,27.5 C 42.0967,27.7352 42.4301,28.2352 42.5,29C 40.9401,31.7266 39.6068,34.5599 38.5,37.5C 38.685,38.5837 39.0183,39.5837 39.5,40.5C 39.1667,41.5 38.5,42.1667 37.5,42.5C 36.0337,41.653 35.2004,40.3197 35,38.5C 34.3292,37.7476 33.4959,37.4142 32.5,37.5C 33.7502,35.0676 35.2502,32.7343 37,30.5C 38.129,28.8588 39.629,27.8588 41.5,27.5 Z"/></g>
<g><path style="opacity:1" fill="#a89278" d="M 48.5,32.5 C 48.7376,34.4044 49.7376,35.7377 51.5,36.5C 51.5,37.1667 51.1667,37.5 50.5,37.5C 49.1667,36.5 47.8333,35.5 46.5,34.5C 46.8333,33.5 47.5,32.8333 48.5,32.5 Z"/></g>
<g><path style="opacity:1" fill="#a02c30" d="M 41.5,27.5 C 39.629,27.8588 38.129,28.8588 37,30.5C 35.2502,32.7343 33.7502,35.0676 32.5,37.5C 31.8902,38.391 31.5569,39.391 31.5,40.5C 31.1667,40.5 30.8333,40.5 30.5,40.5C 27.0212,44.2395 22.6878,46.4062 17.5,47C 10.6656,52.7443 8.6656,59.9109 11.5,68.5C 4.62742,54.4088 8.96075,45.5754 24.5,42C 28.5938,36.4833 32.9271,31.15 37.5,26C 39.3524,25.2274 40.6857,25.7274 41.5,27.5 Z"/></g>
<g><path style="opacity:1" fill="#6c635f" d="M 46.5,34.5 C 47.8333,35.5 49.1667,36.5 50.5,37.5C 49.4155,39.3186 48.0822,40.9853 46.5,42.5C 45.7542,43.7362 45.4208,45.0695 45.5,46.5C 43.5283,45.4833 42.195,46.15 41.5,48.5C 40.8826,48.6107 40.3826,48.944 40,49.5C 38.5,48 37,46.5 35.5,45C 36.3805,44.2917 37.0472,43.4584 37.5,42.5C 38.5,42.1667 39.1667,41.5 39.5,40.5C 41.8585,38.4707 44.1918,36.4707 46.5,34.5 Z"/></g>
<g><path style="opacity:1" fill="#f4f0f1" d="M 32.5,37.5 C 33.4959,37.4142 34.3292,37.7476 35,38.5C 35.2004,40.3197 36.0337,41.653 37.5,42.5C 37.0472,43.4584 36.3805,44.2917 35.5,45C 37,46.5 38.5,48 40,49.5C 40.3826,48.944 40.8826,48.6107 41.5,48.5C 43.8201,50.2261 46.4867,50.8928 49.5,50.5C 49.67,51.8221 49.3366,52.9887 48.5,54C 45.0879,55.4545 41.9212,57.2879 39,59.5C 37.7431,64.7278 35.2431,69.2278 31.5,73C 30.552,73.4828 29.552,73.6495 28.5,73.5C 28.7475,71.1417 28.0808,69.1417 26.5,67.5C 26.0387,64.6967 24.7053,62.3634 22.5,60.5C 22.3433,59.1266 22.51,57.7932 23,56.5C 24.8578,59.4122 27.3578,60.9122 30.5,61C 28.6667,59.1667 26.8333,57.3333 25,55.5C 24.5683,54.3999 25.0683,53.7332 26.5,53.5C 28.7475,54.4056 30.7475,55.7389 32.5,57.5C 32.8333,57.1667 33.1667,56.8333 33.5,56.5C 32.1851,54.6841 30.6851,53.0175 29,51.5C 28.5,49.3333 29.3333,48.5 31.5,49C 33.0175,50.6851 34.6841,52.1851 36.5,53.5C 36.8333,53.1667 37.1667,52.8333 37.5,52.5C 35.8509,50.3501 34.0176,48.3501 32,46.5C 31.5045,44.5273 31.3379,42.5273 31.5,40.5C 31.5569,39.391 31.8902,38.391 32.5,37.5 Z"/></g>
<g><path style="opacity:1" fill="#c73338" d="M 30.5,40.5 C 29.9329,46.9053 26.7663,51.5719 21,54.5C 20.51,55.7932 20.3433,57.1266 20.5,58.5C 19.5,58.5 18.5,58.5 17.5,58.5C 18.8333,63.1667 21.8333,66.1667 26.5,67.5C 28.0808,69.1417 28.7475,71.1417 28.5,73.5C 29.552,73.6495 30.552,73.4828 31.5,73C 35.2431,69.2278 37.7431,64.7278 39,59.5C 41.9212,57.2879 45.0879,55.4545 48.5,54C 49.3366,52.9887 49.67,51.8221 49.5,50.5C 46.4867,50.8928 43.8201,50.2261 41.5,48.5C 42.195,46.15 43.5283,45.4833 45.5,46.5C 45.6107,47.1174 45.944,47.6174 46.5,48C 49.2356,48.4217 51.9023,48.4217 54.5,48C 55.5536,49.3876 55.7203,50.8876 55,52.5C 50.9107,55.5947 46.5774,58.2614 42,60.5C 38.5004,75.8326 29.6671,80.3326 15.5,74C 13.5359,72.549 12.2026,70.7157 11.5,68.5C 8.6656,59.9109 10.6656,52.7443 17.5,47C 22.6878,46.4062 27.0212,44.2395 30.5,40.5 Z"/></g>
<g><path style="opacity:1" fill="#c6c0c4" d="M 30.5,40.5 C 30.8333,40.5 31.1667,40.5 31.5,40.5C 31.3379,42.5273 31.5045,44.5273 32,46.5C 34.0176,48.3501 35.8509,50.3501 37.5,52.5C 37.1667,52.8333 36.8333,53.1667 36.5,53.5C 34.6841,52.1851 33.0175,50.6851 31.5,49C 29.3333,48.5 28.5,49.3333 29,51.5C 30.6851,53.0175 32.1851,54.6841 33.5,56.5C 33.1667,56.8333 32.8333,57.1667 32.5,57.5C 30.7475,55.7389 28.7475,54.4056 26.5,53.5C 25.0683,53.7332 24.5683,54.3999 25,55.5C 26.8333,57.3333 28.6667,59.1667 30.5,61C 27.3578,60.9122 24.8578,59.4122 23,56.5C 22.51,57.7932 22.3433,59.1266 22.5,60.5C 21.5,60.1667 20.8333,59.5 20.5,58.5C 20.3433,57.1266 20.51,55.7932 21,54.5C 26.7663,51.5719 29.9329,46.9053 30.5,40.5 Z"/></g>
<g><path style="opacity:1" fill="#565055" d="M 20.5,58.5 C 20.8333,59.5 21.5,60.1667 22.5,60.5C 24.7053,62.3634 26.0387,64.6967 26.5,67.5C 21.8333,66.1667 18.8333,63.1667 17.5,58.5C 18.5,58.5 19.5,58.5 20.5,58.5 Z"/></g>
<g><path style="opacity:1" fill="#6d6c71" d="M 30.5,63.5 C 31.5,63.5 32.5,63.5 33.5,63.5C 33.5,64.8333 33.5,66.1667 33.5,67.5C 32.5,67.5 31.5,67.5 30.5,67.5C 30.5,66.1667 30.5,64.8333 30.5,63.5 Z"/></g>
<g><path style="opacity:1" fill="#a995c5" d="M 82.5,79.5 C 84.337,79.6395 84.6704,80.3061 83.5,81.5C 82.7025,81.0431 82.3691,80.3764 82.5,79.5 Z"/></g>
</svg>
