<?xml version="1.0" encoding="UTF-8"?>
<!DOCTYPE svg PUBLIC "-//W3C//DTD SVG 1.1//EN" "http://www.w3.org/Graphics/SVG/1.1/DTD/svg11.dtd">
<svg xmlns="http://www.w3.org/2000/svg" version="1.1" width="78px" height="81px" style="shape-rendering:geometricPrecision; text-rendering:geometricPrecision; image-rendering:optimizeQuality; fill-rule:evenodd; clip-rule:evenodd" xmlns:xlink="http://www.w3.org/1999/xlink">
<g><path style="opacity:1" fill="#fefdfd" d="M -0.5,-0.5 C 25.5,-0.5 51.5,-0.5 77.5,-0.5C 77.5,25.1667 77.5,50.8333 77.5,76.5C 73.5,77.1667 73.5,77.8333 77.5,78.5C 77.5,79.1667 77.5,79.8333 77.5,80.5C 51.5,80.5 25.5,80.5 -0.5,80.5C -0.5,53.5 -0.5,26.5 -0.5,-0.5 Z"/></g>
<g><path style="opacity:1" fill="#e1b99e" d="M 69.5,4.5 C 68.1266,4.34332 66.7932,4.50999 65.5,5C 64.2949,6.37561 62.9616,7.54227 61.5,8.5C 60.6236,8.63088 59.9569,8.29755 59.5,7.5C 61.1787,5.65422 63.012,3.98756 65,2.5C 66.7275,2.89901 68.2275,3.56567 69.5,4.5 Z"/></g>
<g><path style="opacity:1" fill="#d1b4a0" d="M 72.5,7.5 C 73.905,9.22514 74.405,11.2251 74,13.5C 73.2828,12.9558 72.7828,12.2891 72.5,11.5C 72.5,10.1667 72.5,8.83333 72.5,7.5 Z"/></g>
<g><path style="opacity:1" fill="#403e33" d="M 69.5,4.5 C 70.8333,5.16667 71.8333,6.16667 72.5,7.5C 72.5,8.83333 72.5,10.1667 72.5,11.5C 71.5,11.8333 70.8333,12.5 70.5,13.5C 69.1667,14.1667 68.1667,15.1667 67.5,16.5C 66.1184,17.8005 64.4517,18.6339 62.5,19C 56.6018,25.3914 50.9351,31.8914 45.5,38.5C 43.3702,40.1271 41.3702,41.9604 39.5,44C 36.1484,44.0105 33.8151,42.3438 32.5,39C 33.9852,36.683 35.6519,34.5164 37.5,32.5C 46.579,25.421 54.579,17.421 61.5,8.5C 62.9616,7.54227 64.2949,6.37561 65.5,5C 66.7932,4.50999 68.1266,4.34332 69.5,4.5 Z"/></g>
<g><path style="opacity:1" fill="#e6bda3" d="M 70.5,13.5 C 71.3764,13.3691 72.0431,13.7025 72.5,14.5C 71.2354,16.868 69.5688,17.5346 67.5,16.5C 68.1667,15.1667 69.1667,14.1667 70.5,13.5 Z"/></g>
<g><path style="opacity:1" fill="#e9b650" d="M 37.5,32.5 C 35.6519,34.5164 33.9852,36.683 32.5,39C 33.8151,42.3438 36.1484,44.0105 39.5,44C 41.3702,41.9604 43.3702,40.1271 45.5,38.5C 47.3097,42.3105 47.8097,46.3105 47,50.5C 45.9455,53.0559 44.1122,54.7225 41.5,55.5C 38.3752,54.5206 35.0419,54.1872 31.5,54.5C 35.0032,51.1411 35.3365,47.4744 32.5,43.5C 25.2023,41.2991 22.0356,43.9657 23,51.5C 24.045,52.3734 24.8783,53.3734 25.5,54.5C 23.1667,54.5 20.8333,54.5 18.5,54.5C 16.3591,51.9814 14.3591,51.9814 12.5,54.5C 9.16667,54.5 5.83333,54.5 2.5,54.5C 2.5,52.5 2.5,50.5 2.5,48.5C 3.59136,45.5722 5.59136,43.4055 8.5,42C 11.6229,41.7935 14.6229,41.1268 17.5,40C 20.285,36.3958 23.285,33.0625 26.5,30C 30.6391,29.1297 34.3058,29.963 37.5,32.5 Z"/></g>
<g><path style="opacity:1" fill="#805a25" d="M 31.5,54.5 C 29.5,54.5 27.5,54.5 25.5,54.5C 24.8783,53.3734 24.045,52.3734 23,51.5C 22.0356,43.9657 25.2023,41.2991 32.5,43.5C 35.3365,47.4744 35.0032,51.1411 31.5,54.5 Z"/></g>
<g><path style="opacity:1" fill="#69471b" d="M 18.5,54.5 C 20.1271,56.6298 21.9604,58.6298 24,60.5C 24.7828,62.3185 24.2828,63.6518 22.5,64.5C 18.8123,61.479 15.4789,58.1456 12.5,54.5C 14.3591,51.9814 16.3591,51.9814 18.5,54.5 Z"/></g>
<g><path style="opacity:1" fill="#e59d3b" d="M 2.5,54.5 C 5.83333,54.5 9.16667,54.5 12.5,54.5C 15.4789,58.1456 18.8123,61.479 22.5,64.5C 24.2828,63.6518 24.7828,62.3185 24,60.5C 21.9604,58.6298 20.1271,56.6298 18.5,54.5C 20.8333,54.5 23.1667,54.5 25.5,54.5C 27.5,54.5 29.5,54.5 31.5,54.5C 35.0419,54.1872 38.3752,54.5206 41.5,55.5C 39.5372,56.9599 37.7038,58.6266 36,60.5C 35.9162,64.4349 34.9162,68.1016 33,71.5C 31.871,73.1412 30.371,74.1412 28.5,74.5C 14.3052,74.9676 5.63857,68.3009 2.5,54.5 Z"/></g>
<g><path style="opacity:1" fill="#dd813e" d="M 2.5,48.5 C 2.5,50.5 2.5,52.5 2.5,54.5C 5.63857,68.3009 14.3052,74.9676 28.5,74.5C 15.903,76.7727 7.06968,71.7727 2,59.5C 1.19007,55.6425 1.35673,51.9758 2.5,48.5 Z"/></g>
<g><path style="opacity:1" fill="#b19eca" d="M 77.5,76.5 C 77.5,77.1667 77.5,77.8333 77.5,78.5C 73.5,77.8333 73.5,77.1667 77.5,76.5 Z"/></g>
</svg>
