<?xml version="1.0" encoding="UTF-8"?>
<!DOCTYPE svg PUBLIC "-//W3C//DTD SVG 1.1//EN" "http://www.w3.org/Graphics/SVG/1.1/DTD/svg11.dtd">
<svg xmlns="http://www.w3.org/2000/svg" version="1.1" width="83px" height="83px" style="shape-rendering:geometricPrecision; text-rendering:geometricPrecision; image-rendering:optimizeQuality; fill-rule:evenodd; clip-rule:evenodd" xmlns:xlink="http://www.w3.org/1999/xlink">
<g><path style="opacity:1" fill="#fdfcfc" d="M -0.5,-0.5 C 27.1667,-0.5 54.8333,-0.5 82.5,-0.5C 82.5,27.1667 82.5,54.8333 82.5,82.5C 54.8333,82.5 27.1667,82.5 -0.5,82.5C -0.5,81.8333 -0.5,81.1667 -0.5,80.5C 2.16667,79.8333 2.16667,79.1667 -0.5,78.5C -0.5,52.1667 -0.5,25.8333 -0.5,-0.5 Z"/></g>
<g><path style="opacity:1" fill="#c9b69c" d="M 61.5,13.5 C 59.7162,13.8925 58.0495,14.5592 56.5,15.5C 53.9455,16.388 51.2788,16.7214 48.5,16.5C 48.5,16.1667 48.5,15.8333 48.5,15.5C 51.0041,14.4161 53.3374,13.0828 55.5,11.5C 59.6056,9.61242 63.6056,7.44576 67.5,5C 68.7932,4.50999 70.1266,4.34332 71.5,4.5C 71.719,5.67504 71.3857,6.67504 70.5,7.5C 67.2624,9.27534 64.2624,11.2753 61.5,13.5 Z"/></g>
<g><path style="opacity:1" fill="#9b544b" d="M 41.5,7.5 C 40.4479,9.25605 38.7812,9.92271 36.5,9.5C 36.4142,8.5041 36.7476,7.67076 37.5,7C 39.0657,6.23502 40.3991,6.40168 41.5,7.5 Z"/></g>
<g><path style="opacity:1" fill="#95463c" d="M 21.5,11.5 C 19.7162,11.8925 18.0495,12.5592 16.5,13.5C 16.5,12.1667 16.5,10.8333 16.5,9.5C 18.7812,9.07729 20.4479,9.74395 21.5,11.5 Z"/></g>
<g><path style="opacity:1" fill="#bfc1c4" d="M 41.5,7.5 C 45.7447,9.88722 50.4114,11.2206 55.5,11.5C 53.3374,13.0828 51.0041,14.4161 48.5,15.5C 41.6791,14.3454 34.6791,14.1787 27.5,15C 24.5651,15.3021 22.5651,16.1354 21.5,17.5C 20.8333,18.1667 20.1667,18.8333 19.5,19.5C 16.2238,19.2116 13.3905,20.5449 11,23.5C 10.2937,25.9712 10.627,28.3046 12,30.5C 19.7497,36.4699 28.583,39.1365 38.5,38.5C 46.933,38.4636 54.933,36.6303 62.5,33C 68.7142,29.0631 69.0476,24.8964 63.5,20.5C 66.1667,20.5 68.8333,20.5 71.5,20.5C 71.4326,21.9587 71.7659,23.2921 72.5,24.5C 72.5,26.1667 72.5,27.8333 72.5,29.5C 69.9035,33.9723 66.2369,37.3057 61.5,39.5C 59.597,39.7959 57.9303,40.4625 56.5,41.5C 51.256,42.8149 45.9227,43.4815 40.5,43.5C 39.8333,43.5 39.1667,43.5 38.5,43.5C 32.3841,43.7322 26.3841,43.0655 20.5,41.5C 19.791,40.596 18.791,40.2627 17.5,40.5C 13.2823,38.2177 9.61558,35.2177 6.5,31.5C 6.16667,30.8333 5.83333,30.1667 5.5,29.5C 5.5,27.8333 5.5,26.1667 5.5,24.5C 7.44296,19.2235 11.1096,15.5569 16.5,13.5C 18.0495,12.5592 19.7162,11.8925 21.5,11.5C 26.3646,9.95908 31.3646,9.29242 36.5,9.5C 38.7812,9.92271 40.4479,9.25605 41.5,7.5 Z"/></g>
<g><path style="opacity:1" fill="#e7eaeb" d="M 48.5,15.5 C 48.5,15.8333 48.5,16.1667 48.5,16.5C 39.4757,16.3584 30.4757,16.6917 21.5,17.5C 22.5651,16.1354 24.5651,15.3021 27.5,15C 34.6791,14.1787 41.6791,14.3454 48.5,15.5 Z"/></g>
<g><path style="opacity:1" fill="#c0c4c5" d="M 61.5,13.5 C 62.8717,14.5116 64.205,15.5116 65.5,16.5C 62.2869,16.81 59.2869,16.4767 56.5,15.5C 58.0495,14.5592 59.7162,13.8925 61.5,13.5 Z"/></g>
<g><path style="opacity:1" fill="#ae9f8b" d="M 56.5,15.5 C 59.2869,16.4767 62.2869,16.81 65.5,16.5C 68.5184,16.3354 71.5184,16.502 74.5,17C 75.694,19.6578 74.694,20.8244 71.5,20.5C 68.8333,20.5 66.1667,20.5 63.5,20.5C 58.1667,20.5 52.8333,20.5 47.5,20.5C 44.8333,20.5 42.1667,20.5 39.5,20.5C 32.7978,20.6643 26.1311,20.331 19.5,19.5C 20.1667,18.8333 20.8333,18.1667 21.5,17.5C 30.4757,16.6917 39.4757,16.3584 48.5,16.5C 51.2788,16.7214 53.9455,16.388 56.5,15.5 Z"/></g>
<g><path style="opacity:1" fill="#ebeeee" d="M 19.5,19.5 C 26.1311,20.331 32.7978,20.6643 39.5,20.5C 34.0573,24.0665 28.724,27.8999 23.5,32C 24,32.1667 24.5,32.3333 25,32.5C 32.9112,29.1297 40.4112,25.1297 47.5,20.5C 52.8333,20.5 58.1667,20.5 63.5,20.5C 69.0476,24.8964 68.7142,29.0631 62.5,33C 54.933,36.6303 46.933,38.4636 38.5,38.5C 28.583,39.1365 19.7497,36.4699 12,30.5C 10.627,28.3046 10.2937,25.9712 11,23.5C 13.3905,20.5449 16.2238,19.2116 19.5,19.5 Z"/></g>
<g><path style="opacity:1" fill="#c9b59c" d="M 39.5,20.5 C 42.1667,20.5 44.8333,20.5 47.5,20.5C 40.4112,25.1297 32.9112,29.1297 25,32.5C 24.5,32.3333 24,32.1667 23.5,32C 28.724,27.8999 34.0573,24.0665 39.5,20.5 Z"/></g>
<g><path style="opacity:1" fill="#964d44" d="M 5.5,24.5 C 5.5,26.1667 5.5,27.8333 5.5,29.5C 5.16667,29.5 4.83333,29.5 4.5,29.5C 1.69465,27.2439 2.02799,25.5772 5.5,24.5 Z"/></g>
<g><path style="opacity:1" fill="#9a5047" d="M 72.5,24.5 C 74.2517,24.4176 75.2517,25.2509 75.5,27C 75.2517,28.7491 74.2517,29.5824 72.5,29.5C 72.5,27.8333 72.5,26.1667 72.5,24.5 Z"/></g>
<g><path style="opacity:1" fill="#d7a29b" d="M 4.5,29.5 C 4.83333,29.5 5.16667,29.5 5.5,29.5C 5.83333,30.1667 6.16667,30.8333 6.5,31.5C 6.15658,41.0446 5.15658,50.378 3.5,59.5C 4.4741,49.5824 4.80744,39.5824 4.5,29.5 Z"/></g>
<g><path style="opacity:1" fill="#b14535" d="M 72.5,29.5 C 72.0196,40.9539 72.6862,52.2873 74.5,63.5C 73.1266,63.3433 71.7932,63.51 70.5,64C 67.0464,67.1099 64.0464,70.4432 61.5,74C 59.5355,74.624 57.8689,74.124 56.5,72.5C 52.318,74.0217 47.9847,74.855 43.5,75C 42.2997,76.0312 40.9663,76.8645 39.5,77.5C 32.3355,74.7872 25.0021,73.6205 17.5,74C 16.9288,72.7949 16.2621,71.6283 15.5,70.5C 12.0787,69.4611 9.41206,67.4611 7.5,64.5C 5.95467,63.5481 4.28801,63.2148 2.5,63.5C 2.23219,61.901 2.56552,60.5676 3.5,59.5C 5.15658,50.378 6.15658,41.0446 6.5,31.5C 9.61558,35.2177 13.2823,38.2177 17.5,40.5C 17.5,50.1667 17.5,59.8333 17.5,69.5C 18.5,69.5 19.5,69.5 20.5,69.5C 20.5,60.1667 20.5,50.8333 20.5,41.5C 26.3841,43.0655 32.3841,43.7322 38.5,43.5C 39.1667,82.1667 39.8333,82.1667 40.5,43.5C 45.9227,43.4815 51.256,42.8149 56.5,41.5C 58.4722,50.4401 59.1389,59.7734 58.5,69.5C 59.5,69.5 60.5,69.5 61.5,69.5C 61.5,59.5 61.5,49.5 61.5,39.5C 66.2369,37.3057 69.9035,33.9723 72.5,29.5 Z"/></g>
<g><path style="opacity:1" fill="#d56e5d" d="M 17.5,40.5 C 18.791,40.2627 19.791,40.596 20.5,41.5C 20.5,50.8333 20.5,60.1667 20.5,69.5C 19.5,69.5 18.5,69.5 17.5,69.5C 17.5,59.8333 17.5,50.1667 17.5,40.5 Z"/></g>
<g><path style="opacity:1" fill="#d77160" d="M 61.5,39.5 C 61.5,49.5 61.5,59.5 61.5,69.5C 60.5,69.5 59.5,69.5 58.5,69.5C 59.1389,59.7734 58.4722,50.4401 56.5,41.5C 57.9303,40.4625 59.597,39.7959 61.5,39.5 Z"/></g>
<g><path style="opacity:1" fill="#dd7766" d="M 38.5,43.5 C 39.1667,43.5 39.8333,43.5 40.5,43.5C 39.8333,82.1667 39.1667,82.1667 38.5,43.5 Z"/></g>
<g><path style="opacity:1" fill="#a995c5" d="M -0.5,78.5 C 2.16667,79.1667 2.16667,79.8333 -0.5,80.5C -0.5,79.8333 -0.5,79.1667 -0.5,78.5 Z"/></g>
</svg>
