<?xml version="1.0" encoding="UTF-8"?>
<!DOCTYPE svg PUBLIC "-//W3C//DTD SVG 1.1//EN" "http://www.w3.org/Graphics/SVG/1.1/DTD/svg11.dtd">
<svg xmlns="http://www.w3.org/2000/svg" version="1.1" width="468px" height="180px" style="shape-rendering:geometricPrecision; text-rendering:geometricPrecision; image-rendering:optimizeQuality; fill-rule:evenodd; clip-rule:evenodd" xmlns:xlink="http://www.w3.org/1999/xlink">
<g><path style="opacity:1" fill="#fdfdfd" d="M -0.5,-0.5 C 155.5,-0.5 311.5,-0.5 467.5,-0.5C 467.5,59.5 467.5,119.5 467.5,179.5C 311.5,179.5 155.5,179.5 -0.5,179.5C -0.5,119.5 -0.5,59.5 -0.5,-0.5 Z"/></g>
<g><path style="opacity:1" fill="#7f8285" d="M 222.5,23.5 C 222.663,21.1432 222.497,18.8098 222,16.5C 219.307,21.7504 217.473,27.417 216.5,33.5C 215.289,32.7261 215.289,31.8928 216.5,31C 214.729,28.8865 213.229,29.0532 212,31.5C 211.667,29.5 211.333,27.5 211,25.5C 209.615,24.4495 208.615,23.1161 208,21.5C 207.823,17.6437 207.323,13.977 206.5,10.5C 207.028,2.88555 211.028,0.385546 218.5,3C 223.198,9.33745 224.532,16.1708 222.5,23.5 Z"/></g>
<g><path style="opacity:1" fill="#7a7d7f" d="M 259.5,23.5 C 259.664,20.8127 259.497,18.146 259,15.5C 258.133,20.6368 256.799,25.6368 255,30.5C 251.82,35.3189 247.82,36.3189 243,33.5C 242.794,30.3771 242.127,27.3771 241,24.5C 240.617,25.056 240.117,25.3893 239.5,25.5C 242.046,18.7849 246.546,13.7849 253,10.5C 255.317,11.8264 257.651,13.1597 260,14.5C 260.805,17.6965 260.638,20.6965 259.5,23.5 Z"/></g>
<g><path style="opacity:1" fill="#696c6f" d="M 206.5,10.5 C 207.323,13.977 207.823,17.6437 208,21.5C 208.615,23.1161 209.615,24.4495 211,25.5C 211.333,27.5 211.667,29.5 212,31.5C 213.229,29.0532 214.729,28.8865 216.5,31C 215.289,31.8928 215.289,32.7261 216.5,33.5C 217.473,27.417 219.307,21.7504 222,16.5C 222.497,18.8098 222.663,21.1432 222.5,23.5C 219.94,33.2475 223.607,37.7475 233.5,37C 234.984,36.3378 236.317,35.5045 237.5,34.5C 238.117,34.3893 238.617,34.056 239,33.5C 239.497,30.854 239.664,28.1873 239.5,25.5C 240.117,25.3893 240.617,25.056 241,24.5C 242.127,27.3771 242.794,30.3771 243,33.5C 247.82,36.3189 251.82,35.3189 255,30.5C 256.799,25.6368 258.133,20.6368 259,15.5C 259.497,18.146 259.664,20.8127 259.5,23.5C 259.035,27.0615 257.868,30.3949 256,33.5C 248.865,37.948 247.698,43.6147 252.5,50.5C 251.078,50.7496 250.078,51.583 249.5,53C 250.167,53.3333 250.833,53.6667 251.5,54C 246.548,54.3879 241.715,55.2212 237,56.5C 236.667,54.5 236.333,52.5 236,50.5C 235.586,50.0426 235.086,49.7093 234.5,49.5C 233.534,51.396 233.201,53.396 233.5,55.5C 233.028,53.4687 232.028,51.8021 230.5,50.5C 228.085,49.1858 225.252,48.5191 222,48.5C 209.512,47.6958 197.012,47.3625 184.5,47.5C 184.215,49.288 184.548,50.9547 185.5,52.5C 186.842,50.9951 188.508,50.3285 190.5,50.5C 190.5,51.5 190.5,52.5 190.5,53.5C 194.884,53.1744 199.217,53.5078 203.5,54.5C 204.137,56.3031 205.303,57.6364 207,58.5C 207.483,59.448 207.649,60.448 207.5,61.5C 205.801,61.5271 204.467,62.1938 203.5,63.5C 202.365,61.7868 200.698,61.1201 198.5,61.5C 198.631,60.6236 198.298,59.9569 197.5,59.5C 192.044,57.0186 186.711,54.352 181.5,51.5C 183.818,48.5843 183.984,45.5843 182,42.5C 181.809,44.7078 181.309,46.7078 180.5,48.5C 180.663,46.1432 180.497,43.8098 180,41.5C 171.14,35.9324 167.473,27.9324 169,17.5C 171.531,13.7984 174.698,12.9651 178.5,15C 185.589,19.6883 189.755,26.1883 191,34.5C 196.64,40.0474 201.973,39.7141 207,33.5C 207.667,30.8333 207.667,28.1667 207,25.5C 203.836,20.5415 203.669,15.5415 206.5,10.5 Z"/></g>
<g><path style="opacity:1" fill="#9c9ea1" d="M 239.5,25.5 C 239.664,28.1873 239.497,30.854 239,33.5C 238.617,34.056 238.117,34.3893 237.5,34.5C 237.99,31.3447 238.656,28.3447 239.5,25.5 Z"/></g>
<g><path style="opacity:1" fill="#7a7d80" d="M 174.5,16.5 C 177.315,17.1264 179.815,18.4598 182,20.5C 183.333,22.5 184.667,24.5 186,26.5C 187.159,31.4582 185.493,32.7916 181,30.5C 178.425,30.0904 176.758,31.0904 176,33.5C 172.09,28.9645 170.59,23.6312 171.5,17.5C 172.791,17.7373 173.791,17.404 174.5,16.5 Z"/></g>
<g><path style="opacity:1" fill="#636463" d="M 230.5,50.5 C 230.829,63.3443 230.495,76.011 229.5,88.5C 229.829,75.3226 229.495,62.3226 228.5,49.5C 224.154,49.3343 219.821,49.501 215.5,50C 214.418,51.3297 213.751,52.8297 213.5,54.5C 211.737,57.0196 209.737,59.3529 207.5,61.5C 207.649,60.448 207.483,59.448 207,58.5C 205.303,57.6364 204.137,56.3031 203.5,54.5C 199.217,53.5078 194.884,53.1744 190.5,53.5C 190.5,52.5 190.5,51.5 190.5,50.5C 188.508,50.3285 186.842,50.9951 185.5,52.5C 184.548,50.9547 184.215,49.288 184.5,47.5C 197.012,47.3625 209.512,47.6958 222,48.5C 225.252,48.5191 228.085,49.1858 230.5,50.5 Z"/></g>
<g><path style="opacity:1" fill="#606264" d="M 266.5,65.5 C 266.672,64.5084 266.338,63.8417 265.5,63.5C 264.778,63.0825 264.278,62.4158 264,61.5C 263.667,62.1667 263.333,62.8333 263,63.5C 255.043,63.4382 246.877,63.4382 238.5,63.5C 238.763,57.1052 237.596,56.4385 235,61.5C 233.681,59.7505 233.181,57.7505 233.5,55.5C 233.201,53.396 233.534,51.396 234.5,49.5C 235.086,49.7093 235.586,50.0426 236,50.5C 236.333,52.5 236.667,54.5 237,56.5C 241.715,55.2212 246.548,54.3879 251.5,54C 250.833,53.6667 250.167,53.3333 249.5,53C 250.078,51.583 251.078,50.7496 252.5,50.5C 255.177,52.432 258.177,52.932 261.5,52C 267.627,41.9568 276.461,38.1234 288,40.5C 289.182,42.3436 290.349,44.1769 291.5,46C 287.558,55.4591 280.558,60.7924 270.5,62C 269.295,63.3756 267.962,64.5423 266.5,65.5 Z"/></g>
<g><path style="opacity:1" fill="#c19d51" d="M 228.5,49.5 C 228.5,63.5 228.5,77.5 228.5,91.5C 227.51,85.3554 227.177,79.0221 227.5,72.5C 227.5,65.1667 227.5,57.8333 227.5,50.5C 224.15,50.335 220.817,50.5017 217.5,51C 216.897,53.0714 215.564,54.2381 213.5,54.5C 213.751,52.8297 214.418,51.3297 215.5,50C 219.821,49.501 224.154,49.3343 228.5,49.5 Z"/></g>
<g><path style="opacity:1" fill="#efb348" d="M 227.5,72.5 C 226.686,74.631 226.186,76.9644 226,79.5C 222.342,76.9343 218.842,74.2676 215.5,71.5C 215.665,68.4816 215.498,65.4816 215,62.5C 213.795,61.9288 212.628,61.2621 211.5,60.5C 212.372,58.5504 213.039,56.5504 213.5,54.5C 215.564,54.2381 216.897,53.0714 217.5,51C 220.817,50.5017 224.15,50.335 227.5,50.5C 227.5,57.8333 227.5,65.1667 227.5,72.5 Z"/></g>
<g><path style="opacity:1" fill="#535558" d="M 198.5,61.5 C 195.916,61.5688 193.916,62.7355 192.5,65C 183.785,65.8041 175.118,65.6374 166.5,64.5C 166.168,65.7886 165.834,67.4553 165.5,69.5C 165.167,69.5 164.833,69.5 164.5,69.5C 163.657,67.8267 162.324,66.66 160.5,66C 150.763,64.9429 143.763,59.9429 139.5,51C 140.221,45.9384 143.054,43.4384 148,43.5C 156.459,44.329 163.292,48.1624 168.5,55C 174.39,56.223 178.39,54.0563 180.5,48.5C 181.309,46.7078 181.809,44.7078 182,42.5C 183.984,45.5843 183.818,48.5843 181.5,51.5C 186.711,54.352 192.044,57.0186 197.5,59.5C 198.298,59.9569 198.631,60.6236 198.5,61.5 Z"/></g>
<g><path style="opacity:1" fill="#55585d" d="M 230.5,50.5 C 232.028,51.8021 233.028,53.4687 233.5,55.5C 233.181,57.7505 233.681,59.7505 235,61.5C 237.596,56.4385 238.763,57.1052 238.5,63.5C 246.877,63.4382 255.043,63.4382 263,63.5C 263.333,62.8333 263.667,62.1667 264,61.5C 264.278,62.4158 264.778,63.0825 265.5,63.5C 263.571,66.8886 263.238,70.3886 264.5,74C 261.518,74.5672 258.685,74.0672 256,72.5C 254.092,72.7151 252.926,73.7151 252.5,75.5C 250.179,75.7711 248.179,75.1045 246.5,73.5C 244.24,74.9118 241.907,75.9118 239.5,76.5C 238.833,81.1667 238.167,85.8333 237.5,90.5C 234.302,91.0356 231.635,90.369 229.5,88.5C 230.495,76.011 230.829,63.3443 230.5,50.5 Z"/></g>
<g><path style="opacity:1" fill="#514335" d="M 207.5,61.5 C 203.583,69.6746 198.917,77.3412 193.5,84.5C 196.893,77.4667 200.226,70.4667 203.5,63.5C 204.467,62.1938 205.801,61.5271 207.5,61.5 Z"/></g>
<g><path style="opacity:1" fill="#705b34" d="M 228.5,49.5 C 229.495,62.3226 229.829,75.3226 229.5,88.5C 231.635,90.369 234.302,91.0356 237.5,90.5C 237.5,90.8333 237.5,91.1667 237.5,91.5C 234.5,91.5 231.5,91.5 228.5,91.5C 228.5,77.5 228.5,63.5 228.5,49.5 Z"/></g>
<g><path style="opacity:1" fill="#484b4d" d="M 198.5,61.5 C 200.698,61.1201 202.365,61.7868 203.5,63.5C 200.226,70.4667 196.893,77.4667 193.5,84.5C 193.5,85.1667 193.167,85.5 192.5,85.5C 191.5,85.5 190.5,85.5 189.5,85.5C 189.769,87.4286 189.269,89.0953 188,90.5C 187.825,85.9805 187.325,81.6472 186.5,77.5C 186.167,77.5 185.833,77.5 185.5,77.5C 185.598,74.7524 184.598,74.0857 182.5,75.5C 174.146,75.4272 165.812,75.7605 157.5,76.5C 155.374,74.4534 152.708,73.4534 149.5,73.5C 147.5,73.8333 145.5,74.1667 143.5,74.5C 145.973,78.2527 145.64,81.9194 142.5,85.5C 141.509,81.5546 141.176,77.5546 141.5,73.5C 140.5,73.5 139.5,73.5 138.5,73.5C 138.5,74.5 138.5,75.5 138.5,76.5C 137.609,75.8902 136.609,75.5569 135.5,75.5C 126.053,75.66 116.719,74.9934 107.5,73.5C 107.842,72.6618 108.508,72.3284 109.5,72.5C 128.167,72.5 146.833,72.5 165.5,72.5C 165.5,71.5 165.5,70.5 165.5,69.5C 165.834,67.4553 166.168,65.7886 166.5,64.5C 175.118,65.6374 183.785,65.8041 192.5,65C 193.916,62.7355 195.916,61.5688 198.5,61.5 Z"/></g>
<g><path style="opacity:1" fill="#d0d0d0" d="M 164.5,69.5 C 164.833,69.5 165.167,69.5 165.5,69.5C 165.5,70.5 165.5,71.5 165.5,72.5C 146.833,72.5 128.167,72.5 109.5,72.5C 128.023,72.1626 146.356,71.1626 164.5,69.5 Z"/></g>
<g><path style="opacity:1" fill="#5f4e35" d="M 212.5,66.5 C 210.417,72.9536 207.084,78.6203 202.5,83.5C 204.522,78.2708 207.022,73.2708 210,68.5C 210.708,67.6195 211.542,66.9528 212.5,66.5 Z"/></g>
<g><path style="opacity:1" fill="#cbcccc" d="M 266.5,66.5 C 266.5,68.1667 266.5,69.8333 266.5,71.5C 312.336,71.1679 358.003,71.5012 403.5,72.5C 357.5,72.5 311.5,72.5 265.5,72.5C 265.205,70.2646 265.539,68.2646 266.5,66.5 Z"/></g>
<g><path style="opacity:1" fill="#4b5056" d="M 444.5,73.5 C 437.054,75.1533 429.388,76.1533 421.5,76.5C 419.606,77.0476 417.94,78.0476 416.5,79.5C 415.824,78.3984 415.158,77.3984 414.5,76.5C 415.987,75.1964 417.654,74.0298 419.5,73C 428.01,72.1768 436.344,72.3434 444.5,73.5 Z"/></g>
<g><path style="opacity:1" fill="#4d4845" d="M 107.5,73.5 C 116.719,74.9934 126.053,75.66 135.5,75.5C 131.833,76.1667 128.167,76.8333 124.5,77.5C 118.642,77.1778 112.975,77.5111 107.5,78.5C 105.833,78.5 104.167,78.5 102.5,78.5C 102.5,79.8333 102.5,81.1667 102.5,82.5C 101.85,82.1961 101.183,81.8627 100.5,81.5C 99.8281,82.9492 99.1614,84.2825 98.5,85.5C 98.573,83.9731 97.9063,82.9731 96.5,82.5C 96.5,81.8333 96.1667,81.5 95.5,81.5C 94.3065,80.7281 93.3065,79.7281 92.5,78.5C 92.3893,77.8826 92.056,77.3826 91.5,77C 82.8333,76.3333 74.1667,76.3333 65.5,77C 62.1794,77.9705 60.5127,80.1372 60.5,83.5C 60.5,91.8333 60.5,100.167 60.5,108.5C 59.8334,100.99 59.1667,93.3229 58.5,85.5C 57.8333,100.661 57.1667,115.661 56.5,130.5C 56.5,112.833 56.5,95.1667 56.5,77.5C 46.1667,77.5 35.8333,77.5 25.5,77.5C 24.448,77.3505 23.448,77.5172 22.5,78C 20.9625,79.7073 19.2959,81.2073 17.5,82.5C 16.8423,83.3984 16.1757,84.3984 15.5,85.5C 14.5027,92.8032 14.1694,100.137 14.5,107.5C 13.3434,99.3437 13.1768,91.0104 14,82.5C 16.5,78.6667 19.6667,75.5 23.5,73C 46.1667,72.3333 68.8333,72.3333 91.5,73C 95.0469,73.737 97.8802,75.5703 100,78.5C 101.857,75.8002 104.357,74.1335 107.5,73.5 Z"/></g>
<g><path style="opacity:1" fill="#4c4e4f" d="M 265.5,63.5 C 266.338,63.8417 266.672,64.5084 266.5,65.5C 266.5,65.8333 266.5,66.1667 266.5,66.5C 265.539,68.2646 265.205,70.2646 265.5,72.5C 311.5,72.5 357.5,72.5 403.5,72.5C 406.503,73.6662 409.17,75.3328 411.5,77.5C 413.385,79.0532 414.385,81.0532 414.5,83.5C 413.186,91.9318 413.186,100.265 414.5,108.5C 415.167,108.5 415.5,108.833 415.5,109.5C 415.5,109.833 415.5,110.167 415.5,110.5C 414.883,110.389 414.383,110.056 414,109.5C 413.503,111.81 413.337,114.143 413.5,116.5C 411.167,116.5 408.833,116.5 406.5,116.5C 403.615,116.806 400.948,116.473 398.5,115.5C 402.767,115.797 406.934,115.464 411,114.5C 411.824,104.991 411.658,95.6575 410.5,86.5C 410.371,84.7839 410.038,83.1172 409.5,81.5C 408.746,78.909 407.079,77.0757 404.5,76C 391.993,75.1735 379.66,75.3401 367.5,76.5C 364.68,76.2475 362.014,76.7475 359.5,78C 357.963,79.1096 357.297,80.6096 357.5,82.5C 356.069,82.8807 355.236,83.8807 355,85.5C 354.178,93.3446 354.344,101.011 355.5,108.5C 354.791,109.404 353.791,109.737 352.5,109.5C 351.5,109.5 350.5,109.5 349.5,109.5C 349.5,98.8333 349.5,88.1667 349.5,77.5C 349.372,75.9102 348.705,74.5769 347.5,73.5C 344.082,75.1519 340.415,75.9853 336.5,76C 334.327,78.6975 333.994,81.5308 335.5,84.5C 335.5,92.5 335.5,100.5 335.5,108.5C 332.167,108.5 328.833,108.5 325.5,108.5C 325.815,104.629 325.482,100.962 324.5,97.5C 324.5,90.8333 324.5,84.1667 324.5,77.5C 320.167,77.5 315.833,77.5 311.5,77.5C 311.167,77.5 310.833,77.5 310.5,77.5C 308.952,77.8212 308.285,78.8212 308.5,80.5C 307.5,80.5 306.5,80.5 305.5,80.5C 304.952,77.9162 303.285,76.9162 300.5,77.5C 291.682,76.5067 282.682,76.1734 273.5,76.5C 266.687,75.5088 259.687,75.1755 252.5,75.5C 252.926,73.7151 254.092,72.7151 256,72.5C 258.685,74.0672 261.518,74.5672 264.5,74C 263.238,70.3886 263.571,66.8886 265.5,63.5 Z"/></g>
<g><path style="opacity:1" fill="#4f413a" d="M 182.5,75.5 C 178.833,76.1667 175.167,76.8333 171.5,77.5C 166.833,77.5 162.167,77.5 157.5,77.5C 157.5,77.1667 157.5,76.8333 157.5,76.5C 165.812,75.7605 174.146,75.4272 182.5,75.5 Z"/></g>
<g><path style="opacity:1" fill="#dda349" d="M 213.5,54.5 C 213.039,56.5504 212.372,58.5504 211.5,60.5C 212.628,61.2621 213.795,61.9288 215,62.5C 215.498,65.4816 215.665,68.4816 215.5,71.5C 215.167,71.5 214.833,71.5 214.5,71.5C 214.664,68.8127 214.497,66.146 214,63.5C 212.961,64.2438 212.461,65.2438 212.5,66.5C 211.542,66.9528 210.708,67.6195 210,68.5C 207.022,73.2708 204.522,78.2708 202.5,83.5C 200.127,85.5792 198.794,88.2459 198.5,91.5C 198.131,88.5363 198.131,85.5363 198.5,82.5C 195.797,86.1975 192.797,89.5309 189.5,92.5C 190.242,90.0202 191.242,87.6869 192.5,85.5C 193.167,85.5 193.5,85.1667 193.5,84.5C 198.917,77.3412 203.583,69.6746 207.5,61.5C 209.737,59.3529 211.737,57.0196 213.5,54.5 Z"/></g>
<g><path style="opacity:1" fill="#434346" d="M 212.5,66.5 C 213.492,74.3159 213.826,82.3159 213.5,90.5C 209.167,90.5 204.833,90.5 200.5,90.5C 201.167,88.1667 201.833,85.8333 202.5,83.5C 207.084,78.6203 210.417,72.9536 212.5,66.5 Z"/></g>
<g><path style="opacity:1" fill="#544c32" d="M 252.5,75.5 C 259.687,75.1755 266.687,75.5088 273.5,76.5C 262.167,76.5 250.833,76.5 239.5,76.5C 241.907,75.9118 244.24,74.9118 246.5,73.5C 248.179,75.1045 250.179,75.7711 252.5,75.5 Z"/></g>
<g><path style="opacity:1" fill="#594120" d="M 135.5,75.5 C 136.609,75.5569 137.609,75.8902 138.5,76.5C 138.5,76.8333 138.5,77.1667 138.5,77.5C 133.833,77.5 129.167,77.5 124.5,77.5C 128.167,76.8333 131.833,76.1667 135.5,75.5 Z"/></g>
<g><path style="opacity:1" fill="#564122" d="M 185.5,77.5 C 180.833,77.5 176.167,77.5 171.5,77.5C 175.167,76.8333 178.833,76.1667 182.5,75.5C 184.598,74.0857 185.598,74.7524 185.5,77.5 Z"/></g>
<g><path style="opacity:1" fill="#826734" d="M 239.5,76.5 C 250.833,76.5 262.167,76.5 273.5,76.5C 282.682,76.1734 291.682,76.5067 300.5,77.5C 296.167,77.5 291.833,77.5 287.5,77.5C 271.833,77.5 256.167,77.5 240.5,77.5C 240.162,81.1507 241.828,82.8174 245.5,82.5C 245.5,82.8333 245.5,83.1667 245.5,83.5C 245.5,93.8333 245.5,104.167 245.5,114.5C 249.5,114.5 253.5,114.5 257.5,114.5C 253.366,115.485 249.032,115.818 244.5,115.5C 244.5,104.833 244.5,94.1667 244.5,83.5C 242.833,83.5 241.167,83.5 239.5,83.5C 239.5,81.1667 239.5,78.8333 239.5,76.5 Z"/></g>
<g><path style="opacity:1" fill="#5d5436" d="M 349.5,77.5 C 349.167,77.5 348.833,77.5 348.5,77.5C 344.298,77.1832 340.298,77.5166 336.5,78.5C 335.539,80.2646 335.205,82.2646 335.5,84.5C 333.994,81.5308 334.327,78.6975 336.5,76C 340.415,75.9853 344.082,75.1519 347.5,73.5C 348.705,74.5769 349.372,75.9102 349.5,77.5 Z"/></g>
<g><path style="opacity:1" fill="#5a4c32" d="M 414.5,76.5 C 415.158,77.3984 415.824,78.3984 416.5,79.5C 417.94,78.0476 419.606,77.0476 421.5,76.5C 429.352,76.1746 437.018,76.508 444.5,77.5C 436.493,77.3336 428.493,77.5003 420.5,78C 418.234,79.4264 416.568,81.2598 415.5,83.5C 415.167,83.5 414.833,83.5 414.5,83.5C 414.385,81.0532 413.385,79.0532 411.5,77.5C 412.609,77.4431 413.609,77.1098 414.5,76.5 Z"/></g>
<g><path style="opacity:1" fill="#4f3c25" d="M 92.5,78.5 C 83.7048,77.2115 75.0382,77.2115 66.5,78.5C 63.8851,79.4499 61.8851,81.1165 60.5,83.5C 60.5127,80.1372 62.1794,77.9705 65.5,77C 74.1667,76.3333 82.8333,76.3333 91.5,77C 92.056,77.3826 92.3893,77.8826 92.5,78.5 Z"/></g>
<g><path style="opacity:1" fill="#ba8946" d="M 66.5,78.5 C 75.0382,77.2115 83.7048,77.2115 92.5,78.5C 93.3065,79.7281 94.3065,80.7281 95.5,81.5C 93.7839,81.3713 92.1172,81.038 90.5,80.5C 88.5615,78.8372 86.2282,78.1706 83.5,78.5C 79.5,78.5 75.5,78.5 71.5,78.5C 69.8333,78.5 68.1667,78.5 66.5,78.5 Z"/></g>
<g><path style="opacity:1" fill="#c29047" d="M 124.5,77.5 C 129.167,77.5 133.833,77.5 138.5,77.5C 138.5,88.5 138.5,99.5 138.5,110.5C 137.506,100.013 137.172,89.3464 137.5,78.5C 127.81,78.1682 118.144,78.5016 108.5,79.5C 108.291,80.086 107.957,80.586 107.5,81C 114.013,81.1721 120.347,81.6721 126.5,82.5C 119.137,82.8306 111.803,82.4973 104.5,81.5C 105.34,80.265 106.34,79.265 107.5,78.5C 112.975,77.5111 118.642,77.1778 124.5,77.5 Z"/></g>
<g><path style="opacity:1" fill="#ae8542" d="M 155.5,78.5 C 155.5,78.1667 155.5,77.8333 155.5,77.5C 156.167,77.5 156.833,77.5 157.5,77.5C 162.167,77.5 166.833,77.5 171.5,77.5C 176.167,77.5 180.833,77.5 185.5,77.5C 185.833,77.5 186.167,77.5 186.5,77.5C 186.818,82.0323 186.485,86.3656 185.5,90.5C 185.5,90.1667 185.5,89.8333 185.5,89.5C 185.5,85.8333 185.5,82.1667 185.5,78.5C 175.5,78.5 165.5,78.5 155.5,78.5 Z"/></g>
<g><path style="opacity:1" fill="#6f532c" d="M 214.5,71.5 C 214.5,78.1667 214.5,84.8333 214.5,91.5C 209.167,91.5 203.833,91.5 198.5,91.5C 198.794,88.2459 200.127,85.5792 202.5,83.5C 201.833,85.8333 201.167,88.1667 200.5,90.5C 204.833,90.5 209.167,90.5 213.5,90.5C 213.826,82.3159 213.492,74.3159 212.5,66.5C 212.461,65.2438 212.961,64.2438 214,63.5C 214.497,66.146 214.664,68.8127 214.5,71.5 Z"/></g>
<g><path style="opacity:1" fill="#deb05b" d="M 287.5,77.5 C 279.016,78.493 270.349,78.8264 261.5,78.5C 256.167,78.5 250.833,78.5 245.5,78.5C 245.5,79.8333 245.5,81.1667 245.5,82.5C 241.828,82.8174 240.162,81.1507 240.5,77.5C 256.167,77.5 271.833,77.5 287.5,77.5 Z"/></g>
<g><path style="opacity:1" fill="#6c5d34" d="M 300.5,77.5 C 303.285,76.9162 304.952,77.9162 305.5,80.5C 305.167,80.5 304.833,80.5 304.5,80.5C 304.167,80.5 303.833,80.5 303.5,80.5C 302.694,79.2719 301.694,78.2719 300.5,77.5 Z"/></g>
<g><path style="opacity:1" fill="#c4a054" d="M 368.5,77.5 C 377.167,77.5 385.833,77.5 394.5,77.5C 394.5,80.8333 394.5,84.1667 394.5,87.5C 390.5,87.5 386.5,87.5 382.5,87.5C 382.5,85.8333 382.5,84.1667 382.5,82.5C 383.434,83.5676 383.768,84.901 383.5,86.5C 386.833,86.5 390.167,86.5 393.5,86.5C 393.5,83.8333 393.5,81.1667 393.5,78.5C 384.827,78.3336 376.16,78.5002 367.5,79C 360.288,80.047 356.954,84.2137 357.5,91.5C 357.167,91.5 356.833,91.5 356.5,91.5C 356.368,88.4299 356.701,85.4299 357.5,82.5C 360.281,78.9437 363.948,77.2771 368.5,77.5 Z"/></g>
<g><path style="opacity:1" fill="#554826" d="M 367.5,76.5 C 368.167,76.5 368.5,76.8333 368.5,77.5C 363.948,77.2771 360.281,78.9437 357.5,82.5C 357.297,80.6096 357.963,79.1096 359.5,78C 362.014,76.7475 364.68,76.2475 367.5,76.5 Z"/></g>
<g><path style="opacity:1" fill="#61523e" d="M 367.5,76.5 C 379.66,75.3401 391.993,75.1735 404.5,76C 407.079,77.0757 408.746,78.909 409.5,81.5C 408.833,81.5 408.167,81.5 407.5,81.5C 405.36,78.3875 402.36,77.0541 398.5,77.5C 398.5,90.1667 398.5,102.833 398.5,115.5C 397.833,115.5 397.5,115.167 397.5,114.5C 397.5,105.5 397.5,96.5 397.5,87.5C 397.631,86.6236 397.298,85.9569 396.5,85.5C 395.818,86.2427 395.151,86.9094 394.5,87.5C 394.5,84.1667 394.5,80.8333 394.5,77.5C 385.833,77.5 377.167,77.5 368.5,77.5C 368.5,76.8333 368.167,76.5 367.5,76.5 Z"/></g>
<g><path style="opacity:1" fill="#c8a357" d="M 348.5,77.5 C 348.5,77.8333 348.5,78.1667 348.5,78.5C 344.833,78.5 341.167,78.5 337.5,78.5C 337.828,89.0135 337.494,99.3468 336.5,109.5C 336.5,99.1667 336.5,88.8333 336.5,78.5C 340.298,77.5166 344.298,77.1832 348.5,77.5 Z"/></g>
<g><path style="opacity:1" fill="#e4b04d" d="M 444.5,77.5 C 444.973,78.9063 445.973,79.573 447.5,79.5C 448.864,81.1911 450.197,82.8577 451.5,84.5C 451.5,86.5 451.5,88.5 451.5,90.5C 447.5,90.5 443.5,90.5 439.5,90.5C 439.5,87.8333 439.5,85.1667 439.5,82.5C 435.167,82.5 430.833,82.5 426.5,82.5C 426.5,92.1667 426.5,101.833 426.5,111.5C 424.688,102.219 423.855,92.5519 424,82.5C 423.439,81.9781 422.772,81.6448 422,81.5C 419.953,82.6094 417.787,83.2761 415.5,83.5C 416.568,81.2598 418.234,79.4264 420.5,78C 428.493,77.5003 436.493,77.3336 444.5,77.5 Z"/></g>
<g><path style="opacity:1" fill="#675732" d="M 447.5,79.5 C 450.297,79.9666 451.631,81.6333 451.5,84.5C 450.197,82.8577 448.864,81.1911 447.5,79.5 Z"/></g>
<g><path style="opacity:1" fill="#efb448" d="M 382.5,82.5 C 381.737,81.7321 380.737,81.2321 379.5,81C 379.833,80.6667 380.167,80.3333 380.5,80C 375.888,78.9222 371.722,79.7556 368,82.5C 367.963,86.0889 367.13,89.4222 365.5,92.5C 364.667,92.8333 363.833,93.1667 363,93.5C 361.061,93.0457 359.228,92.379 357.5,91.5C 356.954,84.2137 360.288,80.047 367.5,79C 376.16,78.5002 384.827,78.3336 393.5,78.5C 393.5,81.1667 393.5,83.8333 393.5,86.5C 390.167,86.5 386.833,86.5 383.5,86.5C 383.768,84.901 383.434,83.5676 382.5,82.5 Z"/></g>
<g><path style="opacity:1" fill="#735636" d="M 107.5,78.5 C 106.34,79.265 105.34,80.265 104.5,81.5C 111.803,82.4973 119.137,82.8306 126.5,82.5C 126.5,85.5 126.5,88.5 126.5,91.5C 120.5,91.5 114.5,91.5 108.5,91.5C 113.975,90.5111 119.642,90.1778 125.5,90.5C 126.01,87.6122 125.344,85.2789 123.5,83.5C 117.5,83.5 111.5,83.5 105.5,83.5C 104.391,83.4431 103.391,83.1098 102.5,82.5C 102.5,81.1667 102.5,79.8333 102.5,78.5C 104.167,78.5 105.833,78.5 107.5,78.5 Z"/></g>
<g><path style="opacity:1" fill="#3f453d" d="M 105.5,83.5 C 111.5,83.5 117.5,83.5 123.5,83.5C 124.15,85.4352 124.483,87.4352 124.5,89.5C 122.833,89.5 121.167,89.5 119.5,89.5C 120.718,88.8386 122.051,88.1719 123.5,87.5C 118.166,86.0975 112.833,85.7641 107.5,86.5C 108.947,87.9348 110.614,88.9348 112.5,89.5C 110.5,89.5 108.5,89.5 106.5,89.5C 106.483,87.4352 106.15,85.4352 105.5,83.5 Z"/></g>
<g><path style="opacity:1" fill="#f1b247" d="M 348.5,108.5 C 349.183,110.176 350.517,110.843 352.5,110.5C 351.571,111.315 350.571,112.148 349.5,113C 344.467,113.829 339.467,113.662 334.5,112.5C 336.672,111.795 338.672,110.795 340.5,109.5C 338.559,99.6915 337.893,89.6915 338.5,79.5C 341.167,79.5 343.833,79.5 346.5,79.5C 345.86,89.5578 346.527,99.2245 348.5,108.5 Z"/></g>
<g><path style="opacity:1" fill="#eeb248" d="M 407.5,81.5 C 408.167,81.5 408.833,81.5 409.5,81.5C 410.038,83.1172 410.371,84.7839 410.5,86.5C 410.68,95.5281 410.347,104.528 409.5,113.5C 406.167,113.5 402.833,113.5 399.5,113.5C 399.333,102.495 399.5,91.495 400,80.5C 400.561,79.9781 401.228,79.6448 402,79.5C 403.8,80.3195 405.634,80.9862 407.5,81.5 Z"/></g>
<g><path style="opacity:1" fill="#67542a" d="M 310.5,77.5 C 310.833,77.5 311.167,77.5 311.5,77.5C 311.172,88.0135 311.506,98.3468 312.5,108.5C 312.833,109.167 313.167,109.833 313.5,110.5C 313.5,110.833 313.5,111.167 313.5,111.5C 312.833,111.5 312.167,111.5 311.5,111.5C 310.833,100.863 310.167,90.1964 309.5,79.5C 309.863,78.8165 310.196,78.1499 310.5,77.5 Z"/></g>
<g><path style="opacity:1" fill="#6f5936" d="M 382.5,82.5 C 382.5,84.1667 382.5,85.8333 382.5,87.5C 386.5,87.5 390.5,87.5 394.5,87.5C 393.789,89.8418 392.456,90.1751 390.5,88.5C 388.833,88.5 387.167,88.5 385.5,88.5C 384.167,88.5 382.833,88.5 381.5,88.5C 381.5,86.8333 381.5,85.1667 381.5,83.5C 380.5,83.5 379.5,83.5 378.5,83.5C 375.833,83.5 373.167,83.5 370.5,83.5C 370.5,86.1667 370.5,88.8333 370.5,91.5C 372.167,91.5 373.833,91.5 375.5,91.5C 376.209,92.404 377.209,92.7373 378.5,92.5C 382.329,91.931 385.663,92.5977 388.5,94.5C 382.225,93.582 375.892,93.2487 369.5,93.5C 369.5,89.8333 369.5,86.1667 369.5,82.5C 373.833,82.5 378.167,82.5 382.5,82.5 Z"/></g>
<g><path style="opacity:1" fill="#4d4f56" d="M 378.5,83.5 C 378.762,84.9778 378.429,86.3112 377.5,87.5C 376.28,86.2889 375.113,86.2889 374,87.5C 373.472,88.816 373.972,89.4827 375.5,89.5C 375.5,90.1667 375.5,90.8333 375.5,91.5C 373.833,91.5 372.167,91.5 370.5,91.5C 370.5,88.8333 370.5,86.1667 370.5,83.5C 373.167,83.5 375.833,83.5 378.5,83.5 Z"/></g>
<g><path style="opacity:1" fill="#de9f48" d="M 66.5,78.5 C 68.1667,78.5 69.8333,78.5 71.5,78.5C 70.3915,79.29 69.0581,79.79 67.5,80C 66.2192,82.4033 64.3858,84.2367 62,85.5C 61.3333,92.8333 61.3333,100.167 62,107.5C 63,106.5 64,105.5 65,104.5C 65.3333,98.5 65.6667,92.5 66,86.5C 65.734,89.9008 67.234,91.5674 70.5,91.5C 70.3359,88.8127 70.5026,86.146 71,83.5C 71.3826,82.944 71.8826,82.6107 72.5,82.5C 76.1667,81.1667 79.8333,79.8333 83.5,78.5C 86.2282,78.1706 88.5615,78.8372 90.5,80.5C 88.8467,81.6045 87.18,81.7712 85.5,81C 86.6872,82.0195 87.6872,83.1861 88.5,84.5C 87.5888,88.788 86.9221,93.1214 86.5,97.5C 90.1667,97.5 93.8333,97.5 97.5,97.5C 97.5,97.8333 97.5,98.1667 97.5,98.5C 89.1667,98.5 80.8333,98.5 72.5,98.5C 72.5,102.167 72.5,105.833 72.5,109.5C 72.5,109.833 72.5,110.167 72.5,110.5C 71.325,110.719 70.325,110.386 69.5,109.5C 70.5999,105.558 70.7666,101.558 70,97.5C 67.355,96.2916 66.1884,97.2916 66.5,100.5C 67.8527,103.392 67.186,105.892 64.5,108C 65.1667,108.333 65.8333,108.667 66.5,109C 65.1667,110.333 65.1667,111.667 66.5,113C 74.1667,113.667 81.8333,113.667 89.5,113C 90.9663,112.365 92.2997,111.531 93.5,110.5C 94.7112,109.726 94.7112,108.893 93.5,108C 94.1667,107.667 94.8333,107.333 95.5,107C 93.1667,106.333 90.8333,106.333 88.5,107C 89.694,109.658 88.694,110.824 85.5,110.5C 85.5,108.833 85.5,107.167 85.5,105.5C 89.1667,105.5 92.8333,105.5 96.5,105.5C 96.5,106.5 96.5,107.5 96.5,108.5C 95.7515,110.332 94.7515,111.999 93.5,113.5C 84.214,114.613 74.8807,114.78 65.5,114C 63.5981,112.27 61.9314,110.437 60.5,108.5C 60.5,100.167 60.5,91.8333 60.5,83.5C 61.8851,81.1165 63.8851,79.4499 66.5,78.5 Z"/></g>
<g><path style="opacity:1" fill="#eca23f" d="M 71.5,78.5 C 75.5,78.5 79.5,78.5 83.5,78.5C 79.8333,79.8333 76.1667,81.1667 72.5,82.5C 71.8826,82.6107 71.3826,82.944 71,83.5C 70.5026,86.146 70.3359,88.8127 70.5,91.5C 67.234,91.5674 65.734,89.9008 66,86.5C 65.6667,92.5 65.3333,98.5 65,104.5C 64,105.5 63,106.5 62,107.5C 61.3333,100.167 61.3333,92.8333 62,85.5C 64.3858,84.2367 66.2192,82.4033 67.5,80C 69.0581,79.79 70.3915,79.29 71.5,78.5 Z"/></g>
<g><path style="opacity:1" fill="#745d44" d="M 72.5,82.5 C 76.5,82.5 80.5,82.5 84.5,82.5C 84.5,82.8333 84.5,83.1667 84.5,83.5C 80.8333,83.5 77.1667,83.5 73.5,83.5C 73.5,86.5 73.5,89.5 73.5,92.5C 73.1667,92.5 72.8333,92.5 72.5,92.5C 72.5,89.1667 72.5,85.8333 72.5,82.5 Z"/></g>
<g><path style="opacity:1" fill="#eba142" d="M 90.5,80.5 C 92.1172,81.038 93.7839,81.3713 95.5,81.5C 96.1667,81.5 96.5,81.8333 96.5,82.5C 97.3924,87.4376 97.7257,92.4376 97.5,97.5C 93.8333,97.5 90.1667,97.5 86.5,97.5C 86.9221,93.1214 87.5888,88.788 88.5,84.5C 87.6872,83.1861 86.6872,82.0195 85.5,81C 87.18,81.7712 88.8467,81.6045 90.5,80.5 Z"/></g>
<g><path style="opacity:1" fill="#eca242" d="M 155.5,78.5 C 165.5,78.5 175.5,78.5 185.5,78.5C 185.5,82.1667 185.5,85.8333 185.5,89.5C 181.833,89.5 178.167,89.5 174.5,89.5C 174.5,87.5 174.5,85.5 174.5,83.5C 177.598,83.5875 177.932,83.0875 175.5,82C 170.316,81.1837 165.316,81.3503 160.5,82.5C 159.522,82.811 158.855,83.4777 158.5,84.5C 159.474,94.1135 159.808,103.78 159.5,113.5C 156.5,113.5 153.5,113.5 150.5,113.5C 150.334,104.161 150.5,94.8274 151,85.5C 152.015,82.8978 153.848,81.0645 156.5,80C 155.944,79.6174 155.611,79.1174 155.5,78.5 Z"/></g>
<g><path style="opacity:1" fill="#957342" d="M 160.5,82.5 C 165.032,82.1818 169.366,82.5151 173.5,83.5C 169.5,83.5 165.5,83.5 161.5,83.5C 161.828,94.0135 161.494,104.347 160.5,114.5C 160.5,103.833 160.5,93.1667 160.5,82.5 Z"/></g>
<g><path style="opacity:1" fill="#e8a242" d="M 214.5,71.5 C 214.833,71.5 215.167,71.5 215.5,71.5C 218.842,74.2676 222.342,76.9343 226,79.5C 226.186,76.9644 226.686,74.631 227.5,72.5C 227.177,79.0221 227.51,85.3554 228.5,91.5C 231.5,91.5 234.5,91.5 237.5,91.5C 237.802,94.0593 237.468,96.3926 236.5,98.5C 233.833,98.5 231.167,98.5 228.5,98.5C 228.183,102.702 228.517,106.702 229.5,110.5C 230.919,111.451 232.585,111.784 234.5,111.5C 234.5,112.5 234.5,113.5 234.5,114.5C 225.475,114.832 216.475,114.498 207.5,113.5C 208.947,112.065 210.614,111.065 212.5,110.5C 213.167,110.5 213.5,110.167 213.5,109.5C 214.482,106.038 214.815,102.371 214.5,98.5C 206.677,97.6708 198.677,97.1708 190.5,97C 189.62,95.6439 189.286,94.1439 189.5,92.5C 192.797,89.5309 195.797,86.1975 198.5,82.5C 198.131,85.5363 198.131,88.5363 198.5,91.5C 203.833,91.5 209.167,91.5 214.5,91.5C 214.5,84.8333 214.5,78.1667 214.5,71.5 Z"/></g>
<g><path style="opacity:1" fill="#efb246" d="M 261.5,78.5 C 261.5,79.5 261.5,80.5 261.5,81.5C 259.901,81.2322 258.568,81.5655 257.5,82.5C 256.506,92.6532 256.172,102.986 256.5,113.5C 253.167,113.5 249.833,113.5 246.5,113.5C 246.827,103.319 246.494,93.3194 245.5,83.5C 245.5,83.1667 245.5,82.8333 245.5,82.5C 245.5,81.1667 245.5,79.8333 245.5,78.5C 250.833,78.5 256.167,78.5 261.5,78.5 Z"/></g>
<g><path style="opacity:1" fill="#f0b346" d="M 281.5,110.5 C 281.5,111.5 281.5,112.5 281.5,113.5C 278.167,113.5 274.833,113.5 271.5,113.5C 271.827,103.319 271.494,93.3194 270.5,83.5C 270.5,83.1667 270.5,82.8333 270.5,82.5C 270.351,81.448 270.517,80.448 271,79.5C 274.409,79.4145 277.909,79.7479 281.5,80.5C 280.181,90.628 280.181,100.628 281.5,110.5 Z"/></g>
<g><path style="opacity:1" fill="#efb447" d="M 322.5,85.5 C 322.831,93.1955 322.497,100.862 321.5,108.5C 319.057,110.055 316.39,110.722 313.5,110.5C 313.167,109.833 312.833,109.167 312.5,108.5C 312.334,98.8276 312.5,89.1609 313,79.5C 316.057,78.5495 319.223,78.2161 322.5,78.5C 322.5,80.8333 322.5,83.1667 322.5,85.5 Z"/></g>
<g><path style="opacity:1" fill="#6e542f" d="M 336.5,78.5 C 336.5,88.8333 336.5,99.1667 336.5,109.5C 332.5,110.833 328.5,110.833 324.5,109.5C 328.371,109.815 332.038,109.482 335.5,108.5C 335.5,100.5 335.5,92.5 335.5,84.5C 335.205,82.2646 335.539,80.2646 336.5,78.5 Z"/></g>
<g><path style="opacity:1" fill="#eba243" d="M 25.5,78.5 C 35.5,78.5 45.5,78.5 55.5,78.5C 55.5,96.1667 55.5,113.833 55.5,131.5C 52.5,131.5 49.5,131.5 46.5,131.5C 45.7375,130.732 44.7375,130.232 43.5,130C 44.3366,128.989 44.67,127.822 44.5,126.5C 45.8333,126.5 47.1667,126.5 48.5,126.5C 48.5,125.5 48.5,124.5 48.5,123.5C 47.5,123.5 46.5,123.5 45.5,123.5C 45.4772,121.4 46.1439,119.567 47.5,118C 46.3625,106.197 45.0291,94.6973 43.5,83.5C 39.3656,82.5151 35.0323,82.1818 30.5,82.5C 30.1731,92.015 30.5064,101.348 31.5,110.5C 33.9479,111.473 36.6146,111.806 39.5,111.5C 37.777,112.8 35.6103,113.467 33,113.5C 30.8333,113.333 28.6667,113.167 26.5,113C 24.8542,111.179 22.8542,110.013 20.5,109.5C 19.8902,108.609 19.5569,107.609 19.5,106.5C 19.3337,99.1591 19.5003,91.8258 20,84.5C 22.0396,82.6298 23.8729,80.6298 25.5,78.5 Z"/></g>
<g><path style="opacity:1" fill="#79592d" d="M 43.5,83.5 C 43.5,92.8333 43.5,102.167 43.5,111.5C 42.1667,111.5 40.8333,111.5 39.5,111.5C 36.6146,111.806 33.9479,111.473 31.5,110.5C 30.5064,101.348 30.1731,92.015 30.5,82.5C 35.0323,82.1818 39.3656,82.5151 43.5,83.5 Z"/></g>
<g><path style="opacity:1" fill="#dea74c" d="M 155.5,78.5 C 155.611,79.1174 155.944,79.6174 156.5,80C 153.848,81.0645 152.015,82.8978 151,85.5C 150.5,94.8274 150.334,104.161 150.5,113.5C 153.5,113.5 156.5,113.5 159.5,113.5C 159.808,103.78 159.474,94.1135 158.5,84.5C 158.855,83.4777 159.522,82.811 160.5,82.5C 160.5,93.1667 160.5,103.833 160.5,114.5C 156.833,114.5 153.167,114.5 149.5,114.5C 149.5,104.833 149.5,95.1667 149.5,85.5C 150.054,81.9452 152.054,79.6118 155.5,78.5 Z"/></g>
<g><path style="opacity:1" fill="#efb447" d="M 303.5,80.5 C 303.833,80.5 304.167,80.5 304.5,80.5C 304.231,82.4286 304.731,84.0953 306,85.5C 306.5,95.1609 306.666,104.828 306.5,114.5C 303.167,114.5 299.833,114.5 296.5,114.5C 296.203,104.293 296.536,94.1267 297.5,84C 297.05,82.7147 296.383,81.548 295.5,80.5C 298.156,79.3855 300.823,79.3855 303.5,80.5 Z"/></g>
<g><path style="opacity:1" fill="#3e434c" d="M 119.5,89.5 C 117.167,89.5 114.833,89.5 112.5,89.5C 110.614,88.9348 108.947,87.9348 107.5,86.5C 112.833,85.7641 118.166,86.0975 123.5,87.5C 122.051,88.1719 120.718,88.8386 119.5,89.5 Z"/></g>
<g><path style="opacity:1" fill="#434036" d="M 186.5,77.5 C 187.325,81.6472 187.825,85.9805 188,90.5C 189.269,89.0953 189.769,87.4286 189.5,85.5C 190.5,85.5 191.5,85.5 192.5,85.5C 191.242,87.6869 190.242,90.0202 189.5,92.5C 188.566,93.5676 188.232,94.901 188.5,96.5C 186.824,95.8166 186.157,94.4832 186.5,92.5C 181.833,92.5 177.167,92.5 172.5,92.5C 172.5,90.1667 172.5,87.8333 172.5,85.5C 170.516,85.3832 168.85,86.0499 167.5,87.5C 166.914,87.2907 166.414,86.9574 166,86.5C 165.833,90.1667 165.667,93.8333 165.5,97.5C 165.571,101.687 166.238,105.687 167.5,109.5C 166.224,110.645 164.891,110.645 163.5,109.5C 162.526,111.743 162.192,114.076 162.5,116.5C 160.076,116.192 157.743,116.526 155.5,117.5C 156.853,118.524 157.52,119.857 157.5,121.5C 156.167,121.5 154.833,121.5 153.5,121.5C 153.5,119.833 153.5,118.167 153.5,116.5C 151.585,116.784 149.919,116.451 148.5,115.5C 152.702,115.817 156.702,115.483 160.5,114.5C 161.494,104.347 161.828,94.0135 161.5,83.5C 165.5,83.5 169.5,83.5 173.5,83.5C 173.5,85.8333 173.5,88.1667 173.5,90.5C 177.5,90.5 181.5,90.5 185.5,90.5C 186.485,86.3656 186.818,82.0323 186.5,77.5 Z"/></g>
<g><path style="opacity:1" fill="#504d44" d="M 378.5,83.5 C 379.5,83.5 380.5,83.5 381.5,83.5C 381.5,85.1667 381.5,86.8333 381.5,88.5C 382.833,88.5 384.167,88.5 385.5,88.5C 382.375,89.4794 379.042,89.8128 375.5,89.5C 373.972,89.4827 373.472,88.816 374,87.5C 375.113,86.2889 376.28,86.2889 377.5,87.5C 378.429,86.3112 378.762,84.9778 378.5,83.5 Z"/></g>
<g><path style="opacity:1" fill="#b28b4c" d="M 25.5,78.5 C 23.8729,80.6298 22.0396,82.6298 20,84.5C 19.5003,91.8258 19.3337,99.1591 19.5,106.5C 19.1667,106.5 18.8333,106.5 18.5,106.5C 18.5,105.167 18.5,103.833 18.5,102.5C 18.3338,96.1579 18.5005,89.8246 19,83.5C 20.7772,81.2101 22.9438,79.5434 25.5,78.5 Z"/></g>
<g><path style="opacity:1" fill="#41403c" d="M 84.5,83.5 C 84.5,86.5 84.5,89.5 84.5,92.5C 80.8333,92.5 77.1667,92.5 73.5,92.5C 73.5,89.5 73.5,86.5 73.5,83.5C 77.1667,83.5 80.8333,83.5 84.5,83.5 Z"/></g>
<g><path style="opacity:1" fill="#775430" d="M 96.5,82.5 C 97.9063,82.9731 98.573,83.9731 98.5,85.5C 98.5,89.5 98.5,93.5 98.5,97.5C 98.1667,97.5 97.8333,97.5 97.5,97.5C 97.7257,92.4376 97.3924,87.4376 96.5,82.5 Z"/></g>
<g><path style="opacity:1" fill="#473723" d="M 123.5,83.5 C 125.344,85.2789 126.01,87.6122 125.5,90.5C 119.642,90.1778 113.975,90.5111 108.5,91.5C 107.833,91.5 107.5,91.8333 107.5,92.5C 106.833,92.5 106.167,92.5 105.5,92.5C 106.11,91.609 106.443,90.609 106.5,89.5C 108.5,89.5 110.5,89.5 112.5,89.5C 114.833,89.5 117.167,89.5 119.5,89.5C 121.167,89.5 122.833,89.5 124.5,89.5C 124.483,87.4352 124.15,85.4352 123.5,83.5 Z"/></g>
<g><path style="opacity:1" fill="#d59e51" d="M 160.5,82.5 C 165.316,81.3503 170.316,81.1837 175.5,82C 177.932,83.0875 177.598,83.5875 174.5,83.5C 174.5,85.5 174.5,87.5 174.5,89.5C 178.167,89.5 181.833,89.5 185.5,89.5C 185.5,89.8333 185.5,90.1667 185.5,90.5C 181.5,90.5 177.5,90.5 173.5,90.5C 173.5,88.1667 173.5,85.8333 173.5,83.5C 169.366,82.5151 165.032,82.1818 160.5,82.5 Z"/></g>
<g><path style="opacity:1" fill="#4e465d" d="M 385.5,88.5 C 387.167,88.5 388.833,88.5 390.5,88.5C 389.571,89.3149 388.571,90.1482 387.5,91C 384.305,91.1805 381.305,91.6805 378.5,92.5C 377.209,92.7373 376.209,92.404 375.5,91.5C 375.5,90.8333 375.5,90.1667 375.5,89.5C 379.042,89.8128 382.375,89.4794 385.5,88.5 Z"/></g>
<g><path style="opacity:1" fill="#896d35" d="M 414.5,83.5 C 414.833,83.5 415.167,83.5 415.5,83.5C 414.56,91.7788 414.227,100.112 414.5,108.5C 413.186,100.265 413.186,91.9318 414.5,83.5 Z"/></g>
<g><path style="opacity:1" fill="#575047" d="M 444.5,73.5 C 449.663,74.662 453.329,77.662 455.5,82.5C 454.637,81.537 453.97,81.537 453.5,82.5C 456.799,90.4646 454.299,93.7979 446,92.5C 443.071,92.4752 440.571,91.8086 438.5,90.5C 438.833,90.5 439.167,90.5 439.5,90.5C 443.5,90.5 447.5,90.5 451.5,90.5C 451.5,88.5 451.5,86.5 451.5,84.5C 451.631,81.6333 450.297,79.9666 447.5,79.5C 445.973,79.573 444.973,78.9063 444.5,77.5C 437.018,76.508 429.352,76.1746 421.5,76.5C 429.388,76.1533 437.054,75.1533 444.5,73.5 Z"/></g>
<g><path style="opacity:1" fill="#e5b14d" d="M 287.5,77.5 C 291.833,77.5 296.167,77.5 300.5,77.5C 301.694,78.2719 302.694,79.2719 303.5,80.5C 300.823,79.3855 298.156,79.3855 295.5,80.5C 296.383,81.548 297.05,82.7147 297.5,84C 296.536,94.1267 296.203,104.293 296.5,114.5C 296.158,103.628 295.158,92.9609 293.5,82.5C 289.833,82.5 286.167,82.5 282.5,82.5C 281.506,91.6517 281.173,100.985 281.5,110.5C 280.181,100.628 280.181,90.628 281.5,80.5C 277.909,79.7479 274.409,79.4145 271,79.5C 270.517,80.448 270.351,81.448 270.5,82.5C 270.167,82.5 269.833,82.5 269.5,82.5C 265.5,82.5 261.5,82.5 257.5,82.5C 258.568,81.5655 259.901,81.2322 261.5,81.5C 261.5,80.5 261.5,79.5 261.5,78.5C 270.349,78.8264 279.016,78.493 287.5,77.5 Z"/></g>
<g><path style="opacity:1" fill="#c1a057" d="M 311.5,77.5 C 315.833,77.5 320.167,77.5 324.5,77.5C 324.5,84.1667 324.5,90.8333 324.5,97.5C 324.5,101.5 324.5,105.5 324.5,109.5C 323.833,101.5 323.167,93.5 322.5,85.5C 322.5,83.1667 322.5,80.8333 322.5,78.5C 319.223,78.2161 316.057,78.5495 313,79.5C 312.5,89.1609 312.334,98.8276 312.5,108.5C 311.506,98.3468 311.172,88.0135 311.5,77.5 Z"/></g>
<g><path style="opacity:1" fill="#4f3926" d="M 25.5,77.5 C 25.5,77.8333 25.5,78.1667 25.5,78.5C 22.9438,79.5434 20.7772,81.2101 19,83.5C 18.5005,89.8246 18.3338,96.1579 18.5,102.5C 17.5093,96.021 17.176,89.3543 17.5,82.5C 19.2959,81.2073 20.9625,79.7073 22.5,78C 23.448,77.5172 24.448,77.3505 25.5,77.5 Z"/></g>
<g><path style="opacity:1" fill="#a88043" d="M 25.5,78.5 C 25.5,78.1667 25.5,77.8333 25.5,77.5C 35.8333,77.5 46.1667,77.5 56.5,77.5C 56.5,95.1667 56.5,112.833 56.5,130.5C 56.6716,131.492 56.3382,132.158 55.5,132.5C 44.9865,132.828 34.6532,132.494 24.5,131.5C 31.8333,131.5 39.1667,131.5 46.5,131.5C 49.5,131.5 52.5,131.5 55.5,131.5C 55.5,113.833 55.5,96.1667 55.5,78.5C 45.5,78.5 35.5,78.5 25.5,78.5 Z"/></g>
<g><path style="opacity:1" fill="#b38b4c" d="M 149.5,85.5 C 149.5,95.1667 149.5,104.833 149.5,114.5C 153.167,114.5 156.833,114.5 160.5,114.5C 156.702,115.483 152.702,115.817 148.5,115.5C 148.173,105.319 148.506,95.3194 149.5,85.5 Z"/></g>
<g><path style="opacity:1" fill="#515146" d="M 282.5,82.5 C 286.167,82.5 289.833,82.5 293.5,82.5C 293.5,83.5 293.5,84.5 293.5,85.5C 292.508,92.9818 292.175,100.648 292.5,108.5C 291.5,108.5 290.5,108.5 289.5,108.5C 289.5,100.833 289.5,93.1667 289.5,85.5C 288.5,85.5 287.5,85.5 286.5,85.5C 286.5,93.1667 286.5,100.833 286.5,108.5C 284.821,108.285 283.821,108.952 283.5,110.5C 283.768,112.099 283.434,113.432 282.5,114.5C 282.5,103.833 282.5,93.1667 282.5,82.5 Z"/></g>
<g><path style="opacity:1" fill="#624d33" d="M 293.5,82.5 C 295.158,92.9609 296.158,103.628 296.5,114.5C 299.833,114.5 303.167,114.5 306.5,114.5C 306.5,114.833 306.5,115.167 306.5,115.5C 302.031,115.458 297.698,116.125 293.5,117.5C 293.5,106.833 293.5,96.1667 293.5,85.5C 293.5,84.5 293.5,83.5 293.5,82.5 Z"/></g>
<g><path style="opacity:1" fill="#e4b14e" d="M 382.5,82.5 C 378.167,82.5 373.833,82.5 369.5,82.5C 369.5,86.1667 369.5,89.8333 369.5,93.5C 375.892,93.2487 382.225,93.582 388.5,94.5C 388.5,94.8333 388.5,95.1667 388.5,95.5C 384.881,94.7564 381.215,94.423 377.5,94.5C 377.5,95.5 377.5,96.5 377.5,97.5C 373.167,97.5 368.833,97.5 364.5,97.5C 360.933,96.9321 358.599,94.9321 357.5,91.5C 359.228,92.379 361.061,93.0457 363,93.5C 363.833,93.1667 364.667,92.8333 365.5,92.5C 367.13,89.4222 367.963,86.0889 368,82.5C 371.722,79.7556 375.888,78.9222 380.5,80C 380.167,80.3333 379.833,80.6667 379.5,81C 380.737,81.2321 381.737,81.7321 382.5,82.5 Z"/></g>
<g><path style="opacity:1" fill="#715421" d="M 84.5,82.5 C 85.4816,85.9619 85.815,89.6286 85.5,93.5C 80.9677,93.8182 76.6344,93.4849 72.5,92.5C 72.8333,92.5 73.1667,92.5 73.5,92.5C 77.1667,92.5 80.8333,92.5 84.5,92.5C 84.5,89.5 84.5,86.5 84.5,83.5C 84.5,83.1667 84.5,82.8333 84.5,82.5 Z"/></g>
<g><path style="opacity:1" fill="#8e6f43" d="M 348.5,77.5 C 348.833,77.5 349.167,77.5 349.5,77.5C 349.5,88.1667 349.5,98.8333 349.5,109.5C 350.5,109.5 351.5,109.5 352.5,109.5C 352.5,109.833 352.5,110.167 352.5,110.5C 350.517,110.843 349.183,110.176 348.5,108.5C 348.5,98.5 348.5,88.5 348.5,78.5C 348.5,78.1667 348.5,77.8333 348.5,77.5 Z"/></g>
<g><path style="opacity:1" fill="#453e47" d="M 102.5,82.5 C 103.391,83.1098 104.391,83.4431 105.5,83.5C 106.15,85.4352 106.483,87.4352 106.5,89.5C 106.443,90.609 106.11,91.609 105.5,92.5C 103.656,90.7211 102.99,88.3878 103.5,85.5C 102.5,85.5 101.5,85.5 100.5,85.5C 100.5,89.5 100.5,93.5 100.5,97.5C 99.8333,97.5 99.1667,97.5 98.5,97.5C 98.5,93.5 98.5,89.5 98.5,85.5C 99.1614,84.2825 99.8281,82.9492 100.5,81.5C 101.183,81.8627 101.85,82.1961 102.5,82.5 Z"/></g>
<g><path style="opacity:1" fill="#eba242" d="M 138.5,110.5 C 139.167,110.5 139.833,110.5 140.5,110.5C 141.091,111.151 141.757,111.818 142.5,112.5C 136.833,113.833 131.167,113.833 125.5,112.5C 127.672,111.795 129.672,110.795 131.5,109.5C 130.675,108.614 129.675,108.281 128.5,108.5C 129.097,103.706 128.43,99.3727 126.5,95.5C 125.833,95.5 125.167,95.5 124.5,95.5C 120.366,94.5151 116.032,94.1818 111.5,94.5C 112.354,100.121 112.687,105.788 112.5,111.5C 110.533,111.261 108.699,111.594 107,112.5C 106.124,110.365 104.624,109.031 102.5,108.5C 101.205,102.066 102.872,96.7323 107.5,92.5C 107.5,91.8333 107.833,91.5 108.5,91.5C 114.5,91.5 120.5,91.5 126.5,91.5C 126.5,88.5 126.5,85.5 126.5,82.5C 120.347,81.6721 114.013,81.1721 107.5,81C 107.957,80.586 108.291,80.086 108.5,79.5C 118.144,78.5016 127.81,78.1682 137.5,78.5C 137.172,89.3464 137.506,100.013 138.5,110.5 Z"/></g>
<g><path style="opacity:1" fill="#564c42" d="M 310.5,77.5 C 310.196,78.1499 309.863,78.8165 309.5,79.5C 310.167,90.1964 310.833,100.863 311.5,111.5C 309.824,112.183 309.157,113.517 309.5,115.5C 310.5,115.5 311.5,115.5 312.5,115.5C 312.5,116.5 312.5,117.5 312.5,118.5C 309.287,118.19 306.287,118.523 303.5,119.5C 302.5,119.5 301.5,119.5 300.5,119.5C 300.196,118.85 299.863,118.183 299.5,117.5C 302.447,116.679 305.447,116.179 308.5,116C 307.906,115.536 307.239,115.369 306.5,115.5C 306.5,115.167 306.5,114.833 306.5,114.5C 307.659,104.342 307.825,94.0083 307,83.5C 306.487,82.4734 305.987,81.4734 305.5,80.5C 306.5,80.5 307.5,80.5 308.5,80.5C 308.285,78.8212 308.952,77.8212 310.5,77.5 Z"/></g>
<g><path style="opacity:1" fill="#484b54" d="M 397.5,87.5 C 397.135,92.0937 396.135,96.427 394.5,100.5C 394.265,96.6757 392.265,94.6757 388.5,94.5C 385.663,92.5977 382.329,91.931 378.5,92.5C 381.305,91.6805 384.305,91.1805 387.5,91C 388.571,90.1482 389.571,89.3149 390.5,88.5C 392.456,90.1751 393.789,89.8418 394.5,87.5C 395.151,86.9094 395.818,86.2427 396.5,85.5C 397.298,85.9569 397.631,86.6236 397.5,87.5 Z"/></g>
<g><path style="opacity:1" fill="#47484d" d="M 455.5,82.5 C 456.657,90.9901 456.824,99.6567 456,108.5C 455.722,109.416 455.222,110.082 454.5,110.5C 454.495,106.466 454.162,102.466 453.5,98.5C 448.821,98.3342 444.155,98.5008 439.5,99C 434.111,103.809 433.444,103.309 437.5,97.5C 437.167,97.1667 436.833,96.8333 436.5,96.5C 435.476,97.8532 434.143,98.5198 432.5,98.5C 431.889,104.793 431.056,104.46 430,97.5C 429.667,101.167 429.333,104.833 429,108.5C 428.5,100.507 428.334,92.5069 428.5,84.5C 431.5,84.5 434.5,84.5 437.5,84.5C 437.205,86.7354 437.539,88.7354 438.5,90.5C 440.571,91.8086 443.071,92.4752 446,92.5C 454.299,93.7979 456.799,90.4646 453.5,82.5C 453.97,81.537 454.637,81.537 455.5,82.5 Z"/></g>
<g><path style="opacity:1" fill="#836a3d" d="M 388.5,95.5 C 388.5,95.1667 388.5,94.8333 388.5,94.5C 392.265,94.6757 394.265,96.6757 394.5,100.5C 394.5,103.167 394.5,105.833 394.5,108.5C 394.167,108.5 393.833,108.5 393.5,108.5C 393.665,105.15 393.498,101.817 393,98.5C 391.871,96.8588 390.371,95.8588 388.5,95.5 Z"/></g>
<g><path style="opacity:1" fill="#eba240" d="M 72.5,110.5 C 76.8333,110.5 81.1667,110.5 85.5,110.5C 88.694,110.824 89.694,109.658 88.5,107C 90.8333,106.333 93.1667,106.333 95.5,107C 94.8333,107.333 94.1667,107.667 93.5,108C 94.7112,108.893 94.7112,109.726 93.5,110.5C 92.2997,111.531 90.9663,112.365 89.5,113C 81.8333,113.667 74.1667,113.667 66.5,113C 65.1667,111.667 65.1667,110.333 66.5,109C 65.8333,108.667 65.1667,108.333 64.5,108C 67.186,105.892 67.8527,103.392 66.5,100.5C 66.1884,97.2916 67.355,96.2916 70,97.5C 70.7666,101.558 70.5999,105.558 69.5,109.5C 70.325,110.386 71.325,110.719 72.5,110.5 Z"/></g>
<g><path style="opacity:1" fill="#d5b256" d="M 304.5,80.5 C 304.833,80.5 305.167,80.5 305.5,80.5C 305.987,81.4734 306.487,82.4734 307,83.5C 307.825,94.0083 307.659,104.342 306.5,114.5C 306.666,104.828 306.5,95.1609 306,85.5C 304.731,84.0953 304.231,82.4286 304.5,80.5 Z"/></g>
<g><path style="opacity:1" fill="#4e444f" d="M 357.5,82.5 C 356.701,85.4299 356.368,88.4299 356.5,91.5C 357.605,93.7131 357.605,95.8797 356.5,98C 358.81,98.4966 361.143,98.6633 363.5,98.5C 361.721,100.344 359.388,101.01 356.5,100.5C 356.5,101.833 356.5,103.167 356.5,104.5C 356.5,104.833 356.5,105.167 356.5,105.5C 355.596,106.209 355.263,107.209 355.5,108.5C 354.344,101.011 354.178,93.3446 355,85.5C 355.236,83.8807 356.069,82.8807 357.5,82.5 Z"/></g>
<g><path style="opacity:1" fill="#efb247" d="M 426.5,111.5 C 430.833,111.5 435.167,111.5 439.5,111.5C 439.5,109.5 439.5,107.5 439.5,105.5C 442.833,105.5 446.167,105.5 449.5,105.5C 449.5,106.5 449.5,107.5 449.5,108.5C 448.167,108.5 446.833,108.5 445.5,108.5C 445.5,109.833 445.5,111.167 445.5,112.5C 437.202,113.574 428.868,113.74 420.5,113C 419.211,111.198 417.544,110.031 415.5,109.5C 415.5,108.833 415.167,108.5 414.5,108.5C 414.227,100.112 414.56,91.7788 415.5,83.5C 417.787,83.2761 419.953,82.6094 422,81.5C 422.772,81.6448 423.439,81.9781 424,82.5C 423.855,92.5519 424.688,102.219 426.5,111.5 Z"/></g>
<g><path style="opacity:1" fill="#444543" d="M 438.5,90.5 C 437.539,88.7354 437.205,86.7354 437.5,84.5C 434.5,84.5 431.5,84.5 428.5,84.5C 428.334,92.5069 428.5,100.507 429,108.5C 429.333,104.833 429.667,101.167 430,97.5C 431.056,104.46 431.889,104.793 432.5,98.5C 434.143,98.5198 435.476,97.8532 436.5,96.5C 436.833,96.8333 437.167,97.1667 437.5,97.5C 433.444,103.309 434.111,103.809 439.5,99C 444.155,98.5008 448.821,98.3342 453.5,98.5C 454.162,102.466 454.495,106.466 454.5,110.5C 453.5,114.833 450.833,117.5 446.5,118.5C 437.516,117.251 428.516,117.251 419.5,118.5C 420.804,120.016 420.304,120.682 418,120.5C 414.72,119.025 411.22,118.192 407.5,118C 406.944,117.617 406.611,117.117 406.5,116.5C 408.833,116.5 411.167,116.5 413.5,116.5C 413.337,114.143 413.503,111.81 414,109.5C 414.383,110.056 414.883,110.389 415.5,110.5C 416.833,111.167 417.833,112.167 418.5,113.5C 418.414,114.496 418.748,115.329 419.5,116C 428.518,116.832 437.518,116.665 446.5,115.5C 447.193,114.482 447.859,113.482 448.5,112.5C 448.685,110.804 449.519,109.471 451,108.5C 451.78,106.613 451.613,104.946 450.5,103.5C 446.702,102.517 442.702,102.183 438.5,102.5C 438.5,105.167 438.5,107.833 438.5,110.5C 434.833,110.5 431.167,110.5 427.5,110.5C 427.5,101.5 427.5,92.5 427.5,83.5C 431.167,83.5 434.833,83.5 438.5,83.5C 438.5,85.8333 438.5,88.1667 438.5,90.5 Z"/></g>
<g><path style="opacity:1" fill="#634e2f" d="M 257.5,82.5 C 261.5,82.5 265.5,82.5 269.5,82.5C 269.5,93.1667 269.5,103.833 269.5,114.5C 269.167,114.5 268.833,114.5 268.5,114.5C 268.5,104.167 268.5,93.8333 268.5,83.5C 267.167,83.5 265.833,83.5 264.5,83.5C 262.5,83.5 260.5,83.5 258.5,83.5C 258.828,94.0135 258.494,104.347 257.5,114.5C 257.5,103.833 257.5,93.1667 257.5,82.5 Z"/></g>
<g><path style="opacity:1" fill="#474c4d" d="M 264.5,83.5 C 265.833,83.5 267.167,83.5 268.5,83.5C 268.5,93.8333 268.5,104.167 268.5,114.5C 267.539,112.735 267.205,110.735 267.5,108.5C 265.362,108.703 263.695,109.703 262.5,111.5C 261.583,110.873 260.583,110.539 259.5,110.5C 259.5,101.833 259.5,93.1667 259.5,84.5C 261.415,84.7845 263.081,84.4511 264.5,83.5 Z"/></g>
<g><path style="opacity:1" fill="#d9af5b" d="M 282.5,82.5 C 282.5,93.1667 282.5,103.833 282.5,114.5C 278.5,114.5 274.5,114.5 270.5,114.5C 270.5,104.167 270.5,93.8333 270.5,83.5C 271.494,93.3194 271.827,103.319 271.5,113.5C 274.833,113.5 278.167,113.5 281.5,113.5C 281.5,112.5 281.5,111.5 281.5,110.5C 281.173,100.985 281.506,91.6517 282.5,82.5 Z"/></g>
<g><path style="opacity:1" fill="#574f3c" d="M 356.5,91.5 C 356.833,91.5 357.167,91.5 357.5,91.5C 358.599,94.9321 360.933,96.9321 364.5,97.5C 364.5,97.8333 364.5,98.1667 364.5,98.5C 364.167,98.5 363.833,98.5 363.5,98.5C 361.143,98.6633 358.81,98.4966 356.5,98C 357.605,95.8797 357.605,93.7131 356.5,91.5 Z"/></g>
<g><path style="opacity:1" fill="#a1863f" d="M 364.5,98.5 C 364.5,98.1667 364.5,97.8333 364.5,97.5C 368.833,97.5 373.167,97.5 377.5,97.5C 379.167,97.5 380.833,97.5 382.5,97.5C 382.817,101.702 382.483,105.702 381.5,109.5C 381.5,105.833 381.5,102.167 381.5,98.5C 377.833,98.5 374.167,98.5 370.5,98.5C 368.5,98.5 366.5,98.5 364.5,98.5 Z"/></g>
<g><path style="opacity:1" fill="#564633" d="M 97.5,98.5 C 93.3656,99.4849 89.0323,99.8182 84.5,99.5C 80.351,98.9197 76.6843,99.5864 73.5,101.5C 73.5,102.167 73.5,102.833 73.5,103.5C 73.5,104.167 73.5,104.833 73.5,105.5C 73.5,106.833 73.5,108.167 73.5,109.5C 73.1667,109.5 72.8333,109.5 72.5,109.5C 72.5,105.833 72.5,102.167 72.5,98.5C 80.8333,98.5 89.1667,98.5 97.5,98.5 Z"/></g>
<g><path style="opacity:1" fill="#40384b" d="M 84.5,99.5 C 81.0264,100.525 77.3597,101.192 73.5,101.5C 76.6843,99.5864 80.351,98.9197 84.5,99.5 Z"/></g>
<g><path style="opacity:1" fill="#3a453e" d="M 242.5,84.5 C 242.831,92.8599 242.498,101.193 241.5,109.5C 240.707,109.931 239.873,110.265 239,110.5C 236.889,109.528 234.722,108.695 232.5,108C 234.568,107.313 236.568,107.48 238.5,108.5C 239.487,105.232 239.82,101.898 239.5,98.5C 239.174,94.1161 239.508,89.7828 240.5,85.5C 241.183,85.1373 241.85,84.8039 242.5,84.5 Z"/></g>
<g><path style="opacity:1" fill="#464355" d="M 370.5,99.5 C 373.833,99.5 377.167,99.5 380.5,99.5C 381.055,103.012 380.388,106.012 378.5,108.5C 378.318,106.409 378.652,104.409 379.5,102.5C 375.5,101.833 371.5,101.167 367.5,100.5C 368.325,99.6143 369.325,99.281 370.5,99.5 Z"/></g>
<g><path style="opacity:1" fill="#3a3d39" d="M 97.5,97.5 C 97.8333,97.5 98.1667,97.5 98.5,97.5C 99.1667,97.5 99.8333,97.5 100.5,97.5C 100.339,100.68 99.3386,103.347 97.5,105.5C 93.3656,104.515 89.0323,104.182 84.5,104.5C 81.0381,103.518 77.3714,103.185 73.5,103.5C 73.5,102.833 73.5,102.167 73.5,101.5C 77.3597,101.192 81.0264,100.525 84.5,99.5C 89.0323,99.8182 93.3656,99.4849 97.5,98.5C 97.5,98.1667 97.5,97.8333 97.5,97.5 Z"/></g>
<g><path style="opacity:1" fill="#4c381e" d="M 155.5,77.5 C 155.5,77.8333 155.5,78.1667 155.5,78.5C 152.054,79.6118 150.054,81.9452 149.5,85.5C 148.506,95.3194 148.173,105.319 148.5,115.5C 148.167,115.5 147.833,115.5 147.5,115.5C 147.158,114.662 146.492,114.328 145.5,114.5C 145.5,113.5 145.5,112.5 145.5,111.5C 147.312,102.219 148.145,92.5519 148,82.5C 149.886,79.758 152.386,78.0913 155.5,77.5 Z"/></g>
<g><path style="opacity:1" fill="#997943" d="M 269.5,82.5 C 269.833,82.5 270.167,82.5 270.5,82.5C 270.5,82.8333 270.5,83.1667 270.5,83.5C 270.5,93.8333 270.5,104.167 270.5,114.5C 274.5,114.5 278.5,114.5 282.5,114.5C 278.167,115.833 273.833,115.833 269.5,114.5C 269.5,103.833 269.5,93.1667 269.5,82.5 Z"/></g>
<g><path style="opacity:1" fill="#474641" d="M 363.5,98.5 C 363.833,98.5 364.167,98.5 364.5,98.5C 366.5,98.5 368.5,98.5 370.5,98.5C 370.5,98.8333 370.5,99.1667 370.5,99.5C 369.325,99.281 368.325,99.6143 367.5,100.5C 371.5,101.167 375.5,101.833 379.5,102.5C 378.652,104.409 378.318,106.409 378.5,108.5C 377.167,108.5 375.833,108.5 374.5,108.5C 374.5,106.833 374.5,105.167 374.5,103.5C 372.517,103.157 371.183,103.824 370.5,105.5C 370.167,105.5 369.833,105.5 369.5,105.5C 365.366,104.515 361.032,104.182 356.5,104.5C 356.5,103.167 356.5,101.833 356.5,100.5C 359.388,101.01 361.721,100.344 363.5,98.5 Z"/></g>
<g><path style="opacity:1" fill="#c4a053" d="M 407.5,81.5 C 405.634,80.9862 403.8,80.3195 402,79.5C 401.228,79.6448 400.561,79.9781 400,80.5C 399.5,91.495 399.333,102.495 399.5,113.5C 402.833,113.5 406.167,113.5 409.5,113.5C 410.347,104.528 410.68,95.5281 410.5,86.5C 411.658,95.6575 411.824,104.991 411,114.5C 406.934,115.464 402.767,115.797 398.5,115.5C 398.5,102.833 398.5,90.1667 398.5,77.5C 402.36,77.0541 405.36,78.3875 407.5,81.5 Z"/></g>
<g><path style="opacity:1" fill="#856934" d="M 439.5,90.5 C 439.167,90.5 438.833,90.5 438.5,90.5C 438.5,88.1667 438.5,85.8333 438.5,83.5C 434.833,83.5 431.167,83.5 427.5,83.5C 427.5,92.5 427.5,101.5 427.5,110.5C 431.167,110.5 434.833,110.5 438.5,110.5C 438.5,107.833 438.5,105.167 438.5,102.5C 442.702,102.183 446.702,102.517 450.5,103.5C 446.351,102.92 442.684,103.586 439.5,105.5C 439.5,107.5 439.5,109.5 439.5,111.5C 435.167,111.5 430.833,111.5 426.5,111.5C 426.5,101.833 426.5,92.1667 426.5,82.5C 430.833,82.5 435.167,82.5 439.5,82.5C 439.5,85.1667 439.5,87.8333 439.5,90.5 Z"/></g>
<g><path style="opacity:1" fill="#3c3f39" d="M 41.5,85.5 C 40.5,85.5 39.5,85.5 38.5,85.5C 38.5,93.1667 38.5,100.833 38.5,108.5C 39.5,108.5 40.5,108.5 41.5,108.5C 38.7131,109.477 35.7131,109.81 32.5,109.5C 33.8129,101.401 33.8129,93.4015 32.5,85.5C 33.4919,83.9735 34.9919,83.3068 37,83.5C 39.0081,83.3068 40.5081,83.9735 41.5,85.5 Z"/></g>
<g><path style="opacity:1" fill="#b8924d" d="M 105.5,92.5 C 106.167,92.5 106.833,92.5 107.5,92.5C 102.872,96.7323 101.205,102.066 102.5,108.5C 101.355,104.689 101.188,100.689 102,96.5C 103.376,95.2949 104.542,93.9616 105.5,92.5 Z"/></g>
<g><path style="opacity:1" fill="#795e35" d="M 138.5,77.5 C 139.494,87.9869 139.828,98.6536 139.5,109.5C 142.082,109.025 144.082,109.692 145.5,111.5C 145.5,112.5 145.5,113.5 145.5,114.5C 145.167,114.5 144.833,114.5 144.5,114.5C 144.5,113.167 144.5,111.833 144.5,110.5C 143.167,110.5 141.833,110.5 140.5,110.5C 139.833,110.5 139.167,110.5 138.5,110.5C 138.5,99.5 138.5,88.5 138.5,77.5 Z"/></g>
<g><path style="opacity:1" fill="#403f41" d="M 157.5,76.5 C 157.5,76.8333 157.5,77.1667 157.5,77.5C 156.833,77.5 156.167,77.5 155.5,77.5C 152.386,78.0913 149.886,79.758 148,82.5C 148.145,92.5519 147.312,102.219 145.5,111.5C 144.082,109.692 142.082,109.025 139.5,109.5C 139.828,98.6536 139.494,87.9869 138.5,77.5C 138.5,77.1667 138.5,76.8333 138.5,76.5C 138.5,75.5 138.5,74.5 138.5,73.5C 139.5,73.5 140.5,73.5 141.5,73.5C 141.176,77.5546 141.509,81.5546 142.5,85.5C 145.64,81.9194 145.973,78.2527 143.5,74.5C 145.5,74.1667 147.5,73.8333 149.5,73.5C 152.708,73.4534 155.374,74.4534 157.5,76.5 Z"/></g>
<g><path style="opacity:1" fill="#3b3947" d="M 73.5,103.5 C 77.3714,103.185 81.0381,103.518 84.5,104.5C 84.5,104.833 84.5,105.167 84.5,105.5C 80.8333,106.833 77.1667,106.833 73.5,105.5C 73.5,104.833 73.5,104.167 73.5,103.5 Z"/></g>
<g><path style="opacity:1" fill="#7d5e31" d="M 84.5,104.5 C 89.0323,104.182 93.3656,104.515 97.5,105.5C 97.7373,106.791 97.404,107.791 96.5,108.5C 96.5,107.5 96.5,106.5 96.5,105.5C 92.8333,105.5 89.1667,105.5 85.5,105.5C 85.5,107.167 85.5,108.833 85.5,110.5C 81.1667,110.5 76.8333,110.5 72.5,110.5C 72.5,110.167 72.5,109.833 72.5,109.5C 72.8333,109.5 73.1667,109.5 73.5,109.5C 77.1667,109.5 80.8333,109.5 84.5,109.5C 84.5,108.167 84.5,106.833 84.5,105.5C 84.5,105.167 84.5,104.833 84.5,104.5 Z"/></g>
<g><path style="opacity:1" fill="#47455a" d="M 374.5,108.5 C 373.5,108.5 372.5,108.5 371.5,108.5C 371.737,107.209 371.404,106.209 370.5,105.5C 371.183,103.824 372.517,103.157 374.5,103.5C 374.5,105.167 374.5,106.833 374.5,108.5 Z"/></g>
<g><path style="opacity:1" fill="#ddb556" d="M 382.5,97.5 C 383.823,101.9 383.823,106.4 382.5,111C 377.833,111.667 373.167,111.667 368.5,111C 367.62,109.644 367.286,108.144 367.5,106.5C 364.833,106.5 362.167,106.5 359.5,106.5C 359.975,109.082 359.308,111.082 357.5,112.5C 357.5,110.167 357.5,107.833 357.5,105.5C 361.5,105.5 365.5,105.5 369.5,105.5C 369.5,107.167 369.5,108.833 369.5,110.5C 373.702,110.817 377.702,110.483 381.5,109.5C 382.483,105.702 382.817,101.702 382.5,97.5 Z"/></g>
<g><path style="opacity:1" fill="#483829" d="M 370.5,99.5 C 370.5,99.1667 370.5,98.8333 370.5,98.5C 374.167,98.5 377.833,98.5 381.5,98.5C 381.5,102.167 381.5,105.833 381.5,109.5C 377.833,109.5 374.167,109.5 370.5,109.5C 370.5,108.167 370.5,106.833 370.5,105.5C 371.404,106.209 371.737,107.209 371.5,108.5C 372.5,108.5 373.5,108.5 374.5,108.5C 375.833,108.5 377.167,108.5 378.5,108.5C 380.388,106.012 381.055,103.012 380.5,99.5C 377.167,99.5 373.833,99.5 370.5,99.5 Z"/></g>
<g><path style="opacity:1" fill="#3b3730" d="M 73.5,105.5 C 77.1667,106.833 80.8333,106.833 84.5,105.5C 84.5,106.833 84.5,108.167 84.5,109.5C 80.8333,109.5 77.1667,109.5 73.5,109.5C 73.5,108.167 73.5,106.833 73.5,105.5 Z"/></g>
<g><path style="opacity:1" fill="#433d2e" d="M 105.5,92.5 C 104.542,93.9616 103.376,95.2949 102,96.5C 101.188,100.689 101.355,104.689 102.5,108.5C 103.68,111.845 106.013,114.011 109.5,115C 118.494,115.5 127.494,115.666 136.5,115.5C 134.952,116.794 132.952,117.461 130.5,117.5C 122.84,116.902 115.173,116.402 107.5,116C 104.164,114.879 102.164,112.713 101.5,109.5C 100.167,109.5 98.8333,109.5 97.5,109.5C 97.5,110.833 97.5,112.167 97.5,113.5C 96.1667,113.5 94.8333,113.5 93.5,113.5C 94.7515,111.999 95.7515,110.332 96.5,108.5C 97.404,107.791 97.7373,106.791 97.5,105.5C 99.3386,103.347 100.339,100.68 100.5,97.5C 100.5,93.5 100.5,89.5 100.5,85.5C 101.5,85.5 102.5,85.5 103.5,85.5C 102.99,88.3878 103.656,90.7211 105.5,92.5 Z"/></g>
<g><path style="opacity:1" fill="#42434b" d="M 293.5,85.5 C 293.5,96.1667 293.5,106.833 293.5,117.5C 297.698,116.125 302.031,115.458 306.5,115.5C 307.239,115.369 307.906,115.536 308.5,116C 305.447,116.179 302.447,116.679 299.5,117.5C 299.863,118.183 300.196,118.85 300.5,119.5C 297.428,119.183 294.428,119.516 291.5,120.5C 291.624,121.107 291.957,121.44 292.5,121.5C 292.5,121.833 292.5,122.167 292.5,122.5C 291.458,123.791 290.292,123.791 289,122.5C 287.872,120.655 287.372,118.655 287.5,116.5C 288.675,116.719 289.675,116.386 290.5,115.5C 289.959,113.465 289.292,111.465 288.5,109.5C 288.094,114.605 285.76,118.438 281.5,121C 280.551,121.617 279.718,121.451 279,120.5C 278.51,119.207 278.343,117.873 278.5,116.5C 284.023,117.327 285.69,115.327 283.5,110.5C 283.821,108.952 284.821,108.285 286.5,108.5C 286.5,100.833 286.5,93.1667 286.5,85.5C 287.5,85.5 288.5,85.5 289.5,85.5C 289.5,93.1667 289.5,100.833 289.5,108.5C 290.5,108.5 291.5,108.5 292.5,108.5C 292.175,100.648 292.508,92.9818 293.5,85.5 Z"/></g>
<g><path style="opacity:1" fill="#deb04d" d="M 348.5,78.5 C 348.5,88.5 348.5,98.5 348.5,108.5C 346.527,99.2245 345.86,89.5578 346.5,79.5C 343.833,79.5 341.167,79.5 338.5,79.5C 337.893,89.6915 338.559,99.6915 340.5,109.5C 338.672,110.795 336.672,111.795 334.5,112.5C 339.467,113.662 344.467,113.829 349.5,113C 350.571,112.148 351.571,111.315 352.5,110.5C 353.434,111.568 353.768,112.901 353.5,114.5C 353.5,114.833 353.5,115.167 353.5,115.5C 341.829,115.667 330.162,115.5 318.5,115C 316.677,114.003 315.01,112.836 313.5,111.5C 313.5,111.167 313.5,110.833 313.5,110.5C 316.39,110.722 319.057,110.055 321.5,108.5C 322.497,100.862 322.831,93.1955 322.5,85.5C 323.167,93.5 323.833,101.5 324.5,109.5C 328.5,110.833 332.5,110.833 336.5,109.5C 337.494,99.3468 337.828,89.0135 337.5,78.5C 341.167,78.5 344.833,78.5 348.5,78.5 Z"/></g>
<g><path style="opacity:1" fill="#3f3825" d="M 324.5,97.5 C 325.482,100.962 325.815,104.629 325.5,108.5C 328.833,108.5 332.167,108.5 335.5,108.5C 332.038,109.482 328.371,109.815 324.5,109.5C 324.5,105.5 324.5,101.5 324.5,97.5 Z"/></g>
<g><path style="opacity:1" fill="#876c34" d="M 369.5,105.5 C 369.833,105.5 370.167,105.5 370.5,105.5C 370.5,106.833 370.5,108.167 370.5,109.5C 374.167,109.5 377.833,109.5 381.5,109.5C 377.702,110.483 373.702,110.817 369.5,110.5C 369.5,108.833 369.5,107.167 369.5,105.5 Z"/></g>
<g><path style="opacity:1" fill="#d79f47" d="M 124.5,95.5 C 120.833,95.5 117.167,95.5 113.5,95.5C 113.181,100.363 113.514,105.03 114.5,109.5C 118.298,110.483 122.298,110.817 126.5,110.5C 126.5,105.5 126.5,100.5 126.5,95.5C 128.43,99.3727 129.097,103.706 128.5,108.5C 129.675,108.281 130.675,108.614 131.5,109.5C 129.672,110.795 127.672,111.795 125.5,112.5C 131.167,113.833 136.833,113.833 142.5,112.5C 141.757,111.818 141.091,111.151 140.5,110.5C 141.833,110.5 143.167,110.5 144.5,110.5C 144.5,111.833 144.5,113.167 144.5,114.5C 142.052,115.473 139.385,115.806 136.5,115.5C 127.494,115.666 118.494,115.5 109.5,115C 106.013,114.011 103.68,111.845 102.5,108.5C 104.624,109.031 106.124,110.365 107,112.5C 108.699,111.594 110.533,111.261 112.5,111.5C 112.687,105.788 112.354,100.121 111.5,94.5C 116.032,94.1818 120.366,94.5151 124.5,95.5 Z"/></g>
<g><path style="opacity:1" fill="#7b5c2d" d="M 124.5,95.5 C 125.167,95.5 125.833,95.5 126.5,95.5C 126.5,100.5 126.5,105.5 126.5,110.5C 122.298,110.817 118.298,110.483 114.5,109.5C 113.514,105.03 113.181,100.363 113.5,95.5C 117.167,95.5 120.833,95.5 124.5,95.5 Z"/></g>
<g><path style="opacity:1" fill="#3f2e22" d="M 124.5,96.5 C 125.485,100.634 125.818,104.968 125.5,109.5C 121.833,109.5 118.167,109.5 114.5,109.5C 114.5,105.5 114.5,101.5 114.5,97.5C 115.482,100.962 115.815,104.629 115.5,108.5C 117.5,108.5 119.5,108.5 121.5,108.5C 122.5,108.5 123.5,108.5 124.5,108.5C 124.5,104.833 124.5,101.167 124.5,97.5C 124.5,97.1667 124.5,96.8333 124.5,96.5 Z"/></g>
<g><path style="opacity:1" fill="#3d3e3b" d="M 114.5,97.5 C 117.625,96.5206 120.958,96.1872 124.5,96.5C 124.5,96.8333 124.5,97.1667 124.5,97.5C 123.5,97.5 122.5,97.5 121.5,97.5C 121.5,101.167 121.5,104.833 121.5,108.5C 119.5,108.5 117.5,108.5 115.5,108.5C 115.815,104.629 115.482,100.962 114.5,97.5 Z"/></g>
<g><path style="opacity:1" fill="#383c4a" d="M 124.5,97.5 C 124.5,101.167 124.5,104.833 124.5,108.5C 123.5,108.5 122.5,108.5 121.5,108.5C 121.5,104.833 121.5,101.167 121.5,97.5C 122.5,97.5 123.5,97.5 124.5,97.5 Z"/></g>
<g><path style="opacity:1" fill="#604c29" d="M 356.5,105.5 C 356.5,108.5 356.5,111.5 356.5,114.5C 355.5,114.5 354.5,114.5 353.5,114.5C 353.768,112.901 353.434,111.568 352.5,110.5C 352.5,110.167 352.5,109.833 352.5,109.5C 353.791,109.737 354.791,109.404 355.5,108.5C 355.263,107.209 355.596,106.209 356.5,105.5 Z"/></g>
<g><path style="opacity:1" fill="#edb348" d="M 388.5,95.5 C 390.371,95.8588 391.871,96.8588 393,98.5C 393.498,101.817 393.665,105.15 393.5,108.5C 392.273,112.391 389.606,114.391 385.5,114.5C 375.773,115.139 366.44,114.472 357.5,112.5C 359.308,111.082 359.975,109.082 359.5,106.5C 362.167,106.5 364.833,106.5 367.5,106.5C 367.286,108.144 367.62,109.644 368.5,111C 373.167,111.667 377.833,111.667 382.5,111C 383.823,106.4 383.823,101.9 382.5,97.5C 380.833,97.5 379.167,97.5 377.5,97.5C 377.5,96.5 377.5,95.5 377.5,94.5C 381.215,94.423 384.881,94.7564 388.5,95.5 Z"/></g>
<g><path style="opacity:1" fill="#d4a953" d="M 257.5,82.5 C 257.5,93.1667 257.5,103.833 257.5,114.5C 253.5,114.5 249.5,114.5 245.5,114.5C 245.5,104.167 245.5,93.8333 245.5,83.5C 246.494,93.3194 246.827,103.319 246.5,113.5C 249.833,113.5 253.167,113.5 256.5,113.5C 256.172,102.986 256.506,92.6532 257.5,82.5 Z"/></g>
<g><path style="opacity:1" fill="#d0a550" d="M 450.5,103.5 C 451.613,104.946 451.78,106.613 451,108.5C 449.519,109.471 448.685,110.804 448.5,112.5C 439.484,115.419 430.15,116.252 420.5,115C 419.956,114.283 419.289,113.783 418.5,113.5C 417.833,112.167 416.833,111.167 415.5,110.5C 415.5,110.167 415.5,109.833 415.5,109.5C 417.544,110.031 419.211,111.198 420.5,113C 428.868,113.74 437.202,113.574 445.5,112.5C 445.5,111.167 445.5,109.833 445.5,108.5C 446.833,108.5 448.167,108.5 449.5,108.5C 449.5,107.5 449.5,106.5 449.5,105.5C 446.167,105.5 442.833,105.5 439.5,105.5C 442.684,103.586 446.351,102.92 450.5,103.5 Z"/></g>
<g><path style="opacity:1" fill="#393b3e" d="M 242.5,84.5 C 243.495,96.6554 243.829,108.989 243.5,121.5C 247.157,120.358 250.823,120.191 254.5,121C 254.833,120.667 255.167,120.333 255.5,120C 252.854,119.503 250.187,119.336 247.5,119.5C 247.5,118.5 247.5,117.5 247.5,116.5C 253.004,117.726 258.67,118.56 264.5,119C 265.738,119.69 265.738,120.19 264.5,120.5C 254.843,119.658 251.01,123.991 253,133.5C 260.644,138.336 264.811,145.336 265.5,154.5C 265.167,155.833 264.833,157.167 264.5,158.5C 262.191,159.651 260.024,160.984 258,162.5C 251.822,159.829 247.156,155.496 244,149.5C 243.785,140.617 239.285,136.784 230.5,138C 224.883,141.865 224.049,146.698 228,152.5C 229.173,159.653 227.84,166.319 224,172.5C 220.435,174.053 217.101,173.72 214,171.5C 212.853,168.382 211.52,165.382 210,162.5C 209.247,157.029 209.747,151.696 211.5,146.5C 210.074,139.442 205.74,136.942 198.5,139C 194.358,142.12 192.524,146.287 193,151.5C 190.558,155.941 187.392,159.774 183.5,163C 179.826,165.085 176.493,164.585 173.5,161.5C 171.79,155.145 172.623,149.145 176,143.5C 178.706,141.129 181.039,138.463 183,135.5C 184.383,125.888 180.216,122.054 170.5,124C 164.892,132.804 156.892,136.804 146.5,136C 140.891,130.647 141.224,125.813 147.5,121.5C 148.833,120.833 148.833,120.167 147.5,119.5C 147.5,118.167 147.5,116.833 147.5,115.5C 147.833,115.5 148.167,115.5 148.5,115.5C 149.919,116.451 151.585,116.784 153.5,116.5C 153.5,118.167 153.5,119.833 153.5,121.5C 154.833,121.5 156.167,121.5 157.5,121.5C 157.52,119.857 156.853,118.524 155.5,117.5C 157.743,116.526 160.076,116.192 162.5,116.5C 162.192,114.076 162.526,111.743 163.5,109.5C 164.891,110.645 166.224,110.645 167.5,109.5C 166.238,105.687 165.571,101.687 165.5,97.5C 165.667,93.8333 165.833,90.1667 166,86.5C 166.414,86.9574 166.914,87.2907 167.5,87.5C 168.85,86.0499 170.516,85.3832 172.5,85.5C 172.5,87.8333 172.5,90.1667 172.5,92.5C 177.167,92.5 181.833,92.5 186.5,92.5C 186.157,94.4832 186.824,95.8166 188.5,96.5C 188.833,97.5 189.5,98.1667 190.5,98.5C 198.388,98.8467 206.054,99.8467 213.5,101.5C 182.833,102.167 182.833,102.833 213.5,103.5C 213.5,105.5 213.5,107.5 213.5,109.5C 210.482,109.335 207.482,109.502 204.5,110C 203.02,112.235 203.353,114.068 205.5,115.5C 211.987,116.328 218.654,116.828 225.5,117C 224.112,117.889 224.278,118.389 226,118.5C 228.786,117.132 231.62,116.132 234.5,115.5C 235.451,114.081 235.784,112.415 235.5,110.5C 233.833,110.5 232.167,110.5 230.5,110.5C 229.577,106.936 229.244,103.269 229.5,99.5C 231.833,99.5 234.167,99.5 236.5,99.5C 237.609,99.4431 238.609,99.1098 239.5,98.5C 239.82,101.898 239.487,105.232 238.5,108.5C 236.568,107.48 234.568,107.313 232.5,108C 234.722,108.695 236.889,109.528 239,110.5C 239.873,110.265 240.707,109.931 241.5,109.5C 242.498,101.193 242.831,92.8599 242.5,84.5 Z"/></g>
<g><path style="opacity:1" fill="#413721" d="M 213.5,109.5 C 213.5,110.167 213.167,110.5 212.5,110.5C 210.167,110.5 207.833,110.5 205.5,110.5C 205.5,112.167 205.5,113.833 205.5,115.5C 203.353,114.068 203.02,112.235 204.5,110C 207.482,109.502 210.482,109.335 213.5,109.5 Z"/></g>
<g><path style="opacity:1" fill="#374232" d="M 213.5,101.5 C 213.5,102.167 213.5,102.833 213.5,103.5C 182.833,102.833 182.833,102.167 213.5,101.5 Z"/></g>
<g><path style="opacity:1" fill="#5d4125" d="M 236.5,98.5 C 236.5,98.8333 236.5,99.1667 236.5,99.5C 234.167,99.5 231.833,99.5 229.5,99.5C 229.244,103.269 229.577,106.936 230.5,110.5C 230.167,110.5 229.833,110.5 229.5,110.5C 228.517,106.702 228.183,102.702 228.5,98.5C 231.167,98.5 233.833,98.5 236.5,98.5 Z"/></g>
<g><path style="opacity:1" fill="#58412e" d="M 190.5,98.5 C 198.5,98.5 206.5,98.5 214.5,98.5C 214.815,102.371 214.482,106.038 213.5,109.5C 213.5,107.5 213.5,105.5 213.5,103.5C 213.5,102.833 213.5,102.167 213.5,101.5C 206.054,99.8467 198.388,98.8467 190.5,98.5 Z"/></g>
<g><path style="opacity:1" fill="#a5853c" d="M 189.5,92.5 C 189.286,94.1439 189.62,95.6439 190.5,97C 198.677,97.1708 206.677,97.6708 214.5,98.5C 206.5,98.5 198.5,98.5 190.5,98.5C 189.5,98.1667 188.833,97.5 188.5,96.5C 188.232,94.901 188.566,93.5676 189.5,92.5 Z"/></g>
<g><path style="opacity:1" fill="#9c7941" d="M 212.5,110.5 C 210.614,111.065 208.947,112.065 207.5,113.5C 216.475,114.498 225.475,114.832 234.5,114.5C 234.5,113.5 234.5,112.5 234.5,111.5C 232.585,111.784 230.919,111.451 229.5,110.5C 229.833,110.5 230.167,110.5 230.5,110.5C 232.167,110.5 233.833,110.5 235.5,110.5C 235.784,112.415 235.451,114.081 234.5,115.5C 224.833,115.5 215.167,115.5 205.5,115.5C 205.5,113.833 205.5,112.167 205.5,110.5C 207.833,110.5 210.167,110.5 212.5,110.5 Z"/></g>
<g><path style="opacity:1" fill="#9a7b43" d="M 356.5,104.5 C 361.032,104.182 365.366,104.515 369.5,105.5C 365.5,105.5 361.5,105.5 357.5,105.5C 357.5,107.833 357.5,110.167 357.5,112.5C 366.44,114.472 375.773,115.139 385.5,114.5C 376.682,115.493 367.682,115.827 358.5,115.5C 357.508,115.672 356.842,115.338 356.5,114.5C 356.5,111.5 356.5,108.5 356.5,105.5C 356.5,105.167 356.5,104.833 356.5,104.5 Z"/></g>
<g><path style="opacity:1" fill="#544430" d="M 60.5,108.5 C 61.9314,110.437 63.5981,112.27 65.5,114C 74.8807,114.78 84.214,114.613 93.5,113.5C 93.5858,114.496 93.2524,115.329 92.5,116C 83.1667,118 73.8333,118 64.5,116C 62.1606,114.011 60.8273,111.511 60.5,108.5 Z"/></g>
<g><path style="opacity:1" fill="#514334" d="M 393.5,108.5 C 393.833,108.5 394.167,108.5 394.5,108.5C 393.873,113.093 391.206,115.593 386.5,116C 376.991,116.824 367.657,116.658 358.5,115.5C 367.682,115.827 376.682,115.493 385.5,114.5C 389.606,114.391 392.273,112.391 393.5,108.5 Z"/></g>
<g><path style="opacity:1" fill="#4f462d" d="M 448.5,112.5 C 447.859,113.482 447.193,114.482 446.5,115.5C 437.518,116.665 428.518,116.832 419.5,116C 418.748,115.329 418.414,114.496 418.5,113.5C 419.289,113.783 419.956,114.283 420.5,115C 430.15,116.252 439.484,115.419 448.5,112.5 Z"/></g>
<g><path style="opacity:1" fill="#36355b" d="M 147.5,115.5 C 147.5,116.833 147.5,118.167 147.5,119.5C 146.833,119.5 146.167,119.5 145.5,119.5C 145.157,117.517 145.824,116.183 147.5,115.5 Z"/></g>
<g><path style="opacity:1" fill="#424335" d="M 313.5,111.5 C 315.01,112.836 316.677,114.003 318.5,115C 330.162,115.5 341.829,115.667 353.5,115.5C 351.393,116.468 349.059,116.802 346.5,116.5C 346.5,117.5 346.5,118.5 346.5,119.5C 345.833,119.5 345.167,119.5 344.5,119.5C 334.46,117.961 324.126,116.628 313.5,115.5C 313.5,114.167 313.5,112.833 313.5,111.5 Z"/></g>
<g><path style="opacity:1" fill="#393d40" d="M 17.5,82.5 C 17.176,89.3543 17.5093,96.021 18.5,102.5C 18.5,103.833 18.5,105.167 18.5,106.5C 18.3121,111.981 20.9788,114.981 26.5,115.5C 29.1667,115.5 31.8333,115.5 34.5,115.5C 36.6074,116.468 38.9407,116.802 41.5,116.5C 41.5,118.167 41.5,119.833 41.5,121.5C 38.5227,122.678 35.5227,122.678 32.5,121.5C 32.5,122.833 32.5,124.167 32.5,125.5C 32.1667,125.5 31.8333,125.5 31.5,125.5C 31.7947,123.265 31.4614,121.265 30.5,119.5C 27.7021,118.526 24.7021,117.86 21.5,117.5C 17.5003,117.663 16.0003,119.663 17,123.5C 18.3703,126.991 19.8703,130.325 21.5,133.5C 33.0123,133.828 44.3456,133.495 55.5,132.5C 56.3382,132.158 56.6716,131.492 56.5,130.5C 57.1667,115.661 57.8333,100.661 58.5,85.5C 59.1667,93.3229 59.8334,100.99 60.5,108.5C 60.8273,111.511 62.1606,114.011 64.5,116C 73.8333,118 83.1667,118 92.5,116C 93.2524,115.329 93.5858,114.496 93.5,113.5C 94.8333,113.5 96.1667,113.5 97.5,113.5C 97.5,112.167 97.5,110.833 97.5,109.5C 98.8333,109.5 100.167,109.5 101.5,109.5C 102.164,112.713 104.164,114.879 107.5,116C 115.173,116.402 122.84,116.902 130.5,117.5C 132.952,117.461 134.952,116.794 136.5,115.5C 139.385,115.806 142.052,115.473 144.5,114.5C 144.833,114.5 145.167,114.5 145.5,114.5C 146.492,114.328 147.158,114.662 147.5,115.5C 145.824,116.183 145.157,117.517 145.5,119.5C 132.833,119.5 120.167,119.5 107.5,119.5C 104.337,118.679 101.67,117.012 99.5,114.5C 96.8338,116.835 93.8338,118.669 90.5,120C 82.1667,120.667 73.8333,120.667 65.5,120C 64.3066,118.905 62.9733,118.072 61.5,117.5C 60.5098,123.645 60.1765,129.978 60.5,136.5C 48.1667,136.5 35.8333,136.5 23.5,136.5C 14.7969,131.752 11.4636,124.419 13.5,114.5C 14.675,114.719 15.675,114.386 16.5,113.5C 15.2528,111.677 14.5861,109.677 14.5,107.5C 14.1694,100.137 14.5027,92.8032 15.5,85.5C 16.1757,84.3984 16.8423,83.3984 17.5,82.5 Z"/></g>
<g><path style="opacity:1" fill="#4b3c29" d="M 18.5,106.5 C 18.8333,106.5 19.1667,106.5 19.5,106.5C 19.5569,107.609 19.8902,108.609 20.5,109.5C 21.5935,112.261 23.5935,113.927 26.5,114.5C 26.5,114.833 26.5,115.167 26.5,115.5C 20.9788,114.981 18.3121,111.981 18.5,106.5 Z"/></g>
<g><path style="opacity:1" fill="#3d3420" d="M 41.5,85.5 C 42.4927,93.6499 42.8261,101.983 42.5,110.5C 38.8333,110.5 35.1667,110.5 31.5,110.5C 31.5,110.167 31.5,109.833 31.5,109.5C 31.8333,109.5 32.1667,109.5 32.5,109.5C 35.7131,109.81 38.7131,109.477 41.5,108.5C 41.5,100.833 41.5,93.1667 41.5,85.5 Z"/></g>
<g><path style="opacity:1" fill="#393d4b" d="M 41.5,85.5 C 41.5,93.1667 41.5,100.833 41.5,108.5C 40.5,108.5 39.5,108.5 38.5,108.5C 38.5,100.833 38.5,93.1667 38.5,85.5C 39.5,85.5 40.5,85.5 41.5,85.5 Z"/></g>
<g><path style="opacity:1" fill="#483a3c" d="M 32.5,85.5 C 33.8129,93.4015 33.8129,101.401 32.5,109.5C 32.1667,109.5 31.8333,109.5 31.5,109.5C 31.1743,101.316 31.5076,93.3159 32.5,85.5 Z"/></g>
<g><path style="opacity:1" fill="#40382a" d="M 205.5,115.5 C 215.167,115.5 224.833,115.5 234.5,115.5C 231.62,116.132 228.786,117.132 226,118.5C 224.278,118.389 224.112,117.889 225.5,117C 218.654,116.828 211.987,116.328 205.5,115.5 Z"/></g>
<g><path style="opacity:1" fill="#353943" d="M 311.5,111.5 C 312.167,111.5 312.833,111.5 313.5,111.5C 313.5,112.833 313.5,114.167 313.5,115.5C 324.126,116.628 334.46,117.961 344.5,119.5C 330.833,119.5 317.167,119.5 303.5,119.5C 306.287,118.523 309.287,118.19 312.5,118.5C 312.5,117.5 312.5,116.5 312.5,115.5C 311.5,115.5 310.5,115.5 309.5,115.5C 309.157,113.517 309.824,112.183 311.5,111.5 Z"/></g>
<g><path style="opacity:1" fill="#7e7d78" d="M 107.5,119.5 C 120.167,119.5 132.833,119.5 145.5,119.5C 146.167,119.5 146.833,119.5 147.5,119.5C 148.833,120.167 148.833,120.833 147.5,121.5C 134.167,120.833 120.833,120.167 107.5,119.5 Z"/></g>
<g><path style="opacity:1" fill="#7e7e7f" d="M 300.5,119.5 C 301.5,119.5 302.5,119.5 303.5,119.5C 317.167,119.5 330.833,119.5 344.5,119.5C 345.167,119.5 345.833,119.5 346.5,119.5C 350.884,119.174 355.217,119.508 359.5,120.5C 359.376,121.107 359.043,121.44 358.5,121.5C 336.5,120.167 314.5,120.167 292.5,121.5C 291.957,121.44 291.624,121.107 291.5,120.5C 294.428,119.516 297.428,119.183 300.5,119.5 Z"/></g>
<g><path style="opacity:1" fill="#898683" d="M 442.5,119.5 C 443.167,119.5 443.833,119.5 444.5,119.5C 442.167,120.167 439.833,120.833 437.5,121.5C 436.957,121.44 436.624,121.107 436.5,120.5C 438.396,119.534 440.396,119.201 442.5,119.5 Z"/></g>
<g><path style="opacity:1" fill="#44423c" d="M 239.5,76.5 C 239.5,78.8333 239.5,81.1667 239.5,83.5C 241.167,83.5 242.833,83.5 244.5,83.5C 244.5,94.1667 244.5,104.833 244.5,115.5C 249.032,115.818 253.366,115.485 257.5,114.5C 258.494,104.347 258.828,94.0135 258.5,83.5C 260.5,83.5 262.5,83.5 264.5,83.5C 263.081,84.4511 261.415,84.7845 259.5,84.5C 259.5,93.1667 259.5,101.833 259.5,110.5C 259.5,112.167 259.5,113.833 259.5,115.5C 264.1,116.293 268.434,117.96 272.5,120.5C 270.709,121.17 269.042,121.837 267.5,122.5C 266.29,122.068 265.29,121.401 264.5,120.5C 265.738,120.19 265.738,119.69 264.5,119C 258.67,118.56 253.004,117.726 247.5,116.5C 247.5,117.5 247.5,118.5 247.5,119.5C 250.187,119.336 252.854,119.503 255.5,120C 255.167,120.333 254.833,120.667 254.5,121C 250.823,120.191 247.157,120.358 243.5,121.5C 243.829,108.989 243.495,96.6554 242.5,84.5C 241.85,84.8039 241.183,85.1373 240.5,85.5C 239.508,89.7828 239.174,94.1161 239.5,98.5C 238.609,99.1098 237.609,99.4431 236.5,99.5C 236.5,99.1667 236.5,98.8333 236.5,98.5C 237.468,96.3926 237.802,94.0593 237.5,91.5C 237.5,91.1667 237.5,90.8333 237.5,90.5C 238.167,85.8333 238.833,81.1667 239.5,76.5 Z"/></g>
<g><path style="opacity:1" fill="#414345" d="M 268.5,114.5 C 268.833,114.5 269.167,114.5 269.5,114.5C 273.833,115.833 278.167,115.833 282.5,114.5C 283.434,113.432 283.768,112.099 283.5,110.5C 285.69,115.327 284.023,117.327 278.5,116.5C 278.343,117.873 278.51,119.207 279,120.5C 279.718,121.451 280.551,121.617 281.5,121C 285.76,118.438 288.094,114.605 288.5,109.5C 289.292,111.465 289.959,113.465 290.5,115.5C 289.675,116.386 288.675,116.719 287.5,116.5C 287.372,118.655 287.872,120.655 289,122.5C 290.292,123.791 291.458,123.791 292.5,122.5C 292.833,122.5 293.167,122.5 293.5,122.5C 293.343,128.553 290.343,131.553 284.5,131.5C 276.907,131.873 271.24,128.873 267.5,122.5C 269.042,121.837 270.709,121.17 272.5,120.5C 268.434,117.96 264.1,116.293 259.5,115.5C 259.5,113.833 259.5,112.167 259.5,110.5C 260.583,110.539 261.583,110.873 262.5,111.5C 263.695,109.703 265.362,108.703 267.5,108.5C 267.205,110.735 267.539,112.735 268.5,114.5 Z"/></g>
<g><path style="opacity:1" fill="#e9eae8" d="M 358.5,121.5 C 356.228,122.441 354.228,123.774 352.5,125.5C 352.67,124.178 352.337,123.011 351.5,122C 331.996,121.171 312.662,121.338 293.5,122.5C 293.167,122.5 292.833,122.5 292.5,122.5C 292.5,122.167 292.5,121.833 292.5,121.5C 314.5,120.167 336.5,120.167 358.5,121.5 Z"/></g>
<g><path style="opacity:1" fill="#42424b" d="M 397.5,114.5 C 397.5,115.167 397.833,115.5 398.5,115.5C 400.948,116.473 403.615,116.806 406.5,116.5C 406.611,117.117 406.944,117.617 407.5,118C 411.22,118.192 414.72,119.025 418,120.5C 420.304,120.682 420.804,120.016 419.5,118.5C 428.516,117.251 437.516,117.251 446.5,118.5C 446.158,119.338 445.492,119.672 444.5,119.5C 443.833,119.5 443.167,119.5 442.5,119.5C 439.696,118.362 436.696,118.195 433.5,119C 427.412,120.673 421.412,122.173 415.5,123.5C 411.5,123.5 407.5,123.5 403.5,123.5C 402.849,124.091 402.182,124.757 401.5,125.5C 400.2,122.568 398.2,120.234 395.5,118.5C 394.828,119.949 394.161,121.282 393.5,122.5C 391.5,122.5 389.5,122.5 387.5,122.5C 386.325,122.719 385.325,122.386 384.5,121.5C 386.656,119.991 388.99,118.991 391.5,118.5C 391.5,117.5 391.5,116.5 391.5,115.5C 393.621,115.675 395.621,115.341 397.5,114.5 Z"/></g>
<g><path style="opacity:1" fill="#414346" d="M 397.5,87.5 C 397.5,96.5 397.5,105.5 397.5,114.5C 395.621,115.341 393.621,115.675 391.5,115.5C 391.5,116.5 391.5,117.5 391.5,118.5C 388.99,118.991 386.656,119.991 384.5,121.5C 385.325,122.386 386.325,122.719 387.5,122.5C 383.56,123.726 380.393,126.06 378,129.5C 377.617,128.944 377.117,128.611 376.5,128.5C 375.92,126.251 374.587,124.585 372.5,123.5C 369.024,122.357 365.358,122.19 361.5,123C 359.574,123.422 358.574,124.589 358.5,126.5C 358.167,126.5 357.833,126.5 357.5,126.5C 355.046,127.227 352.713,128.227 350.5,129.5C 350.733,127.938 351.4,126.605 352.5,125.5C 354.228,123.774 356.228,122.441 358.5,121.5C 359.043,121.44 359.376,121.107 359.5,120.5C 355.217,119.508 350.884,119.174 346.5,119.5C 346.5,118.5 346.5,117.5 346.5,116.5C 349.059,116.802 351.393,116.468 353.5,115.5C 353.5,115.167 353.5,114.833 353.5,114.5C 354.5,114.5 355.5,114.5 356.5,114.5C 356.842,115.338 357.508,115.672 358.5,115.5C 367.657,116.658 376.991,116.824 386.5,116C 391.206,115.593 393.873,113.093 394.5,108.5C 394.5,105.833 394.5,103.167 394.5,100.5C 396.135,96.427 397.135,92.0937 397.5,87.5 Z"/></g>
<g><path style="opacity:1" fill="#443b24" d="M 372.5,123.5 C 369.287,123.19 366.287,123.523 363.5,124.5C 361.486,124.392 359.82,125.058 358.5,126.5C 358.574,124.589 359.574,123.422 361.5,123C 365.358,122.19 369.024,122.357 372.5,123.5 Z"/></g>
<g><path style="opacity:1" fill="#655027" d="M 363.5,124.5 C 366.287,123.523 369.287,123.19 372.5,123.5C 374.587,124.585 375.92,126.251 376.5,128.5C 376.632,131.007 377.632,131.674 379.5,130.5C 378.735,133.096 378.401,135.763 378.5,138.5C 378.167,138.5 377.833,138.5 377.5,138.5C 377.975,135.918 377.308,133.918 375.5,132.5C 376.437,128.27 374.771,125.77 370.5,125C 368.19,124.503 365.857,124.337 363.5,124.5 Z"/></g>
<g><path style="opacity:1" fill="#674f27" d="M 388.5,124.5 C 389.919,123.549 391.585,123.216 393.5,123.5C 396.608,123.375 398.608,124.708 399.5,127.5C 396.274,125.123 392.607,124.123 388.5,124.5 Z"/></g>
<g><path style="opacity:1" fill="#4d4026" d="M 428.5,122.5 C 429.209,123.404 430.209,123.737 431.5,123.5C 432.791,123.263 433.791,123.596 434.5,124.5C 430.253,124.194 426.253,124.861 422.5,126.5C 421.508,124.974 420.008,124.307 418,124.5C 414.667,125.833 411.333,125.833 408,124.5C 406.213,124.759 404.713,125.425 403.5,126.5C 403.5,125.5 403.5,124.5 403.5,123.5C 407.5,123.5 411.5,123.5 415.5,123.5C 419.931,123.769 424.265,123.436 428.5,122.5 Z"/></g>
<g><path style="opacity:1" fill="#423821" d="M 387.5,122.5 C 389.5,122.5 391.5,122.5 393.5,122.5C 393.5,122.833 393.5,123.167 393.5,123.5C 391.585,123.216 389.919,123.549 388.5,124.5C 385.386,124.555 383.052,125.888 381.5,128.5C 380.5,128.833 379.833,129.5 379.5,130.5C 377.632,131.674 376.632,131.007 376.5,128.5C 377.117,128.611 377.617,128.944 378,129.5C 380.393,126.06 383.56,123.726 387.5,122.5 Z"/></g>
<g><path style="opacity:1" fill="#eca341" d="M 20.5,127.5 C 20.5,126.833 20.5,126.167 20.5,125.5C 20.5,124.167 20.5,122.833 20.5,121.5C 23.1667,121.5 25.8333,121.5 28.5,121.5C 28.4661,124.199 29.1328,126.699 30.5,129C 26.9787,129.691 23.6454,129.191 20.5,127.5 Z"/></g>
<g><path style="opacity:1" fill="#3a2e1d" d="M 34.5,115.5 C 37.1667,115.5 39.8333,115.5 42.5,115.5C 42.5,119.167 42.5,122.833 42.5,126.5C 38.6286,126.815 34.9619,126.482 31.5,125.5C 31.8333,125.5 32.1667,125.5 32.5,125.5C 35.5,125.5 38.5,125.5 41.5,125.5C 41.5,124.167 41.5,122.833 41.5,121.5C 41.5,119.833 41.5,118.167 41.5,116.5C 38.9407,116.802 36.6074,116.468 34.5,115.5 Z"/></g>
<g><path style="opacity:1" fill="#7d5c2a" d="M 26.5,115.5 C 26.5,115.167 26.5,114.833 26.5,114.5C 32.1667,114.5 37.8333,114.5 43.5,114.5C 43.5,118.833 43.5,123.167 43.5,127.5C 39.1667,127.5 34.8333,127.5 30.5,127.5C 30.5,125.167 30.5,122.833 30.5,120.5C 26.5,120.5 22.5,120.5 18.5,120.5C 22.2984,119.517 26.2984,119.183 30.5,119.5C 31.4614,121.265 31.7947,123.265 31.5,125.5C 34.9619,126.482 38.6286,126.815 42.5,126.5C 42.5,122.833 42.5,119.167 42.5,115.5C 39.8333,115.5 37.1667,115.5 34.5,115.5C 31.8333,115.5 29.1667,115.5 26.5,115.5 Z"/></g>
<g><path style="opacity:1" fill="#d3a950" d="M 363.5,124.5 C 365.857,124.337 368.19,124.503 370.5,125C 374.771,125.77 376.437,128.27 375.5,132.5C 372.753,132.813 370.086,132.48 367.5,131.5C 367.137,130.817 366.804,130.15 366.5,129.5C 367.8,130.108 369.133,130.775 370.5,131.5C 371.167,131.167 371.833,130.833 372.5,130.5C 371.754,129.264 371.421,127.93 371.5,126.5C 366.346,126.294 361.346,126.961 356.5,128.5C 356.833,127.833 357.167,127.167 357.5,126.5C 357.833,126.5 358.167,126.5 358.5,126.5C 359.82,125.058 361.486,124.392 363.5,124.5 Z"/></g>
<g><path style="opacity:1" fill="#eab24a" d="M 366.5,129.5 C 364.61,129.297 363.11,129.963 362,131.5C 361.231,134.099 361.398,136.599 362.5,139C 366.051,137.027 370.051,136.194 374.5,136.5C 374.385,138.947 373.385,140.947 371.5,142.5C 370.508,142.328 369.842,142.662 369.5,143.5C 357.069,145.664 352.735,140.664 356.5,128.5C 361.346,126.961 366.346,126.294 371.5,126.5C 371.421,127.93 371.754,129.264 372.5,130.5C 371.833,130.833 371.167,131.167 370.5,131.5C 369.133,130.775 367.8,130.108 366.5,129.5 Z"/></g>
<g><path style="opacity:1" fill="#daad56" d="M 388.5,124.5 C 392.607,124.123 396.274,125.123 399.5,127.5C 400.833,131.167 400.833,134.833 399.5,138.5C 398.033,141.29 395.7,142.956 392.5,143.5C 392.5,142.5 392.5,141.5 392.5,140.5C 398.197,139.222 400.03,135.889 398,130.5C 395.826,127.982 393.159,126.315 390,125.5C 387.303,126.788 384.47,127.788 381.5,128.5C 383.052,125.888 385.386,124.555 388.5,124.5 Z"/></g>
<g><path style="opacity:1" fill="#e0a348" d="M 43.5,83.5 C 45.0291,94.6973 46.3625,106.197 47.5,118C 46.1439,119.567 45.4772,121.4 45.5,123.5C 46.5,123.5 47.5,123.5 48.5,123.5C 48.5,124.5 48.5,125.5 48.5,126.5C 47.1667,126.5 45.8333,126.5 44.5,126.5C 44.67,127.822 44.3366,128.989 43.5,130C 44.7375,130.232 45.7375,130.732 46.5,131.5C 39.1667,131.5 31.8333,131.5 24.5,131.5C 22.8333,130.5 21.5,129.167 20.5,127.5C 23.6454,129.191 26.9787,129.691 30.5,129C 29.1328,126.699 28.4661,124.199 28.5,121.5C 25.8333,121.5 23.1667,121.5 20.5,121.5C 20.5,122.833 20.5,124.167 20.5,125.5C 18.7868,124.365 18.1201,122.698 18.5,120.5C 22.5,120.5 26.5,120.5 30.5,120.5C 30.5,122.833 30.5,125.167 30.5,127.5C 34.8333,127.5 39.1667,127.5 43.5,127.5C 43.5,123.167 43.5,118.833 43.5,114.5C 37.8333,114.5 32.1667,114.5 26.5,114.5C 23.5935,113.927 21.5935,112.261 20.5,109.5C 22.8542,110.013 24.8542,111.179 26.5,113C 28.6667,113.167 30.8333,113.333 33,113.5C 35.6103,113.467 37.777,112.8 39.5,111.5C 40.8333,111.5 42.1667,111.5 43.5,111.5C 43.5,102.167 43.5,92.8333 43.5,83.5 Z"/></g>
<g><path style="opacity:1" fill="#33374a" d="M 41.5,121.5 C 41.5,122.833 41.5,124.167 41.5,125.5C 38.5,125.5 35.5,125.5 32.5,125.5C 32.5,124.167 32.5,122.833 32.5,121.5C 35.5227,122.678 38.5227,122.678 41.5,121.5 Z"/></g>
<g><path style="opacity:1" fill="#443925" d="M 30.5,119.5 C 26.2984,119.183 22.2984,119.517 18.5,120.5C 18.1201,122.698 18.7868,124.365 20.5,125.5C 20.5,126.167 20.5,126.833 20.5,127.5C 21.5,129.167 22.8333,130.5 24.5,131.5C 34.6532,132.494 44.9865,132.828 55.5,132.5C 44.3456,133.495 33.0123,133.828 21.5,133.5C 19.8703,130.325 18.3703,126.991 17,123.5C 16.0003,119.663 17.5003,117.663 21.5,117.5C 24.7021,117.86 27.7021,118.526 30.5,119.5 Z"/></g>
<g><path style="opacity:1" fill="#48463d" d="M 357.5,126.5 C 357.167,127.167 356.833,127.833 356.5,128.5C 353.945,131.627 352.945,135.294 353.5,139.5C 352.819,137.842 351.985,136.175 351,134.5C 350.821,138.025 350.321,141.359 349.5,144.5C 349.5,141.833 349.5,139.167 349.5,136.5C 349.598,133.752 348.598,133.086 346.5,134.5C 344.365,132.631 341.698,131.964 338.5,132.5C 342.62,132.023 346.62,131.023 350.5,129.5C 352.713,128.227 355.046,127.227 357.5,126.5 Z"/></g>
<g><path style="opacity:1" fill="#50432c" d="M 366.5,129.5 C 366.804,130.15 367.137,130.817 367.5,131.5C 370.086,132.48 372.753,132.813 375.5,132.5C 377.308,133.918 377.975,135.918 377.5,138.5C 376.833,138.5 376.5,138.167 376.5,137.5C 376.5,136.167 376.5,134.833 376.5,133.5C 374.076,133.192 371.743,133.526 369.5,134.5C 370.533,135.452 371.7,135.452 373,134.5C 374.03,134.836 374.53,135.503 374.5,136.5C 370.051,136.194 366.051,137.027 362.5,139C 361.398,136.599 361.231,134.099 362,131.5C 363.11,129.963 364.61,129.297 366.5,129.5 Z"/></g>
<g><path style="opacity:1" fill="#3d434d" d="M 363.5,131.5 C 364.5,131.5 365.5,131.5 366.5,131.5C 366.5,133.167 366.5,134.833 366.5,136.5C 365.5,136.5 364.5,136.5 363.5,136.5C 363.5,134.833 363.5,133.167 363.5,131.5 Z"/></g>
<g><path style="opacity:1" fill="#eab14b" d="M 392.5,143.5 C 391.833,143.5 391.5,143.833 391.5,144.5C 388.15,144.665 384.817,144.498 381.5,144C 380.219,142.591 379.219,141.091 378.5,139.5C 378.5,139.167 378.5,138.833 378.5,138.5C 378.401,135.763 378.735,133.096 379.5,130.5C 379.833,129.5 380.5,128.833 381.5,128.5C 384.47,127.788 387.303,126.788 390,125.5C 393.159,126.315 395.826,127.982 398,130.5C 400.03,135.889 398.197,139.222 392.5,140.5C 392.5,141.5 392.5,142.5 392.5,143.5 Z"/></g>
<g><path style="opacity:1" fill="#3e4249" d="M 391.5,130.5 C 391.167,132.5 390.833,134.5 390.5,136.5C 389.5,136.5 388.5,136.5 387.5,136.5C 387.5,135.5 387.5,134.5 387.5,133.5C 388.262,131.738 389.596,130.738 391.5,130.5 Z"/></g>
<g><path style="opacity:1" fill="#483d28" d="M 391.5,130.5 C 393.145,134.203 392.145,137.203 388.5,139.5C 387.817,139.137 387.15,138.804 386.5,138.5C 386.216,136.585 386.549,134.919 387.5,133.5C 387.5,134.5 387.5,135.5 387.5,136.5C 388.5,136.5 389.5,136.5 390.5,136.5C 390.833,134.5 391.167,132.5 391.5,130.5 Z"/></g>
<g><path style="opacity:1" fill="#745d30" d="M 391.5,130.5 C 389.596,130.738 388.262,131.738 387.5,133.5C 386.549,134.919 386.216,136.585 386.5,138.5C 384.853,135.248 385.52,132.414 388.5,130C 389.749,129.26 390.749,129.427 391.5,130.5 Z"/></g>
<g><path style="opacity:1" fill="#6c6f71" d="M 61.5,117.5 C 61.5,124.167 61.5,130.833 61.5,137.5C 48.6557,137.829 35.989,137.495 23.5,136.5C 35.8333,136.5 48.1667,136.5 60.5,136.5C 60.1765,129.978 60.5098,123.645 61.5,117.5 Z"/></g>
<g><path style="opacity:1" fill="#cda654" d="M 356.5,128.5 C 352.735,140.664 357.069,145.664 369.5,143.5C 366.038,144.482 362.371,144.815 358.5,144.5C 356.473,143.139 354.806,141.473 353.5,139.5C 352.945,135.294 353.945,131.627 356.5,128.5 Z"/></g>
<g><path style="opacity:1" fill="#514730" d="M 349.5,136.5 C 346.941,136.198 344.607,136.532 342.5,137.5C 341.532,139.607 341.198,141.941 341.5,144.5C 344.167,144.5 346.833,144.5 349.5,144.5C 346.038,145.482 342.371,145.815 338.5,145.5C 338.865,142.375 339.698,139.375 341,136.5C 342.444,134.845 344.278,134.178 346.5,134.5C 348.598,133.086 349.598,133.752 349.5,136.5 Z"/></g>
<g><path style="opacity:1" fill="#3c3c3f" d="M 338.5,132.5 C 341.698,131.964 344.365,132.631 346.5,134.5C 344.278,134.178 342.444,134.845 341,136.5C 339.698,139.375 338.865,142.375 338.5,145.5C 342.371,145.815 346.038,145.482 349.5,144.5C 350.321,141.359 350.821,138.025 351,134.5C 351.985,136.175 352.819,137.842 353.5,139.5C 353.025,142.885 354.358,145.218 357.5,146.5C 357.043,147.298 356.376,147.631 355.5,147.5C 354.85,147.196 354.183,146.863 353.5,146.5C 347.724,148.395 341.724,149.061 335.5,148.5C 336.13,143.089 337.13,137.756 338.5,132.5 Z"/></g>
<g><path style="opacity:1" fill="#b8964f" d="M 349.5,136.5 C 349.5,139.167 349.5,141.833 349.5,144.5C 346.833,144.5 344.167,144.5 341.5,144.5C 341.198,141.941 341.532,139.607 342.5,137.5C 344.607,136.532 346.941,136.198 349.5,136.5 Z"/></g>
<g><path style="opacity:1" fill="#e8b74f" d="M 342.5,137.5 C 344.5,137.5 346.5,137.5 348.5,137.5C 348.5,139.5 348.5,141.5 348.5,143.5C 346.5,143.5 344.5,143.5 342.5,143.5C 342.5,141.5 342.5,139.5 342.5,137.5 Z"/></g>
<g><path style="opacity:1" fill="#48423c" d="M 403.5,123.5 C 403.5,124.5 403.5,125.5 403.5,126.5C 403.5,127.833 403.5,129.167 403.5,130.5C 403.5,131.167 403.5,131.833 403.5,132.5C 402.205,136.267 401.539,140.267 401.5,144.5C 404.5,144.5 407.5,144.5 410.5,144.5C 410.5,141.833 410.5,139.167 410.5,136.5C 413.43,130.974 414.763,131.64 414.5,138.5C 414.5,140.5 414.5,142.5 414.5,144.5C 417.167,144.5 419.833,144.5 422.5,144.5C 423.008,140.803 423.674,137.136 424.5,133.5C 425.708,132.766 427.041,132.433 428.5,132.5C 428.5,134.833 428.5,137.167 428.5,139.5C 427.549,140.919 427.216,142.585 427.5,144.5C 430.167,144.5 432.833,144.5 435.5,144.5C 435.785,139.622 436.452,134.789 437.5,130C 437.137,127.808 436.137,125.974 434.5,124.5C 436.017,124.511 437.184,125.177 438,126.5C 438.672,132.939 438.172,139.272 436.5,145.5C 424.645,146.366 412.812,146.699 401,146.5C 400.5,146.333 400,146.167 399.5,146C 399.854,144.374 399.854,142.541 399.5,140.5C 399.5,139.833 399.5,139.167 399.5,138.5C 400.833,134.833 400.833,131.167 399.5,127.5C 398.608,124.708 396.608,123.375 393.5,123.5C 393.5,123.167 393.5,122.833 393.5,122.5C 394.161,121.282 394.828,119.949 395.5,118.5C 398.2,120.234 400.2,122.568 401.5,125.5C 402.182,124.757 402.849,124.091 403.5,123.5 Z"/></g>
<g><path style="opacity:1" fill="#b8924c" d="M 412.5,130.5 C 413.919,129.549 415.585,129.216 417.5,129.5C 417.221,134.227 416.554,138.893 415.5,143.5C 417.5,143.5 419.5,143.5 421.5,143.5C 421.5,141.5 421.5,139.5 421.5,137.5C 422.687,135.928 423.687,134.261 424.5,132.5C 424.5,132.833 424.5,133.167 424.5,133.5C 423.674,137.136 423.008,140.803 422.5,144.5C 419.833,144.5 417.167,144.5 414.5,144.5C 414.5,142.5 414.5,140.5 414.5,138.5C 415.473,136.052 415.806,133.385 415.5,130.5C 414.5,130.5 413.5,130.5 412.5,130.5 Z"/></g>
<g><path style="opacity:1" fill="#a78a44" d="M 403.5,132.5 C 403.751,135.909 403.417,139.242 402.5,142.5C 404.743,143.474 407.076,143.808 409.5,143.5C 409.198,140.941 409.532,138.607 410.5,136.5C 410.5,139.167 410.5,141.833 410.5,144.5C 407.5,144.5 404.5,144.5 401.5,144.5C 401.539,140.267 402.205,136.267 403.5,132.5 Z"/></g>
<g><path style="opacity:1" fill="#ebb349" d="M 418.5,125.5 C 420.717,127.08 423.384,128.08 426.5,128.5C 425.15,129.95 423.484,130.617 421.5,130.5C 421.5,132.833 421.5,135.167 421.5,137.5C 421.5,139.5 421.5,141.5 421.5,143.5C 419.5,143.5 417.5,143.5 415.5,143.5C 416.554,138.893 417.221,134.227 417.5,129.5C 415.585,129.216 413.919,129.549 412.5,130.5C 410.919,132.142 410.253,134.142 410.5,136.5C 409.532,138.607 409.198,140.941 409.5,143.5C 407.076,143.808 404.743,143.474 402.5,142.5C 403.417,139.242 403.751,135.909 403.5,132.5C 403.5,131.833 403.5,131.167 403.5,130.5C 404.249,129.469 404.915,128.302 405.5,127C 409.863,126.631 414.196,126.131 418.5,125.5 Z"/></g>
<g><path style="opacity:1" fill="#564627" d="M 412.5,130.5 C 413.5,130.5 414.5,130.5 415.5,130.5C 415.806,133.385 415.473,136.052 414.5,138.5C 414.763,131.64 413.43,130.974 410.5,136.5C 410.253,134.142 410.919,132.142 412.5,130.5 Z"/></g>
<g><path style="opacity:1" fill="#d4aa51" d="M 434.5,124.5 C 436.137,125.974 437.137,127.808 437.5,130C 436.452,134.789 435.785,139.622 435.5,144.5C 432.833,144.5 430.167,144.5 427.5,144.5C 427.216,142.585 427.549,140.919 428.5,139.5C 428.5,137.167 428.5,134.833 428.5,132.5C 427.335,129.978 426.002,129.978 424.5,132.5C 423.687,134.261 422.687,135.928 421.5,137.5C 421.5,135.167 421.5,132.833 421.5,130.5C 423.484,130.617 425.15,129.95 426.5,128.5C 423.384,128.08 420.717,127.08 418.5,125.5C 419.833,125.833 421.167,126.167 422.5,126.5C 426.253,124.861 430.253,124.194 434.5,124.5 Z"/></g>
<g><path style="opacity:1" fill="#edb348" d="M 428.5,139.5 C 429.796,135.631 429.796,131.631 428.5,127.5C 430.771,126.637 433.105,126.637 435.5,127.5C 435.431,132.854 435.098,138.187 434.5,143.5C 432.5,143.5 430.5,143.5 428.5,143.5C 428.5,142.167 428.5,140.833 428.5,139.5 Z"/></g>
<g><path style="opacity:1" fill="#504524" d="M 428.5,132.5 C 427.041,132.433 425.708,132.766 424.5,133.5C 424.5,133.167 424.5,132.833 424.5,132.5C 426.002,129.978 427.335,129.978 428.5,132.5 Z"/></g>
<g><path style="opacity:1" fill="#bc9852" d="M 422.5,126.5 C 421.167,126.167 419.833,125.833 418.5,125.5C 414.196,126.131 409.863,126.631 405.5,127C 404.915,128.302 404.249,129.469 403.5,130.5C 403.5,129.167 403.5,127.833 403.5,126.5C 404.713,125.425 406.213,124.759 408,124.5C 411.333,125.833 414.667,125.833 418,124.5C 420.008,124.307 421.508,124.974 422.5,126.5 Z"/></g>
<g><path style="opacity:1" fill="#3d3d3c" d="M 442.5,119.5 C 440.396,119.201 438.396,119.534 436.5,120.5C 436.624,121.107 436.957,121.44 437.5,121.5C 438.794,122.29 439.961,123.29 441,124.5C 441.498,127.817 441.665,131.15 441.5,134.5C 440.138,138.977 439.138,143.643 438.5,148.5C 423.278,148.442 408.278,148.442 393.5,148.5C 387.065,150.545 381.231,149.545 376,145.5C 369.386,149.885 362.553,150.552 355.5,147.5C 356.376,147.631 357.043,147.298 357.5,146.5C 354.358,145.218 353.025,142.885 353.5,139.5C 354.806,141.473 356.473,143.139 358.5,144.5C 362.351,145.809 366.351,145.809 370.5,144.5C 370.863,143.817 371.196,143.15 371.5,142.5C 373.385,140.947 374.385,138.947 374.5,136.5C 374.53,135.503 374.03,134.836 373,134.5C 371.7,135.452 370.533,135.452 369.5,134.5C 371.743,133.526 374.076,133.192 376.5,133.5C 376.5,134.833 376.5,136.167 376.5,137.5C 375.387,138.946 375.22,140.613 376,142.5C 376.414,142.957 376.914,143.291 377.5,143.5C 378.429,142.311 378.762,140.978 378.5,139.5C 379.219,141.091 380.219,142.591 381.5,144C 384.817,144.498 388.15,144.665 391.5,144.5C 395.269,145.04 397.936,143.706 399.5,140.5C 399.854,142.541 399.854,144.374 399.5,146C 400,146.167 400.5,146.333 401,146.5C 412.812,146.699 424.645,146.366 436.5,145.5C 438.172,139.272 438.672,132.939 438,126.5C 437.184,125.177 436.017,124.511 434.5,124.5C 433.791,123.596 432.791,123.263 431.5,123.5C 431.5,122.5 431.5,121.5 431.5,120.5C 429.821,120.285 428.821,120.952 428.5,122.5C 424.265,123.436 419.931,123.769 415.5,123.5C 421.412,122.173 427.412,120.673 433.5,119C 436.696,118.195 439.696,118.362 442.5,119.5 Z"/></g>
<g><path style="opacity:1" fill="#695c48" d="M 371.5,142.5 C 371.196,143.15 370.863,143.817 370.5,144.5C 366.351,145.809 362.351,145.809 358.5,144.5C 362.371,144.815 366.038,144.482 369.5,143.5C 369.842,142.662 370.508,142.328 371.5,142.5 Z"/></g>
<g><path style="opacity:1" fill="#564c27" d="M 399.5,138.5 C 399.5,139.167 399.5,139.833 399.5,140.5C 397.936,143.706 395.269,145.04 391.5,144.5C 391.5,143.833 391.833,143.5 392.5,143.5C 395.7,142.956 398.033,141.29 399.5,138.5 Z"/></g>
<g><path style="opacity:1" fill="#443c4b" d="M 376.5,137.5 C 376.5,138.167 376.833,138.5 377.5,138.5C 377.833,138.5 378.167,138.5 378.5,138.5C 378.5,138.833 378.5,139.167 378.5,139.5C 378.762,140.978 378.429,142.311 377.5,143.5C 376.914,143.291 376.414,142.957 376,142.5C 375.22,140.613 375.387,138.946 376.5,137.5 Z"/></g>
<g><path style="opacity:1" fill="#443d52" d="M 412.5,134.5 C 413.851,137.772 413.684,141.106 412,144.5C 411.457,141.132 411.624,137.799 412.5,134.5 Z"/></g>
<g><path style="opacity:1" fill="#3f3d55" d="M 431.5,123.5 C 430.209,123.737 429.209,123.404 428.5,122.5C 428.821,120.952 429.821,120.285 431.5,120.5C 431.5,121.5 431.5,122.5 431.5,123.5 Z"/></g>
<g><path style="opacity:1" fill="#bebebe" d="M 441.5,134.5 C 441.575,138.897 441.075,143.23 440,147.5C 439.617,148.056 439.117,148.389 438.5,148.5C 439.138,143.643 440.138,138.977 441.5,134.5 Z"/></g>
<g><path style="opacity:1" fill="#a2a2a2" d="M 393.5,148.5 C 408.278,148.442 423.278,148.442 438.5,148.5C 423.628,149.808 408.628,149.808 393.5,148.5 Z"/></g>
</svg>
