<?xml version="1.0" encoding="UTF-8"?>
<!DOCTYPE svg PUBLIC "-//W3C//DTD SVG 1.1//EN" "http://www.w3.org/Graphics/SVG/1.1/DTD/svg11.dtd">
<svg xmlns="http://www.w3.org/2000/svg" version="1.1" width="364px" height="345px" style="shape-rendering:geometricPrecision; text-rendering:geometricPrecision; image-rendering:optimizeQuality; fill-rule:evenodd; clip-rule:evenodd" xmlns:xlink="http://www.w3.org/1999/xlink">
<g><path style="opacity:1" fill="#fdfdfd" d="M -0.5,-0.5 C 120.833,-0.5 242.167,-0.5 363.5,-0.5C 363.5,114.5 363.5,229.5 363.5,344.5C 242.167,344.5 120.833,344.5 -0.5,344.5C -0.5,229.5 -0.5,114.5 -0.5,-0.5 Z"/></g>
<g><path style="opacity:1" fill="#5e5f5e" d="M 131.5,43.5 C 129.01,42.9096 126.343,42.743 123.5,43C 122.364,41.8549 121.364,40.6883 120.5,39.5C 112.216,35.7169 106.05,29.7169 102,21.5C 99.9252,14.4895 102.092,9.32279 108.5,6C 129.096,0.643193 146.929,5.47653 162,20.5C 168.702,32.2676 165.535,40.1009 152.5,44C 145.45,44.7598 138.45,44.5931 131.5,43.5 Z"/></g>
<g><path style="opacity:1" fill="#424243" d="M 124.5,9.5 C 126.619,10.9861 128.119,12.9861 129,15.5C 130,14.1667 131,14.1667 132,15.5C 132.167,15.1667 132.333,14.8333 132.5,14.5C 131.624,13.7492 130.624,13.2492 129.5,13C 130.913,11.8782 131.746,10.7115 132,9.5C 136.544,11.0562 140.211,13.7228 143,17.5C 143.313,24.6297 139.813,27.4631 132.5,26C 134.974,25.8871 136.974,24.8871 138.5,23C 137.333,21.1667 136.167,19.3333 135,17.5C 131.791,18.8541 128.624,18.6875 125.5,17C 123.36,14.8265 123.026,12.3265 124.5,9.5 Z"/></g>
<g><path style="opacity:1" fill="#646565" d="M 304.5,74.5 C 302.833,74.5 301.167,74.5 299.5,74.5C 284.961,75.8212 272.461,71.4879 262,61.5C 256.869,52.0729 257.536,43.0729 264,34.5C 284.848,16.1694 308.014,12.6694 333.5,24C 342.613,29.73 346.113,37.8966 344,48.5C 339.058,58.7382 331.224,65.9048 320.5,70C 315.126,71.8396 309.793,73.3396 304.5,74.5 Z"/></g>
<g><path style="opacity:1" fill="#6c6c6c" d="M 285.5,46.5 C 287.336,49.1676 289.669,51.3343 292.5,53C 291.62,54.3561 291.286,55.8561 291.5,57.5C 297.121,56.6463 302.788,56.313 308.5,56.5C 308.182,53.5185 309.182,51.1852 311.5,49.5C 318.099,44.3791 318.099,39.2124 311.5,34C 313.301,33.6827 313.634,33.016 312.5,32C 314.88,30.6928 317.38,28.5262 320,25.5C 320.617,26.4491 320.451,27.2825 319.5,28C 321.991,28.6259 321.991,29.4593 319.5,30.5C 321.845,35.003 325.012,35.6696 329,32.5C 329.333,32.8333 329.667,33.1667 330,33.5C 330.689,32.6433 331.522,31.9767 332.5,31.5C 338.74,41.6637 337.073,50.497 327.5,58C 314.929,65.6163 301.262,69.1163 286.5,68.5C 281.532,65.6807 276.532,62.8473 271.5,60C 266.486,54.6352 264.986,48.4685 267,41.5C 268.309,39.1088 269.309,39.1088 270,41.5C 270.923,40.2412 271.757,38.9079 272.5,37.5C 273.5,38.5 274.5,39.5 275.5,40.5C 272.833,41.5 272.833,42.5 275.5,43.5C 277.177,40.1466 279.343,37.1466 282,34.5C 282.49,35.7932 282.657,37.1266 282.5,38.5C 283.675,38.281 284.675,38.6143 285.5,39.5C 284.218,41.1792 283.218,43.0126 282.5,45C 283.527,45.5133 284.527,46.0133 285.5,46.5 Z"/></g>
<g><path style="opacity:1" fill="#838387" d="M 305.5,37.5 C 302.315,40.4695 298.648,41.1362 294.5,39.5C 293.4,38.3951 292.733,37.0618 292.5,35.5C 296.053,30.4885 300.553,29.4885 306,32.5C 306.64,34.265 306.473,35.9317 305.5,37.5 Z"/></g>
<g><path style="opacity:1" fill="#2e2f33" d="M 305.5,37.5 C 306.922,37.7496 307.922,38.583 308.5,40C 307.695,41.1127 307.028,42.2794 306.5,43.5C 303.138,46.6172 299.472,47.1172 295.5,45C 306.167,44.3333 306.167,43.6667 295.5,43C 294.663,41.9887 294.33,40.8221 294.5,39.5C 298.648,41.1362 302.315,40.4695 305.5,37.5 Z"/></g>
<g><path style="opacity:1" fill="#8a8c8a" d="M 120.5,39.5 C 121.364,40.6883 122.364,41.8549 123.5,43C 126.343,42.743 129.01,42.9096 131.5,43.5C 129.938,45.3717 128.938,47.7051 128.5,50.5C 127.494,50.0623 127.494,49.3957 128.5,48.5C 127.066,47.7702 125.9,46.7702 125,45.5C 123.657,46.2135 122.324,45.8802 121,44.5C 120.506,42.8659 120.34,41.1992 120.5,39.5 Z"/></g>
<g><path style="opacity:1" fill="#4f504f" d="M 292.5,35.5 C 292.733,37.0618 293.4,38.3951 294.5,39.5C 294.33,40.8221 294.663,41.9887 295.5,43C 306.167,43.6667 306.167,44.3333 295.5,45C 299.472,47.1172 303.138,46.6172 306.5,43.5C 306.461,44.5832 306.127,45.5832 305.5,46.5C 307.745,47.2082 309.745,48.2082 311.5,49.5C 309.182,51.1852 308.182,53.5185 308.5,56.5C 302.788,56.313 297.121,56.6463 291.5,57.5C 291.286,55.8561 291.62,54.3561 292.5,53C 289.669,51.3343 287.336,49.1676 285.5,46.5C 285.076,41.0041 287.409,37.3375 292.5,35.5 Z"/></g>
<g><path style="opacity:1" fill="#bbbab8" d="M 128.5,84.5 C 128.11,87.7967 127.11,90.7967 125.5,93.5C 124.491,79.5142 124.324,65.5142 125,51.5C 125.667,74.1667 126.333,74.1667 127,51.5C 128.248,62.4637 128.748,73.4637 128.5,84.5 Z"/></g>
<g><path style="opacity:1" fill="#6c6e6e" d="M 188.5,82.5 C 198.604,82.4664 206.104,86.7998 211,95.5C 211.494,97.1341 211.66,98.8008 211.5,100.5C 210.583,103.321 208.916,105.654 206.5,107.5C 206.162,103.592 205.995,99.5916 206,95.5C 203.39,89.4866 199.057,87.1533 193,88.5C 192.396,86.3143 191.23,86.1476 189.5,88C 189.833,88.3333 190.167,88.6667 190.5,89C 188.671,89.2735 187.171,90.1068 186,91.5C 184.115,93.73 182.615,96.23 181.5,99C 182.833,100 184.167,101 185.5,102C 184.019,104.578 182.686,107.244 181.5,110C 181.862,111.225 182.362,112.391 183,113.5C 183.333,113.167 183.667,112.833 184,112.5C 189.116,114.496 194.116,113.829 199,110.5C 199.671,111.252 200.504,111.586 201.5,111.5C 197.485,113.924 193.151,115.59 188.5,116.5C 179.773,117.394 171.44,116.227 163.5,113C 157.862,109.197 156.862,104.364 160.5,98.5C 163.883,95.3414 166.55,91.6747 168.5,87.5C 177.507,83.8698 186.674,83.5365 196,86.5C 196.5,86.3333 197,86.1667 197.5,86C 194.429,84.7043 191.429,83.5377 188.5,82.5 Z"/></g>
<g><path style="opacity:1" fill="#6f7271" d="M 276.5,89.5 C 273.482,89.3354 270.482,89.502 267.5,90C 271.825,94.3108 273.325,99.4775 272,105.5C 270.144,108.556 268.311,111.556 266.5,114.5C 265.883,114.389 265.383,114.056 265,113.5C 262.17,115.831 259.003,117.498 255.5,118.5C 247.52,116.826 239.186,115.659 230.5,115C 226.241,113.066 222.241,110.732 218.5,108C 217.393,105.072 215.726,102.572 213.5,100.5C 216.2,89.6421 223.2,83.4754 234.5,82C 245.606,80.2881 255.939,82.2881 265.5,88C 269.356,88.1773 273.023,88.6773 276.5,89.5 Z"/></g>
<g><path style="opacity:1" fill="#505251" d="M 236.5,82.5 C 245.499,81.5986 253.832,83.432 261.5,88C 256.864,86.4638 252.03,85.2971 247,84.5C 245.5,84.6667 244,84.8333 242.5,85C 244.5,85.3333 246.5,85.6667 248.5,86C 241.959,85.9768 235.459,86.1435 229,86.5C 228.5,86.3333 228,86.1667 227.5,86C 230.459,84.3957 233.459,83.2291 236.5,82.5 Z"/></g>
<g><path style="opacity:1" fill="#777a79" d="M 206.5,107.5 C 205.421,109.543 203.754,110.876 201.5,111.5C 200.504,111.586 199.671,111.252 199,110.5C 194.116,113.829 189.116,114.496 184,112.5C 183.667,112.833 183.333,113.167 183,113.5C 182.362,112.391 181.862,111.225 181.5,110C 182.686,107.244 184.019,104.578 185.5,102C 184.167,101 182.833,100 181.5,99C 182.615,96.23 184.115,93.73 186,91.5C 187.171,90.1068 188.671,89.2735 190.5,89C 190.167,88.6667 189.833,88.3333 189.5,88C 191.23,86.1476 192.396,86.3143 193,88.5C 199.057,87.1533 203.39,89.4866 206,95.5C 205.995,99.5916 206.162,103.592 206.5,107.5 Z"/></g>
<g><path style="opacity:1" fill="#585856" d="M 128.5,84.5 C 128.18,87.8984 128.513,91.2317 129.5,94.5C 145.601,100.119 145.268,104.786 128.5,108.5C 127.5,108.5 126.5,108.5 125.5,108.5C 118.978,108.823 112.645,108.49 106.5,107.5C 113.175,107.666 119.842,107.5 126.5,107C 110.323,106.609 94.4896,104.109 79,99.5C 78.2352,99.5699 77.7352,99.9033 77.5,100.5C 70.3099,95.4315 70.9766,91.9315 79.5,90C 82,89.8333 84.5,89.6667 87,89.5C 91.2946,89.5985 95.2946,90.5985 99,92.5C 101.737,91.4599 104.571,90.7933 107.5,90.5C 113.627,90.8545 119.627,91.8545 125.5,93.5C 127.11,90.7967 128.11,87.7967 128.5,84.5 Z"/></g>
<g><path style="opacity:1" fill="#b9b9b6" d="M 299.5,74.5 C 301.167,74.5 302.833,74.5 304.5,74.5C 304.5,96.1667 304.5,117.833 304.5,139.5C 302.958,140.301 301.292,140.634 299.5,140.5C 299.5,118.5 299.5,96.5 299.5,74.5 Z"/></g>
<g><path style="opacity:1" fill="#30302e" d="M 77.5,100.5 C 77.7352,99.9033 78.2352,99.5699 79,99.5C 94.4896,104.109 110.323,106.609 126.5,107C 119.842,107.5 113.175,107.666 106.5,107.5C 96.3062,107.891 86.6396,105.558 77.5,100.5 Z"/></g>
<g><path style="opacity:1" fill="#1e1f1e" d="M 160.5,115.5 C 160.5,118.167 160.5,120.833 160.5,123.5C 158.614,124.065 156.947,125.065 155.5,126.5C 158.213,127.905 160.879,129.405 163.5,131C 162.263,131.232 161.263,131.732 160.5,132.5C 155.2,134.678 149.867,135.011 144.5,133.5C 145.708,132.766 147.041,132.433 148.5,132.5C 148.285,130.821 148.952,129.821 150.5,129.5C 151.15,129.804 151.817,130.137 152.5,130.5C 153.663,125.198 153.829,119.864 153,114.5C 151.708,113.209 150.542,113.209 149.5,114.5C 148.434,115.692 147.601,115.359 147,113.5C 147.553,108.992 147.387,104.492 146.5,100C 146.667,99.1667 146.833,98.3333 147,97.5C 148.302,96.9152 149.469,96.2485 150.5,95.5C 151.5,95.5 152.5,95.5 153.5,95.5C 153.5,93.8333 153.5,92.1667 153.5,90.5C 154.873,90.3433 156.207,90.51 157.5,91C 151.484,99.9988 152.484,108.165 160.5,115.5 Z"/></g>
<g><path style="opacity:1" fill="#4d4f4f" d="M 188.5,82.5 C 191.429,83.5377 194.429,84.7043 197.5,86C 197,86.1667 196.5,86.3333 196,86.5C 186.674,83.5365 177.507,83.8698 168.5,87.5C 166.55,91.6747 163.883,95.3414 160.5,98.5C 156.862,104.364 157.862,109.197 163.5,113C 171.44,116.227 179.773,117.394 188.5,116.5C 181.833,117.167 175.167,117.833 168.5,118.5C 165.833,117.5 163.167,116.5 160.5,115.5C 152.484,108.165 151.484,99.9988 157.5,91C 156.207,90.51 154.873,90.3433 153.5,90.5C 153.5,92.1667 153.5,93.8333 153.5,95.5C 152.5,95.5 151.5,95.5 150.5,95.5C 150.5,93.5 150.5,91.5 150.5,89.5C 153.85,89.665 157.183,89.4983 160.5,89C 168.785,82.1801 178.118,80.0135 188.5,82.5 Z"/></g>
<g><path style="opacity:1" fill="#fcfcfc" d="M 255.5,118.5 C 259.003,117.498 262.17,115.831 265,113.5C 265.383,114.056 265.883,114.389 266.5,114.5C 266.5,123.833 266.5,133.167 266.5,142.5C 262.898,142.75 259.565,143.75 256.5,145.5C 256.709,146.086 257.043,146.586 257.5,147C 259.473,147.495 261.473,147.662 263.5,147.5C 263.5,149.833 263.5,152.167 263.5,154.5C 261.473,154.338 259.473,154.505 257.5,155C 257.043,155.414 256.709,155.914 256.5,156.5C 259.22,158.111 262.22,158.944 265.5,159C 266.056,159.383 266.389,159.883 266.5,160.5C 266.5,165.167 266.5,169.833 266.5,174.5C 265.423,175.018 264.256,175.352 263,175.5C 260.941,174.382 258.774,173.715 256.5,173.5C 256.5,174.833 256.5,176.167 256.5,177.5C 255.209,177.263 254.209,177.596 253.5,178.5C 226.833,178.5 200.167,178.5 173.5,178.5C 172.448,176.744 170.781,176.077 168.5,176.5C 167.602,175.842 166.602,175.176 165.5,174.5C 168.768,173.513 172.102,173.18 175.5,173.5C 177.833,172.833 180.167,172.167 182.5,171.5C 182.5,170.167 182.5,168.833 182.5,167.5C 188.579,166.974 194.245,165.141 199.5,162C 200.305,160.887 200.972,159.721 201.5,158.5C 202.833,154.5 202.833,150.5 201.5,146.5C 198.588,140.856 193.921,137.356 187.5,136C 181.457,135.025 175.457,133.858 169.5,132.5C 169.058,131.261 168.391,130.261 167.5,129.5C 168.66,128.735 169.66,127.735 170.5,126.5C 167.325,124.909 163.991,123.909 160.5,123.5C 160.5,120.833 160.5,118.167 160.5,115.5C 163.167,116.5 165.833,117.5 168.5,118.5C 183.404,122.94 196.738,120.106 208.5,110C 214.476,108.172 219.143,109.839 222.5,115C 225.674,116.725 229.007,118.058 232.5,119C 240.195,119.691 247.861,119.525 255.5,118.5 Z"/></g>
<g><path style="opacity:1" fill="#393b3a" d="M 211.5,100.5 C 212.167,100.5 212.833,100.5 213.5,100.5C 215.726,102.572 217.393,105.072 218.5,108C 222.241,110.732 226.241,113.066 230.5,115C 239.186,115.659 247.52,116.826 255.5,118.5C 247.861,119.525 240.195,119.691 232.5,119C 229.007,118.058 225.674,116.725 222.5,115C 219.143,109.839 214.476,108.172 208.5,110C 196.738,120.106 183.404,122.94 168.5,118.5C 175.167,117.833 181.833,117.167 188.5,116.5C 193.151,115.59 197.485,113.924 201.5,111.5C 203.754,110.876 205.421,109.543 206.5,107.5C 208.916,105.654 210.583,103.321 211.5,100.5 Z"/></g>
<g><path style="opacity:1" fill="#181718" d="M 42.5,118.5 C 50.0413,116.666 55.7079,119 59.5,125.5C 59.1667,126.833 58.8333,128.167 58.5,129.5C 56.0206,130.072 53.6873,130.072 51.5,129.5C 49.0698,130.347 49.0698,131.347 51.5,132.5C 51.8333,133.5 52.5,134.167 53.5,134.5C 53.8564,136.19 54.8564,137.19 56.5,137.5C 56.1667,138.167 55.8333,138.833 55.5,139.5C 52.0691,136.448 48.0691,134.115 43.5,132.5C 40.8469,133.285 40.1802,134.785 41.5,137C 40.8333,137.333 40.1667,137.667 39.5,138C 41.3839,138.216 43.0506,138.883 44.5,140C 39.9852,140.614 35.6519,141.448 31.5,142.5C 28.9556,142.896 26.7889,142.229 25,140.5C 20.5245,134.39 15.6912,128.557 10.5,123C 11.056,122.617 11.3893,122.117 11.5,121.5C 14.5,121.5 17.5,121.5 20.5,121.5C 20.9382,121.435 21.2716,121.601 21.5,122C 20.8333,122.333 20.1667,122.667 19.5,123C 23.429,123.18 27.2624,123.347 31,123.5C 35.4279,122.296 39.9279,121.463 44.5,121C 43.244,120.583 42.5774,119.75 42.5,118.5 Z"/></g>
<g><path style="opacity:1" fill="#393b3e" d="M 42.5,118.5 C 42.5774,119.75 43.244,120.583 44.5,121C 39.9279,121.463 35.4279,122.296 31,123.5C 27.2624,123.347 23.429,123.18 19.5,123C 20.1667,122.667 20.8333,122.333 21.5,122C 21.2716,121.601 20.9382,121.435 20.5,121.5C 27.6158,119.908 34.9491,118.908 42.5,118.5 Z"/></g>
<g><path style="opacity:1" fill="#9a9a98" d="M 125.5,108.5 C 126.5,108.5 127.5,108.5 128.5,108.5C 128.116,116.831 127.782,125.164 127.5,133.5C 126.039,134.686 124.705,134.686 123.5,133.5C 125.468,125.567 126.135,117.234 125.5,108.5 Z"/></g>
<g><path style="opacity:1" fill="#68696a" d="M 44.5,123.5 C 47.1873,123.336 49.854,123.503 52.5,124C 52.9574,124.414 53.2907,124.914 53.5,125.5C 51.6587,126.23 49.8254,126.897 48,127.5C 45.9286,126.897 44.7619,125.564 44.5,123.5 Z"/></g>
<g><path style="opacity:1" fill="#4d4e4a" d="M 149.5,114.5 C 150.542,113.209 151.708,113.209 153,114.5C 153.829,119.864 153.663,125.198 152.5,130.5C 151.817,130.137 151.15,129.804 150.5,129.5C 150.821,124.305 150.487,119.305 149.5,114.5 Z"/></g>
<g><path style="opacity:1" fill="#6b6d6d" d="M 32.5,125.5 C 34.8568,125.337 37.1902,125.503 39.5,126C 37.6447,126.422 35.8114,126.922 34,127.5C 32.9701,127.164 32.4701,126.497 32.5,125.5 Z"/></g>
<g><path style="opacity:1" fill="#6d6c69" d="M 81.5,136.5 C 82.01,133.461 82.6766,130.461 83.5,127.5C 84.2679,126.737 84.7679,125.737 85,124.5C 85.1361,128.921 83.9695,132.921 81.5,136.5 Z"/></g>
<g><path style="opacity:1" fill="#afb0af" d="M 160.5,123.5 C 163.991,123.909 167.325,124.909 170.5,126.5C 169.66,127.735 168.66,128.735 167.5,129.5C 165.027,129.604 164.361,130.604 165.5,132.5C 163.701,133.788 162.035,133.788 160.5,132.5C 161.263,131.732 162.263,131.232 163.5,131C 160.879,129.405 158.213,127.905 155.5,126.5C 156.947,125.065 158.614,124.065 160.5,123.5 Z"/></g>
<g><path style="opacity:1" fill="#4d571b" d="M 34.5,128.5 C 38.3751,128.085 42.0418,128.585 45.5,130C 42.657,130.446 39.8236,130.946 37,131.5C 34.2297,131.596 33.3964,130.596 34.5,128.5 Z"/></g>
<g><path style="opacity:1" fill="#dcdcdc" d="M 58.5,129.5 C 58.6107,130.117 58.944,130.617 59.5,131C 56.8323,131.567 54.1656,132.067 51.5,132.5C 49.0698,131.347 49.0698,130.347 51.5,129.5C 53.6873,130.072 56.0206,130.072 58.5,129.5 Z"/></g>
<g><path style="opacity:1" fill="#efefef" d="M 32.5,132.5 C 34.1054,133.006 34.4387,133.673 33.5,134.5C 29.1943,133.934 28.861,133.268 32.5,132.5 Z"/></g>
<g><path style="opacity:1" fill="#c0c943" d="M 24.5,132.5 C 27.5345,132.183 28.5345,133.183 27.5,135.5C 25.5,135.5 24.5,134.5 24.5,132.5 Z"/></g>
<g><path style="opacity:1" fill="#d3d3d3" d="M 53.5,134.5 C 55.2915,134.366 56.9582,134.699 58.5,135.5C 58.1667,136.5 57.5,137.167 56.5,137.5C 54.8564,137.19 53.8564,136.19 53.5,134.5 Z"/></g>
<g><path style="opacity:1" fill="#868789" d="M 11.5,121.5 C 11.3893,122.117 11.056,122.617 10.5,123C 15.6912,128.557 20.5245,134.39 25,140.5C 26.7889,142.229 28.9556,142.896 31.5,142.5C 32.2389,142.369 32.9056,142.536 33.5,143C 32.4366,144.188 31.1033,144.688 29.5,144.5C 29.2627,145.791 29.596,146.791 30.5,147.5C 30.2526,152.076 27.9193,154.743 23.5,155.5C 22.0019,152.669 19.6685,151.002 16.5,150.5C 16.6567,149.127 16.49,147.793 16,146.5C 11.3122,141.313 6.81216,135.98 2.5,130.5C 4.57078,126.429 7.57078,123.429 11.5,121.5 Z"/></g>
<g><path style="opacity:1" fill="#5d5e5b" d="M 32.5,132.5 C 28.861,133.268 29.1943,133.934 33.5,134.5C 32.7375,135.268 31.7375,135.768 30.5,136C 32.8333,136.333 35.1667,136.667 37.5,137C 37.9574,137.414 38.2907,137.914 38.5,138.5C 36.8327,139.666 35.166,139.666 33.5,138.5C 31.7163,137.28 30.0496,137.28 28.5,138.5C 27.596,137.791 27.2627,136.791 27.5,135.5C 28.5345,133.183 27.5345,132.183 24.5,132.5C 25.287,131.444 26.9537,130.778 29.5,130.5C 31.0377,130.453 32.0377,131.12 32.5,132.5 Z"/></g>
<g><path style="opacity:1" fill="#6f6f72" d="M 55.5,139.5 C 56.2389,139.369 56.9056,139.536 57.5,140C 54.964,140.339 52.464,140.839 50,141.5C 49.1268,141.265 48.2935,140.931 47.5,140.5C 46.3044,140.846 46.3044,141.346 47.5,142C 41.1595,142.486 35.4928,144.319 30.5,147.5C 29.596,146.791 29.2627,145.791 29.5,144.5C 31.1033,144.688 32.4366,144.188 33.5,143C 32.9056,142.536 32.2389,142.369 31.5,142.5C 35.6519,141.448 39.9852,140.614 44.5,140C 43.0506,138.883 41.3839,138.216 39.5,138C 40.1667,137.667 40.8333,137.333 41.5,137C 40.1802,134.785 40.8469,133.285 43.5,132.5C 48.0691,134.115 52.0691,136.448 55.5,139.5 Z"/></g>
<g><path style="opacity:1" fill="#4c4b49" d="M 133.5,132.5 C 131.022,134.123 128.855,136.123 127,138.5C 125.401,136.964 123.567,136.464 121.5,137C 121.833,137.333 122.167,137.667 122.5,138C 121.552,138.483 120.552,138.649 119.5,138.5C 120.08,136.251 121.413,134.585 123.5,133.5C 124.705,134.686 126.039,134.686 127.5,133.5C 128.8,132.892 130.133,132.225 131.5,131.5C 132.416,131.543 133.083,131.876 133.5,132.5 Z"/></g>
<g><path style="opacity:1" fill="#4a4b4b" d="M 167.5,129.5 C 168.391,130.261 169.058,131.261 169.5,132.5C 175.457,133.858 181.457,135.025 187.5,136C 193.921,137.356 198.588,140.856 201.5,146.5C 201.607,148.903 200.607,150.736 198.5,152C 196.075,153.213 193.741,154.379 191.5,155.5C 188.167,156.167 184.833,156.833 181.5,157.5C 181.167,157.5 180.833,157.5 180.5,157.5C 174.013,156.672 167.346,156.172 160.5,156C 158.256,155.95 156.589,155.117 155.5,153.5C 163.946,154.07 172.279,154.236 180.5,154C 183.529,153.461 186.529,152.794 189.5,152C 191.584,151.303 193.251,150.136 194.5,148.5C 195.887,146.511 195.553,144.678 193.5,143C 190.439,140.965 187.105,139.799 183.5,139.5C 181.095,138.232 178.428,137.565 175.5,137.5C 168.265,136.189 160.932,136.189 153.5,137.5C 152.903,136.861 152.07,136.528 151,136.5C 147.887,137.657 144.72,138.157 141.5,138C 142.308,137.692 142.975,137.192 143.5,136.5C 141.812,134.812 140.146,133.146 138.5,131.5C 138.735,130.903 139.235,130.57 140,130.5C 141.507,131.555 143.007,132.555 144.5,133.5C 149.867,135.011 155.2,134.678 160.5,132.5C 162.035,133.788 163.701,133.788 165.5,132.5C 164.361,130.604 165.027,129.604 167.5,129.5 Z"/></g>
<g><path style="opacity:1" fill="#d7d6d7" d="M 33.5,138.5 C 31.8333,141.167 30.1667,141.167 28.5,138.5C 30.0496,137.28 31.7163,137.28 33.5,138.5 Z"/></g>
<g><path style="opacity:1" fill="#2b2b2b" d="M 138.5,131.5 C 140.146,133.146 141.812,134.812 143.5,136.5C 142.975,137.192 142.308,137.692 141.5,138C 144.72,138.157 147.887,137.657 151,136.5C 152.07,136.528 152.903,136.861 153.5,137.5C 147.947,137.849 143.114,139.849 139,143.5C 138.235,145.066 138.402,146.399 139.5,147.5C 144.177,151.168 149.51,153.168 155.5,153.5C 156.589,155.117 158.256,155.95 160.5,156C 167.346,156.172 174.013,156.672 180.5,157.5C 173.5,157.5 166.5,157.5 159.5,157.5C 153.075,156.644 146.741,155.311 140.5,153.5C 139.035,152.263 137.368,151.263 135.5,150.5C 132.594,146.181 133.261,142.348 137.5,139C 136.692,138.692 136.025,138.192 135.5,137.5C 136.274,136.289 137.107,136.289 138,137.5C 138.495,135.527 138.662,133.527 138.5,131.5 Z"/></g>
<g><path style="opacity:1" fill="#9b9c97" d="M 175.5,137.5 C 164.456,136.537 153.789,138.037 143.5,142C 141.254,143.257 139.921,145.09 139.5,147.5C 138.402,146.399 138.235,145.066 139,143.5C 143.114,139.849 147.947,137.849 153.5,137.5C 160.932,136.189 168.265,136.189 175.5,137.5 Z"/></g>
<g><path style="opacity:1" fill="#d8d9d3" d="M 175.5,137.5 C 178.428,137.565 181.095,138.232 183.5,139.5C 185.598,140.935 187.931,142.102 190.5,143C 192.464,144.451 193.797,146.284 194.5,148.5C 193.251,150.136 191.584,151.303 189.5,152C 186.529,152.794 183.529,153.461 180.5,154C 172.279,154.236 163.946,154.07 155.5,153.5C 149.51,153.168 144.177,151.168 139.5,147.5C 139.921,145.09 141.254,143.257 143.5,142C 153.789,138.037 164.456,136.537 175.5,137.5 Z"/></g>
<g><path style="opacity:1" fill="#bebfbb" d="M 82.5,143.5 C 81.0937,143.973 80.427,144.973 80.5,146.5C 79.7659,147.708 79.4326,149.041 79.5,150.5C 78.5,150.5 77.5,150.5 76.5,150.5C 76.5,149.5 76.5,148.5 76.5,147.5C 77.1157,146.798 77.1157,145.798 76.5,144.5C 77.1349,141.238 78.8016,138.572 81.5,136.5C 83.9695,132.921 85.1361,128.921 85,124.5C 84.7679,125.737 84.2679,126.737 83.5,127.5C 83.6876,123.936 84.6876,120.603 86.5,117.5C 87.365,116.417 88.365,116.251 89.5,117C 90.0712,118.205 90.7379,119.372 91.5,120.5C 92.9402,117.772 92.2735,115.605 89.5,114C 91.5206,113.487 93.0206,112.32 94,110.5C 94.6532,112.564 95.8199,114.231 97.5,115.5C 96.5146,119.507 94.1812,122.507 90.5,124.5C 87.0099,130.481 84.3432,136.814 82.5,143.5 Z"/></g>
<g><path style="opacity:1" fill="#3c3b3a" d="M 117.5,138.5 C 118.952,139.302 120.618,139.802 122.5,140C 108.526,142.401 94.5256,144.568 80.5,146.5C 80.427,144.973 81.0937,143.973 82.5,143.5C 94.1261,141.553 105.793,139.887 117.5,138.5 Z"/></g>
<g><path style="opacity:1" fill="#696d6d" d="M 304.5,139.5 C 311.284,139.08 317.95,139.58 324.5,141C 327.52,143.264 328.187,146.097 326.5,149.5C 324.812,150.521 323.479,151.855 322.5,153.5C 317.152,156.283 311.485,158.283 305.5,159.5C 306.842,158.207 308.509,157.374 310.5,157C 309.167,156.333 309.167,155.667 310.5,155C 304.791,155.452 299.124,156.452 293.5,158C 285.189,158.967 277.022,158.467 269,156.5C 268.617,157.056 268.117,157.389 267.5,157.5C 267.372,155.345 267.872,153.345 269,151.5C 272.067,149.249 274.9,146.916 277.5,144.5C 278.265,144.923 279.098,145.257 280,145.5C 286.288,143.009 292.788,141.342 299.5,140.5C 301.292,140.634 302.958,140.301 304.5,139.5 Z"/></g>
<g><path style="opacity:1" fill="#9a9b94" d="M 183.5,139.5 C 187.105,139.799 190.439,140.965 193.5,143C 195.553,144.678 195.887,146.511 194.5,148.5C 193.797,146.284 192.464,144.451 190.5,143C 187.931,142.102 185.598,140.935 183.5,139.5 Z"/></g>
<g><path style="opacity:1" fill="#4e4f51" d="M 59.5,125.5 C 62.8775,130.043 67.0442,133.71 72,136.5C 72.7862,139.758 74.2862,142.424 76.5,144.5C 77.1157,145.798 77.1157,146.798 76.5,147.5C 70.7614,149.682 64.7614,151.016 58.5,151.5C 55.4552,151.508 52.4552,151.841 49.5,152.5C 44.0912,152.906 38.7578,153.573 33.5,154.5C 32.6236,154.369 31.9569,154.702 31.5,155.5C 33.7785,160.445 32.4452,163.445 27.5,164.5C 25.1256,162.066 23.7922,159.066 23.5,155.5C 27.9193,154.743 30.2526,152.076 30.5,147.5C 35.4928,144.319 41.1595,142.486 47.5,142C 46.3044,141.346 46.3044,140.846 47.5,140.5C 48.2935,140.931 49.1268,141.265 50,141.5C 52.464,140.839 54.964,140.339 57.5,140C 56.9056,139.536 56.2389,139.369 55.5,139.5C 55.8333,138.833 56.1667,138.167 56.5,137.5C 57.5,137.167 58.1667,136.5 58.5,135.5C 56.9582,134.699 55.2915,134.366 53.5,134.5C 52.5,134.167 51.8333,133.5 51.5,132.5C 54.1656,132.067 56.8323,131.567 59.5,131C 58.944,130.617 58.6107,130.117 58.5,129.5C 58.8333,128.167 59.1667,126.833 59.5,125.5 Z"/></g>
<g><path style="opacity:1" fill="#d6d6d7" d="M 58.5,135.5 C 60.3021,132.721 61.9688,132.888 63.5,136C 61.735,136.64 60.0683,136.473 58.5,135.5 Z"/></g>
<g><path style="opacity:1" fill="#4e4e4c" d="M 138.5,131.5 C 138.662,133.527 138.495,135.527 138,137.5C 137.107,136.289 136.274,136.289 135.5,137.5C 136.025,138.192 136.692,138.692 137.5,139C 133.261,142.348 132.594,146.181 135.5,150.5C 134.167,151.833 132.833,151.833 131.5,150.5C 130.817,148.824 129.483,148.157 127.5,148.5C 127.5,151.167 127.5,153.833 127.5,156.5C 126.16,153.57 124.826,150.57 123.5,147.5C 125.201,147.034 126.701,147.034 128,147.5C 129.11,145.757 130.61,144.424 132.5,143.5C 133.426,139.906 133.759,136.24 133.5,132.5C 134.467,133.806 135.801,134.473 137.5,134.5C 137.263,133.209 137.596,132.209 138.5,131.5 Z"/></g>
<g><path style="opacity:1" fill="#252625" d="M 348.5,148.5 C 350.833,148.5 353.167,148.5 355.5,148.5C 355.5,153.5 355.5,158.5 355.5,163.5C 353.833,163.5 352.167,163.5 350.5,163.5C 350.665,159.818 350.499,156.152 350,152.5C 349.87,156.607 349.37,159.94 348.5,162.5C 348.5,157.833 348.5,153.167 348.5,148.5 Z"/></g>
<g><path style="opacity:1" fill="#979897" d="M 358.5,147.5 C 359.487,152.305 359.821,157.305 359.5,162.5C 358.85,162.804 358.183,163.137 357.5,163.5C 356.338,158.533 356.171,153.533 357,148.5C 358.107,149.712 358.607,149.379 358.5,147.5 Z"/></g>
<g><path style="opacity:1" fill="#1d1d1c" d="M 133.5,132.5 C 133.759,136.24 133.426,139.906 132.5,143.5C 130.61,144.424 129.11,145.757 128,147.5C 126.701,147.034 125.201,147.034 123.5,147.5C 118.924,147.438 114.591,148.105 110.5,149.5C 101.11,150.174 91.7764,151.34 82.5,153C 82.0385,154.722 81.8718,156.555 82,158.5C 79.4598,160.705 77.2932,163.205 75.5,166C 74.9056,166.464 74.2389,166.631 73.5,166.5C 72.578,164.184 70.9113,162.517 68.5,161.5C 67.1667,160.833 65.8333,160.167 64.5,159.5C 63.7002,157.259 62.0336,156.259 59.5,156.5C 59.634,154.708 59.3007,153.042 58.5,151.5C 64.7614,151.016 70.7614,149.682 76.5,147.5C 76.5,148.5 76.5,149.5 76.5,150.5C 77.5,150.5 78.5,150.5 79.5,150.5C 79.4326,149.041 79.7659,147.708 80.5,146.5C 94.5256,144.568 108.526,142.401 122.5,140C 120.618,139.802 118.952,139.302 117.5,138.5C 118.167,138.5 118.833,138.5 119.5,138.5C 120.552,138.649 121.552,138.483 122.5,138C 122.167,137.667 121.833,137.333 121.5,137C 123.567,136.464 125.401,136.964 127,138.5C 128.855,136.123 131.022,134.123 133.5,132.5 Z"/></g>
<g><path style="opacity:1" fill="#4d4d4a" d="M 120.5,142.5 C 131.032,142.572 131.032,143.239 120.5,144.5C 118.5,144.333 116.5,144.167 114.5,144C 116.708,143.809 118.708,143.309 120.5,142.5 Z"/></g>
<g><path style="opacity:1" fill="#141414" d="M 49.5,152.5 C 49.0046,154.482 48.5046,156.482 48,158.5C 46.1554,159.05 44.6554,160.05 43.5,161.5C 44.6507,162.731 45.8173,162.731 47,161.5C 47.4326,164.419 46.9326,167.086 45.5,169.5C 45.5,167.833 45.5,166.167 45.5,164.5C 44.1667,164.5 42.8333,164.5 41.5,164.5C 41.5,166.167 41.5,167.833 41.5,169.5C 40.5,169.5 39.5,169.5 38.5,169.5C 38.4386,167.408 37.4386,165.908 35.5,165C 37.7885,164.178 40.1218,163.511 42.5,163C 38.2935,161.29 35.2935,158.457 33.5,154.5C 38.7578,153.573 44.0912,152.906 49.5,152.5 Z"/></g>
<g><path style="opacity:1" fill="#7b7e7a" d="M 201.5,146.5 C 202.833,150.5 202.833,154.5 201.5,158.5C 201.565,158.062 201.399,157.728 201,157.5C 199.512,159.16 197.679,160.16 195.5,160.5C 195.5,158.833 195.5,157.167 195.5,155.5C 194.167,155.5 192.833,155.5 191.5,155.5C 193.741,154.379 196.075,153.213 198.5,152C 200.607,150.736 201.607,148.903 201.5,146.5 Z"/></g>
<g><path style="opacity:1" fill="#7f807d" d="M 131.5,150.5 C 132.833,151.833 134.167,151.833 135.5,150.5C 137.368,151.263 139.035,152.263 140.5,153.5C 139.167,153.5 137.833,153.5 136.5,153.5C 136.5,155.167 136.5,156.833 136.5,158.5C 135.206,157.71 134.039,156.71 133,155.5C 132.536,156.094 132.369,156.761 132.5,157.5C 131.532,155.393 131.198,153.059 131.5,150.5 Z"/></g>
<g><path style="opacity:1" fill="#d1d1cf" d="M 123.5,147.5 C 124.826,150.57 126.16,153.57 127.5,156.5C 127.5,163.167 127.5,169.833 127.5,176.5C 126.5,176.5 125.5,176.5 124.5,176.5C 124.331,161.848 123.831,161.848 123,176.5C 122.5,167.173 122.334,157.839 122.5,148.5C 118.534,149.162 114.534,149.495 110.5,149.5C 114.591,148.105 118.924,147.438 123.5,147.5 Z"/></g>
<g><path style="opacity:1" fill="#c6c8c6" d="M 140.5,153.5 C 146.741,155.311 153.075,156.644 159.5,157.5C 162.641,158.321 165.975,158.821 169.5,159C 164.845,159.499 160.179,159.666 155.5,159.5C 155.5,160.833 155.5,162.167 155.5,163.5C 154.167,163.5 152.833,163.5 151.5,163.5C 145.987,163.209 140.987,161.542 136.5,158.5C 136.5,156.833 136.5,155.167 136.5,153.5C 137.833,153.5 139.167,153.5 140.5,153.5 Z"/></g>
<g><path style="opacity:1" fill="#cacdcc" d="M 191.5,155.5 C 192.833,155.5 194.167,155.5 195.5,155.5C 195.5,157.167 195.5,158.833 195.5,160.5C 190.253,163.087 184.586,164.42 178.5,164.5C 177.194,163.533 176.527,162.199 176.5,160.5C 175.119,159.101 176.786,158.935 181.5,160C 180.402,159.23 180.402,158.397 181.5,157.5C 184.833,156.833 188.167,156.167 191.5,155.5 Z"/></g>
<g><path style="opacity:1" fill="#474948" d="M 305.5,159.5 C 303.046,160.621 300.379,161.454 297.5,162C 299.382,162.198 301.048,162.698 302.5,163.5C 300.901,163.232 299.568,163.566 298.5,164.5C 291.18,163.703 283.847,163.036 276.5,162.5C 276.231,166.931 276.564,171.265 277.5,175.5C 275.226,176.952 273.726,176.285 273,173.5C 272.501,169.179 272.334,164.846 272.5,160.5C 270.067,160.727 268.401,159.727 267.5,157.5C 268.117,157.389 268.617,157.056 269,156.5C 277.022,158.467 285.189,158.967 293.5,158C 299.124,156.452 304.791,155.452 310.5,155C 309.167,155.667 309.167,156.333 310.5,157C 308.509,157.374 306.842,158.207 305.5,159.5 Z"/></g>
<g><path style="opacity:1" fill="#343533" d="M 342.5,162.5 C 341.883,162.389 341.383,162.056 341,161.5C 340.974,165.483 340.14,169.15 338.5,172.5C 336.167,172.5 333.833,172.5 331.5,172.5C 333.176,170.166 335.509,169.166 338.5,169.5C 339.437,165.27 337.771,162.77 333.5,162C 333.833,161.667 334.167,161.333 334.5,161C 332.837,160.735 331.337,161.235 330,162.5C 329.041,160.342 327.541,160.009 325.5,161.5C 322.857,160.407 320.69,158.74 319,156.5C 317.924,160.322 316.758,164.156 315.5,168C 317.78,168.233 319.78,169.066 321.5,170.5C 322.086,170.291 322.586,169.957 323,169.5C 324.875,170.73 325.708,172.064 325.5,173.5C 325.5,175.167 325.5,176.833 325.5,178.5C 323.801,178.66 322.134,178.494 320.5,178C 318.249,172.148 313.916,169.814 307.5,171C 306.309,170.302 305.309,169.469 304.5,168.5C 302.744,167.448 302.077,165.781 302.5,163.5C 301.048,162.698 299.382,162.198 297.5,162C 300.379,161.454 303.046,160.621 305.5,159.5C 311.485,158.283 317.152,156.283 322.5,153.5C 322.461,154.583 322.127,155.583 321.5,156.5C 326.899,158.833 328.899,157.333 327.5,152C 328.596,149.853 330.096,149.353 332,150.5C 332.333,152.5 332.667,154.5 333,156.5C 332.782,152.362 334.448,151.028 338,152.5C 338.333,154.5 338.667,156.5 339,158.5C 340.011,159.337 341.178,159.67 342.5,159.5C 342.5,160.5 342.5,161.5 342.5,162.5 Z"/></g>
<g><path style="opacity:1" fill="#121212" d="M 331.5,172.5 C 329.435,172.517 327.435,172.85 325.5,173.5C 325.708,172.064 324.875,170.73 323,169.5C 322.586,169.957 322.086,170.291 321.5,170.5C 319.78,169.066 317.78,168.233 315.5,168C 316.758,164.156 317.924,160.322 319,156.5C 320.69,158.74 322.857,160.407 325.5,161.5C 327.541,160.009 329.041,160.342 330,162.5C 331.337,161.235 332.837,160.735 334.5,161C 334.167,161.333 333.833,161.667 333.5,162C 337.771,162.77 339.437,165.27 338.5,169.5C 335.509,169.166 333.176,170.166 331.5,172.5 Z"/></g>
<g><path style="opacity:1" fill="#50514f" d="M 358.5,147.5 C 358.607,149.379 358.107,149.712 357,148.5C 356.171,153.533 356.338,158.533 357.5,163.5C 358.183,163.137 358.85,162.804 359.5,162.5C 359.5,162.833 359.5,163.167 359.5,163.5C 359.158,164.338 358.492,164.672 357.5,164.5C 355.5,164.5 353.5,164.5 351.5,164.5C 351.297,166.39 351.963,167.89 353.5,169C 351.771,170.789 351.104,172.956 351.5,175.5C 350.448,175.649 349.448,175.483 348.5,175C 348.833,174.667 349.167,174.333 349.5,174C 347.526,170.2 345.192,166.7 342.5,163.5C 344.621,163.675 346.621,163.341 348.5,162.5C 349.37,159.94 349.87,156.607 350,152.5C 350.499,156.152 350.665,159.818 350.5,163.5C 352.167,163.5 353.833,163.5 355.5,163.5C 355.5,158.5 355.5,153.5 355.5,148.5C 353.167,148.5 350.833,148.5 348.5,148.5C 348.611,147.883 348.944,147.383 349.5,147C 352.592,146.264 355.592,146.431 358.5,147.5 Z"/></g>
<g><path style="opacity:1" fill="#848583" d="M 28.5,164.5 C 30.604,164.201 32.604,164.534 34.5,165.5C 34.1667,166.5 33.5,167.167 32.5,167.5C 29.1512,166.17 28.8179,166.67 31.5,169C 30.9341,169.995 30.2674,170.828 29.5,171.5C 28.3054,171.134 27.6387,170.301 27.5,169C 28.1476,167.56 28.4809,166.06 28.5,164.5 Z"/></g>
<g><path style="opacity:1" fill="#494a46" d="M 266.5,160.5 C 267.15,160.804 267.817,161.137 268.5,161.5C 270.007,166.277 269.34,170.611 266.5,174.5C 266.5,169.833 266.5,165.167 266.5,160.5 Z"/></g>
<g><path style="opacity:1" fill="#393938" d="M 33.5,154.5 C 35.2935,158.457 38.2935,161.29 42.5,163C 40.1218,163.511 37.7885,164.178 35.5,165C 37.4386,165.908 38.4386,167.408 38.5,169.5C 39.5,169.5 40.5,169.5 41.5,169.5C 41.5,167.833 41.5,166.167 41.5,164.5C 42.8333,164.5 44.1667,164.5 45.5,164.5C 45.5,166.167 45.5,167.833 45.5,169.5C 45.1667,169.5 44.8333,169.5 44.5,169.5C 44.6567,168.127 44.49,166.793 44,165.5C 42.8563,167.709 42.023,170.043 41.5,172.5C 39.4176,172.528 37.5843,171.861 36,170.5C 34.5146,175.385 32.3479,175.718 29.5,171.5C 30.2674,170.828 30.9341,169.995 31.5,169C 28.8179,166.67 29.1512,166.17 32.5,167.5C 33.5,167.167 34.1667,166.5 34.5,165.5C 32.604,164.534 30.604,164.201 28.5,164.5C 28.1667,164.5 27.8333,164.5 27.5,164.5C 32.4452,163.445 33.7785,160.445 31.5,155.5C 31.9569,154.702 32.6236,154.369 33.5,154.5 Z"/></g>
<g><path style="opacity:1" fill="#4c4d4a" d="M 136.5,161.5 C 142.125,163.096 147.792,164.596 153.5,166C 152.105,168.075 152.438,169.908 154.5,171.5C 153.898,174.159 152.565,174.826 150.5,173.5C 150.756,171.208 150.423,169.041 149.5,167C 144.791,165.827 140.458,163.993 136.5,161.5 Z"/></g>
<g><path style="opacity:1" fill="#9a9a98" d="M 175.5,173.5 C 172.102,173.18 168.768,173.513 165.5,174.5C 166.602,175.176 167.602,175.842 168.5,176.5C 167.5,176.5 166.5,176.5 165.5,176.5C 165.407,182.863 165.74,189.196 166.5,195.5C 165.833,194.5 165.167,193.5 164.5,192.5C 163.081,191.549 161.415,191.216 159.5,191.5C 159.5,185.167 159.5,178.833 159.5,172.5C 165.026,172.179 170.36,172.512 175.5,173.5 Z"/></g>
<g><path style="opacity:1" fill="#202120" d="M 342.5,162.5 C 342.5,162.833 342.5,163.167 342.5,163.5C 345.192,166.7 347.526,170.2 349.5,174C 349.167,174.333 348.833,174.667 348.5,175C 349.448,175.483 350.448,175.649 351.5,175.5C 351.104,172.956 351.771,170.789 353.5,169C 351.963,167.89 351.297,166.39 351.5,164.5C 353.5,164.5 355.5,164.5 357.5,164.5C 358.806,170.599 358.806,176.599 357.5,182.5C 357.5,177.167 357.5,171.833 357.5,166.5C 352.848,165.846 352.181,167.18 355.5,170.5C 356.48,173.086 356.813,175.753 356.5,178.5C 355.07,178.421 353.736,178.754 352.5,179.5C 350.808,176.142 348.808,175.809 346.5,178.5C 344.365,176.631 341.698,175.964 338.5,176.5C 338.5,175.167 338.5,173.833 338.5,172.5C 340.14,169.15 340.974,165.483 341,161.5C 341.383,162.056 341.883,162.389 342.5,162.5 Z"/></g>
<g><path style="opacity:1" fill="#222221" d="M 276.5,89.5 C 276.5,91.8333 276.5,94.1667 276.5,96.5C 277.822,96.33 278.989,96.6634 280,97.5C 280.768,103.373 280.601,109.206 279.5,115C 278.576,116.811 277.743,116.645 277,114.5C 276.242,124.534 276.409,134.534 277.5,144.5C 274.9,146.916 272.067,149.249 269,151.5C 267.872,153.345 267.372,155.345 267.5,157.5C 268.401,159.727 270.067,160.727 272.5,160.5C 272.334,164.846 272.501,169.179 273,173.5C 273.726,176.285 275.226,176.952 277.5,175.5C 278.167,175.5 278.833,175.5 279.5,175.5C 275.85,178.349 275.517,181.683 278.5,185.5C 277.774,188.621 276.274,191.287 274,193.5C 273.333,211.5 273.333,229.5 274,247.5C 274.333,247.167 274.667,246.833 275,246.5C 275.373,264.84 275.873,283.174 276.5,301.5C 272.999,302.797 269.499,302.797 266,301.5C 265.185,296.648 265.352,291.981 266.5,287.5C 266.833,287.5 267.167,287.5 267.5,287.5C 268.209,288.404 269.209,288.737 270.5,288.5C 270.264,270.161 269.764,251.828 269,233.5C 268.83,243.342 268.33,253.009 267.5,262.5C 268.157,238.476 267.49,214.81 265.5,191.5C 261.386,190.985 257.386,189.985 253.5,188.5C 225.809,187.192 198.143,187.192 170.5,188.5C 170.662,190.527 170.495,192.527 170,194.5C 168.989,195.337 167.822,195.67 166.5,195.5C 165.74,189.196 165.407,182.863 165.5,176.5C 166.5,176.5 167.5,176.5 168.5,176.5C 170.781,176.077 172.448,176.744 173.5,178.5C 173.5,178.833 173.5,179.167 173.5,179.5C 172.5,179.5 171.5,179.5 170.5,179.5C 170.36,181.124 171.027,182.29 172.5,183C 170.754,183.471 169.087,184.138 167.5,185C 168,185.167 168.5,185.333 169,185.5C 173.037,184.057 177.203,183.224 181.5,183C 205.507,182.833 229.507,182.333 253.5,181.5C 247.537,180.504 241.537,180.171 235.5,180.5C 241.5,179.833 247.5,179.167 253.5,178.5C 254.209,177.596 255.209,177.263 256.5,177.5C 256.5,176.167 256.5,174.833 256.5,173.5C 258.774,173.715 260.941,174.382 263,175.5C 264.256,175.352 265.423,175.018 266.5,174.5C 269.34,170.611 270.007,166.277 268.5,161.5C 267.817,161.137 267.15,160.804 266.5,160.5C 266.389,159.883 266.056,159.383 265.5,159C 262.22,158.944 259.22,158.111 256.5,156.5C 256.709,155.914 257.043,155.414 257.5,155C 259.473,154.505 261.473,154.338 263.5,154.5C 263.5,152.167 263.5,149.833 263.5,147.5C 261.473,147.662 259.473,147.495 257.5,147C 257.043,146.586 256.709,146.086 256.5,145.5C 259.565,143.75 262.898,142.75 266.5,142.5C 266.5,133.167 266.5,123.833 266.5,114.5C 268.311,111.556 270.144,108.556 272,105.5C 273.325,99.4775 271.825,94.3108 267.5,90C 270.482,89.502 273.482,89.3354 276.5,89.5 Z"/></g>
<g><path style="opacity:1" fill="#5a5c5b" d="M 273.5,115.5 C 274.827,119.783 275.493,124.449 275.5,129.5C 275.167,134.167 274.833,138.833 274.5,143.5C 273.502,134.19 273.168,124.857 273.5,115.5 Z"/></g>
<g><path style="opacity:1" fill="#474646" d="M 173.5,179.5 C 173.5,179.167 173.5,178.833 173.5,178.5C 200.167,178.5 226.833,178.5 253.5,178.5C 247.5,179.167 241.5,179.833 235.5,180.5C 214.831,180.284 194.164,179.951 173.5,179.5 Z"/></g>
<g><path style="opacity:1" fill="#0f0f10" d="M 173.5,179.5 C 194.164,179.951 214.831,180.284 235.5,180.5C 241.537,180.171 247.537,180.504 253.5,181.5C 229.507,182.333 205.507,182.833 181.5,183C 177.203,183.224 173.037,184.057 169,185.5C 168.5,185.333 168,185.167 167.5,185C 169.087,184.138 170.754,183.471 172.5,183C 171.027,182.29 170.36,181.124 170.5,179.5C 171.5,179.5 172.5,179.5 173.5,179.5 Z"/></g>
<g><path style="opacity:1" fill="#eaebea" d="M 160.5,173.5 C 161.814,175.915 162.481,178.748 162.5,182C 162.167,184.833 161.833,187.667 161.5,190.5C 160.505,184.872 160.171,179.206 160.5,173.5 Z"/></g>
<g><path style="opacity:1" fill="#c8c8c5" d="M 298.5,164.5 C 299.568,163.566 300.901,163.232 302.5,163.5C 302.077,165.781 302.744,167.448 304.5,168.5C 304.5,178.5 304.5,188.5 304.5,198.5C 303.167,198.5 301.833,198.5 300.5,198.5C 301.144,186.784 300.478,175.451 298.5,164.5 Z"/></g>
<g><path style="opacity:1" fill="#c3c3bf" d="M 68.5,161.5 C 70.9113,162.517 72.578,164.184 73.5,166.5C 67.9276,179.359 62.4276,192.359 57,205.5C 56.1301,204.892 55.6301,204.059 55.5,203C 57.6372,196.921 59.9706,190.921 62.5,185C 62.1667,184 61.8333,183 61.5,182C 64.5414,175.375 66.8747,168.542 68.5,161.5 Z"/></g>
<g><path style="opacity:1" fill="#262625" d="M 228.5,262.5 C 226.958,261.699 225.292,261.366 223.5,261.5C 223.672,262.492 223.338,263.158 222.5,263.5C 221.672,257.681 221.172,251.681 221,245.5C 220.768,244.263 220.268,243.263 219.5,242.5C 218.699,240.958 218.366,239.292 218.5,237.5C 218.5,234.5 218.5,231.5 218.5,228.5C 215.615,228.194 212.948,228.527 210.5,229.5C 209.249,234.369 209.249,239.369 210.5,244.5C 210.5,246.5 210.5,248.5 210.5,250.5C 209.852,252.498 209.019,254.498 208,256.5C 207.503,258.81 207.337,261.143 207.5,263.5C 205.833,263.5 204.167,263.5 202.5,263.5C 202.5,262.5 202.5,261.5 202.5,260.5C 203.407,250.504 203.907,240.504 204,230.5C 197.923,224.765 195.923,217.765 198,209.5C 205.81,196.342 215.977,194.175 228.5,203C 234.131,210.268 234.964,218.101 231,226.5C 227.474,228.516 225.974,231.516 226.5,235.5C 227.63,244.47 228.297,253.47 228.5,262.5 Z"/></g>
<g><path style="opacity:1" fill="#6a6b69" d="M 44.5,169.5 C 44.8333,169.5 45.1667,169.5 45.5,169.5C 45.5,170.167 45.5,170.833 45.5,171.5C 46.8256,192.264 46.8256,212.931 45.5,233.5C 45.7764,212.144 45.4431,190.811 44.5,169.5 Z"/></g>
<g><path style="opacity:1" fill="#464644" d="M 55.5,161.5 C 54.7594,180.163 54.0927,198.83 53.5,217.5C 52.6981,218.952 52.1981,220.618 52,222.5C 51.3333,201.167 51.3333,179.833 52,158.5C 52.6667,157.833 53.3333,157.167 54,156.5C 54.1981,158.382 54.6981,160.048 55.5,161.5 Z"/></g>
<g><path style="opacity:1" fill="#a0a09c" d="M 44.5,169.5 C 45.4431,190.811 45.7764,212.144 45.5,233.5C 45.5,244.5 45.5,255.5 45.5,266.5C 44.8333,249.833 44.1667,233.167 43.5,216.5C 43.6666,202.163 43.4999,187.829 43,173.5C 42.6174,172.944 42.1174,172.611 41.5,172.5C 42.023,170.043 42.8563,167.709 44,165.5C 44.49,166.793 44.6567,168.127 44.5,169.5 Z"/></g>
<g><path style="opacity:1" fill="#272726" d="M 136.5,158.5 C 140.987,161.542 145.987,163.209 151.5,163.5C 160.353,165.564 169.353,165.898 178.5,164.5C 184.586,164.42 190.253,163.087 195.5,160.5C 197.679,160.16 199.512,159.16 201,157.5C 201.399,157.728 201.565,158.062 201.5,158.5C 200.972,159.721 200.305,160.887 199.5,162C 194.245,165.141 188.579,166.974 182.5,167.5C 182.5,168.833 182.5,170.167 182.5,171.5C 180.167,172.167 177.833,172.833 175.5,173.5C 170.36,172.512 165.026,172.179 159.5,172.5C 159.5,178.833 159.5,185.167 159.5,191.5C 161.415,191.216 163.081,191.549 164.5,192.5C 163.432,193.434 162.099,193.768 160.5,193.5C 160.5,221.167 160.5,248.833 160.5,276.5C 159.668,257.671 159.168,238.671 159,219.5C 158.134,234.498 157.301,249.498 156.5,264.5C 154.898,263.45 154.065,264.117 154,266.5C 153.58,274.674 153.414,282.674 153.5,290.5C 154.857,294.234 155.19,297.901 154.5,301.5C 153.167,301.5 151.833,301.5 150.5,301.5C 151.735,265.17 151.735,228.836 150.5,192.5C 149.833,193.167 149.167,193.833 148.5,194.5C 147.34,192.854 146.673,191.021 146.5,189C 147.387,184.508 147.553,180.008 147,175.5C 148.302,174.915 149.469,174.249 150.5,173.5C 152.565,174.826 153.898,174.159 154.5,171.5C 152.438,169.908 152.105,168.075 153.5,166C 147.792,164.596 142.125,163.096 136.5,161.5C 134.833,160.5 133.5,159.167 132.5,157.5C 132.369,156.761 132.536,156.094 133,155.5C 134.039,156.71 135.206,157.71 136.5,158.5 Z"/></g>
<g><path style="opacity:1" fill="#aeafac" d="M 159.5,157.5 C 166.5,157.5 173.5,157.5 180.5,157.5C 180.833,157.5 181.167,157.5 181.5,157.5C 180.402,158.397 180.402,159.23 181.5,160C 176.786,158.935 175.119,159.101 176.5,160.5C 176.527,162.199 177.194,163.533 178.5,164.5C 169.353,165.898 160.353,165.564 151.5,163.5C 152.833,163.5 154.167,163.5 155.5,163.5C 155.5,162.167 155.5,160.833 155.5,159.5C 160.179,159.666 164.845,159.499 169.5,159C 165.975,158.821 162.641,158.321 159.5,157.5 Z"/></g>
<g><path style="opacity:1" fill="#dddcdb" d="M 218.5,237.5 C 215.833,237.5 213.167,237.5 210.5,237.5C 210.5,234.833 210.5,232.167 210.5,229.5C 212.948,228.527 215.615,228.194 218.5,228.5C 218.5,231.5 218.5,234.5 218.5,237.5 Z"/></g>
<g><path style="opacity:1" fill="#bbbbba" d="M 210.5,229.5 C 210.5,232.167 210.5,234.833 210.5,237.5C 213.167,237.5 215.833,237.5 218.5,237.5C 218.366,239.292 218.699,240.958 219.5,242.5C 216.145,242.091 213.145,242.758 210.5,244.5C 209.249,239.369 209.249,234.369 210.5,229.5 Z"/></g>
<g><path style="opacity:1" fill="#0f0f0e" d="M 267.5,287.5 C 267.5,279.167 267.5,270.833 267.5,262.5C 268.33,253.009 268.83,243.342 269,233.5C 269.764,251.828 270.264,270.161 270.5,288.5C 269.209,288.737 268.209,288.404 267.5,287.5 Z"/></g>
<g><path style="opacity:1" fill="#8c8e8d" d="M 356.5,184.5 C 357.833,197.149 358.499,210.149 358.5,223.5C 358.5,236.671 358.167,249.671 357.5,262.5C 357.829,248.99 357.496,235.656 356.5,222.5C 356.5,209.833 356.5,197.167 356.5,184.5 Z"/></g>
<g><path style="opacity:1" fill="#777975" d="M 359.5,163.5 C 360.872,164.888 361.872,166.555 362.5,168.5C 361.167,172.167 361.167,175.833 362.5,179.5C 362.132,180.91 361.299,181.91 360,182.5C 359.5,228.165 359.333,273.832 359.5,319.5C 359.167,319.5 358.833,319.5 358.5,319.5C 358.636,300.489 358.303,281.489 357.5,262.5C 358.167,249.671 358.5,236.671 358.5,223.5C 358.499,210.149 357.833,197.149 356.5,184.5C 356.833,183.833 357.167,183.167 357.5,182.5C 358.806,176.599 358.806,170.599 357.5,164.5C 358.492,164.672 359.158,164.338 359.5,163.5 Z"/></g>
<g><path style="opacity:1" fill="#f3f3f3" d="M 219.5,242.5 C 220.268,243.263 220.768,244.263 221,245.5C 221.172,251.681 221.672,257.681 222.5,263.5C 222.611,264.117 222.944,264.617 223.5,265C 220.183,265.498 216.85,265.665 213.5,265.5C 213.5,264.5 213.5,263.5 213.5,262.5C 214.552,262.649 215.552,262.483 216.5,262C 215.289,260.887 215.289,259.72 216.5,258.5C 212.291,257.417 210.291,254.751 210.5,250.5C 210.5,248.5 210.5,246.5 210.5,244.5C 213.145,242.758 216.145,242.091 219.5,242.5 Z"/></g>
<g><path style="opacity:1" fill="#686962" d="M 265.5,191.5 C 267.49,214.81 268.157,238.476 267.5,262.5C 267.5,270.833 267.5,279.167 267.5,287.5C 267.167,287.5 266.833,287.5 266.5,287.5C 266.826,255.427 266.492,223.427 265.5,191.5 Z"/></g>
<g><path style="opacity:1" fill="#0e0e0d" d="M 223.5,261.5 C 222.366,259.034 222.199,256.367 223,253.5C 224.049,251.893 225.549,251.227 227.5,251.5C 227.5,254.5 227.5,257.5 227.5,260.5C 225.901,260.232 224.568,260.566 223.5,261.5 Z"/></g>
<g><path style="opacity:1" fill="#595a55" d="M 349.5,256.5 C 349.5,277.167 349.5,297.833 349.5,318.5C 349.167,318.5 348.833,318.5 348.5,318.5C 348.5,283.833 348.5,249.167 348.5,214.5C 349.33,205.009 349.83,195.342 350,185.5C 350.639,209.174 350.473,232.84 349.5,256.5 Z"/></g>
<g><path style="opacity:1" fill="#141414" d="M 160.5,276.5 C 160.976,284.826 161.309,293.16 161.5,301.5C 159.167,301.5 156.833,301.5 154.5,301.5C 155.19,297.901 154.857,294.234 153.5,290.5C 153.414,282.674 153.58,274.674 154,266.5C 154.065,264.117 154.898,263.45 156.5,264.5C 157.301,249.498 158.134,234.498 159,219.5C 159.168,238.671 159.668,257.671 160.5,276.5 Z"/></g>
<g><path style="opacity:1" fill="#444542" d="M 279.5,175.5 C 280.652,180.985 280.818,186.651 280,192.5C 279,195.167 278,195.167 277,192.5C 276.603,229.011 276.436,265.344 276.5,301.5C 275.873,283.174 275.373,264.84 275,246.5C 274.667,246.833 274.333,247.167 274,247.5C 273.333,229.5 273.333,211.5 274,193.5C 276.274,191.287 277.774,188.621 278.5,185.5C 275.517,181.683 275.85,178.349 279.5,175.5 Z"/></g>
<g><path style="opacity:1" fill="#2c2c2b" d="M 229.5,273.5 C 230.345,274.671 231.011,276.005 231.5,277.5C 230.205,283.45 230.205,289.45 231.5,295.5C 230.579,297.13 229.745,298.797 229,300.5C 228.667,300.167 228.333,299.833 228,299.5C 227.833,295.167 227.667,290.833 227.5,286.5C 227.508,281.778 228.175,277.445 229.5,273.5 Z"/></g>
<g><path style="opacity:1" fill="#262725" d="M 349.5,318.5 C 349.5,297.833 349.5,277.167 349.5,256.5C 351.326,232.187 352.159,207.52 352,182.5C 352.667,181.167 353.333,181.167 354,182.5C 355.045,228.494 355.545,274.494 355.5,320.5C 352.99,320.946 350.99,320.28 349.5,318.5 Z"/></g>
<g><path style="opacity:1" fill="#535553" d="M 356.5,222.5 C 357.496,235.656 357.829,248.99 357.5,262.5C 358.303,281.489 358.636,300.489 358.5,319.5C 356.786,287.35 356.119,255.017 356.5,222.5 Z"/></g>
<g><path style="opacity:1" fill="#585a54" d="M 192.5,282.5 C 193.482,285.962 193.815,289.629 193.5,293.5C 192.5,293.5 191.5,293.5 190.5,293.5C 187.668,291.593 186.834,288.927 188,285.5C 189.271,284.117 190.771,283.117 192.5,282.5 Z"/></g>
<g><path style="opacity:1" fill="#424540" d="M 232.5,277.5 C 236.139,279.655 239.806,281.822 243.5,284C 247.84,287.934 247.507,291.267 242.5,294C 239.518,294.498 236.518,294.665 233.5,294.5C 233.74,288.773 233.407,283.106 232.5,277.5 Z"/></g>
<g><path style="opacity:1" fill="#494a48" d="M 45.5,171.5 C 46.8326,184.65 47.4993,198.15 47.5,212C 47.3617,241.012 46.695,270.012 45.5,299C 45.5237,305.243 46.1904,311.243 47.5,317C 46.552,317.483 45.552,317.649 44.5,317.5C 44.5,321.5 44.5,325.5 44.5,329.5C 46.8333,329.5 49.1667,329.5 51.5,329.5C 48.6038,330.775 45.6038,330.775 42.5,329.5C 44.1655,308.563 45.1655,287.563 45.5,266.5C 45.5,255.5 45.5,244.5 45.5,233.5C 46.8256,212.931 46.8256,192.264 45.5,171.5 Z"/></g>
<g><path style="opacity:1" fill="#2f2e2d" d="M 96.5,295.5 C 96.5,296.167 96.1667,296.5 95.5,296.5C 94.209,296.263 93.209,296.596 92.5,297.5C 91.5,297.5 90.5,297.5 89.5,297.5C 87.5956,297.262 86.2623,296.262 85.5,294.5C 89.2834,292.993 92.9501,293.327 96.5,295.5 Z"/></g>
<g><path style="opacity:1" fill="#272826" d="M 58.5,151.5 C 59.3007,153.042 59.634,154.708 59.5,156.5C 62.0336,156.259 63.7002,157.259 64.5,159.5C 60.5948,156.473 57.5948,157.14 55.5,161.5C 54.6981,160.048 54.1981,158.382 54,156.5C 53.3333,157.167 52.6667,157.833 52,158.5C 51.3333,179.833 51.3333,201.167 52,222.5C 52.1981,220.618 52.6981,218.952 53.5,217.5C 53.2699,254.842 53.6032,292.175 54.5,329.5C 53.5,329.5 52.5,329.5 51.5,329.5C 49.1667,329.5 46.8333,329.5 44.5,329.5C 44.5,325.5 44.5,321.5 44.5,317.5C 45.552,317.649 46.552,317.483 47.5,317C 46.1904,311.243 45.5237,305.243 45.5,299C 46.695,270.012 47.3617,241.012 47.5,212C 47.4993,198.15 46.8326,184.65 45.5,171.5C 45.5,170.833 45.5,170.167 45.5,169.5C 46.9326,167.086 47.4326,164.419 47,161.5C 45.8173,162.731 44.6507,162.731 43.5,161.5C 44.6554,160.05 46.1554,159.05 48,158.5C 48.5046,156.482 49.0046,154.482 49.5,152.5C 52.4552,151.841 55.4552,151.508 58.5,151.5 Z"/></g>
<g><path style="opacity:1" fill="#6e6e6a" d="M 85.5,294.5 C 86.2623,296.262 87.5956,297.262 89.5,297.5C 89.0113,298.995 88.3446,300.329 87.5,301.5C 87.2914,300.078 86.7914,298.745 86,297.5C 85.6232,298.942 84.7899,299.942 83.5,300.5C 83.0535,297.99 83.7202,295.99 85.5,294.5 Z"/></g>
<g><path style="opacity:1" fill="#80807c" d="M 92.5,297.5 C 93.209,296.596 94.209,296.263 95.5,296.5C 95.8212,298.048 96.8212,298.715 98.5,298.5C 98.5,299.5 98.5,300.5 98.5,301.5C 96.4727,301.662 94.4727,301.495 92.5,301C 91.4477,299.284 92.1144,298.284 94.5,298C 93.9056,297.536 93.2389,297.369 92.5,297.5 Z"/></g>
<g><path style="opacity:1" fill="#cccccc" d="M 210.5,250.5 C 210.291,254.751 212.291,257.417 216.5,258.5C 215.289,259.72 215.289,260.887 216.5,262C 215.552,262.483 214.552,262.649 213.5,262.5C 213.5,263.5 213.5,264.5 213.5,265.5C 216.85,265.665 220.183,265.498 223.5,265C 222.944,264.617 222.611,264.117 222.5,263.5C 223.338,263.158 223.672,262.492 223.5,261.5C 225.292,261.366 226.958,261.699 228.5,262.5C 227.828,266.171 228.161,269.837 229.5,273.5C 228.175,277.445 227.508,281.778 227.5,286.5C 227.667,290.833 227.833,295.167 228,299.5C 228.333,299.833 228.667,300.167 229,300.5C 229.745,298.797 230.579,297.13 231.5,295.5C 230.205,289.45 230.205,283.45 231.5,277.5C 231.833,277.5 232.167,277.5 232.5,277.5C 233.407,283.106 233.74,288.773 233.5,294.5C 232.903,294.735 232.57,295.235 232.5,296C 234.085,298.256 234.752,300.756 234.5,303.5C 235.5,303.5 236.5,303.5 237.5,303.5C 237.5,304.5 237.5,305.5 237.5,306.5C 233.538,308.316 229.538,308.983 225.5,308.5C 226.167,310.167 226.833,311.833 227.5,313.5C 222.612,318.942 219.612,325.275 218.5,332.5C 212.167,332.5 205.833,332.5 199.5,332.5C 199.21,325.456 197.377,318.789 194,312.5C 193.501,306.509 193.334,300.509 193.5,294.5C 192.209,294.737 191.209,294.404 190.5,293.5C 191.5,293.5 192.5,293.5 193.5,293.5C 193.815,289.629 193.482,285.962 192.5,282.5C 193.456,275.567 193.456,268.567 192.5,261.5C 194.167,261.5 195.833,261.5 197.5,261.5C 197.5,262.5 197.5,263.5 197.5,264.5C 198.833,264.5 200.167,264.5 201.5,264.5C 201.232,262.901 201.566,261.568 202.5,260.5C 202.5,261.5 202.5,262.5 202.5,263.5C 204.167,263.5 205.833,263.5 207.5,263.5C 207.337,261.143 207.503,258.81 208,256.5C 209.019,254.498 209.852,252.498 210.5,250.5 Z"/></g>
<g><path style="opacity:1" fill="#ededeb" d="M 201.5,289.5 C 202.167,289.5 202.833,289.5 203.5,289.5C 203.938,289.435 204.272,289.601 204.5,290C 203.833,290.333 203.167,290.667 202.5,291C 205.685,291.657 207.352,293.657 207.5,297C 211.495,297.143 215.495,296.976 219.5,296.5C 220.529,302.456 219.029,307.456 215,311.5C 214.502,314.482 214.335,317.482 214.5,320.5C 210.833,320.5 207.167,320.5 203.5,320.5C 203.823,316.774 203.489,313.107 202.5,309.5C 200.343,308.152 199.01,306.152 198.5,303.5C 197.516,300.572 197.183,297.572 197.5,294.5C 199.054,293.086 200.388,291.419 201.5,289.5 Z"/></g>
<g><path style="opacity:1" fill="#585b53" d="M 201.5,276.5 C 200.543,280.997 200.543,285.33 201.5,289.5C 200.388,291.419 199.054,293.086 197.5,294.5C 197.334,289.156 197.501,283.823 198,278.5C 199.113,277.695 200.279,277.028 201.5,276.5 Z"/></g>
<g><path style="opacity:1" fill="#161616" d="M 222.5,276.5 C 223.492,284.316 223.826,292.316 223.5,300.5C 222.5,300.5 221.5,300.5 220.5,300.5C 220.82,297.102 220.487,293.768 219.5,290.5C 216.013,289.478 214.68,287.145 215.5,283.5C 214.5,283.5 213.5,283.5 212.5,283.5C 212.5,281.833 212.5,280.167 212.5,278.5C 215.518,278.665 218.518,278.498 221.5,278C 222.056,277.617 222.389,277.117 222.5,276.5 Z"/></g>
<g><path style="opacity:1" fill="#161615" d="M 208.5,271.5 C 208.5,273.833 208.5,276.167 208.5,278.5C 208.5,280.167 208.5,281.833 208.5,283.5C 207.5,283.5 206.5,283.5 205.5,283.5C 205.741,285.886 205.075,287.886 203.5,289.5C 202.833,289.5 202.167,289.5 201.5,289.5C 200.543,285.33 200.543,280.997 201.5,276.5C 201.5,274.833 201.5,273.167 201.5,271.5C 203.833,271.5 206.167,271.5 208.5,271.5 Z"/></g>
<g><path style="opacity:1" fill="#f7f7f7" d="M 208.5,271.5 C 213.167,271.5 217.833,271.5 222.5,271.5C 222.5,273.167 222.5,274.833 222.5,276.5C 222.389,277.117 222.056,277.617 221.5,278C 218.518,278.498 215.518,278.665 212.5,278.5C 211.167,278.5 209.833,278.5 208.5,278.5C 208.5,276.167 208.5,273.833 208.5,271.5 Z"/></g>
<g><path style="opacity:1" fill="#3e3d3c" d="M 202.5,266.5 C 204.167,266.5 205.833,266.5 207.5,266.5C 207.5,267.5 207.5,268.5 207.5,269.5C 205.833,269.5 204.167,269.5 202.5,269.5C 202.5,268.5 202.5,267.5 202.5,266.5 Z"/></g>
<g><path style="opacity:1" fill="#191919" d="M 87.5,301.5 C 86.5269,303.068 86.3603,304.735 87,306.5C 96.5,314.667 106,322.833 115.5,331C 112.903,331.779 112.903,332.279 115.5,332.5C 113.052,333.473 110.385,333.806 107.5,333.5C 103.889,332.347 100.223,331.347 96.5,330.5C 97.0668,328.97 97.7334,327.47 98.5,326C 91.1145,321.647 84.1145,316.814 77.5,311.5C 78.2427,310.818 78.9094,310.151 79.5,309.5C 80.1032,307.374 80.1032,305.041 79.5,302.5C 81.3797,302.771 82.713,302.104 83.5,300.5C 84.7899,299.942 85.6232,298.942 86,297.5C 86.7914,298.745 87.2914,300.078 87.5,301.5 Z"/></g>
<g><path style="opacity:1" fill="#b5b5af" d="M 74.5,315.5 C 73.791,316.404 72.791,316.737 71.5,316.5C 71.1341,311.532 70.6341,311.866 70,317.5C 69.5357,316.906 69.369,316.239 69.5,315.5C 69.5,313.167 69.5,310.833 69.5,308.5C 70.5,308.5 71.5,308.5 72.5,308.5C 71.9898,311.388 72.6565,313.721 74.5,315.5 Z"/></g>
<g><path style="opacity:1" fill="#696a64" d="M 43.5,216.5 C 44.1667,233.167 44.8333,249.833 45.5,266.5C 45.1655,287.563 44.1655,308.563 42.5,329.5C 41.8367,327.359 41.5034,325.025 41.5,322.5C 41.386,319.636 41.886,316.97 43,314.5C 43.5,281.835 43.6666,249.168 43.5,216.5 Z"/></g>
<g><path style="opacity:1" fill="#d4d5d2" d="M 96.5,295.5 C 99.4757,297.664 102.809,299.164 106.5,300C 113.59,307.033 120.09,314.533 126,322.5C 130.563,326.06 135.396,329.227 140.5,332C 141.267,333.47 141.933,334.97 142.5,336.5C 135.002,339.208 127.335,339.875 119.5,338.5C 119.068,335.819 117.734,333.819 115.5,332.5C 112.903,332.279 112.903,331.779 115.5,331C 106,322.833 96.5,314.667 87,306.5C 86.3603,304.735 86.5269,303.068 87.5,301.5C 88.3446,300.329 89.0113,298.995 89.5,297.5C 90.5,297.5 91.5,297.5 92.5,297.5C 93.2389,297.369 93.9056,297.536 94.5,298C 92.1144,298.284 91.4477,299.284 92.5,301C 94.4727,301.495 96.4727,301.662 98.5,301.5C 98.5,300.5 98.5,299.5 98.5,298.5C 96.8212,298.715 95.8212,298.048 95.5,296.5C 96.1667,296.5 96.5,296.167 96.5,295.5 Z"/></g>
<g><path style="opacity:1" fill="#838480" d="M 105.5,303.5 C 106.02,305.101 107.353,305.768 109.5,305.5C 104.135,309.464 104.468,310.297 110.5,308C 106.289,311.031 106.622,312.031 111.5,311C 110.833,311.667 110.167,312.333 109.5,313C 114.638,312.179 114.804,313.012 110,315.5C 107.536,314.839 105.036,314.339 102.5,314C 104.167,313.667 105.833,313.333 107.5,313C 104.833,312.667 102.167,312.333 99.5,312C 101.167,311.667 102.833,311.333 104.5,311C 102.167,310.667 99.8333,310.333 97.5,310C 99.1667,309.667 100.833,309.333 102.5,309C 99.8333,308.667 97.1667,308.333 94.5,308C 96.5,307.667 98.5,307.333 100.5,307C 97.8333,306.667 95.1667,306.333 92.5,306C 96.1667,305.667 99.8333,305.333 103.5,305C 104.416,304.722 105.082,304.222 105.5,303.5 Z"/></g>
<g><path style="opacity:1" fill="#5d5c58" d="M 79.5,302.5 C 80.1032,305.041 80.1032,307.374 79.5,309.5C 78.5,309.5 77.5,309.5 76.5,309.5C 76.3398,311.199 76.5065,312.866 77,314.5C 80.7641,316.632 84.2641,319.132 87.5,322C 82.6258,323.365 77.6258,323.865 72.5,323.5C 69.8026,322.149 67.4692,320.315 65.5,318C 66.0319,315.98 67.3652,315.147 69.5,315.5C 69.369,316.239 69.5357,316.906 70,317.5C 70.6341,311.866 71.1341,311.532 71.5,316.5C 72.791,316.737 73.791,316.404 74.5,315.5C 75.0067,311.14 75.6734,306.807 76.5,302.5C 77.5,302.5 78.5,302.5 79.5,302.5 Z"/></g>
<g><path style="opacity:1" fill="#444442" d="M 79.5,309.5 C 78.9094,310.151 78.2427,310.818 77.5,311.5C 84.1145,316.814 91.1145,321.647 98.5,326C 97.7334,327.47 97.0668,328.97 96.5,330.5C 88.4726,328.147 80.4726,325.813 72.5,323.5C 77.6258,323.865 82.6258,323.365 87.5,322C 84.2641,319.132 80.7641,316.632 77,314.5C 76.5065,312.866 76.3398,311.199 76.5,309.5C 77.5,309.5 78.5,309.5 79.5,309.5 Z"/></g>
<g><path style="opacity:1" fill="#383937" d="M 357.5,182.5 C 357.167,183.167 356.833,183.833 356.5,184.5C 356.5,197.167 356.5,209.833 356.5,222.5C 356.119,255.017 356.786,287.35 358.5,319.5C 358.833,319.5 359.167,319.5 359.5,319.5C 360.648,323.981 360.815,328.648 360,333.5C 356,334.833 352,334.833 348,333.5C 347.184,328.316 347.35,323.316 348.5,318.5C 348.833,318.5 349.167,318.5 349.5,318.5C 350.99,320.28 352.99,320.946 355.5,320.5C 355.545,274.494 355.045,228.494 354,182.5C 353.333,181.167 352.667,181.167 352,182.5C 352.159,207.52 351.326,232.187 349.5,256.5C 350.473,232.84 350.639,209.174 350,185.5C 349.83,195.342 349.33,205.009 348.5,214.5C 348.839,202.419 348.172,190.419 346.5,178.5C 348.808,175.809 350.808,176.142 352.5,179.5C 353.736,178.754 355.07,178.421 356.5,178.5C 356.813,175.753 356.48,173.086 355.5,170.5C 352.181,167.18 352.848,165.846 357.5,166.5C 357.5,171.833 357.5,177.167 357.5,182.5 Z"/></g>
<g><path style="opacity:1" fill="#646361" d="M 115.5,332.5 C 117.734,333.819 119.068,335.819 119.5,338.5C 127.335,339.875 135.002,339.208 142.5,336.5C 142.586,337.496 142.252,338.329 141.5,339C 135.369,341.344 129.036,342.011 122.5,341C 117.809,337.791 112.809,335.291 107.5,333.5C 110.385,333.806 113.052,333.473 115.5,332.5 Z"/></g>
</svg>
