<?xml version="1.0" encoding="UTF-8"?>
<!DOCTYPE svg PUBLIC "-//W3C//DTD SVG 1.1//EN" "http://www.w3.org/Graphics/SVG/1.1/DTD/svg11.dtd">
<svg xmlns="http://www.w3.org/2000/svg" version="1.1" width="284px" height="308px" style="shape-rendering:geometricPrecision; text-rendering:geometricPrecision; image-rendering:optimizeQuality; fill-rule:evenodd; clip-rule:evenodd" xmlns:xlink="http://www.w3.org/1999/xlink">
<g><path style="opacity:1" fill="#fdfdfd" d="M -0.5,-0.5 C 94.1667,-0.5 188.833,-0.5 283.5,-0.5C 283.5,102.167 283.5,204.833 283.5,307.5C 188.833,307.5 94.1667,307.5 -0.5,307.5C -0.5,204.833 -0.5,102.167 -0.5,-0.5 Z"/></g>
<g><path style="opacity:1" fill="#9a9a9a" d="M 21.5,22.5 C 21.2289,24.8211 21.8955,26.8211 23.5,28.5C 22.1468,29.5237 21.4802,30.857 21.5,32.5C 20.1667,29.1667 20.1667,25.8333 21.5,22.5 Z"/></g>
<g><path style="opacity:1" fill="#393939" d="M 54.5,44.5 C 54.7583,40.6331 54.0916,36.9664 52.5,33.5C 54.3556,25.0999 52.0222,18.2665 45.5,13C 36.5678,9.71503 30.4012,12.5484 27,21.5C 26.5014,25.1516 26.3347,28.8183 26.5,32.5C 29.5232,36.5224 33.1899,39.8557 37.5,42.5C 37.5,43.5 37.5,44.5 37.5,45.5C 36.5,45.5 35.5,45.5 34.5,45.5C 34.2172,44.7109 33.7172,44.0442 33,43.5C 31.2368,48.0229 28.4034,48.6896 24.5,45.5C 21.9645,41.6452 20.9645,37.3118 21.5,32.5C 21.4802,30.857 22.1468,29.5237 23.5,28.5C 21.8955,26.8211 21.2289,24.8211 21.5,22.5C 23.6619,9.40621 31.3286,4.23954 44.5,7C 46.9494,7.72457 49.2827,8.72457 51.5,10C 58.4136,19.4966 60.2469,29.9966 57,41.5C 56.6232,42.9423 55.7899,43.9423 54.5,44.5 Z"/></g>
<g><path style="opacity:1" fill="#f9f9f9" d="M 52.5,33.5 C 46.663,31.0674 42.4963,32.734 40,38.5C 38.669,36.0038 36.8356,34.0038 34.5,32.5C 31.9387,31.2329 29.272,31.2329 26.5,32.5C 26.3347,28.8183 26.5014,25.1516 27,21.5C 30.4012,12.5484 36.5678,9.71503 45.5,13C 52.0222,18.2665 54.3556,25.0999 52.5,33.5 Z"/></g>
<g><path style="opacity:1" fill="#4d4c4d" d="M 106.5,27.5 C 106.068,28.7095 105.401,29.7095 104.5,30.5C 101.237,30.6743 99.5704,32.341 99.5,35.5C 96.2234,35.2161 93.0567,35.5495 90,36.5C 88.6841,33.972 87.5174,33.972 86.5,36.5C 85.4777,36.1445 84.811,35.4778 84.5,34.5C 86.0714,31.7687 88.4048,29.9354 91.5,29C 96.4195,27.7497 101.42,27.2497 106.5,27.5 Z"/></g>
<g><path style="opacity:1" fill="#9b9b9b" d="M 106.5,27.5 C 108.415,27.2155 110.081,27.5489 111.5,28.5C 110.127,28.3433 108.793,28.51 107.5,29C 115.217,31.169 115.217,32.669 107.5,33.5C 106.1,32.8999 105.1,31.8999 104.5,30.5C 105.401,29.7095 106.068,28.7095 106.5,27.5 Z"/></g>
<g><path style="opacity:1" fill="#4d4c4d" d="M 111.5,28.5 C 118.79,29.1495 125.457,31.4828 131.5,35.5C 128.52,36.3074 125.353,36.3074 122,35.5C 119.194,35.6259 116.86,36.6259 115,38.5C 112.375,37.0118 109.542,36.1785 106.5,36C 105.117,34.5391 105.451,33.7058 107.5,33.5C 115.217,32.669 115.217,31.169 107.5,29C 108.793,28.51 110.127,28.3433 111.5,28.5 Z"/></g>
<g><path style="opacity:1" fill="#777777" d="M 104.5,30.5 C 105.1,31.8999 106.1,32.8999 107.5,33.5C 105.451,33.7058 105.117,34.5391 106.5,36C 109.542,36.1785 112.375,37.0118 115,38.5C 116.86,36.6259 119.194,35.6259 122,35.5C 125.353,36.3074 128.52,36.3074 131.5,35.5C 137.988,39.2764 138.988,44.1098 134.5,50C 126.332,54.0579 117.665,55.5579 108.5,54.5C 107.493,54.4524 107.16,55.4524 107.5,57.5C 106.566,56.4324 106.232,55.099 106.5,53.5C 96.5125,52.9257 88.6792,48.5924 83,40.5C 82.0589,38.0106 82.5589,36.0106 84.5,34.5C 84.811,35.4778 85.4777,36.1445 86.5,36.5C 87.5174,33.972 88.6841,33.972 90,36.5C 93.0567,35.5495 96.2234,35.2161 99.5,35.5C 99.5704,32.341 101.237,30.6743 104.5,30.5 Z"/></g>
<g><path style="opacity:1" fill="#808080" d="M 34.5,32.5 C 33.448,32.3505 32.448,32.5172 31.5,33C 35.1346,35.0962 37.1346,38.2629 37.5,42.5C 33.1899,39.8557 29.5232,36.5224 26.5,32.5C 29.272,31.2329 31.9387,31.2329 34.5,32.5 Z"/></g>
<g><path style="opacity:1" fill="#252525" d="M 34.5,32.5 C 36.8356,34.0038 38.669,36.0038 40,38.5C 42.4963,32.734 46.663,31.0674 52.5,33.5C 54.0916,36.9664 54.7583,40.6331 54.5,44.5C 54.0652,47.1573 53.0652,49.4907 51.5,51.5C 50.5041,51.5858 49.6708,51.2524 49,50.5C 47.2458,52.25 45.0792,52.9167 42.5,52.5C 40.9272,50.1638 39.5939,50.1638 38.5,52.5C 38.639,49.2169 38.3056,45.8836 37.5,42.5C 37.1346,38.2629 35.1346,35.0962 31.5,33C 32.448,32.5172 33.448,32.3505 34.5,32.5 Z"/></g>
<g><path style="opacity:1" fill="#494949" d="M 230.5,40.5 C 231.439,43.203 230.439,43.8697 227.5,42.5C 226.417,43.365 226.251,44.365 227,45.5C 229.069,46.2638 231.236,46.7638 233.5,47C 230.722,48.3919 227.722,48.8919 224.5,48.5C 223.732,52.139 223.066,51.8057 222.5,47.5C 218.277,47.7719 214.277,47.7719 210.5,47.5C 216.564,43.589 223.231,41.2556 230.5,40.5 Z"/></g>
<g><path style="opacity:1" fill="#474647" d="M 244.5,40.5 C 246.965,40.767 249.299,41.4336 251.5,42.5C 251.961,44.5504 252.628,46.5504 253.5,48.5C 253.291,49.086 252.957,49.586 252.5,50C 248.527,49.7093 244.527,49.2093 240.5,48.5C 240.649,47.448 240.483,46.448 240,45.5C 237.652,45.0919 235.485,43.7585 233.5,41.5C 237.107,40.5108 240.774,40.1774 244.5,40.5 Z"/></g>
<g><path style="opacity:1" fill="#b0b0b0" d="M 34.5,45.5 C 34.9355,48.5997 35.2688,51.5997 35.5,54.5C 29.3305,55.0298 25.6638,52.0298 24.5,45.5C 28.4034,48.6896 31.2368,48.0229 33,43.5C 33.7172,44.0442 34.2172,44.7109 34.5,45.5 Z"/></g>
<g><path style="opacity:1" fill="#868585" d="M 37.5,42.5 C 38.3056,45.8836 38.639,49.2169 38.5,52.5C 38.0269,53.9063 37.0269,54.573 35.5,54.5C 35.2688,51.5997 34.9355,48.5997 34.5,45.5C 35.5,45.5 36.5,45.5 37.5,45.5C 37.5,44.5 37.5,43.5 37.5,42.5 Z"/></g>
<g><path style="opacity:1" fill="#727272" d="M 230.5,40.5 C 235.167,39.1667 239.833,39.1667 244.5,40.5C 240.774,40.1774 237.107,40.5108 233.5,41.5C 235.485,43.7585 237.652,45.0919 240,45.5C 240.483,46.448 240.649,47.448 240.5,48.5C 244.527,49.2093 248.527,49.7093 252.5,50C 252.957,49.586 253.291,49.086 253.5,48.5C 252.628,46.5504 251.961,44.5504 251.5,42.5C 255.304,46.512 255.471,50.8454 252,55.5C 246.84,59.9971 241.007,63.3305 234.5,65.5C 234.44,64.9569 234.107,64.6236 233.5,64.5C 232.824,65.6016 232.158,66.6016 231.5,67.5C 224.37,67.491 217.037,67.3244 209.5,67C 203.565,65.7551 200.732,62.2551 201,56.5C 203.379,52.6198 206.546,49.6198 210.5,47.5C 214.277,47.7719 218.277,47.7719 222.5,47.5C 223.066,51.8057 223.732,52.139 224.5,48.5C 227.722,48.8919 230.722,48.3919 233.5,47C 231.236,46.7638 229.069,46.2638 227,45.5C 226.251,44.365 226.417,43.365 227.5,42.5C 230.439,43.8697 231.439,43.203 230.5,40.5 Z"/></g>
<g><path style="opacity:1" fill="#818181" d="M 102.5,57.5 C 103.487,62.3054 103.821,67.3054 103.5,72.5C 102.2,70.777 101.533,68.6103 101.5,66C 101.555,63.413 101.889,60.913 102.5,58.5C 102.5,58.1667 102.5,57.8333 102.5,57.5 Z"/></g>
<g><path style="opacity:1" fill="#3d3c3c" d="M 51.5,51.5 C 50.1999,52.8267 48.8665,54.16 47.5,55.5C 58.8138,56.4988 70.1471,56.8322 81.5,56.5C 81.5,62.5 81.5,68.5 81.5,74.5C 85.8839,74.8256 90.2172,74.4922 94.5,73.5C 94.7853,67.7836 95.7853,62.4502 97.5,57.5C 98.6111,62.4158 98.7777,67.4158 98,72.5C 93.9674,75.2092 89.4674,76.7092 84.5,77C 82.4117,79.4647 82.4117,81.6314 84.5,83.5C 83.074,84.8015 81.7407,86.3015 80.5,88C 75.961,88.2529 71.461,88.7529 67,89.5C 56.5396,88.5347 46.0396,88.2013 35.5,88.5C 35.5,77.8333 35.5,67.1667 35.5,56.5C 39.226,56.8226 42.8927,56.4892 46.5,55.5C 44.8164,54.8503 43.4831,53.8503 42.5,52.5C 45.0792,52.9167 47.2458,52.25 49,50.5C 49.6708,51.2524 50.5041,51.5858 51.5,51.5 Z"/></g>
<g><path style="opacity:1" fill="#69696c" d="M 48.5,70.5 C 49.9187,69.5489 51.5853,69.2155 53.5,69.5C 53.5,70.8333 53.5,72.1667 53.5,73.5C 54.8333,73.5 56.1667,73.5 57.5,73.5C 58.1667,68.1667 58.8333,68.1667 59.5,73.5C 61.1667,73.5 62.8333,73.5 64.5,73.5C 64.3276,77.9707 63.4943,78.3041 62,74.5C 61,78.5 60,78.5 59,74.5C 58,78.5 57,78.5 56,74.5C 55,78.5 54,78.5 53,74.5C 52,78.5 51,78.5 50,74.5C 49.7508,75.624 49.2508,76.624 48.5,77.5C 47.807,74.8747 47.807,72.5414 48.5,70.5 Z"/></g>
<g><path style="opacity:1" fill="#5f5f60" d="M 222.5,111.5 C 220.518,98.2076 219.851,84.5409 220.5,70.5C 219.054,69.3871 217.387,69.2204 215.5,70C 216.812,76.4276 217.479,83.0942 217.5,90C 217.333,96.5 217.167,103 217,109.5C 216.667,108.5 216.333,107.5 216,106.5C 215.802,108.382 215.302,110.048 214.5,111.5C 214.5,97.1667 214.5,82.8333 214.5,68.5C 217.167,68.5 219.833,68.5 222.5,68.5C 222.5,82.8333 222.5,97.1667 222.5,111.5 Z"/></g>
<g><path style="opacity:1" fill="#4b4b4a" d="M 108.5,54.5 C 111.163,70.8066 111.163,87.1399 108.5,103.5C 107.504,97.5368 107.171,91.5368 107.5,85.5C 105.833,85.5 104.167,85.5 102.5,85.5C 102.5,92.8333 102.5,100.167 102.5,107.5C 101.883,107.389 101.383,107.056 101,106.5C 100.821,108.424 100.654,110.091 100.5,111.5C 100.167,107.167 99.8333,102.833 99.5,98.5C 100.61,85.4985 100.776,72.4985 100,59.5C 100.671,58.7476 101.504,58.4142 102.5,58.5C 101.889,60.913 101.555,63.413 101.5,66C 101.533,68.6103 102.2,70.777 103.5,72.5C 104.833,72.5 106.167,72.5 107.5,72.5C 107.5,67.5 107.5,62.5 107.5,57.5C 107.16,55.4524 107.493,54.4524 108.5,54.5 Z"/></g>
<g><path style="opacity:1" fill="#1c1a19" d="M 103.5,73.5 C 105.124,73.3601 106.29,74.0267 107,75.5C 107.308,74.6919 107.808,74.0253 108.5,73.5C 109.833,77.1667 109.833,80.8333 108.5,84.5C 107.808,83.9747 107.308,83.3081 107,82.5C 105.529,84.8718 104.363,84.8718 103.5,82.5C 104.01,80.9121 105.01,79.7455 106.5,79C 105.747,77.513 104.914,77.3463 104,78.5C 103.506,76.8659 103.34,75.1992 103.5,73.5 Z"/></g>
<g><path style="opacity:1" fill="#6b6b6b" d="M 66.5,107.5 C 53.1471,107.971 39.6471,107.304 26,105.5C 24.9302,105.528 24.0968,105.861 23.5,106.5C 22.0048,106.011 20.6715,105.345 19.5,104.5C 22.8515,103.992 25.8515,102.658 28.5,100.5C 29.7051,99.4231 30.3718,98.0898 30.5,96.5C 31.4674,95.1938 32.8007,94.5271 34.5,94.5C 34.6724,90.0293 35.5057,89.6959 37,93.5C 37.3333,93.1667 37.6667,92.8333 38,92.5C 39.0086,94.0249 39.5086,95.6916 39.5,97.5C 49.8023,97.2285 59.8023,98.7285 69.5,102C 70.1667,102.667 70.8333,103.333 71.5,104C 70.1537,105.669 68.487,106.836 66.5,107.5 Z"/></g>
<g><path style="opacity:1" fill="#4f4e4f" d="M 30.5,96.5 C 30.3718,98.0898 29.7051,99.4231 28.5,100.5C 25.8515,102.658 22.8515,103.992 19.5,104.5C 17.321,104.16 15.4877,103.16 14,101.5C 13.3828,100.551 13.5494,99.7175 14.5,99C 19.3249,97.1053 24.3249,96.272 29.5,96.5C 29.8333,92.5 30.1667,92.5 30.5,96.5 Z"/></g>
<g><path style="opacity:1" fill="#595959" d="M 153.5,106.5 C 153.631,107.239 153.464,107.906 153,108.5C 150.267,104.885 146.767,103.052 142.5,103C 145.131,104.691 144.797,105.858 141.5,106.5C 140.806,109.088 139.64,111.421 138,113.5C 132.885,117.093 129.052,121.093 126.5,125.5C 123.538,124.939 120.705,123.939 118,122.5C 117.5,122.667 117,122.833 116.5,123C 117.337,124.011 117.67,125.178 117.5,126.5C 116.167,124.833 114.833,123.167 113.5,121.5C 112.756,117.881 112.423,114.215 112.5,110.5C 119.353,100.149 129.02,96.3161 141.5,99C 146.374,100.262 150.374,102.762 153.5,106.5 Z"/></g>
<g><path style="opacity:1" fill="#696969" d="M 190.5,125.5 C 179.197,128.896 169.697,126.23 162,117.5C 161.667,116.5 161.333,115.5 161,114.5C 159,115.833 157,115.833 155,114.5C 152.692,120.136 148.525,123.636 142.5,125C 137.057,126.628 131.724,126.795 126.5,125.5C 129.052,121.093 132.885,117.093 138,113.5C 139.64,111.421 140.806,109.088 141.5,106.5C 144.797,105.858 145.131,104.691 142.5,103C 146.767,103.052 150.267,104.885 153,108.5C 153.464,107.906 153.631,107.239 153.5,106.5C 154.738,108.214 155.405,110.214 155.5,112.5C 157.167,112.5 158.833,112.5 160.5,112.5C 160.461,109.911 161.461,107.911 163.5,106.5C 163.435,106.938 163.601,107.272 164,107.5C 166.564,105.273 169.397,103.439 172.5,102C 180.291,101.076 187.958,101.576 195.5,103.5C 196.896,106.751 198.562,109.917 200.5,113C 199.701,114.749 200.368,116.082 202.5,117C 199.314,121.084 195.314,123.917 190.5,125.5 Z"/></g>
<g><path style="opacity:1" fill="#535353" d="M 214.5,111.5 C 214.67,112.822 214.337,113.989 213.5,115C 210.183,115.498 206.85,115.665 203.5,115.5C 202.933,117.969 202.933,120.302 203.5,122.5C 201.544,124.114 199.544,125.781 197.5,127.5C 197.217,126.711 196.717,126.044 196,125.5C 194.374,125.854 192.541,125.854 190.5,125.5C 195.314,123.917 199.314,121.084 202.5,117C 200.368,116.082 199.701,114.749 200.5,113C 198.562,109.917 196.896,106.751 195.5,103.5C 187.958,101.576 180.291,101.076 172.5,102C 169.397,103.439 166.564,105.273 164,107.5C 163.601,107.272 163.435,106.938 163.5,106.5C 167.094,102.2 171.761,99.7 177.5,99C 187.025,98.0633 195.192,100.897 202,107.5C 203.009,109.025 203.509,110.692 203.5,112.5C 207.269,112.756 210.936,112.423 214.5,111.5 Z"/></g>
<g><path style="opacity:1" fill="#797979" d="M 54.5,108.5 C 48.594,108.854 42.9273,109.854 37.5,111.5C 36.596,110.791 36.2627,109.791 36.5,108.5C 42.5,108.5 48.5,108.5 54.5,108.5 Z"/></g>
<g><path style="opacity:1" fill="#272727" d="M 97.5,57.5 C 99.1667,57.5 100.833,57.5 102.5,57.5C 102.5,57.8333 102.5,58.1667 102.5,58.5C 101.504,58.4142 100.671,58.7476 100,59.5C 100.776,72.4985 100.61,85.4985 99.5,98.5C 99.8333,102.833 100.167,107.167 100.5,111.5C 100.654,110.091 100.821,108.424 101,106.5C 101.383,107.056 101.883,107.389 102.5,107.5C 102.284,109.681 103.117,111.347 105,112.5C 106.845,110.913 108.845,109.579 111,108.5C 112.03,108.836 112.53,109.503 112.5,110.5C 112.423,114.215 112.756,117.881 113.5,121.5C 110.15,121.335 106.817,121.502 103.5,122C 102.944,122.383 102.611,122.883 102.5,123.5C 101.5,123.5 100.5,123.5 99.5,123.5C 99.5,129.167 99.5,134.833 99.5,140.5C 98.5,140.5 97.5,140.5 96.5,140.5C 96.374,127.822 96.7073,115.155 97.5,102.5C 97.5708,96.9323 96.9041,91.599 95.5,86.5C 95.1435,85.1301 94.3102,84.1301 93,83.5C 91.2799,84.723 89.4466,85.723 87.5,86.5C 85.484,86.4841 84.484,85.4841 84.5,83.5C 82.4117,81.6314 82.4117,79.4647 84.5,77C 89.4674,76.7092 93.9674,75.2092 98,72.5C 98.7777,67.4158 98.6111,62.4158 97.5,57.5 Z"/></g>
<g><path style="opacity:1" fill="#252524" d="M 220.5,70.5 C 219.349,88.339 219.349,106.339 220.5,124.5C 220.575,131.544 220.575,138.377 220.5,145C 224.449,145.807 224.449,146.307 220.5,146.5C 219.5,146.5 218.5,146.5 217.5,146.5C 217.5,139.167 217.5,131.833 217.5,124.5C 216.5,124.5 215.5,124.5 214.5,124.5C 214.189,123.522 213.522,122.855 212.5,122.5C 210.571,123.38 208.737,124.38 207,125.5C 205.358,125.022 204.191,124.022 203.5,122.5C 202.933,120.302 202.933,117.969 203.5,115.5C 206.85,115.665 210.183,115.498 213.5,115C 214.337,113.989 214.67,112.822 214.5,111.5C 215.302,110.048 215.802,108.382 216,106.5C 216.333,107.5 216.667,108.5 217,109.5C 217.167,103 217.333,96.5 217.5,90C 217.479,83.0942 216.812,76.4276 215.5,70C 217.387,69.2204 219.054,69.3871 220.5,70.5 Z"/></g>
<g><path style="opacity:1" fill="#4c4b4a" d="M 23.5,106.5 C 24.0968,105.861 24.9302,105.528 26,105.5C 39.6471,107.304 53.1471,107.971 66.5,107.5C 62.5483,108.272 58.5483,108.605 54.5,108.5C 48.5,108.5 42.5,108.5 36.5,108.5C 36.2627,109.791 36.596,110.791 37.5,111.5C 43.1667,116.167 48.8333,120.833 54.5,125.5C 53.8333,133.5 53.1667,141.5 52.5,149.5C 52.831,141.472 52.4977,133.472 51.5,125.5C 46.243,121.621 41.0763,117.621 36,113.5C 35.7978,111.744 35.2978,110.078 34.5,108.5C 30.8035,107.832 27.1368,107.165 23.5,106.5 Z"/></g>
<g><path style="opacity:1" fill="#505050" d="M 234.5,65.5 C 232.872,71.0064 231.372,76.6731 230,82.5C 229.813,96.6767 229.646,110.677 229.5,124.5C 229.816,121.022 229.316,117.688 228,114.5C 225.915,115.647 224.415,114.98 223.5,112.5C 222.511,116.107 222.177,119.774 222.5,123.5C 223.791,123.263 224.791,123.596 225.5,124.5C 224.5,124.5 223.5,124.5 222.5,124.5C 221.833,124.5 221.167,124.5 220.5,124.5C 219.349,106.339 219.349,88.339 220.5,70.5C 219.851,84.5409 220.518,98.2076 222.5,111.5C 224.167,111.5 225.833,111.5 227.5,111.5C 226.518,96.5733 227.851,81.9067 231.5,67.5C 232.158,66.6016 232.824,65.6016 233.5,64.5C 234.107,64.6236 234.44,64.9569 234.5,65.5 Z"/></g>
<g><path style="opacity:1" fill="#222120" d="M 229.5,124.5 C 228.167,124.5 226.833,124.5 225.5,124.5C 224.791,123.596 223.791,123.263 222.5,123.5C 222.177,119.774 222.511,116.107 223.5,112.5C 224.415,114.98 225.915,115.647 228,114.5C 229.316,117.688 229.816,121.022 229.5,124.5 Z"/></g>
<g><path style="opacity:1" fill="#4a4949" d="M 66.5,109.5 C 68.4803,121.789 69.147,134.456 68.5,147.5C 67.6805,144.695 67.1805,141.695 67,138.5C 66.6667,139.833 66.3333,141.167 66,142.5C 65.1909,131.424 65.3575,120.424 66.5,109.5 Z"/></g>
<g><path style="opacity:1" fill="#302f2f" d="M 190.5,125.5 C 192.541,125.854 194.374,125.854 196,125.5C 196.717,126.044 197.217,126.711 197.5,127.5C 186.704,132.967 176.037,132.8 165.5,127C 164.092,123.582 161.592,121.749 158,121.5C 154.086,122.388 150.919,124.555 148.5,128C 137.794,133.101 127.461,132.601 117.5,126.5C 117.67,125.178 117.337,124.011 116.5,123C 117,122.833 117.5,122.667 118,122.5C 120.705,123.939 123.538,124.939 126.5,125.5C 131.724,126.795 137.057,126.628 142.5,125C 148.525,123.636 152.692,120.136 155,114.5C 157,115.833 159,115.833 161,114.5C 161.333,115.5 161.667,116.5 162,117.5C 169.697,126.23 179.197,128.896 190.5,125.5 Z"/></g>
<g><path style="opacity:1" fill="#646464" d="M 270.5,170.5 C 270.631,169.761 270.464,169.094 270,168.5C 268.644,169.38 267.144,169.714 265.5,169.5C 265.436,168.635 265.103,167.635 264.5,166.5C 265.5,166.5 266.5,166.5 267.5,166.5C 269.101,167.643 269.767,166.976 269.5,164.5C 267.595,148.92 266.928,133.254 267.5,117.5C 266.167,117.5 264.833,117.5 263.5,117.5C 262.4,126.514 262.4,135.514 263.5,144.5C 262.992,147.74 261.992,148.074 260.5,145.5C 261.494,136.014 261.827,126.348 261.5,116.5C 264.5,116.5 267.5,116.5 270.5,116.5C 270.333,131.17 270.5,145.837 271,160.5C 271.392,163.188 271.892,165.855 272.5,168.5C 272.253,169.713 271.586,170.38 270.5,170.5 Z"/></g>
<g><path style="opacity:1" fill="#494949" d="M 214.5,124.5 C 215.5,124.5 216.5,124.5 217.5,124.5C 217.5,131.833 217.5,139.167 217.5,146.5C 218.5,146.5 219.5,146.5 220.5,146.5C 220.38,147.586 219.713,148.253 218.5,148.5C 216.367,147.699 214.367,147.366 212.5,147.5C 214.308,139.995 214.974,132.329 214.5,124.5 Z"/></g>
<g><path style="opacity:1" fill="#5e5d5d" d="M 95.5,86.5 C 96.9041,91.599 97.5708,96.9323 97.5,102.5C 96.7073,115.155 96.374,127.822 96.5,140.5C 97.5,140.5 98.5,140.5 99.5,140.5C 99.5,134.833 99.5,129.167 99.5,123.5C 100.5,123.5 101.5,123.5 102.5,123.5C 102.5,129.167 102.5,134.833 102.5,140.5C 109.596,139.75 116.263,141.083 122.5,144.5C 124.599,147.066 124.932,149.733 123.5,152.5C 112.972,148.435 102.305,144.768 91.5,141.5C 92.209,140.596 93.209,140.263 94.5,140.5C 94.6662,134.491 94.4995,128.491 94,122.5C 93.0857,120.336 91.919,118.336 90.5,116.5C 91.8333,114.5 93.1667,112.5 94.5,110.5C 95.4977,102.528 95.831,94.5277 95.5,86.5 Z"/></g>
<g><path style="opacity:1" fill="#676666" d="M 83.5,143.5 C 92.2131,145.701 100.546,148.701 108.5,152.5C 100.826,152.666 93.1594,152.5 85.5,152C 82.2604,151.281 79.2604,150.115 76.5,148.5C 78.5496,146.453 80.883,144.786 83.5,143.5 Z"/></g>
<g><path style="opacity:1" fill="#5f5f60" d="M 220.5,124.5 C 221.167,124.5 221.833,124.5 222.5,124.5C 222.19,130.758 222.524,136.924 223.5,143C 225.515,143.424 227.349,144.258 229,145.5C 234.048,144.022 239.215,143.355 244.5,143.5C 249.437,143.3 254.104,143.967 258.5,145.5C 258.062,145.435 257.728,145.601 257.5,146C 260.442,146.94 261.775,148.94 261.5,152C 260.883,154.159 260.883,156.159 261.5,158C 261.167,158.5 260.833,159 260.5,159.5C 259.614,158.675 259.281,157.675 259.5,156.5C 256.402,156.587 256.068,156.087 258.5,155C 255.257,153.982 251.924,153.482 248.5,153.5C 238.182,154.305 227.848,154.638 217.5,154.5C 217.719,153.325 217.386,152.325 216.5,151.5C 215.501,163.482 215.168,175.482 215.5,187.5C 215.5,203.167 215.5,218.833 215.5,234.5C 215.167,234.5 214.833,234.5 214.5,234.5C 214.667,207.831 214.5,181.165 214,154.5C 213.56,152.134 213.06,149.801 212.5,147.5C 214.367,147.366 216.367,147.699 218.5,148.5C 219.713,148.253 220.38,147.586 220.5,146.5C 224.449,146.307 224.449,145.807 220.5,145C 220.575,138.377 220.575,131.544 220.5,124.5 Z"/></g>
<g><path style="opacity:1" fill="#bdaf97" d="M 91.5,141.5 C 102.305,144.768 112.972,148.435 123.5,152.5C 127.182,154.764 131.182,156.43 135.5,157.5C 135.5,158.833 135.5,160.167 135.5,161.5C 130.272,159.526 124.938,157.859 119.5,156.5C 116.2,154.358 112.533,153.025 108.5,152.5C 100.546,148.701 92.2131,145.701 83.5,143.5C 81.1737,141.67 78.507,140.337 75.5,139.5C 74.6143,138.675 74.281,137.675 74.5,136.5C 80.2368,137.968 85.9034,139.635 91.5,141.5 Z"/></g>
<g><path style="opacity:1" fill="#333231" d="M 54.5,125.5 C 55.4672,133.414 55.8005,141.414 55.5,149.5C 56.8333,149.5 58.1667,149.5 59.5,149.5C 59.8384,152.325 58.8384,154.492 56.5,156C 57.9904,156.745 58.9904,157.912 59.5,159.5C 58.0817,160.431 56.7483,161.431 55.5,162.5C 54.5,162.5 53.5,162.5 52.5,162.5C 52.5,158.167 52.5,153.833 52.5,149.5C 53.1667,141.5 53.8333,133.5 54.5,125.5 Z"/></g>
<g><path style="opacity:1" fill="#424242" d="M 76.5,148.5 C 79.2604,150.115 82.2604,151.281 85.5,152C 93.1594,152.5 100.826,152.666 108.5,152.5C 112.533,153.025 116.2,154.358 119.5,156.5C 118.233,158.039 117.233,159.706 116.5,161.5C 116.032,156.753 113.366,154.586 108.5,155C 102.5,154.333 96.5,154.333 90.5,155C 87.1764,155.517 84.5098,156.35 82.5,157.5C 81.0779,157.25 80.0779,156.417 79.5,155C 75.4592,154.827 71.4592,154.327 67.5,153.5C 68.1925,152.482 68.8592,151.482 69.5,150.5C 72.1085,150.6 74.4418,149.933 76.5,148.5 Z"/></g>
<g><path style="opacity:1" fill="#232222" d="M 61.5,109.5 C 63.1667,109.5 64.8333,109.5 66.5,109.5C 65.3575,120.424 65.1909,131.424 66,142.5C 66.3333,141.167 66.6667,139.833 67,138.5C 67.1805,141.695 67.6805,144.695 68.5,147.5C 68.5569,148.609 68.8902,149.609 69.5,150.5C 68.8592,151.482 68.1925,152.482 67.5,153.5C 71.4592,154.327 75.4592,154.827 79.5,155C 80.0779,156.417 81.0779,157.25 82.5,157.5C 84.6287,158.203 86.6287,159.203 88.5,160.5C 85.6146,160.194 82.9479,160.527 80.5,161.5C 76.8183,161.335 73.1516,161.501 69.5,162C 68.944,162.383 68.6107,162.883 68.5,163.5C 67.5,163.5 66.5,163.5 65.5,163.5C 65.7059,167.898 65.3726,172.232 64.5,176.5C 63.0337,175.653 62.2004,174.32 62,172.5C 61.6667,173.5 61.3333,174.5 61,175.5C 60.5045,173.527 60.3379,171.527 60.5,169.5C 61.5,169.5 62.5,169.5 63.5,169.5C 64.1149,149.335 63.4482,129.335 61.5,109.5 Z"/></g>
<g><path style="opacity:1" fill="#252424" d="M 215.5,234.5 C 215.5,218.833 215.5,203.167 215.5,187.5C 216.995,177.707 217.828,167.707 218,157.5C 218.333,157.833 218.667,158.167 219,158.5C 220.311,184.148 220.811,209.815 220.5,235.5C 218.585,235.784 216.919,235.451 215.5,234.5 Z"/></g>
<g><path style="opacity:1" fill="#939392" d="M 80.5,161.5 C 82.9479,160.527 85.6146,160.194 88.5,160.5C 90.288,160.215 91.9547,160.548 93.5,161.5C 93.0431,162.298 92.3764,162.631 91.5,162.5C 88.0381,161.518 84.3714,161.185 80.5,161.5 Z"/></g>
<g><path style="opacity:1" fill="#f4f4f4" d="M 80.5,161.5 C 84.3714,161.185 88.0381,161.518 91.5,162.5C 86.7723,164.243 81.939,165.91 77,167.5C 73.6437,166.824 70.8104,165.491 68.5,163.5C 68.6107,162.883 68.944,162.383 69.5,162C 73.1516,161.501 76.8183,161.335 80.5,161.5 Z"/></g>
<g><path style="opacity:1" fill="#343333" d="M 116.5,161.5 C 112.481,161.646 108.481,161.979 104.5,162.5C 103.704,167.147 103.037,171.814 102.5,176.5C 98.917,176.768 95.5836,176.101 92.5,174.5C 83.8162,173.117 76.1495,175.284 69.5,181C 68.5253,195.13 68.192,209.297 68.5,223.5C 67.8826,223.389 67.3826,223.056 67,222.5C 66.8313,207.661 66.3313,192.994 65.5,178.5C 65.6716,177.508 65.3382,176.842 64.5,176.5C 65.3726,172.232 65.7059,167.898 65.5,163.5C 66.5,163.5 67.5,163.5 68.5,163.5C 70.8104,165.491 73.6437,166.824 77,167.5C 81.939,165.91 86.7723,164.243 91.5,162.5C 92.3764,162.631 93.0431,162.298 93.5,161.5C 91.9547,160.548 90.288,160.215 88.5,160.5C 86.6287,159.203 84.6287,158.203 82.5,157.5C 84.5098,156.35 87.1764,155.517 90.5,155C 96.5,154.333 102.5,154.333 108.5,155C 113.366,154.586 116.032,156.753 116.5,161.5 Z"/></g>
<g><path style="opacity:1" fill="#f7f7f7" d="M 92.5,174.5 C 92.8039,175.15 93.1373,175.817 93.5,176.5C 88.7654,177.211 84.0988,178.211 79.5,179.5C 78.2867,179.747 77.62,180.414 77.5,181.5C 77.1758,185.555 77.5091,189.555 78.5,193.5C 79.4168,194.127 80.4168,194.461 81.5,194.5C 85.8072,195.327 90.1405,195.993 94.5,196.5C 94.274,213.015 94.274,229.348 94.5,245.5C 94.719,246.675 94.3857,247.675 93.5,248.5C 83.4809,255.37 73.6475,262.37 64,269.5C 62.6244,268.295 61.4577,266.962 60.5,265.5C 59.4937,264.604 59.4937,263.938 60.5,263.5C 63.2492,263.726 65.9159,263.393 68.5,262.5C 68.7989,249.535 68.7989,236.535 68.5,223.5C 68.192,209.297 68.5253,195.13 69.5,181C 76.1495,175.284 83.8162,173.117 92.5,174.5 Z"/></g>
<g><path style="opacity:1" fill="#242322" d="M 270.5,170.5 C 270.768,172.099 270.434,173.432 269.5,174.5C 268.508,174.328 267.842,174.662 267.5,175.5C 266.502,204.662 266.169,233.995 266.5,263.5C 265.5,263.5 264.5,263.5 263.5,263.5C 262.853,231.943 263.519,200.61 265.5,169.5C 267.144,169.714 268.644,169.38 270,168.5C 270.464,169.094 270.631,169.761 270.5,170.5 Z"/></g>
<g><path style="opacity:1" fill="#494848" d="M 61.5,109.5 C 63.4482,129.335 64.1149,149.335 63.5,169.5C 62.5,169.5 61.5,169.5 60.5,169.5C 60.3379,171.527 60.5045,173.527 61,175.5C 61.3333,174.5 61.6667,173.5 62,172.5C 62.2004,174.32 63.0337,175.653 64.5,176.5C 65.3382,176.842 65.6716,177.508 65.5,178.5C 63.3888,177.258 61.3888,177.258 59.5,178.5C 58.4138,178.38 57.7472,177.713 57.5,176.5C 59.5719,172.07 60.5719,167.404 60.5,162.5C 58.8333,162.5 57.1667,162.5 55.5,162.5C 56.7483,161.431 58.0817,160.431 59.5,159.5C 58.9904,157.912 57.9904,156.745 56.5,156C 58.8384,154.492 59.8384,152.325 59.5,149.5C 60.1667,136.167 60.8333,122.833 61.5,109.5 Z"/></g>
<g><path style="opacity:1" fill="#92908f" d="M 92.5,174.5 C 95.5836,176.101 98.917,176.768 102.5,176.5C 113.399,175.744 124.066,176.91 134.5,180C 135.814,182.605 135.814,185.105 134.5,187.5C 134.662,185.473 134.495,183.473 134,181.5C 132.769,180.892 131.436,180.559 130,180.5C 112.543,182.797 95.0434,183.13 77.5,181.5C 77.62,180.414 78.2867,179.747 79.5,179.5C 84.0988,178.211 88.7654,177.211 93.5,176.5C 93.1373,175.817 92.8039,175.15 92.5,174.5 Z"/></g>
<g><path style="opacity:1" fill="#373636" d="M 132.5,193.5 C 124.247,195.303 116.581,196.636 109.5,197.5C 109.631,198.376 109.298,199.043 108.5,199.5C 107.108,197.275 105.442,196.608 103.5,197.5C 101.544,203.412 100.877,209.745 101.5,216.5C 99.874,210.072 99.2073,203.405 99.5,196.5C 100.552,196.649 101.552,196.483 102.5,196C 100.559,195.257 98.7261,195.424 97,196.5C 96.291,212.844 95.4576,229.177 94.5,245.5C 94.274,229.348 94.274,213.015 94.5,196.5C 90.1405,195.993 85.8072,195.327 81.5,194.5C 82.6567,190.883 82.6567,187.216 81.5,183.5C 97.2249,183.619 112.892,183.786 128.5,184C 129.444,186.719 129.777,189.552 129.5,192.5C 130.791,192.263 131.791,192.596 132.5,193.5 Z"/></g>
<g><path style="opacity:1" fill="#545252" d="M 134.5,187.5 C 134.946,190.01 134.28,192.01 132.5,193.5C 131.791,192.596 130.791,192.263 129.5,192.5C 129.777,189.552 129.444,186.719 128.5,184C 112.892,183.786 97.2249,183.619 81.5,183.5C 82.6567,187.216 82.6567,190.883 81.5,194.5C 80.4168,194.461 79.4168,194.127 78.5,193.5C 77.5091,189.555 77.1758,185.555 77.5,181.5C 95.0434,183.13 112.543,182.797 130,180.5C 131.436,180.559 132.769,180.892 134,181.5C 134.495,183.473 134.662,185.473 134.5,187.5 Z"/></g>
<g><path style="opacity:1" fill="#232222" d="M 101.5,216.5 C 101.56,217.043 101.893,217.376 102.5,217.5C 103.497,210.866 103.83,204.2 103.5,197.5C 105.442,196.608 107.108,197.275 108.5,199.5C 109.298,199.043 109.631,198.376 109.5,197.5C 111.369,199.635 112.036,202.302 111.5,205.5C 109.876,205.64 108.71,204.973 108,203.5C 107.601,203.728 107.435,204.062 107.5,204.5C 105.708,209.745 104.874,215.412 105,221.5C 104.085,220.672 103.419,219.672 103,218.5C 100.766,219.705 99.0992,219.039 98,216.5C 97.4932,218.835 98.1599,220.835 100,222.5C 100.667,229.5 100.667,236.5 100,243.5C 98.5993,245.192 96.7659,245.859 94.5,245.5C 95.4576,229.177 96.291,212.844 97,196.5C 98.7261,195.424 100.559,195.257 102.5,196C 101.552,196.483 100.552,196.649 99.5,196.5C 99.2073,203.405 99.874,210.072 101.5,216.5 Z"/></g>
<g><path style="opacity:1" fill="#3f3f3f" d="M 60.5,182.5 C 61.4959,182.414 62.3292,182.748 63,183.5C 63.2099,199.836 62.8766,216.17 62,232.5C 61.8019,234.382 61.3019,236.048 60.5,237.5C 60.5,219.167 60.5,200.833 60.5,182.5 Z"/></g>
<g><path style="opacity:1" fill="#969696" d="M 103.5,197.5 C 103.83,204.2 103.497,210.866 102.5,217.5C 101.893,217.376 101.56,217.043 101.5,216.5C 100.877,209.745 101.544,203.412 103.5,197.5 Z"/></g>
<g><path style="opacity:1" fill="#535353" d="M 269.5,174.5 C 269.5,203.833 269.5,233.167 269.5,262.5C 268.343,233.673 267.676,204.673 267.5,175.5C 267.842,174.662 268.508,174.328 269.5,174.5 Z"/></g>
<g><path style="opacity:1" fill="#383637" d="M 107.5,204.5 C 107.774,217.11 107.94,229.776 108,242.5C 119.501,251.013 131.334,259.179 143.5,267C 144.946,269.493 144.279,271.327 141.5,272.5C 135.831,266.912 129.664,261.912 123,257.5C 117.154,262.012 111.988,267.179 107.5,273C 107.191,281.525 107.524,290.192 108.5,299C 108.905,302.944 107.405,304.11 104,302.5C 103.832,293.814 103.332,285.148 102.5,276.5C 96.6813,271.182 91.0146,265.682 85.5,260C 78.8975,261.883 73.2308,265.55 68.5,271C 67.552,271.483 66.552,271.649 65.5,271.5C 65.6399,273.124 64.9733,274.29 63.5,275C 59.1222,275.679 54.7889,276.512 50.5,277.5C 50.9864,274.245 49.9864,271.578 47.5,269.5C 48.376,268.749 49.376,268.249 50.5,268C 49.7476,267.329 49.4142,266.496 49.5,265.5C 53.15,264.325 56.8166,264.325 60.5,265.5C 61.4577,266.962 62.6244,268.295 64,269.5C 73.6475,262.37 83.4809,255.37 93.5,248.5C 94.3857,247.675 94.719,246.675 94.5,245.5C 96.7659,245.859 98.5993,245.192 100,243.5C 100.667,236.5 100.667,229.5 100,222.5C 98.1599,220.835 97.4932,218.835 98,216.5C 99.0992,219.039 100.766,219.705 103,218.5C 103.419,219.672 104.085,220.672 105,221.5C 104.874,215.412 105.708,209.745 107.5,204.5 Z"/></g>
<g><path style="opacity:1" fill="#8c8c8c" d="M 102.5,222.5 C 103.808,226.019 103.808,229.685 102.5,233.5C 101.242,229.79 101.242,226.123 102.5,222.5 Z"/></g>
<g><path style="opacity:1" fill="#242322" d="M 65.5,178.5 C 66.3313,192.994 66.8313,207.661 67,222.5C 67.3826,223.056 67.8826,223.389 68.5,223.5C 68.7989,236.535 68.7989,249.535 68.5,262.5C 65.9159,263.393 63.2492,263.726 60.5,263.5C 59.564,259.265 59.2307,254.931 59.5,250.5C 60.4849,246.366 60.8182,242.032 60.5,237.5C 61.3019,236.048 61.8019,234.382 62,232.5C 62.8766,216.17 63.2099,199.836 63,183.5C 62.3292,182.748 61.4959,182.414 60.5,182.5C 59.5655,181.432 59.2322,180.099 59.5,178.5C 61.3888,177.258 63.3888,177.258 65.5,178.5 Z"/></g>
<g><path style="opacity:1" fill="#b2b3b3" d="M 165.5,228.5 C 164.673,233.651 164.173,238.984 164,244.5C 161.55,247.378 160.884,250.712 162,254.5C 164.277,255.704 164.777,257.37 163.5,259.5C 162.817,259.137 162.15,258.804 161.5,258.5C 157.785,258.423 154.119,258.756 150.5,259.5C 152.121,256.621 153.121,253.454 153.5,250C 153.437,247.719 152.603,245.886 151,244.5C 150.827,238.984 150.327,233.651 149.5,228.5C 151.807,226.953 154.473,226.287 157.5,226.5C 160.527,226.287 163.193,226.953 165.5,228.5 Z"/></g>
<g><path style="opacity:1" fill="#aaaaaa" d="M 48.5,250.5 C 46.7748,250.843 46.2748,251.843 47,253.5C 48.9606,256.463 51.294,259.129 54,261.5C 54.3988,261.272 54.5654,260.938 54.5,260.5C 55.7079,261.234 57.0413,261.567 58.5,261.5C 58.185,257.629 58.5184,253.962 59.5,250.5C 59.2307,254.931 59.564,259.265 60.5,263.5C 59.4937,263.938 59.4937,264.604 60.5,265.5C 56.8166,264.325 53.15,264.325 49.5,265.5C 48.5326,266.806 47.1993,267.473 45.5,267.5C 44.3741,265.5 44.2075,263.5 45,261.5C 42.7152,259.093 40.5486,256.593 38.5,254C 36.8988,253.727 35.3988,253.227 34,252.5C 29.6361,246.646 25.1361,240.979 20.5,235.5C 24.6615,232.64 29.3282,231.807 34.5,233C 39.0003,238.997 43.6669,244.83 48.5,250.5 Z"/></g>
<g><path style="opacity:1" fill="#454545" d="M 165.5,228.5 C 165.5,232.5 165.5,236.5 165.5,240.5C 166.397,248 166.397,255.333 165.5,262.5C 164.167,261.167 162.833,259.833 161.5,258.5C 162.15,258.804 162.817,259.137 163.5,259.5C 164.777,257.37 164.277,255.704 162,254.5C 160.884,250.712 161.55,247.378 164,244.5C 164.173,238.984 164.673,233.651 165.5,228.5 Z"/></g>
<g><path style="opacity:1" fill="#3a3a3a" d="M 267.5,166.5 C 266.712,150.531 266.212,134.531 266,118.5C 264.516,134.345 264.016,150.345 264.5,166.5C 265.103,167.635 265.436,168.635 265.5,169.5C 263.519,200.61 262.853,231.943 263.5,263.5C 264.5,263.5 265.5,263.5 266.5,263.5C 266.169,233.995 266.502,204.662 267.5,175.5C 267.676,204.673 268.343,233.673 269.5,262.5C 270.809,266.351 270.809,270.351 269.5,274.5C 262.578,277.436 259.245,275.27 259.5,268C 260.451,236.51 260.784,205.01 260.5,173.5C 258.833,173.5 257.167,173.5 255.5,173.5C 255.799,167.798 253.132,165.132 247.5,165.5C 248.593,162.747 250.426,162.08 253,163.5C 254.663,161.842 255.496,159.842 255.5,157.5C 253.473,157.338 251.473,157.505 249.5,158C 246.785,159.908 243.785,161.241 240.5,162C 241.056,162.383 241.389,162.883 241.5,163.5C 241.062,163.435 240.728,163.601 240.5,164C 242.595,164.556 242.762,165.056 241,165.5C 236.049,162.471 230.549,161.137 224.5,161.5C 224.158,160.662 223.492,160.328 222.5,160.5C 222.44,159.957 222.107,159.624 221.5,159.5C 221.167,162 220.833,164.5 220.5,167C 221.084,189.663 221.751,212.163 222.5,234.5C 222.833,234.5 223.167,234.5 223.5,234.5C 223.665,238.182 223.499,241.848 223,245.5C 220,246.833 217,246.833 214,245.5C 213.19,241.642 213.357,237.976 214.5,234.5C 214.833,234.5 215.167,234.5 215.5,234.5C 216.919,235.451 218.585,235.784 220.5,235.5C 220.811,209.815 220.311,184.148 219,158.5C 218.667,158.167 218.333,157.833 218,157.5C 217.828,167.707 216.995,177.707 215.5,187.5C 215.168,175.482 215.501,163.482 216.5,151.5C 217.386,152.325 217.719,153.325 217.5,154.5C 227.848,154.638 238.182,154.305 248.5,153.5C 251.924,153.482 255.257,153.982 258.5,155C 256.068,156.087 256.402,156.587 259.5,156.5C 259.281,157.675 259.614,158.675 260.5,159.5C 260.833,159 261.167,158.5 261.5,158C 260.883,156.159 260.883,154.159 261.5,152C 261.775,148.94 260.442,146.94 257.5,146C 257.728,145.601 258.062,145.435 258.5,145.5C 259.167,145.5 259.833,145.5 260.5,145.5C 261.992,148.074 262.992,147.74 263.5,144.5C 262.4,135.514 262.4,126.514 263.5,117.5C 264.833,117.5 266.167,117.5 267.5,117.5C 266.928,133.254 267.595,148.92 269.5,164.5C 269.767,166.976 269.101,167.643 267.5,166.5 Z"/></g>
<g><path style="opacity:1" fill="#4e4d4d" d="M 222.5,160.5 C 222.5,185.167 222.5,209.833 222.5,234.5C 221.751,212.163 221.084,189.663 220.5,167C 220.833,164.5 221.167,162 221.5,159.5C 222.107,159.624 222.44,159.957 222.5,160.5 Z"/></g>
<g><path style="opacity:1" fill="#cacaca" d="M 222.5,160.5 C 223.492,160.328 224.158,160.662 224.5,161.5C 223.502,185.661 223.169,209.994 223.5,234.5C 223.167,234.5 222.833,234.5 222.5,234.5C 222.5,209.833 222.5,185.167 222.5,160.5 Z"/></g>
<g><path style="opacity:1" fill="#1a1716" d="M 247.5,165.5 C 245.5,164.833 243.5,164.167 241.5,163.5C 241.389,162.883 241.056,162.383 240.5,162C 243.785,161.241 246.785,159.908 249.5,158C 251.473,157.505 253.473,157.338 255.5,157.5C 255.496,159.842 254.663,161.842 253,163.5C 250.426,162.08 248.593,162.747 247.5,165.5 Z"/></g>
<g><path style="opacity:1" fill="#20201e" d="M 267.5,166.5 C 266.5,166.5 265.5,166.5 264.5,166.5C 264.016,150.345 264.516,134.345 266,118.5C 266.212,134.531 266.712,150.531 267.5,166.5 Z"/></g>
<g><path style="opacity:1" fill="#f9f9f9" d="M 97.5,249.5 C 98.9305,249.421 100.264,249.754 101.5,250.5C 102.665,258.145 102.831,265.812 102,273.5C 96.8333,268.333 91.6667,263.167 86.5,258C 90.2355,255.147 93.9021,252.313 97.5,249.5 Z"/></g>
<g><path style="opacity:1" fill="#f4f4f4" d="M 109.5,249.5 C 113.929,250.588 117.595,252.921 120.5,256.5C 116.815,261.019 112.648,265.019 108,268.5C 106.943,261.886 107.443,255.553 109.5,249.5 Z"/></g>
<g><path style="opacity:1" fill="#737272" d="M 165.5,240.5 C 167.334,243.999 168.334,247.833 168.5,252C 168.406,257.938 167.406,263.438 165.5,268.5C 164.62,266.611 164.62,264.611 165.5,262.5C 166.397,255.333 166.397,248 165.5,240.5 Z"/></g>
<g><path style="opacity:1" fill="#595858" d="M 20.5,235.5 C 25.1361,240.979 29.6361,246.646 34,252.5C 35.3988,253.227 36.8988,253.727 38.5,254C 40.5486,256.593 42.7152,259.093 45,261.5C 44.2075,263.5 44.3741,265.5 45.5,267.5C 43.9855,266.32 42.3188,265.32 40.5,264.5C 35.6434,258.811 30.9767,252.978 26.5,247C 25.552,246.517 24.552,246.351 23.5,246.5C 23.8039,245.85 24.1373,245.183 24.5,244.5C 22.7145,242.431 21.0478,240.264 19.5,238C 19.7432,237.098 20.0766,236.265 20.5,235.5 Z"/></g>
<g><path style="opacity:1" fill="#5e5e5e" d="M 48.5,250.5 C 49.4827,254.469 51.4827,257.802 54.5,260.5C 54.5654,260.938 54.3988,261.272 54,261.5C 51.294,259.129 48.9606,256.463 47,253.5C 46.2748,251.843 46.7748,250.843 48.5,250.5 Z"/></g>
<g><path style="opacity:1" fill="#6a6969" d="M 19.5,247.5 C 26.9949,255.162 34.3283,262.996 41.5,271C 43.1667,270.333 44.8333,270.333 46.5,271C 45.6634,269.989 45.33,268.822 45.5,267.5C 47.1993,267.473 48.5326,266.806 49.5,265.5C 49.4142,266.496 49.7476,267.329 50.5,268C 49.376,268.249 48.376,268.749 47.5,269.5C 49.9864,271.578 50.9864,274.245 50.5,277.5C 38.2789,272.056 26.2789,266.056 14.5,259.5C 16.1922,255.4 17.8589,251.4 19.5,247.5 Z"/></g>
<g><path style="opacity:1" fill="#a2a2a2" d="M 103.5,256.5 C 103.56,255.957 103.893,255.624 104.5,255.5C 105.553,256.438 106.22,257.605 106.5,259C 105.922,260.811 105.422,262.645 105,264.5C 103.967,261.623 103.467,258.956 103.5,256.5 Z"/></g>
<g><path style="opacity:1" fill="#1f1e1d" d="M 23.5,246.5 C 24.552,246.351 25.552,246.517 26.5,247C 30.9767,252.978 35.6434,258.811 40.5,264.5C 42.3188,265.32 43.9855,266.32 45.5,267.5C 45.33,268.822 45.6634,269.989 46.5,271C 44.8333,270.333 43.1667,270.333 41.5,271C 34.3283,262.996 26.9949,255.162 19.5,247.5C 20.7079,246.766 22.0413,246.433 23.5,246.5 Z"/></g>
<g><path style="opacity:1" fill="#383838" d="M 149.5,228.5 C 150.327,233.651 150.827,238.984 151,244.5C 152.603,245.886 153.437,247.719 153.5,250C 153.121,253.454 152.121,256.621 150.5,259.5C 154.119,258.756 157.785,258.423 161.5,258.5C 162.833,259.833 164.167,261.167 165.5,262.5C 164.62,264.611 164.62,266.611 165.5,268.5C 160.099,269.825 154.599,269.825 149,268.5C 148.368,262.845 147.868,257.178 147.5,251.5C 148.98,243.925 149.647,236.259 149.5,228.5 Z"/></g>
</svg>
