<?xml version="1.0" encoding="UTF-8"?>
<!DOCTYPE svg PUBLIC "-//W3C//DTD SVG 1.1//EN" "http://www.w3.org/Graphics/SVG/1.1/DTD/svg11.dtd">
<svg xmlns="http://www.w3.org/2000/svg" version="1.1" width="347px" height="347px" style="shape-rendering:geometricPrecision; text-rendering:geometricPrecision; image-rendering:optimizeQuality; fill-rule:evenodd; clip-rule:evenodd" xmlns:xlink="http://www.w3.org/1999/xlink">
<g><path style="opacity:1" fill="#fefefe" d="M -0.5,-0.5 C 115.167,-0.5 230.833,-0.5 346.5,-0.5C 346.5,115.167 346.5,230.833 346.5,346.5C 230.833,346.5 115.167,346.5 -0.5,346.5C -0.5,230.833 -0.5,115.167 -0.5,-0.5 Z"/></g>
<g><path style="opacity:1" fill="#aeabaa" d="M 309.5,14.5 C 309.573,16.0269 308.906,17.0269 307.5,17.5C 307.631,16.6236 307.298,15.9569 306.5,15.5C 301.915,17.0189 300.415,15.3522 302,10.5C 307.185,6.14594 309.685,7.47927 309.5,14.5 Z"/></g>
<g><path style="opacity:1" fill="#aeabaa" d="M 299.5,25.5 C 297.973,25.427 296.973,26.0937 296.5,27.5C 292.586,28.4142 291.086,26.7476 292,22.5C 296.903,17.8454 299.403,18.8454 299.5,25.5 Z"/></g>
<g><path style="opacity:1" fill="#3b2621" d="M 331.5,35.5 C 331.048,38.6741 330.048,39.0075 328.5,36.5C 327.145,37.1882 326.145,38.1882 325.5,39.5C 323.5,41.1667 321.5,42.8333 319.5,44.5C 318.167,45.1667 317.167,46.1667 316.5,47.5C 313.097,49.8998 310.43,52.8998 308.5,56.5C 308.869,58.9935 308.203,59.6602 306.5,58.5C 306.565,58.0618 306.399,57.7284 306,57.5C 302.597,61.2225 298.431,63.5559 293.5,64.5C 290.833,62.5 288.5,60.1667 286.5,57.5C 292.833,49.5 299.167,41.5 305.5,33.5C 307.173,30.8583 306.673,28.8583 304,27.5C 300.168,28.8016 299.668,30.8016 302.5,33.5C 300.527,36.1395 298.194,38.4728 295.5,40.5C 294.341,38.6231 292.674,38.1231 290.5,39C 289.272,40.4902 289.272,41.9902 290.5,43.5C 287.815,47.1831 284.482,50.1831 280.5,52.5C 280.5,52.1667 280.5,51.8333 280.5,51.5C 281.384,47.1399 283.384,43.4732 286.5,40.5C 287.833,39.1667 289.167,37.8333 290.5,36.5C 292.461,34.0365 294.628,31.7032 297,29.5C 297.692,28.5632 297.525,27.8966 296.5,27.5C 296.973,26.0937 297.973,25.427 299.5,25.5C 302.5,23.1667 305.167,20.5 307.5,17.5C 308.906,17.0269 309.573,16.0269 309.5,14.5C 312.485,12.0156 315.318,9.34893 318,6.5C 322.598,8.44299 327.098,10.6097 331.5,13C 333,15.1667 334.5,17.3333 336,19.5C 336.151,22.1193 336.985,24.4527 338.5,26.5C 335.737,29.2515 333.403,32.2515 331.5,35.5 Z"/></g>
<g><path style="opacity:1" fill="#675138" d="M 323.5,13.5 C 324.269,15.6674 325.269,17.834 326.5,20C 328.112,20.7203 329.612,20.5536 331,19.5C 331.456,20.7441 330.956,21.5774 329.5,22C 330.728,22.779 331.728,23.779 332.5,25C 332.167,25.5 331.833,26 331.5,26.5C 327.647,23.7716 324.48,20.4382 322,16.5C 321.282,17.4506 320.449,17.6172 319.5,17C 321.093,16.0513 322.426,14.8846 323.5,13.5 Z"/></g>
<g><path style="opacity:1" fill="#897c6f" d="M 312.5,15.5 C 317.159,15.0146 318.492,16.848 316.5,21C 311.728,21.8104 310.395,19.9771 312.5,15.5 Z"/></g>
<g><path style="opacity:1" fill="#887c6f" d="M 324.5,27.5 C 329.159,27.0146 330.492,28.848 328.5,33C 323.728,33.8104 322.395,31.9771 324.5,27.5 Z"/></g>
<g><path style="opacity:1" fill="#968470" d="M 305.5,33.5 C 304.5,33.5 303.5,33.5 302.5,33.5C 299.668,30.8016 300.168,28.8016 304,27.5C 306.673,28.8583 307.173,30.8583 305.5,33.5 Z"/></g>
<g><path style="opacity:1" fill="#adaaa8" d="M 290.5,36.5 C 289.167,37.8333 287.833,39.1667 286.5,40.5C 286.089,38.228 284.922,37.8947 283,39.5C 279.644,37.8176 278.977,35.4842 281,32.5C 282.913,30.8131 285.08,30.3131 287.5,31C 287.88,33.3258 288.88,35.1591 290.5,36.5 Z"/></g>
<g><path style="opacity:1" fill="#938471" d="M 295.5,40.5 C 295.475,44.2838 293.808,45.2838 290.5,43.5C 289.272,41.9902 289.272,40.4902 290.5,39C 292.674,38.1231 294.341,38.6231 295.5,40.5 Z"/></g>
<g><path style="opacity:1" fill="#867b71" d="M 312.5,38.5 C 316.909,37.899 318.242,39.5657 316.5,43.5C 312.317,44.3087 310.984,42.642 312.5,38.5 Z"/></g>
<g><path style="opacity:1" fill="#b3b1b0" d="M 331.5,35.5 C 337.016,35.4734 338.349,37.64 335.5,42C 331.035,44.7692 328.535,43.6025 328,38.5C 327.329,39.2524 326.496,39.5858 325.5,39.5C 326.145,38.1882 327.145,37.1882 328.5,36.5C 330.048,39.0075 331.048,38.6741 331.5,35.5 Z"/></g>
<g><path style="opacity:1" fill="#604a38" d="M 302.5,33.5 C 303.5,33.5 304.5,33.5 305.5,33.5C 299.167,41.5 292.833,49.5 286.5,57.5C 284.202,56.2034 282.202,54.5368 280.5,52.5C 284.482,50.1831 287.815,47.1831 290.5,43.5C 293.808,45.2838 295.475,44.2838 295.5,40.5C 298.194,38.4728 300.527,36.1395 302.5,33.5 Z"/></g>
<g><path style="opacity:1" fill="#aca9a6" d="M 319.5,44.5 C 320.542,45.7911 321.708,45.7911 323,44.5C 326.89,49.2308 325.723,52.2308 319.5,53.5C 318.354,52.8551 317.354,52.0217 316.5,51C 317.791,49.7083 317.791,48.5417 316.5,47.5C 317.167,46.1667 318.167,45.1667 319.5,44.5 Z"/></g>
<g><path style="opacity:1" fill="#897e74" d="M 301.5,49.5 C 306.159,49.0146 307.492,50.848 305.5,55C 301.266,55.267 299.933,53.4336 301.5,49.5 Z"/></g>
<g><path style="opacity:1" fill="#adacaa" d="M 308.5,56.5 C 313.123,55.4082 314.956,57.0748 314,61.5C 308.933,66.3789 306.433,65.3789 306.5,58.5C 308.203,59.6602 308.869,58.9935 308.5,56.5 Z"/></g>
<g><path style="opacity:1" fill="#afa391" d="M 280.5,51.5 C 280.5,51.8333 280.5,52.1667 280.5,52.5C 282.202,54.5368 284.202,56.2034 286.5,57.5C 288.5,60.1667 290.833,62.5 293.5,64.5C 293.158,65.3382 292.492,65.6716 291.5,65.5C 289.167,63.5 286.833,61.5 284.5,59.5C 284.5,58.8333 284.167,58.5 283.5,58.5C 283.5,57.8333 283.167,57.5 282.5,57.5C 281.564,56.0256 280.23,55.0256 278.5,54.5C 278.932,53.2905 279.599,52.2905 280.5,51.5 Z"/></g>
<g><path style="opacity:1" fill="#2a2019" d="M 282.5,57.5 C 283.167,57.5 283.5,57.8333 283.5,58.5C 280.538,61.9641 277.371,65.2975 274,68.5C 273.333,67.8333 273.333,67.1667 274,66.5C 277.038,63.6306 279.871,60.6306 282.5,57.5 Z"/></g>
<g><path style="opacity:1" fill="#44362a" d="M 284.5,59.5 C 286.833,61.5 289.167,63.5 291.5,65.5C 287.472,69.8593 283.472,74.1927 279.5,78.5C 278.883,78.3893 278.383,78.056 278,77.5C 275.651,80.0168 273.151,82.3501 270.5,84.5C 269.476,83.1468 268.143,82.4802 266.5,82.5C 266.649,83.552 266.483,84.552 266,85.5C 255.403,95.886 244.903,106.386 234.5,117C 233.668,117.688 233.002,117.521 232.5,116.5C 233.629,114.471 233.129,114.137 231,115.5C 232.065,112.394 234.065,109.727 237,107.5C 248.442,96.4121 260.775,84.0788 274,70.5C 274.667,71.1667 275.333,71.8333 276,72.5C 276,71.1667 276,69.8333 276,68.5C 279.038,65.6306 281.871,62.6306 284.5,59.5 Z"/></g>
<g><path style="opacity:1" fill="#433427" d="M 270.5,66.5 C 271.357,67.8018 271.857,69.1351 272,70.5C 269.234,73.7768 266.067,76.4434 262.5,78.5C 262.167,77.5 261.5,76.8333 260.5,76.5C 262.833,72.1667 266.167,68.8333 270.5,66.5 Z"/></g>
<g><path style="opacity:1" fill="#36261c" d="M 260.5,76.5 C 257.769,80.2343 254.436,83.2343 250.5,85.5C 253.231,81.7657 256.564,78.7657 260.5,76.5 Z"/></g>
<g><path style="opacity:1" fill="#31241c" d="M 262.5,78.5 C 260.234,82.4356 257.234,85.7689 253.5,88.5C 255.069,83.9286 258.069,80.5953 262.5,78.5 Z"/></g>
<g><path style="opacity:1" fill="#3d2b1f" d="M 250.5,85.5 C 248.5,89.5 245.5,92.5 241.5,94.5C 244.167,91.1667 247.167,88.1667 250.5,85.5 Z"/></g>
<g><path style="opacity:1" fill="#34271e" d="M 253.5,88.5 C 251.006,92.3384 247.673,95.0051 243.5,96.5C 246.129,93.3694 248.962,90.3694 252,87.5C 252.383,88.056 252.883,88.3893 253.5,88.5 Z"/></g>
<g><path style="opacity:1" fill="#372920" d="M 243.5,96.5 C 243.611,97.1174 243.944,97.6174 244.5,98C 241.899,101.112 238.899,103.612 235.5,105.5C 237.43,101.9 240.097,98.8998 243.5,96.5 Z"/></g>
<g><path style="opacity:1" fill="#402f22" d="M 241.5,94.5 C 237.433,100.075 232.766,105.241 227.5,110C 226.552,110.483 225.552,110.649 224.5,110.5C 229.537,104.462 235.203,99.1289 241.5,94.5 Z"/></g>
<g><path style="opacity:1" fill="#6c5b46" d="M 260.5,76.5 C 261.5,76.8333 262.167,77.5 262.5,78.5C 258.069,80.5953 255.069,83.9286 253.5,88.5C 252.883,88.3893 252.383,88.056 252,87.5C 248.962,90.3694 246.129,93.3694 243.5,96.5C 240.097,98.8998 237.43,101.9 235.5,105.5C 232.252,107.403 229.252,109.737 226.5,112.5C 225.478,112.145 224.811,111.478 224.5,110.5C 225.552,110.649 226.552,110.483 227.5,110C 232.766,105.241 237.433,100.075 241.5,94.5C 245.5,92.5 248.5,89.5 250.5,85.5C 254.436,83.2343 257.769,80.2343 260.5,76.5 Z"/></g>
<g><path style="opacity:1" fill="#534538" d="M 278.5,54.5 C 280.23,55.0256 281.564,56.0256 282.5,57.5C 279.871,60.6306 277.038,63.6306 274,66.5C 273.333,67.1667 273.333,67.8333 274,68.5C 277.371,65.2975 280.538,61.9641 283.5,58.5C 284.167,58.5 284.5,58.8333 284.5,59.5C 281.871,62.6306 279.038,65.6306 276,68.5C 276,69.8333 276,71.1667 276,72.5C 275.333,71.8333 274.667,71.1667 274,70.5C 260.775,84.0788 248.442,96.4121 237,107.5C 234.065,109.727 232.065,112.394 231,115.5C 233.129,114.137 233.629,114.471 232.5,116.5C 233.002,117.521 233.668,117.688 234.5,117C 244.903,106.386 255.403,95.886 266,85.5C 266.483,84.552 266.649,83.552 266.5,82.5C 268.143,82.4802 269.476,83.1468 270.5,84.5C 273.151,82.3501 275.651,80.0168 278,77.5C 278.383,78.056 278.883,78.3893 279.5,78.5C 258.652,100.401 237.652,122.068 216.5,143.5C 215.85,143.196 215.183,142.863 214.5,142.5C 210.5,146.5 206.5,150.5 202.5,154.5C 201.522,154.023 200.689,153.357 200,152.5C 198.316,154.351 196.483,156.018 194.5,157.5C 193.614,156.675 193.281,155.675 193.5,154.5C 191.645,154.728 190.812,154.061 191,152.5C 192.319,150.513 194.152,149.346 196.5,149C 196.167,148.667 195.833,148.333 195.5,148C 197.298,145.528 199.632,143.861 202.5,143C 201.627,141.955 200.627,141.122 199.5,140.5C 203.083,135.246 207.416,130.58 212.5,126.5C 211.189,125.742 210.689,124.742 211,123.5C 215.506,119.133 220.006,114.8 224.5,110.5C 224.811,111.478 225.478,112.145 226.5,112.5C 229.252,109.737 232.252,107.403 235.5,105.5C 238.899,103.612 241.899,101.112 244.5,98C 243.944,97.6174 243.611,97.1174 243.5,96.5C 247.673,95.0051 251.006,92.3384 253.5,88.5C 257.234,85.7689 260.234,82.4356 262.5,78.5C 266.067,76.4434 269.234,73.7768 272,70.5C 271.857,69.1351 271.357,67.8018 270.5,66.5C 270.443,65.391 270.11,64.391 269.5,63.5C 272.167,60.1667 275.167,57.1667 278.5,54.5 Z"/></g>
<g><path style="opacity:1" fill="#74624d" d="M 269.5,63.5 C 270.11,64.391 270.443,65.391 270.5,66.5C 266.167,68.8333 262.833,72.1667 260.5,76.5C 256.564,78.7657 253.231,81.7657 250.5,85.5C 247.167,88.1667 244.167,91.1667 241.5,94.5C 235.203,99.1289 229.537,104.462 224.5,110.5C 220.006,114.8 215.506,119.133 211,123.5C 210.689,124.742 211.189,125.742 212.5,126.5C 207.416,130.58 203.083,135.246 199.5,140.5C 196.5,141.5 194.5,143.5 193.5,146.5C 190.925,147.728 188.592,149.395 186.5,151.5C 185.522,151.023 184.689,150.357 184,149.5C 182.5,151 181,152.5 179.5,154C 180.448,154.483 181.448,154.649 182.5,154.5C 182.5,155.5 182.5,156.5 182.5,157.5C 180.71,156.987 179.044,156.487 177.5,156C 169.614,162.728 162.614,169.561 156.5,176.5C 152.416,180.595 148.082,184.261 143.5,187.5C 142.957,187.44 142.624,187.107 142.5,186.5C 143.34,185.265 144.34,184.265 145.5,183.5C 153.605,174.973 161.939,166.64 170.5,158.5C 171.492,158.672 172.158,158.338 172.5,157.5C 204.092,125.577 236.425,94.244 269.5,63.5 Z"/></g>
<g><path style="opacity:1" fill="#4a3829" d="M 201.5,131.5 C 202.289,131.783 202.956,132.283 203.5,133C 198.667,137.833 193.833,142.667 189,147.5C 188.5,147 188,146.5 187.5,146C 192.37,141.298 197.037,136.465 201.5,131.5 Z"/></g>
<g><path style="opacity:1" fill="#847c6f" d="M 132.5,137.5 C 137.39,136.223 142.39,136.39 147.5,138C 152.435,140.606 157.102,143.606 161.5,147C 162.928,147.579 164.262,147.412 165.5,146.5C 165.804,147.15 166.137,147.817 166.5,148.5C 165.388,149.265 164.721,150.265 164.5,151.5C 163.609,150.89 162.609,150.557 161.5,150.5C 157.561,146.066 152.895,142.566 147.5,140C 142.716,137.968 137.716,137.134 132.5,137.5 Z"/></g>
<g><path style="opacity:1" fill="#362a20" d="M 199.5,140.5 C 198.5,143.5 196.5,145.5 193.5,146.5C 194.5,143.5 196.5,141.5 199.5,140.5 Z"/></g>
<g><path style="opacity:1" fill="#5d564f" d="M 172.5,157.5 C 172.158,158.338 171.492,158.672 170.5,158.5C 169.833,157.167 168.833,156.167 167.5,155.5C 166.488,154.128 165.488,152.795 164.5,151.5C 164.721,150.265 165.388,149.265 166.5,148.5C 166.137,147.817 165.804,147.15 165.5,146.5C 165.369,145.761 165.536,145.094 166,144.5C 167,145.5 168,146.5 169,147.5C 166.44,151.877 167.607,155.21 172.5,157.5 Z"/></g>
<g><path style="opacity:1" fill="#685d4f" d="M 199.5,140.5 C 200.627,141.122 201.627,141.955 202.5,143C 199.632,143.861 197.298,145.528 195.5,148C 195.833,148.333 196.167,148.667 196.5,149C 194.152,149.346 192.319,150.513 191,152.5C 190.812,154.061 191.645,154.728 193.5,154.5C 193.281,155.675 193.614,156.675 194.5,157.5C 196.483,156.018 198.316,154.351 200,152.5C 200.689,153.357 201.522,154.023 202.5,154.5C 206.5,150.5 210.5,146.5 214.5,142.5C 215.183,142.863 215.85,143.196 216.5,143.5C 207.144,153.021 197.978,162.688 189,172.5C 188.7,174.066 189.2,175.399 190.5,176.5C 190.167,176.5 189.833,176.5 189.5,176.5C 189.167,176.5 188.833,176.5 188.5,176.5C 188.217,175.711 187.717,175.044 187,174.5C 181.903,180.053 176.57,185.386 171,190.5C 170.667,190.167 170.333,189.833 170,189.5C 167.943,192.721 166.109,196.054 164.5,199.5C 160.678,200.18 159.011,202.513 159.5,206.5C 158.767,204.706 157.767,203.039 156.5,201.5C 159.798,199.465 162.798,196.965 165.5,194C 165.167,193.667 164.833,193.333 164.5,193C 167.646,192.89 168.646,191.557 167.5,189C 169.618,188.74 171.284,187.74 172.5,186C 170.667,184.833 169.167,183.333 168,181.5C 165.048,183.193 164.882,185.026 167.5,187C 164.667,186.901 163.001,185.401 162.5,182.5C 166.565,182.691 167.231,181.025 164.5,177.5C 165.648,175.851 166.981,174.351 168.5,173C 170.047,172.667 171.38,173.167 172.5,174.5C 174.288,173.717 175.288,172.384 175.5,170.5C 176.376,170.369 177.043,170.702 177.5,171.5C 175.808,173.359 174.308,175.359 173,177.5C 170.72,173.588 168.553,173.588 166.5,177.5C 168.548,180.743 171.215,182.91 174.5,184C 177.885,180.615 180.885,177.615 183.5,175C 184.893,173.829 185.727,172.329 186,170.5C 187.566,171.061 188.899,170.394 190,168.5C 190.54,166.865 190.04,165.532 188.5,164.5C 189.982,162.517 191.649,160.684 193.5,159C 193,158.5 192.5,158 192,157.5C 190.316,159.351 188.483,161.018 186.5,162.5C 185.702,162.043 185.369,161.376 185.5,160.5C 190.206,159.087 191.706,156.087 190,151.5C 191.802,150.211 192.969,148.544 193.5,146.5C 196.5,145.5 198.5,143.5 199.5,140.5 Z"/></g>
<g><path style="opacity:1" fill="#e3b77f" d="M 161.5,150.5 C 162.609,150.557 163.609,150.89 164.5,151.5C 165.488,152.795 166.488,154.128 167.5,155.5C 166.094,158.414 164.094,160.914 161.5,163C 153.81,168.648 147.143,175.148 141.5,182.5C 128.118,181.358 117.785,186.358 110.5,197.5C 108.811,198.931 106.811,199.764 104.5,200C 105.654,200.914 105.487,201.747 104,202.5C 102.868,198.847 100.368,197.013 96.5,197C 97.9597,196.189 98.293,195.355 97.5,194.5C 92.9079,196.185 92.2412,198.185 95.5,200.5C 94.4793,201.901 93.4793,203.235 92.5,204.5C 91.7701,203.288 90.7701,202.288 89.5,201.5C 89.8797,199.979 90.0464,198.313 90,196.5C 93.0225,193.714 96.5225,191.547 100.5,190C 102.207,189.805 103.874,189.805 105.5,190C 106.167,188.667 107.167,187.667 108.5,187C 107.833,186 107.167,185 106.5,184C 113.35,176.824 120.683,169.824 128.5,163C 132.5,163.333 133.167,165 130.5,168C 131.451,168.718 131.617,169.551 131,170.5C 127.72,171.551 126.553,173.551 127.5,176.5C 124.917,177.464 124.417,178.798 126,180.5C 126.953,178.408 128.286,178.075 130,179.5C 133.297,177.527 134.964,174.86 135,171.5C 136.972,170.695 138.472,169.361 139.5,167.5C 142.167,166.5 144.833,165.5 147.5,164.5C 146.391,163.035 146.891,162.035 149,161.5C 150.186,154.482 154.353,150.816 161.5,150.5 Z"/></g>
<g><path style="opacity:1" fill="#574837" d="M 193.5,146.5 C 192.969,148.544 191.802,150.211 190,151.5C 191.706,156.087 190.206,159.087 185.5,160.5C 182.167,160.5 180.5,162.167 180.5,165.5C 177.167,165.5 175.5,167.167 175.5,170.5C 175.288,172.384 174.288,173.717 172.5,174.5C 171.38,173.167 170.047,172.667 168.5,173C 166.981,174.351 165.648,175.851 164.5,177.5C 167.231,181.025 166.565,182.691 162.5,182.5C 164.19,178.813 163.69,178.146 161,180.5C 159.951,178.616 158.451,177.282 156.5,176.5C 162.614,169.561 169.614,162.728 177.5,156C 179.044,156.487 180.71,156.987 182.5,157.5C 182.5,156.5 182.5,155.5 182.5,154.5C 181.448,154.649 180.448,154.483 179.5,154C 181,152.5 182.5,151 184,149.5C 184.689,150.357 185.522,151.023 186.5,151.5C 188.592,149.395 190.925,147.728 193.5,146.5 Z"/></g>
<g><path style="opacity:1" fill="#c39860" d="M 167.5,155.5 C 168.833,156.167 169.833,157.167 170.5,158.5C 161.939,166.64 153.605,174.973 145.5,183.5C 144.5,183.5 143.5,183.5 142.5,183.5C 142.5,182.833 142.167,182.5 141.5,182.5C 147.143,175.148 153.81,168.648 161.5,163C 164.094,160.914 166.094,158.414 167.5,155.5 Z"/></g>
<g><path style="opacity:1" fill="#7e7569" d="M 189.5,176.5 C 189.833,176.5 190.167,176.5 190.5,176.5C 201.5,184.837 207.5,195.837 208.5,209.5C 207.833,207.833 207.167,206.167 206.5,204.5C 206.102,199.807 204.602,195.474 202,191.5C 198.302,186.1 194.135,181.1 189.5,176.5 Z"/></g>
<g><path style="opacity:1" fill="#4e4337" d="M 175.5,170.5 C 175.5,167.167 177.167,165.5 180.5,165.5C 180.5,162.167 182.167,160.5 185.5,160.5C 185.369,161.376 185.702,162.043 186.5,162.5C 188.483,161.018 190.316,159.351 192,157.5C 192.5,158 193,158.5 193.5,159C 191.649,160.684 189.982,162.517 188.5,164.5C 190.04,165.532 190.54,166.865 190,168.5C 188.899,170.394 187.566,171.061 186,170.5C 185.727,172.329 184.893,173.829 183.5,175C 180.885,177.615 177.885,180.615 174.5,184C 171.215,182.91 168.548,180.743 166.5,177.5C 168.553,173.588 170.72,173.588 173,177.5C 174.308,175.359 175.808,173.359 177.5,171.5C 177.043,170.702 176.376,170.369 175.5,170.5 Z"/></g>
<g><path style="opacity:1" fill="#685740" d="M 156.5,176.5 C 158.451,177.282 159.951,178.616 161,180.5C 163.69,178.146 164.19,178.813 162.5,182.5C 160.167,182.833 158.833,184.167 158.5,186.5C 154.9,188.43 151.9,191.097 149.5,194.5C 148.957,194.56 148.624,194.893 148.5,195.5C 149.729,196.281 151.062,196.781 152.5,197C 150.126,199.039 148.126,201.372 146.5,204C 147.5,204.667 148.5,204.667 149.5,204C 150.705,202.624 152.038,201.458 153.5,200.5C 154.167,200.5 154.5,200.833 154.5,201.5C 151.767,204.239 148.767,206.573 145.5,208.5C 145.426,206.589 144.426,205.422 142.5,205C 143.833,203.667 145.167,202.333 146.5,201C 145.975,200.308 145.308,199.808 144.5,199.5C 138.092,205.915 131.425,211.915 124.5,217.5C 130.13,211.369 135.964,205.369 142,199.5C 142.49,198.207 142.657,196.873 142.5,195.5C 143.5,194.167 144.5,192.833 145.5,191.5C 146.016,190.242 145.35,189.242 143.5,188.5C 143.5,188.167 143.5,187.833 143.5,187.5C 148.082,184.261 152.416,180.595 156.5,176.5 Z"/></g>
<g><path style="opacity:1" fill="#867e72" d="M 132.5,137.5 C 125.684,139.843 119.851,143.843 115,149.5C 110.747,156.337 106.747,163.337 103,170.5C 100.766,174.458 97.9327,177.958 94.5,181C 85.3192,185.12 75.9859,188.62 66.5,191.5C 60.5865,192.585 54.9199,194.252 49.5,196.5C 25.7848,204.88 10.7848,221.213 4.5,245.5C 4.16667,245.5 3.83333,245.5 3.5,245.5C 9.36474,221.127 24.0314,204.294 47.5,195C 62.3418,190.833 77.0084,186.167 91.5,181C 93.6089,179.859 95.4422,178.359 97,176.5C 102.667,167.167 108.333,157.833 114,148.5C 118.47,141.853 124.636,138.186 132.5,137.5 Z"/></g>
<g><path style="opacity:1" fill="#3e3327" d="M 156.5,180.5 C 158.355,180.272 159.188,180.939 159,182.5C 155.362,185.727 151.862,189.06 148.5,192.5C 147.417,191.635 147.251,190.635 148,189.5C 151.066,186.604 153.899,183.604 156.5,180.5 Z"/></g>
<g><path style="opacity:1" fill="#99845f" d="M 142.5,183.5 C 143.5,183.5 144.5,183.5 145.5,183.5C 144.34,184.265 143.34,185.265 142.5,186.5C 142.624,187.107 142.957,187.44 143.5,187.5C 143.5,187.833 143.5,188.167 143.5,188.5C 127.712,185.142 117.546,191.142 113,206.5C 112.52,210.605 113.02,214.605 114.5,218.5C 114.192,219.308 113.692,219.975 113,220.5C 112.392,218.846 111.892,217.179 111.5,215.5C 110.38,194.784 120.38,184.617 141.5,185C 139.068,183.913 139.402,183.413 142.5,183.5 Z"/></g>
<g><path style="opacity:1" fill="#30271e" d="M 158.5,186.5 C 157.207,189.66 155.207,192.493 152.5,195C 151.423,195.47 150.423,195.303 149.5,194.5C 151.9,191.097 154.9,188.43 158.5,186.5 Z"/></g>
<g><path style="opacity:1" fill="#c09b6e" d="M 188.5,176.5 C 181.146,184.019 173.98,191.686 167,199.5C 166.505,201.473 166.338,203.473 166.5,205.5C 165.542,203.698 164.875,201.698 164.5,199.5C 166.109,196.054 167.943,192.721 170,189.5C 170.333,189.833 170.667,190.167 171,190.5C 176.57,185.386 181.903,180.053 187,174.5C 187.717,175.044 188.217,175.711 188.5,176.5 Z"/></g>
<g><path style="opacity:1" fill="#4c3b24" d="M 144.5,191.5 C 136.702,198.798 129.035,206.298 121.5,214C 122.167,214.667 122.833,214.667 123.5,214C 129.702,207.631 136.035,201.464 142.5,195.5C 142.657,196.873 142.49,198.207 142,199.5C 135.964,205.369 130.13,211.369 124.5,217.5C 122.5,218.833 120.833,220.5 119.5,222.5C 117.55,220.57 116.217,218.237 115.5,215.5C 123.632,207.869 131.632,200.036 139.5,192C 138.833,191.333 138.167,191.333 137.5,192C 132.631,197.037 127.631,201.87 122.5,206.5C 122.354,202.613 121.687,198.946 120.5,195.5C 122.713,193.14 125.379,191.306 128.5,190C 133.167,189.333 137.833,189.333 142.5,190C 143.416,190.278 144.082,190.778 144.5,191.5 Z"/></g>
<g><path style="opacity:1" fill="#b39364" d="M 141.5,182.5 C 142.167,182.5 142.5,182.833 142.5,183.5C 139.402,183.413 139.068,183.913 141.5,185C 120.38,184.617 110.38,194.784 111.5,215.5C 110.833,216.5 110.167,217.5 109.5,218.5C 108.016,211.423 108.349,204.423 110.5,197.5C 117.785,186.358 128.118,181.358 141.5,182.5 Z"/></g>
<g><path style="opacity:1" fill="#504437" d="M 156.5,201.5 C 155.322,198.783 154.322,198.45 153.5,200.5C 152.038,201.458 150.705,202.624 149.5,204C 148.5,204.667 147.5,204.667 146.5,204C 148.126,201.372 150.126,199.039 152.5,197C 151.062,196.781 149.729,196.281 148.5,195.5C 148.624,194.893 148.957,194.56 149.5,194.5C 150.423,195.303 151.423,195.47 152.5,195C 155.207,192.493 157.207,189.66 158.5,186.5C 158.833,184.167 160.167,182.833 162.5,182.5C 163.001,185.401 164.667,186.901 167.5,187C 164.882,185.026 165.048,183.193 168,181.5C 169.167,183.333 170.667,184.833 172.5,186C 171.284,187.74 169.618,188.74 167.5,189C 168.646,191.557 167.646,192.89 164.5,193C 164.833,193.333 165.167,193.667 165.5,194C 162.798,196.965 159.798,199.465 156.5,201.5 Z"/></g>
<g><path style="opacity:1" fill="#3b2816" d="M 120.5,195.5 C 121.687,198.946 122.354,202.613 122.5,206.5C 120.431,209.573 117.764,211.906 114.5,213.5C 113.889,206.467 115.889,200.467 120.5,195.5 Z"/></g>
<g><path style="opacity:1" fill="#e4bb87" d="M 132.5,137.5 C 137.716,137.134 142.716,137.968 147.5,140C 152.895,142.566 157.561,146.066 161.5,150.5C 154.353,150.816 150.186,154.482 149,161.5C 146.891,162.035 146.391,163.035 147.5,164.5C 144.833,165.5 142.167,166.5 139.5,167.5C 138.472,169.361 136.972,170.695 135,171.5C 134.964,174.86 133.297,177.527 130,179.5C 128.286,178.075 126.953,178.408 126,180.5C 124.417,178.798 124.917,177.464 127.5,176.5C 126.553,173.551 127.72,171.551 131,170.5C 131.617,169.551 131.451,168.718 130.5,168C 133.167,165 132.5,163.333 128.5,163C 120.683,169.824 113.35,176.824 106.5,184C 107.167,185 107.833,186 108.5,187C 107.167,187.667 106.167,188.667 105.5,190C 103.874,189.805 102.207,189.805 100.5,190C 96.5225,191.547 93.0225,193.714 90,196.5C 90.0464,198.313 89.8797,199.979 89.5,201.5C 90.7701,202.288 91.7701,203.288 92.5,204.5C 91.5188,206.309 90.0188,207.643 88,208.5C 87.7167,205.258 86.8834,204.924 85.5,207.5C 84.5,207 83.5,206.5 82.5,206C 83.8463,204.358 83.5129,203.691 81.5,204C 80.8333,205 80.1667,206 79.5,207C 77.6161,207.216 75.9494,207.883 74.5,209C 74.8346,210.503 74.8346,211.836 74.5,213C 71.0105,215.911 67.3438,218.578 63.5,221C 63.8333,221.333 64.1667,221.667 64.5,222C 61.5234,223.463 59.8568,225.463 59.5,228C 56.354,230.312 53.354,232.812 50.5,235.5C 49.6143,234.675 49.281,233.675 49.5,232.5C 48.448,232.649 47.448,232.483 46.5,232C 49.1227,228.588 51.6227,225.088 54,221.5C 55.4659,223.325 57.2992,223.825 59.5,223C 58.8333,222.667 58.1667,222.333 57.5,222C 58.8333,220.667 60.1667,219.333 61.5,218C 61.6338,216.455 61.3005,214.788 60.5,213C 61.9851,210.844 63.4851,208.677 65,206.5C 67.2436,204.006 69.5769,204.006 72,206.5C 73.4907,204.996 75.324,204.163 77.5,204C 76.8333,202.667 76.1667,201.333 75.5,200C 79.482,200.323 82.482,198.49 84.5,194.5C 83.2655,192.602 83.5989,190.935 85.5,189.5C 85,189.167 84.5,188.833 84,188.5C 81.0194,189.519 78.0194,190.519 75,191.5C 72.2501,190.709 69.4168,190.709 66.5,191.5C 75.9859,188.62 85.3192,185.12 94.5,181C 97.9327,177.958 100.766,174.458 103,170.5C 106.747,163.337 110.747,156.337 115,149.5C 119.851,143.843 125.684,139.843 132.5,137.5 Z"/></g>
<g><path style="opacity:1" fill="#857354" d="M 144.5,191.5 C 144.833,191.5 145.167,191.5 145.5,191.5C 144.5,192.833 143.5,194.167 142.5,195.5C 136.035,201.464 129.702,207.631 123.5,214C 122.833,214.667 122.167,214.667 121.5,214C 129.035,206.298 136.702,198.798 144.5,191.5 Z"/></g>
<g><path style="opacity:1" fill="#080504" d="M 164.5,199.5 C 164.875,201.698 165.542,203.698 166.5,205.5C 168.254,216.363 167.42,227.03 164,237.5C 161.623,243.257 158.956,248.923 156,254.5C 151.997,259.335 147.83,264.002 143.5,268.5C 137.61,268.943 131.944,270.276 126.5,272.5C 121.199,271.934 117.366,269.267 115,264.5C 113.259,260.295 112.592,255.962 113,251.5C 117.337,246.331 121.837,241.331 126.5,236.5C 127.5,236.167 128.167,235.5 128.5,234.5C 137.462,235.954 145.129,233.621 151.5,227.5C 157.65,221.95 160.317,214.95 159.5,206.5C 159.011,202.513 160.678,200.18 164.5,199.5 Z"/></g>
<g><path style="opacity:1" fill="#897557" d="M 115.5,215.5 C 115.167,214.833 114.833,214.167 114.5,213.5C 117.764,211.906 120.431,209.573 122.5,206.5C 127.631,201.87 132.631,197.037 137.5,192C 138.167,191.333 138.833,191.333 139.5,192C 131.632,200.036 123.632,207.869 115.5,215.5 Z"/></g>
<g><path style="opacity:1" fill="#4c3d27" d="M 154.5,201.5 C 154.989,202.995 155.655,204.329 156.5,205.5C 156.665,208.518 156.498,211.518 156,214.5C 155.722,215.416 155.222,216.082 154.5,216.5C 154.565,216.062 154.399,215.728 154,215.5C 150.486,219.598 145.986,221.598 140.5,221.5C 139.048,222.94 138.048,224.606 137.5,226.5C 136.032,225.194 134.699,223.694 133.5,222C 138.102,217.906 142.102,213.406 145.5,208.5C 148.767,206.573 151.767,204.239 154.5,201.5 Z"/></g>
<g><path style="opacity:1" fill="#deb078" d="M 110.5,197.5 C 108.349,204.423 108.016,211.423 109.5,218.5C 109.75,220.674 110.75,222.341 112.5,223.5C 114.064,227.729 116.731,231.063 120.5,233.5C 113.504,239.662 107.004,246.329 101,253.5C 100.092,251.561 98.5922,250.561 96.5,250.5C 92.6029,247.391 88.9362,244.057 85.5,240.5C 84.5,240.167 83.8333,239.5 83.5,238.5C 82.5,236.833 81.1667,235.5 79.5,234.5C 77.5,232.167 75.5,229.833 73.5,227.5C 75.9099,227.079 77.7432,225.746 79,223.5C 79.4226,224.956 80.2559,225.456 81.5,225C 81.9817,223.992 82.1484,222.825 82,221.5C 82.6667,220.833 83.3333,220.167 84,219.5C 86.6013,220.726 87.4347,220.06 86.5,217.5C 87.9066,213.884 89.9066,213.551 92.5,216.5C 95.1583,212.486 95.1583,208.486 92.5,204.5C 93.4793,203.235 94.4793,201.901 95.5,200.5C 92.2412,198.185 92.9079,196.185 97.5,194.5C 98.293,195.355 97.9597,196.189 96.5,197C 100.368,197.013 102.868,198.847 104,202.5C 105.487,201.747 105.654,200.914 104.5,200C 106.811,199.764 108.811,198.931 110.5,197.5 Z"/></g>
<g><path style="opacity:1" fill="#a38d69" d="M 156.5,201.5 C 157.767,203.039 158.767,204.706 159.5,206.5C 160.317,214.95 157.65,221.95 151.5,227.5C 153.556,223.713 155.39,219.713 157,215.5C 157.806,211.39 157.64,208.057 156.5,205.5C 155.655,204.329 154.989,202.995 154.5,201.5C 154.5,200.833 154.167,200.5 153.5,200.5C 154.322,198.45 155.322,198.783 156.5,201.5 Z"/></g>
<g><path style="opacity:1" fill="#e2bb8a" d="M 188.5,176.5 C 188.833,176.5 189.167,176.5 189.5,176.5C 194.135,181.1 198.302,186.1 202,191.5C 204.602,195.474 206.102,199.807 206.5,204.5C 206.963,215.074 202.963,223.574 194.5,230C 186.001,234.748 177.668,239.748 169.5,245C 163.661,249.848 160.327,256.014 159.5,263.5C 158.065,264.913 157.065,266.58 156.5,268.5C 156.543,264.107 156.043,263.774 155,267.5C 154.667,266.833 154.333,266.167 154,265.5C 152.667,266.833 151.333,268.167 150,269.5C 148.667,268.833 147.667,267.833 147,266.5C 146.184,267.823 145.017,268.489 143.5,268.5C 147.83,264.002 151.997,259.335 156,254.5C 158.956,248.923 161.623,243.257 164,237.5C 167.42,227.03 168.254,216.363 166.5,205.5C 166.338,203.473 166.505,201.473 167,199.5C 173.98,191.686 181.146,184.019 188.5,176.5 Z"/></g>
<g><path style="opacity:1" fill="#c9a676" d="M 143.5,188.5 C 145.35,189.242 146.016,190.242 145.5,191.5C 145.167,191.5 144.833,191.5 144.5,191.5C 144.082,190.778 143.416,190.278 142.5,190C 137.833,189.333 133.167,189.333 128.5,190C 125.379,191.306 122.713,193.14 120.5,195.5C 115.889,200.467 113.889,206.467 114.5,213.5C 114.833,214.167 115.167,214.833 115.5,215.5C 116.217,218.237 117.55,220.57 119.5,222.5C 119.328,223.492 119.662,224.158 120.5,224.5C 120.5,225.167 120.833,225.5 121.5,225.5C 121.833,226.5 122.5,227.167 123.5,227.5C 123.833,227.5 124.167,227.5 124.5,227.5C 125.29,228.401 126.29,229.068 127.5,229.5C 127.833,229.5 128.167,229.5 128.5,229.5C 129.568,230.434 130.901,230.768 132.5,230.5C 134.167,230.5 135.833,230.5 137.5,230.5C 139.099,230.768 140.432,230.434 141.5,229.5C 148.167,227.5 152.5,223.167 154.5,216.5C 155.222,216.082 155.722,215.416 156,214.5C 156.498,211.518 156.665,208.518 156.5,205.5C 157.64,208.057 157.806,211.39 157,215.5C 155.39,219.713 153.556,223.713 151.5,227.5C 148.777,228.352 146.11,229.519 143.5,231C 139.582,232.156 135.582,232.656 131.5,232.5C 125.252,230.705 119.919,227.372 115.5,222.5C 114.787,224.435 113.787,224.768 112.5,223.5C 110.75,222.341 109.75,220.674 109.5,218.5C 110.167,217.5 110.833,216.5 111.5,215.5C 111.892,217.179 112.392,218.846 113,220.5C 113.692,219.975 114.192,219.308 114.5,218.5C 113.02,214.605 112.52,210.605 113,206.5C 117.546,191.142 127.712,185.142 143.5,188.5 Z"/></g>
<g><path style="opacity:1" fill="#311e11" d="M 154.5,216.5 C 152.5,223.167 148.167,227.5 141.5,229.5C 140.167,228.5 138.833,227.5 137.5,226.5C 138.048,224.606 139.048,222.94 140.5,221.5C 145.986,221.598 150.486,219.598 154,215.5C 154.399,215.728 154.565,216.062 154.5,216.5 Z"/></g>
<g><path style="opacity:1" fill="#5b4a33" d="M 145.5,208.5 C 142.102,213.406 138.102,217.906 133.5,222C 134.699,223.694 136.032,225.194 137.5,226.5C 138.833,227.5 140.167,228.5 141.5,229.5C 140.432,230.434 139.099,230.768 137.5,230.5C 135.833,227.833 134.167,227.833 132.5,230.5C 130.901,230.768 129.568,230.434 128.5,229.5C 133.146,229.108 133.979,227.441 131,224.5C 129.198,225.789 128.031,227.456 127.5,229.5C 126.29,229.068 125.29,228.401 124.5,227.5C 126.371,227.141 127.871,226.141 129,224.5C 129.563,223.275 129.23,222.275 128,221.5C 125.873,223.114 124.373,225.114 123.5,227.5C 122.5,227.167 121.833,226.5 121.5,225.5C 124.073,224.121 125.573,222.121 126,219.5C 125.667,219.167 125.333,218.833 125,218.5C 122.873,220.114 121.373,222.114 120.5,224.5C 119.662,224.158 119.328,223.492 119.5,222.5C 120.833,220.5 122.5,218.833 124.5,217.5C 131.425,211.915 138.092,205.915 144.5,199.5C 145.308,199.808 145.975,200.308 146.5,201C 145.167,202.333 143.833,203.667 142.5,205C 144.426,205.422 145.426,206.589 145.5,208.5 Z"/></g>
<g><path style="opacity:1" fill="#29170b" d="M 121.5,225.5 C 120.833,225.5 120.5,225.167 120.5,224.5C 121.373,222.114 122.873,220.114 125,218.5C 125.333,218.833 125.667,219.167 126,219.5C 125.573,222.121 124.073,224.121 121.5,225.5 Z"/></g>
<g><path style="opacity:1" fill="#e1b57f" d="M 92.5,204.5 C 95.1583,208.486 95.1583,212.486 92.5,216.5C 89.9066,213.551 87.9066,213.884 86.5,217.5C 87.4347,220.06 86.6013,220.726 84,219.5C 83.3333,220.167 82.6667,220.833 82,221.5C 82.1484,222.825 81.9817,223.992 81.5,225C 80.2559,225.456 79.4226,224.956 79,223.5C 77.7432,225.746 75.9099,227.079 73.5,227.5C 73.1667,227.5 72.8333,227.5 72.5,227.5C 71.7505,225.754 70.4172,224.754 68.5,224.5C 62.0511,226.398 59.8844,230.398 62,236.5C 67.6525,241.165 71.8192,246.832 74.5,253.5C 72.9432,254.466 71.6099,255.8 70.5,257.5C 72.6454,258.682 72.6454,260.182 70.5,262C 68.8374,262.265 67.3374,261.765 66,260.5C 64.0663,263.543 61.233,265.21 57.5,265.5C 56.385,269.622 53.885,271.289 50,270.5C 47.9195,273.284 47.2528,272.951 48,269.5C 48.6355,268.034 49.4688,266.7 50.5,265.5C 49.4078,264.169 48.0745,263.336 46.5,263C 48.35,259.534 47.35,257.701 43.5,257.5C 43.0338,259.201 43.0338,260.701 43.5,262C 38.9973,263.023 37.9973,261.856 40.5,258.5C 39.1667,257.833 37.8333,257.167 36.5,256.5C 36.7093,255.914 37.0426,255.414 37.5,255C 34.5022,253.656 31.5022,253.489 28.5,254.5C 28.1667,254 27.8333,253.5 27.5,253C 29.9998,251.282 31.3331,249.115 31.5,246.5C 36.0448,243.862 38.5448,240.195 39,235.5C 40.3513,233.981 41.8513,232.648 43.5,231.5C 42.9747,230.808 42.3081,230.308 41.5,230C 42.3402,228.334 41.8402,228.167 40,229.5C 39.1301,228.892 38.6301,228.059 38.5,227C 39.34,225.233 40.6734,223.899 42.5,223C 41.7734,221.601 41.2734,220.101 41,218.5C 40.3333,217.167 39.6667,217.167 39,218.5C 38.3333,217.5 38.3333,216.5 39,215.5C 40.0113,216.337 41.1779,216.67 42.5,216.5C 43.0522,214.669 43.0522,213.003 42.5,211.5C 43.5,210.833 44.5,210.167 45.5,209.5C 43.9852,208.409 43.1519,207.076 43,205.5C 43.3333,205.167 43.6667,204.833 44,204.5C 45.7542,206.25 47.9208,206.917 50.5,206.5C 50.7135,204.856 50.3802,203.356 49.5,202C 51.3975,201.1 53.0642,199.934 54.5,198.5C 53.3493,197.269 52.1827,197.269 51,198.5C 50.2828,197.956 49.7828,197.289 49.5,196.5C 54.9199,194.252 60.5865,192.585 66.5,191.5C 69.4168,190.709 72.2501,190.709 75,191.5C 78.0194,190.519 81.0194,189.519 84,188.5C 84.5,188.833 85,189.167 85.5,189.5C 83.5989,190.935 83.2655,192.602 84.5,194.5C 82.482,198.49 79.482,200.323 75.5,200C 76.1667,201.333 76.8333,202.667 77.5,204C 75.324,204.163 73.4907,204.996 72,206.5C 69.5769,204.006 67.2436,204.006 65,206.5C 63.4851,208.677 61.9851,210.844 60.5,213C 61.3005,214.788 61.6338,216.455 61.5,218C 60.1667,219.333 58.8333,220.667 57.5,222C 58.1667,222.333 58.8333,222.667 59.5,223C 57.2992,223.825 55.4659,223.325 54,221.5C 51.6227,225.088 49.1227,228.588 46.5,232C 47.448,232.483 48.448,232.649 49.5,232.5C 49.281,233.675 49.6143,234.675 50.5,235.5C 53.354,232.812 56.354,230.312 59.5,228C 59.8568,225.463 61.5234,223.463 64.5,222C 64.1667,221.667 63.8333,221.333 63.5,221C 67.3438,218.578 71.0105,215.911 74.5,213C 74.8346,211.836 74.8346,210.503 74.5,209C 75.9494,207.883 77.6161,207.216 79.5,207C 80.1667,206 80.8333,205 81.5,204C 83.5129,203.691 83.8463,204.358 82.5,206C 83.5,206.5 84.5,207 85.5,207.5C 86.8834,204.924 87.7167,205.258 88,208.5C 90.0188,207.643 91.5188,206.309 92.5,204.5 Z"/></g>
<g><path style="opacity:1" fill="#201207" d="M 124.5,227.5 C 124.167,227.5 123.833,227.5 123.5,227.5C 124.373,225.114 125.873,223.114 128,221.5C 129.23,222.275 129.563,223.275 129,224.5C 127.871,226.141 126.371,227.141 124.5,227.5 Z"/></g>
<g><path style="opacity:1" fill="#1d1107" d="M 128.5,229.5 C 128.167,229.5 127.833,229.5 127.5,229.5C 128.031,227.456 129.198,225.789 131,224.5C 133.979,227.441 133.146,229.108 128.5,229.5 Z"/></g>
<g><path style="opacity:1" fill="#231207" d="M 137.5,230.5 C 135.833,230.5 134.167,230.5 132.5,230.5C 134.167,227.833 135.833,227.833 137.5,230.5 Z"/></g>
<g><path style="opacity:1" fill="#ddaf77" d="M 49.5,196.5 C 49.7828,197.289 50.2828,197.956 51,198.5C 52.1827,197.269 53.3493,197.269 54.5,198.5C 53.0642,199.934 51.3975,201.1 49.5,202C 50.3802,203.356 50.7135,204.856 50.5,206.5C 47.9208,206.917 45.7542,206.25 44,204.5C 43.6667,204.833 43.3333,205.167 43,205.5C 43.1519,207.076 43.9852,208.409 45.5,209.5C 44.5,210.167 43.5,210.833 42.5,211.5C 43.0522,213.003 43.0522,214.669 42.5,216.5C 41.1779,216.67 40.0113,216.337 39,215.5C 38.3333,216.5 38.3333,217.5 39,218.5C 39.6667,217.167 40.3333,217.167 41,218.5C 41.2734,220.101 41.7734,221.601 42.5,223C 40.6734,223.899 39.34,225.233 38.5,227C 38.6301,228.059 39.1301,228.892 40,229.5C 41.8402,228.167 42.3402,228.334 41.5,230C 42.3081,230.308 42.9747,230.808 43.5,231.5C 41.8513,232.648 40.3513,233.981 39,235.5C 38.5448,240.195 36.0448,243.862 31.5,246.5C 31.3331,249.115 29.9998,251.282 27.5,253C 27.8333,253.5 28.1667,254 28.5,254.5C 31.5022,253.489 34.5022,253.656 37.5,255C 37.0426,255.414 36.7093,255.914 36.5,256.5C 37.8333,257.167 39.1667,257.833 40.5,258.5C 37.9973,261.856 38.9973,263.023 43.5,262C 43.0338,260.701 43.0338,259.201 43.5,257.5C 47.35,257.701 48.35,259.534 46.5,263C 48.0745,263.336 49.4078,264.169 50.5,265.5C 49.4688,266.7 48.6355,268.034 48,269.5C 47.2528,272.951 47.9195,273.284 50,270.5C 53.885,271.289 56.385,269.622 57.5,265.5C 61.233,265.21 64.0663,263.543 66,260.5C 67.3374,261.765 68.8374,262.265 70.5,262C 72.6454,260.182 72.6454,258.682 70.5,257.5C 71.6099,255.8 72.9432,254.466 74.5,253.5C 75.8244,256.452 76.8244,259.286 77.5,262C 72.6295,265.713 67.9629,269.713 63.5,274C 64.7112,274.893 64.7112,275.726 63.5,276.5C 61.9291,277.309 60.2624,277.643 58.5,277.5C 58.5499,279.59 57.5499,280.923 55.5,281.5C 54.7425,280.189 53.7425,279.689 52.5,280C 51.3595,280.741 51.3595,281.575 52.5,282.5C 51.332,285.469 49.9987,285.802 48.5,283.5C 47.8333,284.167 47.1667,284.833 46.5,285.5C 44.8891,283.465 43.0558,282.798 41,283.5C 40.5172,282.552 40.3505,281.552 40.5,280.5C 39.1667,280.5 37.8333,280.5 36.5,280.5C 36.7053,277.886 36.7053,275.552 36.5,273.5C 35.7189,274.729 35.2189,276.062 35,277.5C 33.3158,275.541 31.3158,275.541 29,277.5C 26.8909,274.72 25.0575,274.887 23.5,278C 21.3921,278.36 19.3921,279.027 17.5,280C 18.8333,281 18.8333,282 17.5,283C 18.7839,283.684 19.9505,283.517 21,282.5C 21.6874,286.065 22.854,289.398 24.5,292.5C 11.2332,279.715 4.56649,264.049 4.5,245.5C 10.7848,221.213 25.7848,204.88 49.5,196.5 Z"/></g>
<g><path style="opacity:1" fill="#a98b61" d="M 131.5,232.5 C 130.5,233.167 129.5,233.833 128.5,234.5C 128.167,235.5 127.5,236.167 126.5,236.5C 124.819,234.992 122.819,233.992 120.5,233.5C 116.731,231.063 114.064,227.729 112.5,223.5C 113.787,224.768 114.787,224.435 115.5,222.5C 119.919,227.372 125.252,230.705 131.5,232.5 Z"/></g>
<g><path style="opacity:1" fill="#7f7155" d="M 151.5,227.5 C 145.129,233.621 137.462,235.954 128.5,234.5C 129.5,233.833 130.5,233.167 131.5,232.5C 135.582,232.656 139.582,232.156 143.5,231C 146.11,229.519 148.777,228.352 151.5,227.5 Z"/></g>
<g><path style="opacity:1" fill="#1d130d" d="M 72.5,227.5 C 72.8333,227.5 73.1667,227.5 73.5,227.5C 75.5,229.833 77.5,232.167 79.5,234.5C 77.3199,237.926 74.6533,240.926 71.5,243.5C 68.5211,241.188 65.8544,238.521 63.5,235.5C 65.9199,232.074 68.9199,229.408 72.5,227.5 Z"/></g>
<g><path style="opacity:1" fill="#4f453d" d="M 79.5,234.5 C 81.1667,235.5 82.5,236.833 83.5,238.5C 82.448,238.351 81.448,238.517 80.5,239C 78.2968,241.372 75.9635,243.539 73.5,245.5C 72.5,245.167 71.8333,244.5 71.5,243.5C 74.6533,240.926 77.3199,237.926 79.5,234.5 Z"/></g>
<g><path style="opacity:1" fill="#908573" d="M 206.5,204.5 C 207.167,206.167 207.833,207.833 208.5,209.5C 208.102,214.193 206.602,218.526 204,222.5C 200.833,225.667 197.667,228.833 194.5,232C 185.499,236.832 176.832,242.165 168.5,248C 164.309,252.558 161.309,257.724 159.5,263.5C 160.327,256.014 163.661,249.848 169.5,245C 177.668,239.748 186.001,234.748 194.5,230C 202.963,223.574 206.963,215.074 206.5,204.5 Z"/></g>
<g><path style="opacity:1" fill="#aa9b88" d="M 85.5,243.5 C 85.5,244.167 85.5,244.833 85.5,245.5C 84.8333,245.5 84.1667,245.5 83.5,245.5C 80.8333,241.5 81.5,240.833 85.5,243.5 Z"/></g>
<g><path style="opacity:1" fill="#a2a198" d="M 80.5,246.5 C 82.0481,246.821 82.7148,247.821 82.5,249.5C 81.5,249.5 80.5,249.5 79.5,249.5C 79.2627,248.209 79.596,247.209 80.5,246.5 Z"/></g>
<g><path style="opacity:1" fill="#a69d8c" d="M 85.5,245.5 C 92.137,250.802 98.4704,256.469 104.5,262.5C 104.565,262.938 104.399,263.272 104,263.5C 103.292,262.619 102.458,261.953 101.5,261.5C 95.7852,256.452 90.4519,251.119 85.5,245.5 Z"/></g>
<g><path style="opacity:1" fill="#bfbbb3" d="M 82.5,249.5 C 83.5,249.5 84.5,249.5 85.5,249.5C 85.5983,252.248 84.5983,252.914 82.5,251.5C 82.5,250.833 82.5,250.167 82.5,249.5 Z"/></g>
<g><path style="opacity:1" fill="#b9b3ab" d="M 87.5,255.5 C 86.8333,255.5 86.5,255.167 86.5,254.5C 86.8212,252.952 87.8212,252.285 89.5,252.5C 89.7148,254.179 89.0481,255.179 87.5,255.5 Z"/></g>
<g><path style="opacity:1" fill="#48392a" d="M 85.5,240.5 C 88.9362,244.057 92.6029,247.391 96.5,250.5C 99.4925,254.492 102.826,258.158 106.5,261.5C 105.833,261.833 105.167,262.167 104.5,262.5C 98.4704,256.469 92.137,250.802 85.5,245.5C 85.5,244.833 85.5,244.167 85.5,243.5C 85.5,242.5 85.5,241.5 85.5,240.5 Z"/></g>
<g><path style="opacity:1" fill="#322a22" d="M 80.5,246.5 C 81.209,245.596 82.209,245.263 83.5,245.5C 84.1667,245.5 84.8333,245.5 85.5,245.5C 90.4519,251.119 95.7852,256.452 101.5,261.5C 101.011,262.995 100.345,264.329 99.5,265.5C 99.719,264.325 99.3857,263.325 98.5,262.5C 97.7025,262.957 97.3691,263.624 97.5,264.5C 96.5,263.5 95.5,262.5 94.5,261.5C 96.0481,261.179 96.7148,260.179 96.5,258.5C 95.5,258.5 94.5,258.5 93.5,258.5C 93.1627,255.664 91.8293,254.998 89.5,256.5C 88.5084,256.672 87.8417,256.338 87.5,255.5C 89.0481,255.179 89.7148,254.179 89.5,252.5C 87.8212,252.285 86.8212,252.952 86.5,254.5C 84.5447,254.201 83.2114,253.201 82.5,251.5C 84.5983,252.914 85.5983,252.248 85.5,249.5C 84.5,249.5 83.5,249.5 82.5,249.5C 82.7148,247.821 82.0481,246.821 80.5,246.5 Z"/></g>
<g><path style="opacity:1" fill="#a39f97" d="M 93.5,258.5 C 91.5168,258.843 90.1834,258.176 89.5,256.5C 91.8293,254.998 93.1627,255.664 93.5,258.5 Z"/></g>
<g><path style="opacity:1" fill="#b6b1a9" d="M 93.5,258.5 C 94.5,258.5 95.5,258.5 96.5,258.5C 96.7148,260.179 96.0481,261.179 94.5,261.5C 93.596,260.791 93.2627,259.791 93.5,258.5 Z"/></g>
<g><path style="opacity:1" fill="#19100b" d="M 83.5,238.5 C 83.8333,239.5 84.5,240.167 85.5,240.5C 85.5,241.5 85.5,242.5 85.5,243.5C 81.5,240.833 80.8333,241.5 83.5,245.5C 82.209,245.263 81.209,245.596 80.5,246.5C 79.596,247.209 79.2627,248.209 79.5,249.5C 80.5,249.5 81.5,249.5 82.5,249.5C 82.5,250.167 82.5,250.833 82.5,251.5C 83.2114,253.201 84.5447,254.201 86.5,254.5C 86.5,255.167 86.8333,255.5 87.5,255.5C 87.8417,256.338 88.5084,256.672 89.5,256.5C 90.1834,258.176 91.5168,258.843 93.5,258.5C 93.2627,259.791 93.596,260.791 94.5,261.5C 95.5,262.5 96.5,263.5 97.5,264.5C 97.8417,265.338 98.5084,265.672 99.5,265.5C 100.345,264.329 101.011,262.995 101.5,261.5C 102.458,261.953 103.292,262.619 104,263.5C 104.399,263.272 104.565,262.938 104.5,262.5C 105.167,262.167 105.833,261.833 106.5,261.5C 106.833,262.5 107.5,263.167 108.5,263.5C 106.006,267.338 102.673,270.005 98.5,271.5C 93.547,268.387 88.7137,265.054 84,261.5C 80.241,256.309 76.741,250.976 73.5,245.5C 75.9635,243.539 78.2968,241.372 80.5,239C 81.448,238.517 82.448,238.351 83.5,238.5 Z"/></g>
<g><path style="opacity:1" fill="#bcbbb2" d="M 99.5,265.5 C 98.5084,265.672 97.8417,265.338 97.5,264.5C 97.3691,263.624 97.7025,262.957 98.5,262.5C 99.3857,263.325 99.719,264.325 99.5,265.5 Z"/></g>
<g><path style="opacity:1" fill="#4b413a" d="M 108.5,263.5 C 109.5,263.833 110.167,264.5 110.5,265.5C 107.097,267.9 104.43,270.9 102.5,274.5C 100.77,273.974 99.4363,272.974 98.5,271.5C 102.673,270.005 106.006,267.338 108.5,263.5 Z"/></g>
<g><path style="opacity:1" fill="#211712" d="M 110.5,265.5 C 114.045,267.857 116.545,270.857 118,274.5C 115.317,277.016 112.817,279.683 110.5,282.5C 107.814,280.144 105.147,277.811 102.5,275.5C 102.5,275.167 102.5,274.833 102.5,274.5C 104.43,270.9 107.097,267.9 110.5,265.5 Z"/></g>
<g><path style="opacity:1" fill="#d4a36c" d="M 72.5,227.5 C 68.9199,229.408 65.9199,232.074 63.5,235.5C 65.8544,238.521 68.5211,241.188 71.5,243.5C 71.8333,244.5 72.5,245.167 73.5,245.5C 76.741,250.976 80.241,256.309 84,261.5C 88.7137,265.054 93.547,268.387 98.5,271.5C 99.4363,272.974 100.77,273.974 102.5,274.5C 102.5,274.833 102.5,275.167 102.5,275.5C 97.6178,273.543 92.9511,271.21 88.5,268.5C 87.6303,266.401 86.297,266.068 84.5,267.5C 83.5,267 82.5,266.5 81.5,266C 83.2603,265.035 83.5937,263.868 82.5,262.5C 68.9291,276.572 55.0957,290.572 41,304.5C 40.3333,305.167 40.3333,305.833 41,306.5C 44.3793,302.784 48.0459,299.451 52,296.5C 52.5,296.833 53,297.167 53.5,297.5C 52.2532,299.042 52.2532,300.542 53.5,302C 52.0997,303.438 50.433,304.271 48.5,304.5C 48.6567,305.873 48.49,307.207 48,308.5C 47.6667,308.167 47.3333,307.833 47,307.5C 46.5776,309.426 45.4109,310.426 43.5,310.5C 42.8333,310.5 42.1667,310.5 41.5,310.5C 35.1295,305.131 29.4629,299.131 24.5,292.5C 22.854,289.398 21.6874,286.065 21,282.5C 19.9505,283.517 18.7839,283.684 17.5,283C 18.8333,282 18.8333,281 17.5,280C 19.3921,279.027 21.3921,278.36 23.5,278C 25.0575,274.887 26.8909,274.72 29,277.5C 31.3158,275.541 33.3158,275.541 35,277.5C 35.2189,276.062 35.7189,274.729 36.5,273.5C 36.7053,275.552 36.7053,277.886 36.5,280.5C 37.8333,280.5 39.1667,280.5 40.5,280.5C 40.3505,281.552 40.5172,282.552 41,283.5C 43.0558,282.798 44.8891,283.465 46.5,285.5C 47.1667,284.833 47.8333,284.167 48.5,283.5C 49.9987,285.802 51.332,285.469 52.5,282.5C 51.3595,281.575 51.3595,280.741 52.5,280C 53.7425,279.689 54.7425,280.189 55.5,281.5C 57.5499,280.923 58.5499,279.59 58.5,277.5C 60.2624,277.643 61.9291,277.309 63.5,276.5C 64.7112,275.726 64.7112,274.893 63.5,274C 67.9629,269.713 72.6295,265.713 77.5,262C 76.8244,259.286 75.8244,256.452 74.5,253.5C 71.8192,246.832 67.6525,241.165 62,236.5C 59.8844,230.398 62.0511,226.398 68.5,224.5C 70.4172,224.754 71.7505,225.754 72.5,227.5 Z"/></g>
<g><path style="opacity:1" fill="#918572" d="M 159.5,263.5 C 158.499,270.874 156.499,277.874 153.5,284.5C 154.5,279.167 155.5,273.833 156.5,268.5C 157.065,266.58 158.065,264.913 159.5,263.5 Z"/></g>
<g><path style="opacity:1" fill="#dcad78" d="M 88.5,268.5 C 86.54,269.138 84.7067,269.138 83,268.5C 82.0701,270.552 80.5701,272.052 78.5,273C 78.8333,273.333 79.1667,273.667 79.5,274C 78.3774,275.044 77.0441,275.71 75.5,276C 75.9574,276.414 76.2907,276.914 76.5,277.5C 73.3589,279.203 71.0256,281.703 69.5,285C 70.4506,285.718 70.6172,286.551 70,287.5C 68.6667,288.167 67.3333,288.833 66,289.5C 65.6667,288.833 65.3333,288.167 65,287.5C 63.8018,291.194 61.9685,294.528 59.5,297.5C 61.162,298.327 62.4954,299.493 63.5,301C 62.8333,301.333 62.1667,301.667 61.5,302C 62.4506,302.718 62.6172,303.551 62,304.5C 59.6447,306.895 57.6447,309.562 56,312.5C 54.3905,313.147 52.8905,313.98 51.5,315C 52.9561,315.423 53.4561,316.256 53,317.5C 52.3333,316.167 51.6667,316.167 51,317.5C 50.5983,316.128 50.0983,314.795 49.5,313.5C 47.1161,312.989 45.1161,311.989 43.5,310.5C 45.4109,310.426 46.5776,309.426 47,307.5C 47.3333,307.833 47.6667,308.167 48,308.5C 48.49,307.207 48.6567,305.873 48.5,304.5C 50.433,304.271 52.0997,303.438 53.5,302C 52.2532,300.542 52.2532,299.042 53.5,297.5C 53,297.167 52.5,296.833 52,296.5C 48.0459,299.451 44.3793,302.784 41,306.5C 40.3333,305.833 40.3333,305.167 41,304.5C 55.0957,290.572 68.9291,276.572 82.5,262.5C 83.5937,263.868 83.2603,265.035 81.5,266C 82.5,266.5 83.5,267 84.5,267.5C 86.297,266.068 87.6303,266.401 88.5,268.5 Z"/></g>
<g><path style="opacity:1" fill="#dfb683" d="M 120.5,233.5 C 122.819,233.992 124.819,234.992 126.5,236.5C 121.837,241.331 117.337,246.331 113,251.5C 112.592,255.962 113.259,260.295 115,264.5C 117.366,269.267 121.199,271.934 126.5,272.5C 131.944,270.276 137.61,268.943 143.5,268.5C 143.389,269.117 143.056,269.617 142.5,270C 137.416,270.002 133.583,272.169 131,276.5C 130.586,276.043 130.086,275.709 129.5,275.5C 128.289,276.274 128.289,277.107 129.5,278C 128.007,279.368 126.507,279.535 125,278.5C 124.781,279.938 124.281,281.271 123.5,282.5C 121.236,283.229 119.903,284.396 119.5,286C 117.865,286.54 116.532,286.04 115.5,284.5C 113.194,287.23 110.861,287.564 108.5,285.5C 107.914,285.709 107.414,286.043 107,286.5C 106.632,285.09 105.799,284.09 104.5,283.5C 103.28,284.711 102.113,284.711 101,283.5C 99.244,284.421 99.0773,285.588 100.5,287C 100.01,288.982 99.0097,290.649 97.5,292C 98.0465,292.925 98.7132,293.758 99.5,294.5C 100.396,293.494 101.062,293.494 101.5,294.5C 100.624,295.251 99.624,295.751 98.5,296C 100.886,296.284 101.552,297.284 100.5,299C 101,299.167 101.5,299.333 102,299.5C 103.393,298.385 104.893,297.885 106.5,298C 104.109,299.309 104.109,300.309 106.5,301C 104.324,302.084 102.157,303.918 100,306.5C 99.3548,310.201 100.522,311.035 103.5,309C 103.043,308.586 102.709,308.086 102.5,307.5C 104.793,306.374 106.96,305.041 109,303.5C 109.333,304.167 109.667,304.833 110,305.5C 112.058,304.891 112.891,303.891 112.5,302.5C 112.833,303.167 113.167,303.833 113.5,304.5C 110.777,308.162 108.444,311.829 106.5,315.5C 107.429,317.322 106.762,318.655 104.5,319.5C 103.914,319.291 103.414,318.957 103,318.5C 102.069,320.459 101.236,322.459 100.5,324.5C 99.2331,329.034 99.2331,333.534 100.5,338C 103.157,338.175 105.824,338.008 108.5,337.5C 108.389,338.117 108.056,338.617 107.5,339C 96.5197,341.609 85.853,340.943 75.5,337C 62.8353,329.831 51.5019,320.997 41.5,310.5C 42.1667,310.5 42.8333,310.5 43.5,310.5C 45.1161,311.989 47.1161,312.989 49.5,313.5C 50.0983,314.795 50.5983,316.128 51,317.5C 51.6667,316.167 52.3333,316.167 53,317.5C 53.4561,316.256 52.9561,315.423 51.5,315C 52.8905,313.98 54.3905,313.147 56,312.5C 57.6447,309.562 59.6447,306.895 62,304.5C 62.6172,303.551 62.4506,302.718 61.5,302C 62.1667,301.667 62.8333,301.333 63.5,301C 62.4954,299.493 61.162,298.327 59.5,297.5C 61.9685,294.528 63.8018,291.194 65,287.5C 65.3333,288.167 65.6667,288.833 66,289.5C 67.3333,288.833 68.6667,288.167 70,287.5C 70.6172,286.551 70.4506,285.718 69.5,285C 71.0256,281.703 73.3589,279.203 76.5,277.5C 76.2907,276.914 75.9574,276.414 75.5,276C 77.0441,275.71 78.3774,275.044 79.5,274C 79.1667,273.667 78.8333,273.333 78.5,273C 80.5701,272.052 82.0701,270.552 83,268.5C 84.7067,269.138 86.54,269.138 88.5,268.5C 92.9511,271.21 97.6178,273.543 102.5,275.5C 105.147,277.811 107.814,280.144 110.5,282.5C 112.817,279.683 115.317,277.016 118,274.5C 116.545,270.857 114.045,267.857 110.5,265.5C 110.167,264.5 109.5,263.833 108.5,263.5C 107.5,263.167 106.833,262.5 106.5,261.5C 102.826,258.158 99.4925,254.492 96.5,250.5C 98.5922,250.561 100.092,251.561 101,253.5C 107.004,246.329 113.504,239.662 120.5,233.5 Z"/></g>
<g><path style="opacity:1" fill="#e5bc89" d="M 156.5,268.5 C 155.5,273.833 154.5,279.167 153.5,284.5C 149.71,295.748 144.544,306.415 138,316.5C 130.754,325.587 121.921,332.587 111.5,337.5C 110.5,337.5 109.5,337.5 108.5,337.5C 105.824,338.008 103.157,338.175 100.5,338C 99.2331,333.534 99.2331,329.034 100.5,324.5C 101.236,322.459 102.069,320.459 103,318.5C 103.414,318.957 103.914,319.291 104.5,319.5C 106.762,318.655 107.429,317.322 106.5,315.5C 108.444,311.829 110.777,308.162 113.5,304.5C 113.167,303.833 112.833,303.167 112.5,302.5C 112.891,303.891 112.058,304.891 110,305.5C 109.667,304.833 109.333,304.167 109,303.5C 106.96,305.041 104.793,306.374 102.5,307.5C 102.709,308.086 103.043,308.586 103.5,309C 100.522,311.035 99.3548,310.201 100,306.5C 102.157,303.918 104.324,302.084 106.5,301C 104.109,300.309 104.109,299.309 106.5,298C 104.893,297.885 103.393,298.385 102,299.5C 101.5,299.333 101,299.167 100.5,299C 101.552,297.284 100.886,296.284 98.5,296C 99.624,295.751 100.624,295.251 101.5,294.5C 101.062,293.494 100.396,293.494 99.5,294.5C 98.7132,293.758 98.0465,292.925 97.5,292C 99.0097,290.649 100.01,288.982 100.5,287C 99.0773,285.588 99.244,284.421 101,283.5C 102.113,284.711 103.28,284.711 104.5,283.5C 105.799,284.09 106.632,285.09 107,286.5C 107.414,286.043 107.914,285.709 108.5,285.5C 110.861,287.564 113.194,287.23 115.5,284.5C 116.532,286.04 117.865,286.54 119.5,286C 119.903,284.396 121.236,283.229 123.5,282.5C 124.281,281.271 124.781,279.938 125,278.5C 126.507,279.535 128.007,279.368 129.5,278C 128.289,277.107 128.289,276.274 129.5,275.5C 130.086,275.709 130.586,276.043 131,276.5C 133.583,272.169 137.416,270.002 142.5,270C 143.056,269.617 143.389,269.117 143.5,268.5C 145.017,268.489 146.184,267.823 147,266.5C 147.667,267.833 148.667,268.833 150,269.5C 151.333,268.167 152.667,266.833 154,265.5C 154.333,266.167 154.667,266.833 155,267.5C 156.043,263.774 156.543,264.107 156.5,268.5 Z"/></g>
<g><path style="opacity:1" fill="#988c7a" d="M 153.5,284.5 C 148.932,309.402 135.265,327.402 112.5,338.5C 112.5,337.833 112.167,337.5 111.5,337.5C 121.921,332.587 130.754,325.587 138,316.5C 144.544,306.415 149.71,295.748 153.5,284.5 Z"/></g>
<g><path style="opacity:1" fill="#716f63" d="M 3.5,245.5 C 3.83333,245.5 4.16667,245.5 4.5,245.5C 4.56649,264.049 11.2332,279.715 24.5,292.5C 29.4629,299.131 35.1295,305.131 41.5,310.5C 51.5019,320.997 62.8353,329.831 75.5,337C 85.853,340.943 96.5197,341.609 107.5,339C 108.056,338.617 108.389,338.117 108.5,337.5C 109.5,337.5 110.5,337.5 111.5,337.5C 112.167,337.5 112.5,337.833 112.5,338.5C 96.4942,344.921 81.1609,343.421 66.5,334C 55.7071,325.543 45.2071,316.709 35,307.5C 26.6227,298.125 18.6227,288.458 11,278.5C 5.18662,268.247 2.68662,257.247 3.5,245.5 Z"/></g>
</svg>
