<?xml version="1.0" encoding="UTF-8"?>
<!DOCTYPE svg PUBLIC "-//W3C//DTD SVG 1.1//EN" "http://www.w3.org/Graphics/SVG/1.1/DTD/svg11.dtd">
<svg xmlns="http://www.w3.org/2000/svg" version="1.1" width="345px" height="345px" style="shape-rendering:geometricPrecision; text-rendering:geometricPrecision; image-rendering:optimizeQuality; fill-rule:evenodd; clip-rule:evenodd" xmlns:xlink="http://www.w3.org/1999/xlink">
<g><path style="opacity:1" fill="#fefefe" d="M -0.5,-0.5 C 114.5,-0.5 229.5,-0.5 344.5,-0.5C 344.5,114.5 344.5,229.5 344.5,344.5C 229.5,344.5 114.5,344.5 -0.5,344.5C -0.5,229.5 -0.5,114.5 -0.5,-0.5 Z"/></g>
<g><path style="opacity:1" fill="#cfd0cf" d="M 310.5,11.5 C 309.5,11.8333 308.833,12.5 308.5,13.5C 304.566,15.0671 302.733,13.7338 303,9.5C 308.05,3.79713 310.55,4.46379 310.5,11.5 Z"/></g>
<g><path style="opacity:1" fill="#70493f" d="M 332.5,32.5 C 331.662,32.8417 331.328,33.5084 331.5,34.5C 328.732,36.0872 326.065,37.9205 323.5,40C 322.177,40.8159 321.511,41.9826 321.5,43.5C 321.869,45.9935 321.203,46.6602 319.5,45.5C 316.233,47.4273 313.233,49.7606 310.5,52.5C 306.95,56.7301 302.617,59.7301 297.5,61.5C 296.508,61.3284 295.842,61.6618 295.5,62.5C 292.573,61.2427 290.239,59.2427 288.5,56.5C 294.245,48.0195 300.245,39.6861 306.5,31.5C 307.5,31.1667 308.167,30.5 308.5,29.5C 311.516,26.4797 314.183,23.1464 316.5,19.5C 319.244,18.9283 320.077,17.2617 319,14.5C 313.906,12.7627 312.406,14.4294 314.5,19.5C 313.2,22.4323 311.2,24.7656 308.5,26.5C 307.081,25.5489 305.415,25.2155 303.5,25.5C 303.5,26.8333 303.5,28.1667 303.5,29.5C 303.611,30.1174 303.944,30.6174 304.5,31C 301.933,33.3959 299.6,35.8959 297.5,38.5C 296.341,36.6231 294.674,36.1231 292.5,37C 291.209,38.2917 291.209,39.4583 292.5,40.5C 290.188,44.8119 286.855,48.1452 282.5,50.5C 282.5,50.1667 282.5,49.8333 282.5,49.5C 283.318,44.8479 285.318,40.8479 288.5,37.5C 289.833,36.8333 290.833,35.8333 291.5,34.5C 294.266,31.8363 296.933,29.003 299.5,26C 299.272,25.6012 298.938,25.4346 298.5,25.5C 298.5,24.1667 299.167,23.5 300.5,23.5C 304.457,21.5432 307.457,18.5432 309.5,14.5C 309.376,13.8933 309.043,13.56 308.5,13.5C 308.833,12.5 309.5,11.8333 310.5,11.5C 311.117,11.6107 311.617,11.944 312,12.5C 314.232,9.34071 316.899,6.67404 320,4.5C 324.868,5.90058 329.368,8.06725 333.5,11C 336.202,15.3148 338.536,19.8148 340.5,24.5C 338.118,27.5483 335.452,30.2149 332.5,32.5 Z"/></g>
<g><path style="opacity:1" fill="#a18165" d="M 321.5,10.5 C 323.795,9.07186 325.795,9.57186 327.5,12C 326.614,13.9015 326.947,15.7349 328.5,17.5C 330.042,18.7468 331.542,18.7468 333,17.5C 333.456,18.7441 332.956,19.5774 331.5,20C 334.234,20.7183 334.9,22.2183 333.5,24.5C 329.813,21.6469 326.647,18.3135 324,14.5C 323.107,15.7112 322.274,15.7112 321.5,14.5C 322.665,13.4164 323.998,12.5831 325.5,12C 324.099,11.5899 322.766,11.0899 321.5,10.5 Z"/></g>
<g><path style="opacity:1" fill="#beb3a8" d="M 316.5,19.5 C 315.833,19.5 315.167,19.5 314.5,19.5C 312.406,14.4294 313.906,12.7627 319,14.5C 320.077,17.2617 319.244,18.9283 316.5,19.5 Z"/></g>
<g><path style="opacity:1" fill="#cececf" d="M 300.5,23.5 C 299.167,23.5 298.5,24.1667 298.5,25.5C 294.064,26.9024 292.231,25.2357 293,20.5C 295.927,16.5476 298.761,16.5476 301.5,20.5C 300.873,21.4168 300.539,22.4168 300.5,23.5 Z"/></g>
<g><path style="opacity:1" fill="#9d7d66" d="M 314.5,19.5 C 315.167,19.5 315.833,19.5 316.5,19.5C 314.183,23.1464 311.516,26.4797 308.5,29.5C 308.5,28.5 308.5,27.5 308.5,26.5C 311.2,24.7656 313.2,22.4323 314.5,19.5 Z"/></g>
<g><path style="opacity:1" fill="#baafa4" d="M 326.5,25.5 C 331.159,25.0146 332.492,26.848 330.5,31C 325.728,31.8104 324.395,29.9771 326.5,25.5 Z"/></g>
<g><path style="opacity:1" fill="#d2c4b4" d="M 308.5,26.5 C 308.5,27.5 308.5,28.5 308.5,29.5C 308.167,30.5 307.5,31.1667 306.5,31.5C 306.361,30.0809 305.861,28.7476 305,27.5C 304.722,28.4158 304.222,29.0825 303.5,29.5C 303.5,28.1667 303.5,26.8333 303.5,25.5C 305.415,25.2155 307.081,25.5489 308.5,26.5 Z"/></g>
<g><path style="opacity:1" fill="#c2c1c1" d="M 291.5,34.5 C 290.833,35.8333 289.833,36.8333 288.5,37.5C 286.212,36.9265 284.045,35.9265 282,34.5C 282.176,29.6697 284.676,27.8364 289.5,29C 290.109,30.9483 290.776,32.7816 291.5,34.5 Z"/></g>
<g><path style="opacity:1" fill="#927560" d="M 306.5,31.5 C 300.245,39.6861 294.245,48.0195 288.5,56.5C 286.167,54.8333 284.167,52.8333 282.5,50.5C 286.855,48.1452 290.188,44.8119 292.5,40.5C 293.117,40.3893 293.617,40.056 294,39.5C 295.814,43.3629 296.98,43.0296 297.5,38.5C 299.6,35.8959 301.933,33.3959 304.5,31C 303.944,30.6174 303.611,30.1174 303.5,29.5C 304.222,29.0825 304.722,28.4158 305,27.5C 305.861,28.7476 306.361,30.0809 306.5,31.5 Z"/></g>
<g><path style="opacity:1" fill="#c7c6c7" d="M 332.5,32.5 C 340.952,34.0833 341.452,37.0833 334,41.5C 330.495,40.1521 329.661,37.8188 331.5,34.5C 331.328,33.5084 331.662,32.8417 332.5,32.5 Z"/></g>
<g><path style="opacity:1" fill="#c5bcb3" d="M 315.5,35.5 C 319.068,35.7593 320.401,37.7593 319.5,41.5C 318.325,41.719 317.325,41.3857 316.5,40.5C 317.847,36.8904 317.18,36.5571 314.5,39.5C 314.167,39.1667 313.833,38.8333 313.5,38.5C 314.193,37.4822 314.859,36.4822 315.5,35.5 Z"/></g>
<g><path style="opacity:1" fill="#c7b9a5" d="M 297.5,38.5 C 296.98,43.0296 295.814,43.3629 294,39.5C 293.617,40.056 293.117,40.3893 292.5,40.5C 291.209,39.4583 291.209,38.2917 292.5,37C 294.674,36.1231 296.341,36.6231 297.5,38.5 Z"/></g>
<g><path style="opacity:1" fill="#c6c7c8" d="M 319.5,45.5 C 321.203,46.6602 321.869,45.9935 321.5,43.5C 325.891,42.0495 327.724,43.7162 327,48.5C 324.321,52.2173 321.488,52.384 318.5,49C 319.337,47.9887 319.67,46.8221 319.5,45.5 Z"/></g>
<g><path style="opacity:1" fill="#bab0aa" d="M 303.5,47.5 C 305.167,47.5 306.833,47.5 308.5,47.5C 308.72,54.2273 306.72,55.0607 302.5,50C 302.743,49.0979 303.077,48.2646 303.5,47.5 Z"/></g>
<g><path style="opacity:1" fill="#c5c3c3" d="M 310.5,52.5 C 311.179,54.8139 312.512,55.1472 314.5,53.5C 315.5,54.8333 316.5,56.1667 317.5,57.5C 313.043,65.6971 309.876,65.3638 308,56.5C 305.383,59.9852 301.883,61.6519 297.5,61.5C 302.617,59.7301 306.95,56.7301 310.5,52.5 Z"/></g>
<g><path style="opacity:1" fill="#e7e0d4" d="M 282.5,49.5 C 282.5,49.8333 282.5,50.1667 282.5,50.5C 284.167,52.8333 286.167,54.8333 288.5,56.5C 290.239,59.2427 292.573,61.2427 295.5,62.5C 294.5,63.5 293.5,64.5 292.5,65.5C 292.279,63.3364 291.279,61.6697 289.5,60.5C 288.5,59.5 287.5,58.5 286.5,57.5C 286.167,56.5 285.5,55.8333 284.5,55.5C 284.167,54.5 283.5,53.8333 282.5,53.5C 282.167,52.8333 281.833,52.1667 281.5,51.5C 281.328,50.5084 281.662,49.8417 282.5,49.5 Z"/></g>
<g><path style="opacity:1" fill="#483c33" d="M 284.5,55.5 C 281.899,59.7706 278.566,63.4372 274.5,66.5C 277.101,62.2294 280.434,58.5628 284.5,55.5 Z"/></g>
<g><path style="opacity:1" fill="#5e534d" d="M 289.5,60.5 C 291.279,61.6697 292.279,63.3364 292.5,65.5C 289.833,67.8333 287.167,70.1667 284.5,72.5C 281.988,73.5956 279.988,72.7623 278.5,70C 281.764,66.2271 285.43,63.0604 289.5,60.5 Z"/></g>
<g><path style="opacity:1" fill="#5e5245" d="M 274.5,66.5 C 274.511,68.0174 275.177,69.1841 276.5,70C 273.223,72.7663 270.557,75.933 268.5,79.5C 265.975,81.1771 263.309,82.6771 260.5,84C 260.833,84.3333 261.167,84.6667 261.5,85C 260.211,86.8022 258.544,87.9688 256.5,88.5C 256.5,87.1667 255.833,86.5 254.5,86.5C 256.678,82.8051 259.511,79.4718 263,76.5C 263.283,79.7423 264.117,80.0756 265.5,77.5C 264.674,76.549 264.508,75.549 265,74.5C 267.766,71.2232 270.933,68.5566 274.5,66.5 Z"/></g>
<g><path style="opacity:1" fill="#5f5248" d="M 256.5,88.5 C 254.669,91.1183 253.169,93.7849 252,96.5C 254,94.5 256,92.5 258,90.5C 258.333,91.5 258.667,92.5 259,93.5C 259.914,92.3463 260.747,92.513 261.5,94C 255.802,98.7234 250.802,104.057 246.5,110C 245.668,110.688 245.002,110.521 244.5,109.5C 246.65,106.849 248.983,104.349 251.5,102C 248.195,103.114 245.528,105.281 243.5,108.5C 241.471,106.961 239.971,104.961 239,102.5C 238.086,103.654 237.253,103.487 236.5,102C 239,99.5 241.5,97 244,94.5C 244.5,95 245,95.5 245.5,96C 244.167,97.3333 242.833,98.6667 241.5,100C 242.167,100.667 242.833,100.667 243.5,100C 247.402,95.5931 251.735,91.7598 256.5,88.5 Z"/></g>
<g><path style="opacity:1" fill="#8a7e6d" d="M 281.5,51.5 C 281.833,52.1667 282.167,52.8333 282.5,53.5C 283.5,53.8333 284.167,54.5 284.5,55.5C 280.434,58.5628 277.101,62.2294 274.5,66.5C 270.933,68.5566 267.766,71.2232 265,74.5C 264.508,75.549 264.674,76.549 265.5,77.5C 264.117,80.0756 263.283,79.7423 263,76.5C 259.511,79.4718 256.678,82.8051 254.5,86.5C 255.833,86.5 256.5,87.1667 256.5,88.5C 251.735,91.7598 247.402,95.5931 243.5,100C 242.833,100.667 242.167,100.667 241.5,100C 242.833,98.6667 244.167,97.3333 245.5,96C 245,95.5 244.5,95 244,94.5C 241.5,97 239,99.5 236.5,102C 237.253,103.487 238.086,103.654 239,102.5C 239.971,104.961 241.471,106.961 243.5,108.5C 243.591,110.698 242.925,111.031 241.5,109.5C 241.103,108.475 240.437,108.308 239.5,109C 237.294,111.037 235.294,113.203 233.5,115.5C 233.5,115.833 233.5,116.167 233.5,116.5C 232.206,115.71 231.039,114.71 230,113.5C 228.243,117.022 226.076,119.689 223.5,121.5C 220.167,122.833 217.833,125.167 216.5,128.5C 213.775,129.713 211.441,131.546 209.5,134C 210.749,135.824 211.915,135.657 213,133.5C 212.737,134.951 212.904,136.284 213.5,137.5C 215.854,135.812 217.854,133.812 219.5,131.5C 220.289,131.783 220.956,132.283 221.5,133C 216.837,136.83 212.503,140.997 208.5,145.5C 208.808,146.308 209.308,146.975 210,147.5C 212.207,144.436 215.041,142.436 218.5,141.5C 212.167,148.5 205.5,155.167 198.5,161.5C 197.761,161.631 197.094,161.464 196.5,161C 197.833,160.333 197.833,159.667 196.5,159C 201.852,157.746 203.352,154.913 201,150.5C 203.957,153.914 206.457,153.248 208.5,148.5C 207.833,147.5 207.167,146.5 206.5,145.5C 208.316,143.183 210.316,141.016 212.5,139C 211.756,137.961 210.756,137.461 209.5,137.5C 209.483,135.972 208.816,135.472 207.5,136C 205.536,137.451 204.203,139.284 203.5,141.5C 201.284,142.203 199.451,143.536 198,145.5C 197.689,146.742 198.189,147.742 199.5,148.5C 198.132,149.594 196.965,149.26 196,147.5C 193.957,149.208 192.29,151.208 191,153.5C 190.617,152.944 190.117,152.611 189.5,152.5C 191.144,150.519 192.81,148.519 194.5,146.5C 193.349,145.269 192.183,145.269 191,146.5C 190.508,145.451 190.674,144.451 191.5,143.5C 189.083,143.017 187.416,144.183 186.5,147C 187.022,147.95 187.689,148.784 188.5,149.5C 186.5,150.833 184.833,152.5 183.5,154.5C 183.855,155.522 184.522,156.189 185.5,156.5C 184.611,158.736 183.278,160.736 181.5,162.5C 182.687,163.519 183.687,164.686 184.5,166C 185.167,166.667 185.833,166.667 186.5,166C 187.685,164.647 189.019,163.48 190.5,162.5C 191.94,163.952 193.606,164.952 195.5,165.5C 192.81,167.193 190.81,169.527 189.5,172.5C 188.102,170.891 186.435,170.058 184.5,170C 183.5,171 182.5,172 181.5,173C 182.71,174.039 183.71,175.206 184.5,176.5C 182.628,175.489 180.628,174.655 178.5,174C 180.457,172.009 182.457,170.009 184.5,168C 182.65,165.982 180.65,164.149 178.5,162.5C 181.099,161.101 182.599,159.101 183,156.5C 180.356,152.547 177.856,152.714 175.5,157C 176.357,157.689 177.023,158.522 177.5,159.5C 175.722,161.264 174.389,163.264 173.5,165.5C 170.41,166.209 169.077,167.876 169.5,170.5C 168.448,170.351 167.448,170.517 166.5,171C 163.167,174.333 159.833,177.667 156.5,181C 154.833,180.667 153.167,180.333 151.5,180C 150.663,181.011 150.33,182.178 150.5,183.5C 149.883,183.389 149.383,183.056 149,182.5C 147.629,184.041 146.129,185.375 144.5,186.5C 144.5,185.833 144.167,185.5 143.5,185.5C 143.557,184.391 143.89,183.391 144.5,182.5C 146.833,180.5 149.167,178.5 151.5,176.5C 153.394,175.952 155.06,174.952 156.5,173.5C 157.298,173.957 157.631,174.624 157.5,175.5C 160.292,175.378 162.292,174.044 163.5,171.5C 167.438,168.065 171.271,164.398 175,160.5C 175.688,159.668 175.521,159.002 174.5,158.5C 167.356,163.521 167.023,163.021 173.5,157C 173.272,156.601 172.938,156.435 172.5,156.5C 172.5,155.833 172.5,155.167 172.5,154.5C 174.394,153.952 176.06,152.952 177.5,151.5C 183.575,144.758 189.908,138.425 196.5,132.5C 196.539,133.583 196.873,134.583 197.5,135.5C 195.35,137.149 193.35,138.982 191.5,141C 193.333,142.167 194.833,143.667 196,145.5C 199.833,141.667 203.667,137.833 207.5,134C 207,133.5 206.5,133 206,132.5C 204.167,134.333 202.333,136.167 200.5,138C 199.668,138.688 199.002,138.521 198.5,137.5C 203.244,133.094 207.578,128.427 211.5,123.5C 208.564,125.255 205.731,127.255 203,129.5C 202.329,128.748 201.496,128.414 200.5,128.5C 227.118,102.551 254.118,76.8847 281.5,51.5 Z"/></g>
<g><path style="opacity:1" fill="#4c4137" d="M 232.5,101.5 C 233.239,101.369 233.906,101.536 234.5,102C 232.317,104.35 229.984,106.517 227.5,108.5C 226.479,107.998 226.312,107.332 227,106.5C 228.812,104.7 230.645,103.033 232.5,101.5 Z"/></g>
<g><path style="opacity:1" fill="#4a3d34" d="M 242.5,92.5 C 240.869,96.3044 238.202,98.8044 234.5,100C 237.036,97.295 239.703,94.795 242.5,92.5 Z"/></g>
<g><path style="opacity:1" fill="#514339" d="M 254.5,86.5 C 252.372,89.1303 250.039,91.6303 247.5,94C 246.668,94.6877 246.002,94.521 245.5,93.5C 247.817,90.6826 250.317,88.0159 253,85.5C 253.383,86.056 253.883,86.3893 254.5,86.5 Z"/></g>
<g><path style="opacity:1" fill="#4d3f35" d="M 242.5,92.5 C 245.129,89.3694 247.962,86.3694 251,83.5C 251.667,84.1667 251.667,84.8333 251,85.5C 248.564,88.4468 245.731,90.7801 242.5,92.5 Z"/></g>
<g><path style="opacity:1" fill="#534539" d="M 261.5,74.5 C 259.57,78.2663 256.736,81.2663 253,83.5C 252.333,82.8333 252.333,82.1667 253,81.5C 255.436,78.5532 258.269,76.2199 261.5,74.5 Z"/></g>
<g><path style="opacity:1" fill="#54473b" d="M 261.5,74.5 C 261.369,73.7611 261.536,73.0944 262,72.5C 265.297,70.2046 268.297,67.538 271,64.5C 271.667,65.1667 271.667,65.8333 271,66.5C 268.234,69.7768 265.067,72.4434 261.5,74.5 Z"/></g>
<g><path style="opacity:1" fill="#4c3f34" d="M 282.5,53.5 C 279.94,57.5698 276.773,61.2365 273,64.5C 275.131,60.1828 278.298,56.5162 282.5,53.5 Z"/></g>
<g><path style="opacity:1" fill="#534338" d="M 237.5,105.5 C 238.289,105.783 238.956,106.283 239.5,107C 230.274,115.605 229.607,115.105 237.5,105.5 Z"/></g>
<g><path style="opacity:1" fill="#766b63" d="M 284.5,55.5 C 285.5,55.8333 286.167,56.5 286.5,57.5C 287.5,58.5 288.5,59.5 289.5,60.5C 285.43,63.0604 281.764,66.2271 278.5,70C 279.988,72.7623 281.988,73.5956 284.5,72.5C 262.535,95.4667 240.535,118.467 218.5,141.5C 215.041,142.436 212.207,144.436 210,147.5C 209.308,146.975 208.808,146.308 208.5,145.5C 212.503,140.997 216.837,136.83 221.5,133C 220.956,132.283 220.289,131.783 219.5,131.5C 224.467,127.509 229.134,122.509 233.5,116.5C 233.5,116.167 233.5,115.833 233.5,115.5C 234.117,115.611 234.617,115.944 235,116.5C 237.372,114.297 239.539,111.963 241.5,109.5C 242.925,111.031 243.591,110.698 243.5,108.5C 245.528,105.281 248.195,103.114 251.5,102C 248.983,104.349 246.65,106.849 244.5,109.5C 245.002,110.521 245.668,110.688 246.5,110C 250.802,104.057 255.802,98.7234 261.5,94C 260.747,92.513 259.914,92.3463 259,93.5C 258.667,92.5 258.333,91.5 258,90.5C 256,92.5 254,94.5 252,96.5C 253.169,93.7849 254.669,91.1183 256.5,88.5C 258.544,87.9688 260.211,86.8022 261.5,85C 261.167,84.6667 260.833,84.3333 260.5,84C 263.309,82.6771 265.975,81.1771 268.5,79.5C 270.557,75.933 273.223,72.7663 276.5,70C 275.177,69.1841 274.511,68.0174 274.5,66.5C 278.566,63.4372 281.899,59.7706 284.5,55.5 Z"/></g>
<g><path style="opacity:1" fill="#5c5049" d="M 266.5,81.5 C 268.384,81.7118 269.717,82.7118 270.5,84.5C 268.167,87.5 265.5,90.1667 262.5,92.5C 261.5,91.5 260.5,90.5 259.5,89.5C 261.856,86.8136 264.189,84.147 266.5,81.5 Z"/></g>
<g><path style="opacity:1" fill="#584d46" d="M 268.5,79.5 C 271.48,76.8556 274.48,74.189 277.5,71.5C 278.833,72.1667 279.833,73.1667 280.5,74.5C 277.85,77.6511 275.016,80.6511 272,83.5C 270.624,82.2949 269.458,80.9616 268.5,79.5 Z"/></g>
<g><path style="opacity:1" fill="#4c4037" d="M 286.5,57.5 C 284.69,61.9925 281.69,65.6592 277.5,68.5C 276.479,67.9984 276.312,67.3317 277,66.5C 280.036,63.2956 283.203,60.2956 286.5,57.5 Z"/></g>
<g><path style="opacity:1" fill="#4f4037" d="M 228.5,111.5 C 230.071,108.256 232.405,105.589 235.5,103.5C 236.521,104.002 236.688,104.668 236,105.5C 233.894,108.118 231.394,110.118 228.5,111.5 Z"/></g>
<g><path style="opacity:1" fill="#53473f" d="M 241.5,109.5 C 239.539,111.963 237.372,114.297 235,116.5C 234.617,115.944 234.117,115.611 233.5,115.5C 235.294,113.203 237.294,111.037 239.5,109C 240.437,108.308 241.103,108.475 241.5,109.5 Z"/></g>
<g><path style="opacity:1" fill="#4f4237" d="M 228.5,111.5 C 222.579,119.091 215.912,126.091 208.5,132.5C 207.479,131.998 207.312,131.332 208,130.5C 214.423,123.572 221.256,117.238 228.5,111.5 Z"/></g>
<g><path style="opacity:1" fill="#4e4338" d="M 218.5,116.5 C 220.051,113.437 222.218,110.771 225,108.5C 225.5,109 226,109.5 226.5,110C 224.229,112.782 221.563,114.949 218.5,116.5 Z"/></g>
<g><path style="opacity:1" fill="#4f4439" d="M 218.5,116.5 C 217.167,119.833 214.833,122.167 211.5,123.5C 212.833,120.167 215.167,117.833 218.5,116.5 Z"/></g>
<g><path style="opacity:1" fill="#534439" d="M 223.5,121.5 C 222.167,124.833 219.833,127.167 216.5,128.5C 217.833,125.167 220.167,122.833 223.5,121.5 Z"/></g>
<g><path style="opacity:1" fill="#615649" d="M 211.5,123.5 C 207.578,128.427 203.244,133.094 198.5,137.5C 199.002,138.521 199.668,138.688 200.5,138C 202.333,136.167 204.167,134.333 206,132.5C 206.5,133 207,133.5 207.5,134C 203.667,137.833 199.833,141.667 196,145.5C 194.833,143.667 193.333,142.167 191.5,141C 193.35,138.982 195.35,137.149 197.5,135.5C 196.873,134.583 196.539,133.583 196.5,132.5C 198.167,131.5 199.5,130.167 200.5,128.5C 201.496,128.414 202.329,128.748 203,129.5C 205.731,127.255 208.564,125.255 211.5,123.5 Z"/></g>
<g><path style="opacity:1" fill="#67594d" d="M 233.5,116.5 C 229.134,122.509 224.467,127.509 219.5,131.5C 217.854,133.812 215.854,135.812 213.5,137.5C 212.904,136.284 212.737,134.951 213,133.5C 211.915,135.657 210.749,135.824 209.5,134C 211.441,131.546 213.775,129.713 216.5,128.5C 219.833,127.167 222.167,124.833 223.5,121.5C 226.076,119.689 228.243,117.022 230,113.5C 231.039,114.71 232.206,115.71 233.5,116.5 Z"/></g>
<g><path style="opacity:1" fill="#0b0609" d="M 151.5,139.5 C 158.754,144.416 165.421,150.083 171.5,156.5C 169.909,158.633 167.909,160.299 165.5,161.5C 163.83,159.022 162.163,156.355 160.5,153.5C 155.616,149.299 150.283,145.799 144.5,143C 137.275,141.704 130.442,142.538 124,145.5C 123.667,145.167 123.333,144.833 123,144.5C 121.547,147.984 119.713,148.65 117.5,146.5C 117.833,145.833 118.167,145.167 118.5,144.5C 125.321,137.284 133.654,134.784 143.5,137C 146.154,137.941 148.821,138.774 151.5,139.5 Z"/></g>
<g><path style="opacity:1" fill="#8d8c88" d="M 151.5,139.5 C 148.821,138.774 146.154,137.941 143.5,137C 133.654,134.784 125.321,137.284 118.5,144.5C 121.081,139.69 125.081,136.523 130.5,135C 135.891,134.308 141.225,134.641 146.5,136C 148.584,136.697 150.251,137.864 151.5,139.5 Z"/></g>
<g><path style="opacity:1" fill="#4f4237" d="M 209.5,137.5 C 207.754,139.252 205.754,140.585 203.5,141.5C 204.203,139.284 205.536,137.451 207.5,136C 208.816,135.472 209.483,135.972 209.5,137.5 Z"/></g>
<g><path style="opacity:1" fill="#5c5145" d="M 189.5,152.5 C 187.833,153.5 186.5,154.833 185.5,156.5C 184.522,156.189 183.855,155.522 183.5,154.5C 184.833,152.5 186.5,150.833 188.5,149.5C 187.689,148.784 187.022,147.95 186.5,147C 187.416,144.183 189.083,143.017 191.5,143.5C 190.674,144.451 190.508,145.451 191,146.5C 192.183,145.269 193.349,145.269 194.5,146.5C 192.81,148.519 191.144,150.519 189.5,152.5 Z"/></g>
<g><path style="opacity:1" fill="#160305" d="M 165.5,161.5 C 164.833,162.5 164.167,163.5 163.5,164.5C 163.167,164.5 162.833,164.5 162.5,164.5C 160.622,156.953 155.955,151.953 148.5,149.5C 147.942,148.21 146.942,147.377 145.5,147C 134.644,144.565 125.644,147.399 118.5,155.5C 116.318,161.985 113.318,167.985 109.5,173.5C 105.216,175.784 101.882,179.118 99.5,183.5C 92.8006,188.192 85.4673,191.525 77.5,193.5C 82.8743,189.678 88.541,186.178 94.5,183C 98.3213,179.345 101.988,175.511 105.5,171.5C 108.146,167.845 110.146,163.178 111.5,157.5C 113.149,155.35 114.982,153.35 117,151.5C 117.494,149.866 117.66,148.199 117.5,146.5C 119.713,148.65 121.547,147.984 123,144.5C 123.333,144.833 123.667,145.167 124,145.5C 130.442,142.538 137.275,141.704 144.5,143C 150.283,145.799 155.616,149.299 160.5,153.5C 162.163,156.355 163.83,159.022 165.5,161.5 Z"/></g>
<g><path style="opacity:1" fill="#7e7b77" d="M 151.5,139.5 C 156.414,141.3 160.747,144.134 164.5,148C 165.448,148.483 166.448,148.649 167.5,148.5C 167.262,144.901 168.262,144.567 170.5,147.5C 171.622,149.044 171.289,150.377 169.5,151.5C 170.188,152.855 171.188,153.855 172.5,154.5C 172.5,155.167 172.5,155.833 172.5,156.5C 172.167,156.5 171.833,156.5 171.5,156.5C 165.421,150.083 158.754,144.416 151.5,139.5 Z"/></g>
<g><path style="opacity:1" fill="#480a05" d="M 148.5,149.5 C 148.5,150.167 148.5,150.833 148.5,151.5C 143.651,149.682 138.651,149.182 133.5,150C 132.619,150.708 131.953,151.542 131.5,152.5C 129.173,152.665 127.007,153.331 125,154.5C 120.843,163.45 115.677,171.783 109.5,179.5C 105.41,182.785 101.41,186.285 97.5,190C 96.552,190.483 95.552,190.649 94.5,190.5C 100.901,186.097 105.901,180.431 109.5,173.5C 111.412,170.081 113.912,167.081 117,164.5C 117.667,162.5 118.333,160.5 119,158.5C 122.053,156.57 124.553,154.07 126.5,151C 133.653,148.275 140.986,147.775 148.5,149.5 Z"/></g>
<g><path style="opacity:1" fill="#2f0605" d="M 148.5,149.5 C 140.986,147.775 133.653,148.275 126.5,151C 124.553,154.07 122.053,156.57 119,158.5C 118.333,160.5 117.667,162.5 117,164.5C 113.912,167.081 111.412,170.081 109.5,173.5C 113.318,167.985 116.318,161.985 118.5,155.5C 125.644,147.399 134.644,144.565 145.5,147C 146.942,147.377 147.942,148.21 148.5,149.5 Z"/></g>
<g><path style="opacity:1" fill="#60110a" d="M 148.5,151.5 C 152.762,153.926 156.262,157.26 159,161.5C 159.495,163.473 159.662,165.473 159.5,167.5C 159.167,168.5 158.5,169.167 157.5,169.5C 157.799,167.396 157.466,165.396 156.5,163.5C 152.48,160.039 148.48,156.706 144.5,153.5C 142.799,152.266 140.799,151.599 138.5,151.5C 136.182,151.997 133.848,152.33 131.5,152.5C 131.953,151.542 132.619,150.708 133.5,150C 138.651,149.182 143.651,149.682 148.5,151.5 Z"/></g>
<g><path style="opacity:1" fill="#6c5f53" d="M 209.5,137.5 C 210.756,137.461 211.756,137.961 212.5,139C 210.316,141.016 208.316,143.183 206.5,145.5C 207.167,146.5 207.833,147.5 208.5,148.5C 206.457,153.248 203.957,153.914 201,150.5C 203.352,154.913 201.852,157.746 196.5,159C 197.833,159.667 197.833,160.333 196.5,161C 197.094,161.464 197.761,161.631 198.5,161.5C 197.5,162.833 196.5,164.167 195.5,165.5C 193.606,164.952 191.94,163.952 190.5,162.5C 189.019,163.48 187.685,164.647 186.5,166C 185.833,166.667 185.167,166.667 184.5,166C 183.687,164.686 182.687,163.519 181.5,162.5C 183.278,160.736 184.611,158.736 185.5,156.5C 186.5,154.833 187.833,153.5 189.5,152.5C 190.117,152.611 190.617,152.944 191,153.5C 192.29,151.208 193.957,149.208 196,147.5C 196.965,149.26 198.132,149.594 199.5,148.5C 198.189,147.742 197.689,146.742 198,145.5C 199.451,143.536 201.284,142.203 203.5,141.5C 205.754,140.585 207.754,139.252 209.5,137.5 Z"/></g>
<g><path style="opacity:1" fill="#370704" d="M 148.5,149.5 C 155.955,151.953 160.622,156.953 162.5,164.5C 161.833,165.833 160.833,166.833 159.5,167.5C 159.662,165.473 159.495,163.473 159,161.5C 156.262,157.26 152.762,153.926 148.5,151.5C 148.5,150.833 148.5,150.167 148.5,149.5 Z"/></g>
<g><path style="opacity:1" fill="#af5822" d="M 147.5,175.5 C 147.657,174.127 147.49,172.793 147,171.5C 146.667,171.833 146.333,172.167 146,172.5C 144.059,170.684 143.392,168.684 144,166.5C 142.667,167.833 141.333,167.833 140,166.5C 139.096,171.461 136.763,172.461 133,169.5C 126.885,174.281 121.385,179.781 116.5,186C 117.252,186.671 117.586,187.504 117.5,188.5C 116.5,190.167 115.167,191.5 113.5,192.5C 111.458,189.635 110.292,189.968 110,193.5C 108.333,194.5 106.667,195.5 105,196.5C 104.517,197.448 104.351,198.448 104.5,199.5C 103.167,199.5 101.833,199.5 100.5,199.5C 104.821,195.463 108.487,190.797 111.5,185.5C 114.603,183.577 117.603,181.41 120.5,179C 125.373,172.8 130.54,166.967 136,161.5C 141.199,162.829 146.032,164.829 150.5,167.5C 150.833,168.333 151.167,169.167 151.5,170C 150.401,172.036 149.068,173.869 147.5,175.5 Z"/></g>
<g><path style="opacity:1" fill="#5e5448" d="M 171.5,156.5 C 171.833,156.5 172.167,156.5 172.5,156.5C 172.938,156.435 173.272,156.601 173.5,157C 167.023,163.021 167.356,163.521 174.5,158.5C 175.521,159.002 175.688,159.668 175,160.5C 171.271,164.398 167.438,168.065 163.5,171.5C 162.13,169.293 162.797,167.626 165.5,166.5C 165.145,165.478 164.478,164.811 163.5,164.5C 164.167,163.5 164.833,162.5 165.5,161.5C 167.909,160.299 169.909,158.633 171.5,156.5 Z"/></g>
<g><path style="opacity:1" fill="#53473c" d="M 173.5,165.5 C 173.631,168.367 172.297,170.033 169.5,170.5C 169.077,167.876 170.41,166.209 173.5,165.5 Z"/></g>
<g><path style="opacity:1" fill="#b86526" d="M 147.5,175.5 C 146.167,178.167 144.167,180.167 141.5,181.5C 132.219,179.826 124.219,182.159 117.5,188.5C 117.586,187.504 117.252,186.671 116.5,186C 121.385,179.781 126.885,174.281 133,169.5C 136.763,172.461 139.096,171.461 140,166.5C 141.333,167.833 142.667,167.833 144,166.5C 143.392,168.684 144.059,170.684 146,172.5C 146.333,172.167 146.667,171.833 147,171.5C 147.49,172.793 147.657,174.127 147.5,175.5 Z"/></g>
<g><path style="opacity:1" fill="#7c6b5b" d="M 162.5,164.5 C 162.833,164.5 163.167,164.5 163.5,164.5C 164.478,164.811 165.145,165.478 165.5,166.5C 162.797,167.626 162.13,169.293 163.5,171.5C 162.292,174.044 160.292,175.378 157.5,175.5C 157.631,174.624 157.298,173.957 156.5,173.5C 155.06,174.952 153.394,175.952 151.5,176.5C 152.833,174.833 154.167,173.167 155.5,171.5C 156.5,171.167 157.167,170.5 157.5,169.5C 158.5,169.167 159.167,168.5 159.5,167.5C 160.833,166.833 161.833,165.833 162.5,164.5 Z"/></g>
<g><path style="opacity:1" fill="#902d15" d="M 144.5,153.5 C 148.48,156.706 152.48,160.039 156.5,163.5C 157.466,165.396 157.799,167.396 157.5,169.5C 157.167,170.5 156.5,171.167 155.5,171.5C 155.857,167.336 154.19,164.169 150.5,162C 146.855,160.022 143.021,158.522 139,157.5C 137.189,158.078 135.355,158.578 133.5,159C 124.684,166.706 117.35,175.539 111.5,185.5C 102.574,193.119 92.907,199.452 82.5,204.5C 73.1276,207.196 63.7942,209.862 54.5,212.5C 54.5743,210.589 55.5743,209.422 57.5,209C 64.1101,207.12 70.7767,205.454 77.5,204C 79.7582,203.124 81.7582,201.957 83.5,200.5C 85.1209,198.058 87.4542,196.725 90.5,196.5C 95.5095,195.659 99.5095,193.159 102.5,189C 107.333,188.167 110.167,185.333 111,180.5C 117.517,172.651 123.683,164.484 129.5,156C 134.154,153.688 139.154,152.854 144.5,153.5 Z"/></g>
<g><path style="opacity:1" fill="#a64b1e" d="M 155.5,171.5 C 154.167,173.167 152.833,174.833 151.5,176.5C 149.167,178.5 146.833,180.5 144.5,182.5C 143.209,182.737 142.209,182.404 141.5,181.5C 144.167,180.167 146.167,178.167 147.5,175.5C 149.068,173.869 150.401,172.036 151.5,170C 151.167,169.167 150.833,168.333 150.5,167.5C 146.032,164.829 141.199,162.829 136,161.5C 130.54,166.967 125.373,172.8 120.5,179C 117.603,181.41 114.603,183.577 111.5,185.5C 117.35,175.539 124.684,166.706 133.5,159C 135.355,158.578 137.189,158.078 139,157.5C 143.021,158.522 146.855,160.022 150.5,162C 154.19,164.169 155.857,167.336 155.5,171.5 Z"/></g>
<g><path style="opacity:1" fill="#6e6154" d="M 184.5,176.5 C 183.5,177.833 182.5,179.167 181.5,180.5C 180.833,180.833 180.167,181.167 179.5,181.5C 179.585,180.005 178.919,179.005 177.5,178.5C 177.906,180.374 177.072,182.04 175,183.5C 173.686,182.687 172.519,181.687 171.5,180.5C 167.262,185.223 163.262,189.389 159.5,193C 158.295,194.376 156.962,195.542 155.5,196.5C 153.852,195.19 152.186,193.857 150.5,192.5C 149.186,193.313 148.019,194.313 147,195.5C 148.237,192.224 150.403,189.391 153.5,187C 153,186.5 152.5,186 152,185.5C 150.629,187.041 149.129,188.375 147.5,189.5C 147.5,189.167 147.5,188.833 147.5,188.5C 148.925,187.078 149.925,185.411 150.5,183.5C 150.33,182.178 150.663,181.011 151.5,180C 153.167,180.333 154.833,180.667 156.5,181C 159.833,177.667 163.167,174.333 166.5,171C 167.448,170.517 168.448,170.351 169.5,170.5C 172.297,170.033 173.631,168.367 173.5,165.5C 174.389,163.264 175.722,161.264 177.5,159.5C 177.023,158.522 176.357,157.689 175.5,157C 177.856,152.714 180.356,152.547 183,156.5C 182.599,159.101 181.099,161.101 178.5,162.5C 180.65,164.149 182.65,165.982 184.5,168C 182.457,170.009 180.457,172.009 178.5,174C 180.628,174.655 182.628,175.489 184.5,176.5 Z"/></g>
<g><path style="opacity:1" fill="#9a9995" d="M 118.5,144.5 C 118.167,145.167 117.833,145.833 117.5,146.5C 115.113,148.913 112.946,151.58 111,154.5C 107.2,163.276 102.033,171.11 95.5,178C 84.1574,184.004 72.1574,188.171 59.5,190.5C 71.3418,186.684 83.0084,182.184 94.5,177C 97.9327,173.958 100.766,170.458 103,166.5C 106.414,160.003 110.081,153.67 114,147.5C 115.129,145.859 116.629,144.859 118.5,144.5 Z"/></g>
<g><path style="opacity:1" fill="#771a0e" d="M 144.5,153.5 C 139.154,152.854 134.154,153.688 129.5,156C 123.683,164.484 117.517,172.651 111,180.5C 110.167,185.333 107.333,188.167 102.5,189C 99.5095,193.159 95.5095,195.659 90.5,196.5C 95.1617,194.038 99.495,190.871 103.5,187C 106.087,184.919 108.087,182.419 109.5,179.5C 115.677,171.783 120.843,163.45 125,154.5C 127.007,153.331 129.173,152.665 131.5,152.5C 133.848,152.33 136.182,151.997 138.5,151.5C 140.799,151.599 142.799,152.266 144.5,153.5 Z"/></g>
<g><path style="opacity:1" fill="#7e7c79" d="M 189.5,172.5 C 197.597,179.34 203.763,187.673 208,197.5C 210.706,206.025 209.706,214.025 205,221.5C 195.801,230.521 185.301,237.687 173.5,243C 170.631,246.038 167.631,248.871 164.5,251.5C 166.557,247.933 169.223,244.766 172.5,242C 184.301,236.687 194.801,229.521 204,220.5C 210.492,208.912 209.492,197.912 201,187.5C 197.167,183 193.333,178.5 189.5,174C 187.565,174.058 185.898,174.891 184.5,176.5C 183.71,175.206 182.71,174.039 181.5,173C 182.5,172 183.5,171 184.5,170C 186.435,170.058 188.102,170.891 189.5,172.5 Z"/></g>
<g><path style="opacity:1" fill="#9a9a95" d="M 59.5,190.5 C 41.6389,196.26 26.6389,206.26 14.5,220.5C 14.1667,220.5 13.8333,220.5 13.5,220.5C 18.6206,212.548 25.2873,206.048 33.5,201C 41.6364,196.095 50.303,192.595 59.5,190.5 Z"/></g>
<g><path style="opacity:1" fill="#0c0508" d="M 117.5,146.5 C 117.66,148.199 117.494,149.866 117,151.5C 114.982,153.35 113.149,155.35 111.5,157.5C 110.146,163.178 108.146,167.845 105.5,171.5C 101.988,175.511 98.3213,179.345 94.5,183C 88.541,186.178 82.8743,189.678 77.5,193.5C 77.3893,194.117 77.056,194.617 76.5,195C 70.7922,196.177 65.1255,197.51 59.5,199C 58.8333,200 58.1667,201 57.5,202C 51.7415,203.265 46.4082,205.432 41.5,208.5C 33.6512,209.761 27.3179,213.594 22.5,220C 20.541,227.151 17.7076,234.317 14,241.5C 13.0751,255.123 15.9084,267.789 22.5,279.5C 26.1884,283.588 29.5217,287.921 32.5,292.5C 36.5308,295.541 40.5308,298.541 44.5,301.5C 49.449,308.715 55.1157,315.548 61.5,322C 62.8333,322.667 64.1667,323.333 65.5,324C 65.1667,324.333 64.8333,324.667 64.5,325C 68.1261,325.278 70.1261,327.112 70.5,330.5C 75.6282,332.702 80.6282,334.535 85.5,336C 90.2834,337.223 94.9501,337.723 99.5,337.5C 99.5,336.5 99.5,335.5 99.5,334.5C 105.402,332.651 111.402,330.984 117.5,329.5C 120.975,327.203 123.475,324.203 125,320.5C 127.727,317.269 130.894,314.603 134.5,312.5C 141.703,300.553 145.703,287.553 146.5,273.5C 147.551,270.344 147.551,267.344 146.5,264.5C 147.54,261.294 149.707,259.294 153,258.5C 156.793,252.569 160.293,246.569 163.5,240.5C 171.229,235.627 179.562,231.794 188.5,229C 198.923,221.834 202.923,212 200.5,199.5C 199.178,199.67 198.011,199.337 197,198.5C 196.014,196.222 195.18,193.889 194.5,191.5C 194.043,190.702 193.376,190.369 192.5,190.5C 190.665,187.816 188.998,184.983 187.5,182C 185.292,181.809 183.292,181.309 181.5,180.5C 182.5,179.167 183.5,177.833 184.5,176.5C 185.898,174.891 187.565,174.058 189.5,174C 193.333,178.5 197.167,183 201,187.5C 209.492,197.912 210.492,208.912 204,220.5C 194.801,229.521 184.301,236.687 172.5,242C 169.223,244.766 166.557,247.933 164.5,251.5C 162.206,254.37 160.872,257.703 160.5,261.5C 160.443,262.609 160.11,263.609 159.5,264.5C 157.96,266.838 157.294,269.505 157.5,272.5C 156.331,275.341 155.331,278.341 154.5,281.5C 153.076,283.515 152.41,285.848 152.5,288.5C 149.853,294.757 147.186,301.09 144.5,307.5C 142.75,308.659 141.75,310.326 141.5,312.5C 139.738,313.262 138.738,314.596 138.5,316.5C 135.608,319.271 132.942,322.271 130.5,325.5C 123.115,331.53 114.782,336.03 105.5,339C 92.6168,342.362 80.6168,340.362 69.5,333C 65.5,330.333 61.5,327.667 57.5,325C 45.9946,314.328 34.6613,303.494 23.5,292.5C 21.3115,288.793 18.6448,285.46 15.5,282.5C 15.573,280.973 14.9063,279.973 13.5,279.5C 1.18686,259.556 1.52019,239.89 14.5,220.5C 26.6389,206.26 41.6389,196.26 59.5,190.5C 72.1574,188.171 84.1574,184.004 95.5,178C 102.033,171.11 107.2,163.276 111,154.5C 112.946,151.58 115.113,148.913 117.5,146.5 Z"/></g>
<g><path style="opacity:1" fill="#350705" d="M 181.5,180.5 C 183.292,181.309 185.292,181.809 187.5,182C 188.998,184.983 190.665,187.816 192.5,190.5C 193.698,193.937 195.198,197.27 197,200.5C 197.696,204.905 197.363,209.239 196,213.5C 191.646,220.194 185.812,225.027 178.5,228C 174.833,231 171.167,234 167.5,237C 166.552,237.483 165.552,237.649 164.5,237.5C 164.294,234.505 164.96,231.838 166.5,229.5C 166.351,230.552 166.517,231.552 167,232.5C 171.372,229.55 175.872,226.884 180.5,224.5C 186.318,222.521 190.818,218.855 194,213.5C 194.667,208.5 194.667,203.5 194,198.5C 193.34,196.676 192.173,195.343 190.5,194.5C 190.657,193.127 190.49,191.793 190,190.5C 188.235,187.984 186.402,185.484 184.5,183C 182.402,182.322 180.402,182.489 178.5,183.5C 178.328,182.508 178.662,181.842 179.5,181.5C 180.167,181.167 180.833,180.833 181.5,180.5 Z"/></g>
<g><path style="opacity:1" fill="#a49a81" d="M 158.5,215.5 C 156.075,225.408 149.741,231.242 139.5,233C 135.848,233.499 132.182,233.665 128.5,233.5C 128.218,232.222 127.551,231.222 126.5,230.5C 141.366,234.064 152.033,229.064 158.5,215.5 Z"/></g>
<g><path style="opacity:1" fill="#c37a2d" d="M 108.5,209.5 C 108.704,212.518 109.037,215.518 109.5,218.5C 101.86,225.473 94.5271,232.806 87.5,240.5C 87.1667,240.5 86.8333,240.5 86.5,240.5C 85.8333,239.167 84.8333,238.167 83.5,237.5C 82.5,235.833 81.1667,234.5 79.5,233.5C 79.5,233.167 79.5,232.833 79.5,232.5C 78.0514,229.062 79.2181,226.729 83,225.5C 84.487,226.253 84.6537,227.086 83.5,228C 86.9431,228.221 87.2764,229.221 84.5,231C 85.4162,231.374 86.2496,231.874 87,232.5C 88,230.833 89,229.167 90,227.5C 90.2492,228.624 90.7492,229.624 91.5,230.5C 94.9675,226.531 98.6341,222.698 102.5,219C 101.833,218.667 101.167,218.333 100.5,218C 102.421,217.64 104.088,216.806 105.5,215.5C 106.136,213.22 107.136,211.22 108.5,209.5 Z"/></g>
<g><path style="opacity:1" fill="#b47c38" d="M 144.5,187.5 C 145.391,188.11 146.391,188.443 147.5,188.5C 147.5,188.833 147.5,189.167 147.5,189.5C 147.44,190.043 147.107,190.376 146.5,190.5C 140.476,187.191 134.476,186.858 128.5,189.5C 123.559,191.442 119.892,194.775 117.5,199.5C 116.655,200.671 115.989,202.005 115.5,203.5C 115.5,206.5 115.5,209.5 115.5,212.5C 115.328,213.492 115.662,214.158 116.5,214.5C 116.263,215.791 116.596,216.791 117.5,217.5C 117.5,217.833 117.5,218.167 117.5,218.5C 117.833,219.167 118.167,219.833 118.5,220.5C 118.833,221.5 119.5,222.167 120.5,222.5C 121.891,224.89 123.891,226.557 126.5,227.5C 126.833,227.5 127.167,227.5 127.5,227.5C 127.918,228.222 128.584,228.722 129.5,229C 133.152,229.499 136.818,229.665 140.5,229.5C 141.71,229.068 142.71,228.401 143.5,227.5C 150.002,225.51 154.002,221.177 155.5,214.5C 156.35,208.75 156.35,203.083 155.5,197.5C 155.5,198.167 155.833,198.5 156.5,198.5C 156.833,199.167 157.167,199.833 157.5,200.5C 158.392,205.438 158.726,210.438 158.5,215.5C 152.033,229.064 141.366,234.064 126.5,230.5C 114.612,223.345 110.779,213.011 115,199.5C 121.679,187.573 131.512,183.573 144.5,187.5 Z"/></g>
<g><path style="opacity:1" fill="#37200f" d="M 140.5,229.5 C 136.818,229.665 133.152,229.499 129.5,229C 128.584,228.722 127.918,228.222 127.5,227.5C 129.797,225.706 131.963,223.706 134,221.5C 134.692,222.025 135.192,222.692 135.5,223.5C 130.347,229.511 130.847,229.844 137,224.5C 138.802,225.789 139.969,227.456 140.5,229.5 Z"/></g>
<g><path style="opacity:1" fill="#ad5922" d="M 100.5,199.5 C 96.2714,202.225 92.4381,205.559 89,209.5C 88.6667,208.833 88.3333,208.167 88,207.5C 83.7839,209.907 79.2839,211.741 74.5,213C 75.448,213.483 76.448,213.649 77.5,213.5C 77.719,214.675 77.3857,215.675 76.5,216.5C 74.2087,218.123 72.2087,219.957 70.5,222C 70.9567,223.94 71.9567,225.44 73.5,226.5C 72.448,226.351 71.448,226.517 70.5,227C 68.2968,229.372 65.9635,231.539 63.5,233.5C 62.5028,233.53 61.8361,233.03 61.5,232C 64.1809,229.362 64.6809,226.529 63,223.5C 61.3333,224.833 59.6667,226.167 58,227.5C 57.0853,226.672 56.4186,225.672 56,224.5C 55.6667,225.5 55.3333,226.5 55,227.5C 54,227.5 53,227.5 52,227.5C 50.5263,230.296 48.6929,232.796 46.5,235C 46.9574,235.414 47.2907,235.914 47.5,236.5C 47.1355,238.733 46.1355,240.566 44.5,242C 44.8333,242.333 45.1667,242.667 45.5,243C 43.8171,245.014 41.8171,246.68 39.5,248C 40.0585,248.725 40.3918,249.558 40.5,250.5C 39.7515,252.036 38.7515,253.369 37.5,254.5C 38.1152,256.116 39.1152,257.449 40.5,258.5C 38.7401,262.527 39.2401,266.527 42,270.5C 42.3333,270.167 42.6667,269.833 43,269.5C 43.7817,274.364 45.615,278.698 48.5,282.5C 44.7748,281.739 42.9415,279.406 43,275.5C 41.6403,272.977 39.807,270.977 37.5,269.5C 36.5393,264.744 34.8727,260.244 32.5,256C 32.5866,253.87 32.5866,251.703 32.5,249.5C 33.1667,248.5 33.8333,247.5 34.5,246.5C 33.2375,243.72 34.2375,242.054 37.5,241.5C 38.876,237.954 40.876,234.787 43.5,232C 40.7124,229.626 41.0458,228.293 44.5,228C 45.7717,226.693 46.7717,225.193 47.5,223.5C 58.2478,219.462 68.2478,214.628 77.5,209C 83.6952,208.157 89.0285,205.49 93.5,201C 95.74,200.023 98.0733,199.523 100.5,199.5 Z"/></g>
<g><path style="opacity:1" fill="#5b4028" d="M 155.5,214.5 C 154.002,221.177 150.002,225.51 143.5,227.5C 142.542,226.038 141.376,224.705 140,223.5C 141.585,217.962 145.418,215.462 151.5,216C 152.844,214.447 154.177,213.947 155.5,214.5 Z"/></g>
<g><path style="opacity:1" fill="#a34b1e" d="M 111.5,185.5 C 108.487,190.797 104.821,195.463 100.5,199.5C 98.0733,199.523 95.74,200.023 93.5,201C 89.0285,205.49 83.6952,208.157 77.5,209C 68.2478,214.628 58.2478,219.462 47.5,223.5C 46.7717,225.193 45.7717,226.693 44.5,228C 41.0458,228.293 40.7124,229.626 43.5,232C 40.876,234.787 38.876,237.954 37.5,241.5C 34.2375,242.054 33.2375,243.72 34.5,246.5C 33.8333,247.5 33.1667,248.5 32.5,249.5C 32.5866,251.703 32.5866,253.87 32.5,256C 34.8727,260.244 36.5393,264.744 37.5,269.5C 35.6863,267.236 33.853,264.903 32,262.5C 30.7724,259.402 29.6057,256.402 28.5,253.5C 28.5,253.167 28.5,252.833 28.5,252.5C 29.8236,249.864 29.8236,247.198 28.5,244.5C 33.0236,238.987 36.6903,232.987 39.5,226.5C 43.0236,223.813 46.6903,221.313 50.5,219C 58.3142,217.423 65.3142,214.256 71.5,209.5C 75.5563,208.384 79.223,206.717 82.5,204.5C 92.907,199.452 102.574,193.119 111.5,185.5 Z"/></g>
<g><path style="opacity:1" fill="#46301c" d="M 126.5,227.5 C 123.891,226.557 121.891,224.89 120.5,222.5C 123.963,218.536 127.63,214.702 131.5,211C 132.725,210.437 133.725,210.77 134.5,212C 133.289,212.893 133.289,213.726 134.5,214.5C 135.345,212.238 136.678,211.571 138.5,212.5C 138.676,215.079 137.343,217.079 134.5,218.5C 133.281,217.737 132.281,216.737 131.5,215.5C 130.914,215.709 130.414,216.043 130,216.5C 130.152,218.076 130.985,219.409 132.5,220.5C 130.477,222.853 128.477,225.186 126.5,227.5 Z"/></g>
<g><path style="opacity:1" fill="#bf712a" d="M 109.5,200.5 C 108.841,203.455 108.508,206.455 108.5,209.5C 107.136,211.22 106.136,213.22 105.5,215.5C 104.088,216.806 102.421,217.64 100.5,218C 101.167,218.333 101.833,218.667 102.5,219C 98.6341,222.698 94.9675,226.531 91.5,230.5C 90.7492,229.624 90.2492,228.624 90,227.5C 89,229.167 88,230.833 87,232.5C 86.2496,231.874 85.4162,231.374 84.5,231C 87.2764,229.221 86.9431,228.221 83.5,228C 84.6537,227.086 84.487,226.253 83,225.5C 79.2181,226.729 78.0514,229.062 79.5,232.5C 77.8333,231.5 76.5,230.167 75.5,228.5C 75.4606,227.417 75.1272,226.417 74.5,225.5C 78.3605,224.402 78.3605,223.569 74.5,223C 79.1595,222.183 83.8262,220.516 88.5,218C 88.1667,217.667 87.8333,217.333 87.5,217C 89.3333,215.833 90.8333,214.333 92,212.5C 92.3333,212.833 92.6667,213.167 93,213.5C 93.4828,212.552 93.6495,211.552 93.5,210.5C 96.6272,208.242 99.9606,206.075 103.5,204C 104.748,200.887 106.748,199.72 109.5,200.5 Z"/></g>
<g><path style="opacity:1" fill="#160204" d="M 192.5,190.5 C 193.376,190.369 194.043,190.702 194.5,191.5C 195.18,193.889 196.014,196.222 197,198.5C 198.011,199.337 199.178,199.67 200.5,199.5C 202.923,212 198.923,221.834 188.5,229C 179.562,231.794 171.229,235.627 163.5,240.5C 163.557,239.391 163.89,238.391 164.5,237.5C 165.552,237.649 166.552,237.483 167.5,237C 171.167,234 174.833,231 178.5,228C 185.812,225.027 191.646,220.194 196,213.5C 197.363,209.239 197.696,204.905 197,200.5C 195.198,197.27 193.698,193.937 192.5,190.5 Z"/></g>
<g><path style="opacity:1" fill="#311d0d" d="M 118.5,220.5 C 118.167,219.833 117.833,219.167 117.5,218.5C 119.63,216.873 121.63,215.04 123.5,213C 124.725,212.437 125.725,212.77 126.5,214C 124.229,216.782 121.563,218.949 118.5,220.5 Z"/></g>
<g><path style="opacity:1" fill="#4d0b06" d="M 190.5,194.5 C 192.173,195.343 193.34,196.676 194,198.5C 194.667,203.5 194.667,208.5 194,213.5C 190.818,218.855 186.318,222.521 180.5,224.5C 184.68,221.255 188.513,217.588 192,213.5C 192.494,211.866 192.66,210.199 192.5,208.5C 192.779,203.673 192.113,199.007 190.5,194.5 Z"/></g>
<g><path style="opacity:1" fill="#63130b" d="M 192.5,208.5 C 192.66,210.199 192.494,211.866 192,213.5C 188.513,217.588 184.68,221.255 180.5,224.5C 175.872,226.884 171.372,229.55 167,232.5C 166.517,231.552 166.351,230.552 166.5,229.5C 166.19,226.287 166.523,223.287 167.5,220.5C 167.5,221.5 167.5,222.5 167.5,223.5C 167.5,224.833 167.5,226.167 167.5,227.5C 167.369,228.376 167.702,229.043 168.5,229.5C 170.39,227.422 172.724,226.089 175.5,225.5C 177.64,222.023 180.64,219.689 184.5,218.5C 186.237,214.326 188.903,210.993 192.5,208.5 Z"/></g>
<g><path style="opacity:1" fill="#331d0d" d="M 121.5,209.5 C 122.289,209.783 122.956,210.283 123.5,211C 121.294,213.037 119.294,215.203 117.5,217.5C 116.596,216.791 116.263,215.791 116.5,214.5C 117.833,212.5 119.5,210.833 121.5,209.5 Z"/></g>
<g><path style="opacity:1" fill="#a9481e" d="M 179.5,188.5 C 181.067,191.967 182.901,195.3 185,198.5C 186.055,203.687 185.222,208.52 182.5,213C 178.843,215.658 175.509,218.658 172.5,222C 170.975,223.009 169.308,223.509 167.5,223.5C 167.5,222.5 167.5,221.5 167.5,220.5C 181.176,215.477 185.343,206.144 180,192.5C 177.807,191.227 175.64,190.894 173.5,191.5C 172.702,191.043 172.369,190.376 172.5,189.5C 174.806,189.007 177.139,188.674 179.5,188.5 Z"/></g>
<g><path style="opacity:1" fill="#9a3b19" d="M 82.5,204.5 C 79.223,206.717 75.5563,208.384 71.5,209.5C 65.3142,214.256 58.3142,217.423 50.5,219C 46.6903,221.313 43.0236,223.813 39.5,226.5C 36.6903,232.987 33.0236,238.987 28.5,244.5C 29.8236,247.198 29.8236,249.864 28.5,252.5C 27.5206,249.375 27.1872,246.042 27.5,242.5C 30.6366,235.989 34.3032,229.656 38.5,223.5C 39.7287,222.719 41.062,222.219 42.5,222C 46.7514,219.055 50.7514,215.888 54.5,212.5C 63.7942,209.862 73.1276,207.196 82.5,204.5 Z"/></g>
<g><path style="opacity:1" fill="#a49980" d="M 157.5,200.5 C 158.492,200.328 159.158,200.662 159.5,201.5C 160.029,203.783 160.363,206.117 160.5,208.5C 160.684,211.205 160.017,213.538 158.5,215.5C 158.726,210.438 158.392,205.438 157.5,200.5 Z"/></g>
<g><path style="opacity:1" fill="#b56526" d="M 113.5,192.5 C 112.134,195.232 110.801,197.899 109.5,200.5C 106.748,199.72 104.748,200.887 103.5,204C 99.9606,206.075 96.6272,208.242 93.5,210.5C 93.6495,211.552 93.4828,212.552 93,213.5C 92.6667,213.167 92.3333,212.833 92,212.5C 90.8333,214.333 89.3333,215.833 87.5,217C 87.8333,217.333 88.1667,217.667 88.5,218C 83.8262,220.516 79.1595,222.183 74.5,223C 78.3605,223.569 78.3605,224.402 74.5,225.5C 75.1272,226.417 75.4606,227.417 75.5,228.5C 74.5,228.167 73.8333,227.5 73.5,226.5C 71.9567,225.44 70.9567,223.94 70.5,222C 72.2087,219.957 74.2087,218.123 76.5,216.5C 77.3857,215.675 77.719,214.675 77.5,213.5C 76.448,213.649 75.448,213.483 74.5,213C 79.2839,211.741 83.7839,209.907 88,207.5C 88.3333,208.167 88.6667,208.833 89,209.5C 92.4381,205.559 96.2714,202.225 100.5,199.5C 101.833,199.5 103.167,199.5 104.5,199.5C 104.351,198.448 104.517,197.448 105,196.5C 106.667,195.5 108.333,194.5 110,193.5C 110.292,189.968 111.458,189.635 113.5,192.5 Z"/></g>
<g><path style="opacity:1" fill="#73190d" d="M 83.5,200.5 C 81.7582,201.957 79.7582,203.124 77.5,204C 70.7767,205.454 64.1101,207.12 57.5,209C 55.5743,209.422 54.5743,210.589 54.5,212.5C 47.4716,214.847 40.8049,218.014 34.5,222C 30.5244,225.134 27.5244,228.967 25.5,233.5C 25.9517,228.876 27.9517,225.042 31.5,222C 36.2689,218.897 41.2689,216.231 46.5,214C 48.8333,212 51.1667,210 53.5,208C 63.6416,205.94 73.6416,203.44 83.5,200.5 Z"/></g>
<g><path style="opacity:1" fill="#331d0d" d="M 115.5,203.5 C 117.296,204.793 118.963,206.293 120.5,208C 118.963,209.707 117.296,211.207 115.5,212.5C 115.5,209.5 115.5,206.5 115.5,203.5 Z"/></g>
<g><path style="opacity:1" fill="#af5a24" d="M 172.5,189.5 C 172.369,190.376 172.702,191.043 173.5,191.5C 175.64,190.894 177.807,191.227 180,192.5C 185.343,206.144 181.176,215.477 167.5,220.5C 167.5,216.5 167.5,212.5 167.5,208.5C 168.319,211.305 168.819,214.305 169,217.5C 171.305,212.88 173.971,208.546 177,204.5C 177.667,201.5 177.667,198.5 177,195.5C 176.481,194.484 175.647,193.818 174.5,193.5C 169.095,193.571 166.429,196.238 166.5,201.5C 165.833,200.5 165.167,199.5 164.5,198.5C 164.5,198.167 164.5,197.833 164.5,197.5C 166.833,194.5 169.5,191.833 172.5,189.5 Z"/></g>
<g><path style="opacity:1" fill="#831e10" d="M 176.5,185.5 C 178.857,185.337 181.19,185.503 183.5,186C 185.698,189.023 188.031,191.856 190.5,194.5C 192.113,199.007 192.779,203.673 192.5,208.5C 188.903,210.993 186.237,214.326 184.5,218.5C 180.64,219.689 177.64,222.023 175.5,225.5C 172.724,226.089 170.39,227.422 168.5,229.5C 167.702,229.043 167.369,228.376 167.5,227.5C 172.199,223.475 177.199,219.808 182.5,216.5C 189.051,207.534 189.051,198.534 182.5,189.5C 181.583,188.873 180.583,188.539 179.5,188.5C 177.139,188.674 174.806,189.007 172.5,189.5C 173.5,187.833 174.833,186.5 176.5,185.5 Z"/></g>
<g><path style="opacity:1" fill="#675135" d="M 155.5,196.5 C 155.5,196.833 155.5,197.167 155.5,197.5C 156.35,203.083 156.35,208.75 155.5,214.5C 154.177,213.947 152.844,214.447 151.5,216C 145.418,215.462 141.585,217.962 140,223.5C 141.376,224.705 142.542,226.038 143.5,227.5C 142.71,228.401 141.71,229.068 140.5,229.5C 139.969,227.456 138.802,225.789 137,224.5C 130.847,229.844 130.347,229.511 135.5,223.5C 135.192,222.692 134.692,222.025 134,221.5C 131.963,223.706 129.797,225.706 127.5,227.5C 127.167,227.5 126.833,227.5 126.5,227.5C 128.477,225.186 130.477,222.853 132.5,220.5C 130.985,219.409 130.152,218.076 130,216.5C 130.414,216.043 130.914,215.709 131.5,215.5C 132.281,216.737 133.281,217.737 134.5,218.5C 137.343,217.079 138.676,215.079 138.5,212.5C 136.678,211.571 135.345,212.238 134.5,214.5C 133.289,213.726 133.289,212.893 134.5,212C 133.725,210.77 132.725,210.437 131.5,211C 127.63,214.702 123.963,218.536 120.5,222.5C 119.5,222.167 118.833,221.5 118.5,220.5C 121.563,218.949 124.229,216.782 126.5,214C 125.725,212.77 124.725,212.437 123.5,213C 121.63,215.04 119.63,216.873 117.5,218.5C 117.5,218.167 117.5,217.833 117.5,217.5C 119.294,215.203 121.294,213.037 123.5,211C 122.956,210.283 122.289,209.783 121.5,209.5C 124.833,205.833 128.167,202.167 131.5,198.5C 131.367,195.104 130.367,194.771 128.5,197.5C 127.706,195.144 128.039,192.811 129.5,190.5C 129.376,189.893 129.043,189.56 128.5,189.5C 134.476,186.858 140.476,187.191 146.5,190.5C 147.107,190.376 147.44,190.043 147.5,189.5C 149.129,188.375 150.629,187.041 152,185.5C 152.5,186 153,186.5 153.5,187C 150.403,189.391 148.237,192.224 147,195.5C 148.019,194.313 149.186,193.313 150.5,192.5C 152.186,193.857 153.852,195.19 155.5,196.5 Z"/></g>
<g><path style="opacity:1" fill="#62120a" d="M 109.5,179.5 C 108.087,182.419 106.087,184.919 103.5,187C 99.495,190.871 95.1617,194.038 90.5,196.5C 87.4542,196.725 85.1209,198.058 83.5,200.5C 73.6416,203.44 63.6416,205.94 53.5,208C 51.1667,210 48.8333,212 46.5,214C 41.2689,216.231 36.2689,218.897 31.5,222C 27.9517,225.042 25.9517,228.876 25.5,233.5C 22.0458,242.433 21.5458,251.766 24,261.5C 26.7237,267.198 29.3904,272.865 32,278.5C 32.7083,279.381 33.5416,280.047 34.5,280.5C 36.1023,284.095 38.1023,287.429 40.5,290.5C 34.1988,287.369 30.3655,282.369 29,275.5C 27.7666,272.266 25.7666,269.599 23,267.5C 15.0535,250.208 17.5535,234.708 30.5,221C 36.005,218.506 40.6717,214.839 44.5,210C 58.765,205.134 73.0984,200.467 87.5,196C 89.9957,194.334 92.329,192.5 94.5,190.5C 95.552,190.649 96.552,190.483 97.5,190C 101.41,186.285 105.41,182.785 109.5,179.5 Z"/></g>
<g><path style="opacity:1" fill="#9c3317" d="M 179.5,188.5 C 180.583,188.539 181.583,188.873 182.5,189.5C 189.051,198.534 189.051,207.534 182.5,216.5C 177.199,219.808 172.199,223.475 167.5,227.5C 167.5,226.167 167.5,224.833 167.5,223.5C 169.308,223.509 170.975,223.009 172.5,222C 175.509,218.658 178.843,215.658 182.5,213C 185.222,208.52 186.055,203.687 185,198.5C 182.901,195.3 181.067,191.967 179.5,188.5 Z"/></g>
<g><path style="opacity:1" fill="#836c4f" d="M 131.5,198.5 C 128.167,202.167 124.833,205.833 121.5,209.5C 119.5,210.833 117.833,212.5 116.5,214.5C 115.662,214.158 115.328,213.492 115.5,212.5C 117.296,211.207 118.963,209.707 120.5,208C 118.963,206.293 117.296,204.793 115.5,203.5C 115.989,202.005 116.655,200.671 117.5,199.5C 118.396,202.069 120.062,204.069 122.5,205.5C 125.252,202.737 128.252,200.403 131.5,198.5 Z"/></g>
<g><path style="opacity:1" fill="#bb6827" d="M 167.5,208.5 C 167.552,206.097 167.219,203.764 166.5,201.5C 166.429,196.238 169.095,193.571 174.5,193.5C 175.647,193.818 176.481,194.484 177,195.5C 177.667,198.5 177.667,201.5 177,204.5C 173.971,208.546 171.305,212.88 169,217.5C 168.819,214.305 168.319,211.305 167.5,208.5 Z"/></g>
<g><path style="opacity:1" fill="#523821" d="M 128.5,189.5 C 129.043,189.56 129.376,189.893 129.5,190.5C 128.039,192.811 127.706,195.144 128.5,197.5C 130.367,194.771 131.367,195.104 131.5,198.5C 128.252,200.403 125.252,202.737 122.5,205.5C 120.062,204.069 118.396,202.069 117.5,199.5C 119.892,194.775 123.559,191.442 128.5,189.5 Z"/></g>
<g><path style="opacity:1" fill="#63564b" d="M 164.5,197.5 C 164.5,197.833 164.5,198.167 164.5,198.5C 162.851,199.473 161.184,200.473 159.5,201.5C 159.158,200.662 158.492,200.328 157.5,200.5C 157.167,199.833 156.833,199.167 156.5,198.5C 157.817,195.247 159.817,194.413 162.5,196C 162.167,196.333 161.833,196.667 161.5,197C 162.448,197.483 163.448,197.649 164.5,197.5 Z"/></g>
<g><path style="opacity:1" fill="#260505" d="M 99.5,183.5 C 96.4113,187.551 92.4113,190.384 87.5,192C 74.6429,196.807 61.6429,201.473 48.5,206C 45.6882,206.946 43.3548,208.613 41.5,211C 40.552,211.483 39.552,211.649 38.5,211.5C 39.6935,210.728 40.6935,209.728 41.5,208.5C 46.4082,205.432 51.7415,203.265 57.5,202C 58.1667,201 58.8333,200 59.5,199C 65.1255,197.51 70.7922,196.177 76.5,195C 77.056,194.617 77.3893,194.117 77.5,193.5C 85.4673,191.525 92.8006,188.192 99.5,183.5 Z"/></g>
<g><path style="opacity:1" fill="#aa7137" d="M 141.5,181.5 C 142.209,182.404 143.209,182.737 144.5,182.5C 143.89,183.391 143.557,184.391 143.5,185.5C 125.032,182.3 114.366,189.967 111.5,208.5C 111.703,211.197 112.036,213.864 112.5,216.5C 111.5,217.167 110.5,217.833 109.5,218.5C 109.037,215.518 108.704,212.518 108.5,209.5C 108.508,206.455 108.841,203.455 109.5,200.5C 110.801,197.899 112.134,195.232 113.5,192.5C 115.167,191.5 116.5,190.167 117.5,188.5C 124.219,182.159 132.219,179.826 141.5,181.5 Z"/></g>
<g><path style="opacity:1" fill="#4f0c07" d="M 190.5,194.5 C 188.031,191.856 185.698,189.023 183.5,186C 181.19,185.503 178.857,185.337 176.5,185.5C 176.833,184.5 177.5,183.833 178.5,183.5C 180.402,182.489 182.402,182.322 184.5,183C 186.402,185.484 188.235,187.984 190,190.5C 190.49,191.793 190.657,193.127 190.5,194.5 Z"/></g>
<g><path style="opacity:1" fill="#827366" d="M 179.5,181.5 C 178.662,181.842 178.328,182.508 178.5,183.5C 177.5,183.833 176.833,184.5 176.5,185.5C 174.833,186.5 173.5,187.833 172.5,189.5C 169.5,191.833 166.833,194.5 164.5,197.5C 163.448,197.649 162.448,197.483 161.5,197C 161.833,196.667 162.167,196.333 162.5,196C 159.817,194.413 157.817,195.247 156.5,198.5C 155.833,198.5 155.5,198.167 155.5,197.5C 155.5,197.167 155.5,196.833 155.5,196.5C 156.962,195.542 158.295,194.376 159.5,193C 163.262,189.389 167.262,185.223 171.5,180.5C 172.519,181.687 173.686,182.687 175,183.5C 177.072,182.04 177.906,180.374 177.5,178.5C 178.919,179.005 179.585,180.005 179.5,181.5 Z"/></g>
<g><path style="opacity:1" fill="#390805" d="M 109.5,173.5 C 105.901,180.431 100.901,186.097 94.5,190.5C 92.329,192.5 89.9957,194.334 87.5,196C 73.0984,200.467 58.765,205.134 44.5,210C 40.6717,214.839 36.005,218.506 30.5,221C 17.5535,234.708 15.0535,250.208 23,267.5C 25.7666,269.599 27.7666,272.266 29,275.5C 30.3655,282.369 34.1988,287.369 40.5,290.5C 40.0882,292.973 41.0882,294.306 43.5,294.5C 44.6401,296.78 45.8068,299.114 47,301.5C 52.3362,305.67 57.1696,310.337 61.5,315.5C 55.8525,310.857 50.1858,306.19 44.5,301.5C 38.1124,294.418 31.9458,287.084 26,279.5C 22.5452,272.017 19.5452,264.35 17,256.5C 14.6542,240.469 19.4875,227.136 31.5,216.5C 33.3853,215.391 35.3853,214.557 37.5,214C 38.2524,213.329 38.5858,212.496 38.5,211.5C 39.552,211.649 40.552,211.483 41.5,211C 43.3548,208.613 45.6882,206.946 48.5,206C 61.6429,201.473 74.6429,196.807 87.5,192C 92.4113,190.384 96.4113,187.551 99.5,183.5C 101.882,179.118 105.216,175.784 109.5,173.5 Z"/></g>
<g><path style="opacity:1" fill="#473c33" d="M 150.5,183.5 C 149.925,185.411 148.925,187.078 147.5,188.5C 146.391,188.443 145.391,188.11 144.5,187.5C 144.5,187.167 144.5,186.833 144.5,186.5C 146.129,185.375 147.629,184.041 149,182.5C 149.383,183.056 149.883,183.389 150.5,183.5 Z"/></g>
<g><path style="opacity:1" fill="#c0aa83" d="M 143.5,185.5 C 144.167,185.5 144.5,185.833 144.5,186.5C 144.5,186.833 144.5,187.167 144.5,187.5C 131.512,183.573 121.679,187.573 115,199.5C 110.779,213.011 114.612,223.345 126.5,230.5C 119.557,228.224 114.891,223.558 112.5,216.5C 112.036,213.864 111.703,211.197 111.5,208.5C 114.366,189.967 125.032,182.3 143.5,185.5 Z"/></g>
<g><path style="opacity:1" fill="#4f4339" d="M 157.5,175.5 C 158.706,176.88 158.373,178.047 156.5,179C 155.275,179.563 154.275,179.23 153.5,178C 154.471,176.519 155.804,175.685 157.5,175.5 Z"/></g>
<g><path style="opacity:1" fill="#842311" d="M 54.5,212.5 C 50.7514,215.888 46.7514,219.055 42.5,222C 41.062,222.219 39.7287,222.719 38.5,223.5C 34.3032,229.656 30.6366,235.989 27.5,242.5C 26.1952,244.397 25.5286,246.731 25.5,249.5C 25.6717,254.202 26.1717,258.868 27,263.5C 29.6135,269.195 32.1135,274.862 34.5,280.5C 33.5416,280.047 32.7083,279.381 32,278.5C 29.3904,272.865 26.7237,267.198 24,261.5C 21.5458,251.766 22.0458,242.433 25.5,233.5C 27.5244,228.967 30.5244,225.134 34.5,222C 40.8049,218.014 47.4716,214.847 54.5,212.5 Z"/></g>
<g><path style="opacity:1" fill="#b56226" d="M 63.5,233.5 C 66.1667,236.833 69.1667,239.833 72.5,242.5C 72.427,244.027 73.0937,245.027 74.5,245.5C 76.5958,248.262 78.2625,251.262 79.5,254.5C 76.7455,253.656 74.0788,252.656 71.5,251.5C 71.7373,250.209 71.404,249.209 70.5,248.5C 69.5041,248.414 68.6708,248.748 68,249.5C 67.3828,248.551 67.5494,247.718 68.5,247C 61.7697,242.249 56.2697,243.082 52,249.5C 49.4575,248.124 49.2908,246.957 51.5,246C 50.1667,245.333 50.1667,244.667 51.5,244C 48.8758,241.641 48.2092,241.975 49.5,245C 45.8258,248.342 42.4925,252.008 39.5,256C 41.2909,256.415 42.6243,257.415 43.5,259C 42.4086,261.064 42.2419,263.231 43,265.5C 43.3333,265.167 43.6667,264.833 44,264.5C 46.2014,266.366 46.7014,268.532 45.5,271C 47.4836,276.642 50.6503,281.476 55,285.5C 56.6179,289.661 58.4513,293.661 60.5,297.5C 56.3292,295.487 53.8292,292.153 53,287.5C 51.2417,285.917 49.7417,284.25 48.5,282.5C 45.615,278.698 43.7817,274.364 43,269.5C 42.6667,269.833 42.3333,270.167 42,270.5C 39.2401,266.527 38.7401,262.527 40.5,258.5C 39.1152,257.449 38.1152,256.116 37.5,254.5C 38.7515,253.369 39.7515,252.036 40.5,250.5C 40.3918,249.558 40.0585,248.725 39.5,248C 41.8171,246.68 43.8171,245.014 45.5,243C 45.1667,242.667 44.8333,242.333 44.5,242C 46.1355,240.566 47.1355,238.733 47.5,236.5C 47.2907,235.914 46.9574,235.414 46.5,235C 48.6929,232.796 50.5263,230.296 52,227.5C 53,227.5 54,227.5 55,227.5C 55.3333,226.5 55.6667,225.5 56,224.5C 56.4186,225.672 57.0853,226.672 58,227.5C 59.6667,226.167 61.3333,224.833 63,223.5C 64.6809,226.529 64.1809,229.362 61.5,232C 61.8361,233.03 62.5028,233.53 63.5,233.5 Z"/></g>
<g><path style="opacity:1" fill="#211a17" d="M 73.5,226.5 C 73.8333,227.5 74.5,228.167 75.5,228.5C 76.5,230.167 77.8333,231.5 79.5,232.5C 79.5,232.833 79.5,233.167 79.5,233.5C 76.7606,236.233 74.4273,239.233 72.5,242.5C 69.1667,239.833 66.1667,236.833 63.5,233.5C 65.9635,231.539 68.2968,229.372 70.5,227C 71.448,226.517 72.448,226.351 73.5,226.5 Z"/></g>
<g><path style="opacity:1" fill="#151311" d="M 164.5,198.5 C 165.167,199.5 165.833,200.5 166.5,201.5C 167.219,203.764 167.552,206.097 167.5,208.5C 167.5,212.5 167.5,216.5 167.5,220.5C 166.523,223.287 166.19,226.287 166.5,229.5C 164.96,231.838 164.294,234.505 164.5,237.5C 163.89,238.391 163.557,239.391 163.5,240.5C 160.293,246.569 156.793,252.569 153,258.5C 149.707,259.294 147.54,261.294 146.5,264.5C 145.508,264.328 144.842,264.662 144.5,265.5C 141.312,266.982 137.979,267.982 134.5,268.5C 133.508,268.328 132.842,268.662 132.5,269.5C 130.084,270.968 127.417,271.635 124.5,271.5C 115.331,267.174 111.331,259.841 112.5,249.5C 117.5,243.833 122.833,238.5 128.5,233.5C 132.182,233.665 135.848,233.499 139.5,233C 149.741,231.242 156.075,225.408 158.5,215.5C 160.017,213.538 160.684,211.205 160.5,208.5C 160.363,206.117 160.029,203.783 159.5,201.5C 161.184,200.473 162.851,199.473 164.5,198.5 Z"/></g>
<g><path style="opacity:1" fill="#c68a3a" d="M 112.5,216.5 C 114.891,223.558 119.557,228.224 126.5,230.5C 127.551,231.222 128.218,232.222 128.5,233.5C 122.833,238.5 117.5,243.833 112.5,249.5C 111.532,251.607 111.198,253.941 111.5,256.5C 110.448,256.351 109.448,256.517 108.5,257C 109.696,257.654 109.696,258.154 108.5,258.5C 107.272,256.824 105.939,256.491 104.5,257.5C 102.833,256.5 101.5,255.167 100.5,253.5C 107.297,246.202 114.297,239.035 121.5,232C 119.309,230.081 116.976,228.747 114.5,228C 107.965,234.703 101.298,241.203 94.5,247.5C 91.8333,245.5 89.5,243.167 87.5,240.5C 94.5271,232.806 101.86,225.473 109.5,218.5C 110.5,217.833 111.5,217.167 112.5,216.5 Z"/></g>
<g><path style="opacity:1" fill="#615c56" d="M 79.5,233.5 C 81.1667,234.5 82.5,235.833 83.5,237.5C 81.0676,238.75 78.7343,240.25 76.5,242C 75.1772,242.816 74.5106,243.983 74.5,245.5C 73.0937,245.027 72.427,244.027 72.5,242.5C 74.4273,239.233 76.7606,236.233 79.5,233.5 Z"/></g>
<g><path style="opacity:1" fill="#c68131" d="M 100.5,253.5 C 98.1667,251.833 96.1667,249.833 94.5,247.5C 101.298,241.203 107.965,234.703 114.5,228C 116.976,228.747 119.309,230.081 121.5,232C 114.297,239.035 107.297,246.202 100.5,253.5 Z"/></g>
<g><path style="opacity:1" fill="#c2bdb1" d="M 84.5,241.5 C 86.2194,243.544 87.8861,245.544 89.5,247.5C 87.629,247.141 86.129,246.141 85,244.5C 83.8118,245.563 83.3118,246.897 83.5,248.5C 78.5779,247.666 78.4112,246.332 83,244.5C 83,243.167 83,241.833 83,240.5C 83.3826,241.056 83.8826,241.389 84.5,241.5 Z"/></g>
<g><path style="opacity:1" fill="#7d7e7b" d="M 13.5,220.5 C 13.8333,220.5 14.1667,220.5 14.5,220.5C 1.52019,239.89 1.18686,259.556 13.5,279.5C 2.69094,265.269 0.190942,249.603 6,232.5C 7.77442,227.93 10.2744,223.93 13.5,220.5 Z"/></g>
<g><path style="opacity:1" fill="#bfbaac" d="M 89.5,247.5 C 94.8143,251.81 100.148,256.143 105.5,260.5C 105.103,261.525 104.437,261.692 103.5,261C 100.669,258.999 98.0026,256.833 95.5,254.5C 95.1667,253.5 94.5,252.833 93.5,252.5C 93.5,251.833 93.1667,251.5 92.5,251.5C 91.2112,250.363 90.2112,249.03 89.5,247.5 Z"/></g>
<g><path style="opacity:1" fill="#cdcdc9" d="M 83.5,248.5 C 84.5,248.5 85.5,248.5 86.5,248.5C 86.7148,250.179 86.0481,251.179 84.5,251.5C 83.596,250.791 83.2627,249.791 83.5,248.5 Z"/></g>
<g><path style="opacity:1" fill="#594732" d="M 86.5,240.5 C 86.8333,240.5 87.1667,240.5 87.5,240.5C 89.5,243.167 91.8333,245.5 94.5,247.5C 96.1667,249.833 98.1667,251.833 100.5,253.5C 101.5,255.167 102.833,256.5 104.5,257.5C 105.167,258.5 105.833,259.5 106.5,260.5C 106.167,260.5 105.833,260.5 105.5,260.5C 100.148,256.143 94.8143,251.81 89.5,247.5C 87.8861,245.544 86.2194,243.544 84.5,241.5C 85.4916,241.672 86.1583,241.338 86.5,240.5 Z"/></g>
<g><path style="opacity:1" fill="#959692" d="M 164.5,251.5 C 164.248,255.327 162.915,258.66 160.5,261.5C 160.872,257.703 162.206,254.37 164.5,251.5 Z"/></g>
<g><path style="opacity:1" fill="#4d4940" d="M 89.5,247.5 C 90.2112,249.03 91.2112,250.363 92.5,251.5C 90.9519,251.821 90.2852,252.821 90.5,254.5C 92.1788,254.715 93.1788,254.048 93.5,252.5C 94.5,252.833 95.1667,253.5 95.5,254.5C 94.8333,254.833 94.1667,255.167 93.5,255.5C 91.8212,255.285 90.8212,255.952 90.5,257.5C 89.5,256.5 88.5,255.5 87.5,254.5C 89.4646,254.052 89.7979,253.052 88.5,251.5C 87.8165,251.863 87.1499,252.196 86.5,252.5C 85.5084,252.672 84.8417,252.338 84.5,251.5C 86.0481,251.179 86.7148,250.179 86.5,248.5C 85.5,248.5 84.5,248.5 83.5,248.5C 83.3118,246.897 83.8118,245.563 85,244.5C 86.129,246.141 87.629,247.141 89.5,247.5 Z"/></g>
<g><path style="opacity:1" fill="#c2742b" d="M 70.5,248.5 C 71.404,249.209 71.7373,250.209 71.5,251.5C 74.0788,252.656 76.7455,253.656 79.5,254.5C 85.1388,261.823 92.1388,267.49 100.5,271.5C 100.833,272.5 101.5,273.167 102.5,273.5C 103.833,275.167 105.167,276.833 106.5,278.5C 104.883,277.962 103.216,277.629 101.5,277.5C 101.5,276.5 101.5,275.5 101.5,274.5C 97.7723,271.442 93.7723,268.775 89.5,266.5C 88.2638,265.754 86.9305,265.421 85.5,265.5C 85.7373,264.209 85.404,263.209 84.5,262.5C 83.1155,261.199 81.6155,261.199 80,262.5C 79,261.833 78,261.167 77,260.5C 76.7432,262.295 76.0765,264.295 75,266.5C 74.2588,265.359 73.4255,265.359 72.5,266.5C 70.2753,269.129 67.942,271.629 65.5,274C 64.962,278.655 64.962,283.488 65.5,288.5C 67.6896,290.1 69.6896,291.934 71.5,294C 73.4406,294.743 75.2739,294.576 77,293.5C 80.4572,294.883 81.2905,297.05 79.5,300C 81.2852,301.163 83.2852,301.83 85.5,302C 84.6598,303.666 85.1598,303.833 87,302.5C 88.46,304.466 90.1266,306.132 92,307.5C 93.221,306.728 94.221,305.728 95,304.5C 95.3333,305.167 95.6667,305.833 96,306.5C 98,305.167 99.6667,303.5 101,301.5C 101.617,302.449 101.451,303.282 100.5,304C 101.841,305.295 103.174,305.795 104.5,305.5C 103.17,308.849 103.67,309.182 106,306.5C 107.113,307.711 108.28,307.711 109.5,306.5C 111.149,304.35 112.982,302.35 115,300.5C 115.839,297.86 115.339,295.527 113.5,293.5C 114.734,291.602 114.401,289.935 112.5,288.5C 115.278,285.866 114.945,284.199 111.5,283.5C 111.167,282.833 110.833,282.167 110.5,281.5C 113.629,279.201 116.296,276.368 118.5,273C 116.68,270.014 114.347,267.514 111.5,265.5C 110.833,264.167 109.833,263.167 108.5,262.5C 107.5,262.167 106.833,261.5 106.5,260.5C 105.833,259.5 105.167,258.5 104.5,257.5C 105.939,256.491 107.272,256.824 108.5,258.5C 109.696,258.154 109.696,257.654 108.5,257C 109.448,256.517 110.448,256.351 111.5,256.5C 111.198,253.941 111.532,251.607 112.5,249.5C 111.331,259.841 115.331,267.174 124.5,271.5C 125.209,272.404 126.209,272.737 127.5,272.5C 127.617,274.484 126.95,276.15 125.5,277.5C 125.709,278.086 126.043,278.586 126.5,279C 122.463,282.795 122.13,286.628 125.5,290.5C 121.199,295.434 118.199,301.101 116.5,307.5C 112.935,310.405 108.935,312.405 104.5,313.5C 103.922,312.453 103.256,312.62 102.5,314C 99.5,314.667 96.5,314.667 93.5,314C 92.8742,313.25 92.3742,312.416 92,311.5C 89.985,312.842 87.8183,313.342 85.5,313C 82.1794,310.76 78.846,308.427 75.5,306C 73.6829,302.891 71.6829,299.891 69.5,297C 66.0791,295.525 62.7458,293.859 59.5,292C 59.8333,291.667 60.1667,291.333 60.5,291C 58.0932,287.445 58.4265,283.945 61.5,280.5C 59.1257,277.911 56.7924,275.411 54.5,273C 54.8333,272.667 55.1667,272.333 55.5,272C 54.2986,271.097 53.4652,269.931 53,268.5C 52.3457,269.696 51.8457,269.696 51.5,268.5C 55.2286,263.526 57.062,257.859 57,251.5C 58.2022,253.553 58.5356,255.553 58,257.5C 59.3333,256.833 60.6667,256.167 62,255.5C 62.3333,256.167 62.6667,256.833 63,257.5C 66.3326,257.58 69.1659,256.08 71.5,253C 70.6721,252.085 69.6721,251.419 68.5,251C 69.3805,250.292 70.0472,249.458 70.5,248.5 Z"/></g>
<g><path style="opacity:1" fill="#c7c7c3" d="M 87.5,254.5 C 86.6618,254.158 86.3284,253.492 86.5,252.5C 87.1499,252.196 87.8165,251.863 88.5,251.5C 89.7979,253.052 89.4646,254.052 87.5,254.5 Z"/></g>
<g><path style="opacity:1" fill="#242019" d="M 92.5,251.5 C 93.1667,251.5 93.5,251.833 93.5,252.5C 93.1788,254.048 92.1788,254.715 90.5,254.5C 90.2852,252.821 90.9519,251.821 92.5,251.5 Z"/></g>
<g><path style="opacity:1" fill="#211b17" d="M 83.5,237.5 C 84.8333,238.167 85.8333,239.167 86.5,240.5C 86.1583,241.338 85.4916,241.672 84.5,241.5C 83.8826,241.389 83.3826,241.056 83,240.5C 83,241.833 83,243.167 83,244.5C 78.4112,246.332 78.5779,247.666 83.5,248.5C 83.2627,249.791 83.596,250.791 84.5,251.5C 84.8417,252.338 85.5084,252.672 86.5,252.5C 86.3284,253.492 86.6618,254.158 87.5,254.5C 88.5,255.5 89.5,256.5 90.5,257.5C 91.209,258.404 92.209,258.737 93.5,258.5C 93.5,257.5 93.5,256.5 93.5,255.5C 94.1667,255.167 94.8333,254.833 95.5,254.5C 98.0026,256.833 100.669,258.999 103.5,261C 104.437,261.692 105.103,261.525 105.5,260.5C 105.833,260.5 106.167,260.5 106.5,260.5C 106.833,261.5 107.5,262.167 108.5,262.5C 105.805,265.526 103.138,268.526 100.5,271.5C 92.1388,267.49 85.1388,261.823 79.5,254.5C 78.2625,251.262 76.5958,248.262 74.5,245.5C 74.5106,243.983 75.1772,242.816 76.5,242C 78.7343,240.25 81.0676,238.75 83.5,237.5 Z"/></g>
<g><path style="opacity:1" fill="#c9cac4" d="M 97.5,261.5 C 98.5,261.5 99.5,261.5 100.5,261.5C 100.5,262.5 100.5,263.5 100.5,264.5C 99.5,264.5 98.5,264.5 97.5,264.5C 97.5,263.5 97.5,262.5 97.5,261.5 Z"/></g>
<g><path style="opacity:1" fill="#afafaa" d="M 93.5,258.5 C 94.9778,258.238 96.3112,258.571 97.5,259.5C 95.5365,262.194 94.2032,261.861 93.5,258.5 Z"/></g>
<g><path style="opacity:1" fill="#aaa9a5" d="M 93.5,255.5 C 93.5,256.5 93.5,257.5 93.5,258.5C 92.209,258.737 91.209,258.404 90.5,257.5C 90.8212,255.952 91.8212,255.285 93.5,255.5 Z"/></g>
<g><path style="opacity:1" fill="#706f6c" d="M 159.5,264.5 C 159.435,267.428 158.768,270.095 157.5,272.5C 157.294,269.505 157.96,266.838 159.5,264.5 Z"/></g>
<g><path style="opacity:1" fill="#655e57" d="M 108.5,262.5 C 109.833,263.167 110.833,264.167 111.5,265.5C 107.9,267.43 104.9,270.097 102.5,273.5C 101.5,273.167 100.833,272.5 100.5,271.5C 103.138,268.526 105.805,265.526 108.5,262.5 Z"/></g>
<g><path style="opacity:1" fill="#29201a" d="M 111.5,265.5 C 114.347,267.514 116.68,270.014 118.5,273C 116.296,276.368 113.629,279.201 110.5,281.5C 109.167,280.5 107.833,279.5 106.5,278.5C 105.167,276.833 103.833,275.167 102.5,273.5C 104.9,270.097 107.9,267.43 111.5,265.5 Z"/></g>
<g><path style="opacity:1" fill="#c68a30" d="M 84.5,262.5 C 85.404,263.209 85.7373,264.209 85.5,265.5C 86.9305,265.421 88.2638,265.754 89.5,266.5C 93.7723,268.775 97.7723,271.442 101.5,274.5C 101.5,275.5 101.5,276.5 101.5,277.5C 103.216,277.629 104.883,277.962 106.5,278.5C 107.833,279.5 109.167,280.5 110.5,281.5C 110.833,282.167 111.167,282.833 111.5,283.5C 111.702,285.989 111.202,288.323 110,290.5C 106.25,295.083 101.75,298.75 96.5,301.5C 94.8306,300.11 93.1639,299.777 91.5,300.5C 90.7022,298.922 90.2022,297.256 90,295.5C 87.6455,297.637 84.8122,298.637 81.5,298.5C 81.8146,296.774 81.9813,295.107 82,293.5C 80.3764,293.43 78.5431,292.93 76.5,292C 77.7112,291.107 77.7112,290.274 76.5,289.5C 75.914,289.709 75.414,290.043 75,290.5C 73.8455,289.257 72.5122,288.257 71,287.5C 70.3162,286.216 70.4829,285.049 71.5,284C 70,283.167 68.8333,282 68,280.5C 68.3112,279.065 68.1445,277.732 67.5,276.5C 68.6554,275.05 70.1554,274.05 72,273.5C 72.3459,271.152 73.5125,269.319 75.5,268C 78.1424,265.513 81.1424,263.679 84.5,262.5 Z"/></g>
<g><path style="opacity:1" fill="#1b0406" d="M 41.5,208.5 C 40.6935,209.728 39.6935,210.728 38.5,211.5C 38.5858,212.496 38.2524,213.329 37.5,214C 35.3853,214.557 33.3853,215.391 31.5,216.5C 19.4875,227.136 14.6542,240.469 17,256.5C 19.5452,264.35 22.5452,272.017 26,279.5C 31.9458,287.084 38.1124,294.418 44.5,301.5C 40.5308,298.541 36.5308,295.541 32.5,292.5C 29.5217,287.921 26.1884,283.588 22.5,279.5C 15.9084,267.789 13.0751,255.123 14,241.5C 17.7076,234.317 20.541,227.151 22.5,220C 27.3179,213.594 33.6512,209.761 41.5,208.5 Z"/></g>
<g><path style="opacity:1" fill="#8c938e" d="M 13.5,279.5 C 14.9063,279.973 15.573,280.973 15.5,282.5C 14.0937,282.027 13.427,281.027 13.5,279.5 Z"/></g>
<g><path style="opacity:1" fill="#440b06" d="M 144.5,265.5 C 145.497,265.47 146.164,265.97 146.5,267C 143.062,275.078 140.062,283.244 137.5,291.5C 138.705,283.73 140.372,276.063 142.5,268.5C 139.833,268.5 137.167,268.5 134.5,268.5C 137.979,267.982 141.312,266.982 144.5,265.5 Z"/></g>
<g><path style="opacity:1" fill="#cbcbc8" d="M 157.5,272.5 C 157.498,276.874 156.498,280.874 154.5,284.5C 154.5,283.5 154.5,282.5 154.5,281.5C 155.331,278.341 156.331,275.341 157.5,272.5 Z"/></g>
<g><path style="opacity:1" fill="#c6802e" d="M 84.5,262.5 C 81.1424,263.679 78.1424,265.513 75.5,268C 73.5125,269.319 72.3459,271.152 72,273.5C 70.1554,274.05 68.6554,275.05 67.5,276.5C 68.1445,277.732 68.3112,279.065 68,280.5C 68.8333,282 70,283.167 71.5,284C 70.4829,285.049 70.3162,286.216 71,287.5C 72.5122,288.257 73.8455,289.257 75,290.5C 75.414,290.043 75.914,289.709 76.5,289.5C 77.7112,290.274 77.7112,291.107 76.5,292C 78.5431,292.93 80.3764,293.43 82,293.5C 81.9813,295.107 81.8146,296.774 81.5,298.5C 84.8122,298.637 87.6455,297.637 90,295.5C 90.2022,297.256 90.7022,298.922 91.5,300.5C 93.1639,299.777 94.8306,300.11 96.5,301.5C 101.75,298.75 106.25,295.083 110,290.5C 111.202,288.323 111.702,285.989 111.5,283.5C 114.945,284.199 115.278,285.866 112.5,288.5C 114.401,289.935 114.734,291.602 113.5,293.5C 115.339,295.527 115.839,297.86 115,300.5C 112.982,302.35 111.149,304.35 109.5,306.5C 108.28,307.711 107.113,307.711 106,306.5C 103.67,309.182 103.17,308.849 104.5,305.5C 103.174,305.795 101.841,305.295 100.5,304C 101.451,303.282 101.617,302.449 101,301.5C 99.6667,303.5 98,305.167 96,306.5C 95.6667,305.833 95.3333,305.167 95,304.5C 94.221,305.728 93.221,306.728 92,307.5C 90.1266,306.132 88.46,304.466 87,302.5C 85.1598,303.833 84.6598,303.666 85.5,302C 83.2852,301.83 81.2852,301.163 79.5,300C 81.2905,297.05 80.4572,294.883 77,293.5C 75.2739,294.576 73.4406,294.743 71.5,294C 69.6896,291.934 67.6896,290.1 65.5,288.5C 64.962,283.488 64.962,278.655 65.5,274C 67.942,271.629 70.2753,269.129 72.5,266.5C 73.4255,265.359 74.2588,265.359 75,266.5C 76.0765,264.295 76.7432,262.295 77,260.5C 78,261.167 79,261.833 80,262.5C 81.6155,261.199 83.1155,261.199 84.5,262.5 Z"/></g>
<g><path style="opacity:1" fill="#310704" d="M 144.5,265.5 C 144.842,264.662 145.508,264.328 146.5,264.5C 147.551,267.344 147.551,270.344 146.5,273.5C 145.453,275.151 144.286,276.817 143,278.5C 141.462,292.408 136.462,304.742 128,315.5C 125.656,318.261 122.822,320.428 119.5,322C 118.947,323.878 117.947,325.378 116.5,326.5C 112.603,327.91 108.603,328.91 104.5,329.5C 106.072,328.313 107.739,327.313 109.5,326.5C 109.414,325.504 109.748,324.671 110.5,324C 112.5,323.667 114.5,323.333 116.5,323C 125.945,315.569 132.112,306.069 135,294.5C 136.045,293.627 136.878,292.627 137.5,291.5C 140.062,283.244 143.062,275.078 146.5,267C 146.164,265.97 145.497,265.47 144.5,265.5 Z"/></g>
<g><path style="opacity:1" fill="#7e7d7a" d="M 154.5,281.5 C 154.5,282.5 154.5,283.5 154.5,284.5C 154.011,285.995 153.345,287.329 152.5,288.5C 152.41,285.848 153.076,283.515 154.5,281.5 Z"/></g>
<g><path style="opacity:1" fill="#7a7d7a" d="M 15.5,282.5 C 18.6448,285.46 21.3115,288.793 23.5,292.5C 19.6998,290.037 17.0332,286.704 15.5,282.5 Z"/></g>
<g><path style="opacity:1" fill="#962e16" d="M 27.5,242.5 C 27.1872,246.042 27.5206,249.375 28.5,252.5C 28.5,252.833 28.5,253.167 28.5,253.5C 28.6307,257.654 29.464,261.654 31,265.5C 36.3765,274.943 42.7098,283.609 50,291.5C 51.2989,294.147 52.6322,296.814 54,299.5C 60.1859,304.625 66.3525,309.625 72.5,314.5C 69.8206,313.774 67.154,312.941 64.5,312C 62.1311,308.774 59.1311,306.608 55.5,305.5C 55.6495,304.448 55.4828,303.448 55,302.5C 52,298.5 49,294.5 46,290.5C 41.9542,287.279 38.1209,283.946 34.5,280.5C 32.1135,274.862 29.6135,269.195 27,263.5C 26.1717,258.868 25.6717,254.202 25.5,249.5C 25.5286,246.731 26.1952,244.397 27.5,242.5 Z"/></g>
<g><path style="opacity:1" fill="#a44b1d" d="M 135.5,269.5 C 135.833,269.5 136.167,269.5 136.5,269.5C 136.062,276.738 134.562,283.738 132,290.5C 128.385,296.609 124.218,302.275 119.5,307.5C 121.412,301.33 124.579,295.996 129,291.5C 131.684,284.285 133.851,276.951 135.5,269.5 Z"/></g>
<g><path style="opacity:1" fill="#b7b6b3" d="M 152.5,288.5 C 152.021,294.989 150.021,300.989 146.5,306.5C 146.043,307.298 145.376,307.631 144.5,307.5C 147.186,301.09 149.853,294.757 152.5,288.5 Z"/></g>
<g><path style="opacity:1" fill="#4f0d07" d="M 43.5,294.5 C 48.3027,298.471 52.636,302.971 56.5,308C 61.4316,311.257 66.0983,314.924 70.5,319C 75.6533,321.216 80.6533,323.716 85.5,326.5C 88.74,327.847 92.24,328.514 96,328.5C 100.545,328.071 105.045,327.404 109.5,326.5C 107.739,327.313 106.072,328.313 104.5,329.5C 98.3217,330.817 91.9883,330.817 85.5,329.5C 80.932,327.093 76.2654,324.926 71.5,323C 68.286,320.239 64.9527,317.739 61.5,315.5C 57.1696,310.337 52.3362,305.67 47,301.5C 45.8068,299.114 44.6401,296.78 43.5,294.5 Z"/></g>
<g><path style="opacity:1" fill="#7a1c0f" d="M 34.5,280.5 C 38.1209,283.946 41.9542,287.279 46,290.5C 49,294.5 52,298.5 55,302.5C 55.4828,303.448 55.6495,304.448 55.5,305.5C 59.1311,306.608 62.1311,308.774 64.5,312C 67.154,312.941 69.8206,313.774 72.5,314.5C 74.2921,317.193 76.6255,319.193 79.5,320.5C 85.8777,323.463 92.5443,324.63 99.5,324C 102.986,322.376 106.653,321.21 110.5,320.5C 103.192,326.015 94.859,328.015 85.5,326.5C 80.6533,323.716 75.6533,321.216 70.5,319C 66.0983,314.924 61.4316,311.257 56.5,308C 52.636,302.971 48.3027,298.471 43.5,294.5C 41.0882,294.306 40.0882,292.973 40.5,290.5C 38.1023,287.429 36.1023,284.095 34.5,280.5 Z"/></g>
<g><path style="opacity:1" fill="#b25120" d="M 37.5,269.5 C 39.807,270.977 41.6403,272.977 43,275.5C 42.9415,279.406 44.7748,281.739 48.5,282.5C 49.7417,284.25 51.2417,285.917 53,287.5C 53.8292,292.153 56.3292,295.487 60.5,297.5C 63.7198,299.603 66.7198,301.936 69.5,304.5C 74.3001,311.785 80.9668,316.619 89.5,319C 96.2968,319.133 102.963,318.3 109.5,316.5C 105.414,319.525 100.748,320.858 95.5,320.5C 89.6368,320.267 83.9701,319.101 78.5,317C 75.7801,314.619 72.7801,312.619 69.5,311C 65.7778,304.705 60.6111,299.872 54,296.5C 53,294.167 52,291.833 51,289.5C 47.9999,287.096 45.3332,284.43 43,281.5C 41.174,277.399 39.3407,273.399 37.5,269.5 Z"/></g>
<g><path style="opacity:1" fill="#791b0e" d="M 129.5,299.5 C 129.708,301.92 129.374,304.253 128.5,306.5C 124.321,311.178 119.988,315.678 115.5,320C 113.866,320.494 112.199,320.66 110.5,320.5C 110.5,320.167 110.5,319.833 110.5,319.5C 115.049,317.131 119.215,314.131 123,310.5C 124.716,306.454 126.883,302.787 129.5,299.5 Z"/></g>
<g><path style="opacity:1" fill="#b2b1ae" d="M 144.5,307.5 C 144.408,309.848 143.408,311.514 141.5,312.5C 141.75,310.326 142.75,308.659 144.5,307.5 Z"/></g>
<g><path style="opacity:1" fill="#c06a28" d="M 70.5,248.5 C 70.0472,249.458 69.3805,250.292 68.5,251C 69.6721,251.419 70.6721,252.085 71.5,253C 69.1659,256.08 66.3326,257.58 63,257.5C 62.6667,256.833 62.3333,256.167 62,255.5C 60.6667,256.167 59.3333,256.833 58,257.5C 58.5356,255.553 58.2022,253.553 57,251.5C 57.062,257.859 55.2286,263.526 51.5,268.5C 51.8457,269.696 52.3457,269.696 53,268.5C 53.4652,269.931 54.2986,271.097 55.5,272C 55.1667,272.333 54.8333,272.667 54.5,273C 56.7924,275.411 59.1257,277.911 61.5,280.5C 58.4265,283.945 58.0932,287.445 60.5,291C 60.1667,291.333 59.8333,291.667 59.5,292C 62.7458,293.859 66.0791,295.525 69.5,297C 71.6829,299.891 73.6829,302.891 75.5,306C 78.846,308.427 82.1794,310.76 85.5,313C 87.8183,313.342 89.985,312.842 92,311.5C 92.3742,312.416 92.8742,313.25 93.5,314C 96.5,314.667 99.5,314.667 102.5,314C 103.256,312.62 103.922,312.453 104.5,313.5C 103.942,314.79 102.942,315.623 101.5,316C 89.5569,318.765 79.8902,315.265 72.5,305.5C 71.675,304.614 70.675,304.281 69.5,304.5C 66.7198,301.936 63.7198,299.603 60.5,297.5C 58.4513,293.661 56.6179,289.661 55,285.5C 50.6503,281.476 47.4836,276.642 45.5,271C 46.7014,268.532 46.2014,266.366 44,264.5C 43.6667,264.833 43.3333,265.167 43,265.5C 42.2419,263.231 42.4086,261.064 43.5,259C 42.6243,257.415 41.2909,256.415 39.5,256C 42.4925,252.008 45.8258,248.342 49.5,245C 48.2092,241.975 48.8758,241.641 51.5,244C 50.1667,244.667 50.1667,245.333 51.5,246C 49.2908,246.957 49.4575,248.124 52,249.5C 56.2697,243.082 61.7697,242.249 68.5,247C 67.5494,247.718 67.3828,248.551 68,249.5C 68.6708,248.748 69.5041,248.414 70.5,248.5 Z"/></g>
<g><path style="opacity:1" fill="#9a9895" d="M 141.5,312.5 C 141.262,314.404 140.262,315.738 138.5,316.5C 138.738,314.596 139.738,313.262 141.5,312.5 Z"/></g>
<g><path style="opacity:1" fill="#b65f24" d="M 132.5,269.5 C 133.5,269.5 134.5,269.5 135.5,269.5C 133.851,276.951 131.684,284.285 129,291.5C 124.579,295.996 121.412,301.33 119.5,307.5C 119.5,307.833 119.5,308.167 119.5,308.5C 115.326,310.237 111.993,312.903 109.5,316.5C 102.963,318.3 96.2968,319.133 89.5,319C 80.9668,316.619 74.3001,311.785 69.5,304.5C 70.675,304.281 71.675,304.614 72.5,305.5C 79.8902,315.265 89.5569,318.765 101.5,316C 102.942,315.623 103.942,314.79 104.5,313.5C 108.935,312.405 112.935,310.405 116.5,307.5C 118.199,301.101 121.199,295.434 125.5,290.5C 122.13,286.628 122.463,282.795 126.5,279C 126.043,278.586 125.709,278.086 125.5,277.5C 126.95,276.15 127.617,274.484 127.5,272.5C 126.209,272.737 125.209,272.404 124.5,271.5C 127.417,271.635 130.084,270.968 132.5,269.5 Z"/></g>
<g><path style="opacity:1" fill="#8f2d14" d="M 136.5,269.5 C 137.586,269.62 138.253,270.287 138.5,271.5C 137.062,277.748 136.229,284.082 136,290.5C 134.304,292.56 133.137,294.893 132.5,297.5C 131.643,298.425 130.643,299.092 129.5,299.5C 126.883,302.787 124.716,306.454 123,310.5C 119.215,314.131 115.049,317.131 110.5,319.5C 112.002,316.879 114.169,314.879 117,313.5C 118.094,311.922 118.928,310.255 119.5,308.5C 119.5,308.167 119.5,307.833 119.5,307.5C 124.218,302.275 128.385,296.609 132,290.5C 134.562,283.738 136.062,276.738 136.5,269.5 Z"/></g>
<g><path style="opacity:1" fill="#a13a19" d="M 28.5,253.5 C 29.6057,256.402 30.7724,259.402 32,262.5C 33.853,264.903 35.6863,267.236 37.5,269.5C 39.3407,273.399 41.174,277.399 43,281.5C 45.3332,284.43 47.9999,287.096 51,289.5C 52,291.833 53,294.167 54,296.5C 60.6111,299.872 65.7778,304.705 69.5,311C 72.7801,312.619 75.7801,314.619 78.5,317C 83.9701,319.101 89.6368,320.267 95.5,320.5C 100.748,320.858 105.414,319.525 109.5,316.5C 111.993,312.903 115.326,310.237 119.5,308.5C 118.928,310.255 118.094,311.922 117,313.5C 114.169,314.879 112.002,316.879 110.5,319.5C 110.5,319.833 110.5,320.167 110.5,320.5C 106.653,321.21 102.986,322.376 99.5,324C 92.5443,324.63 85.8777,323.463 79.5,320.5C 76.6255,319.193 74.2921,317.193 72.5,314.5C 66.3525,309.625 60.1859,304.625 54,299.5C 52.6322,296.814 51.2989,294.147 50,291.5C 42.7098,283.609 36.3765,274.943 31,265.5C 29.464,261.654 28.6307,257.654 28.5,253.5 Z"/></g>
<g><path style="opacity:1" fill="#60120a" d="M 132.5,269.5 C 132.842,268.662 133.508,268.328 134.5,268.5C 137.167,268.5 139.833,268.5 142.5,268.5C 140.372,276.063 138.705,283.73 137.5,291.5C 136.878,292.627 136.045,293.627 135,294.5C 132.112,306.069 125.945,315.569 116.5,323C 114.5,323.333 112.5,323.667 110.5,324C 109.748,324.671 109.414,325.504 109.5,326.5C 105.045,327.404 100.545,328.071 96,328.5C 92.24,328.514 88.74,327.847 85.5,326.5C 94.859,328.015 103.192,326.015 110.5,320.5C 112.199,320.66 113.866,320.494 115.5,320C 119.988,315.678 124.321,311.178 128.5,306.5C 129.374,304.253 129.708,301.92 129.5,299.5C 130.643,299.092 131.643,298.425 132.5,297.5C 133.137,294.893 134.304,292.56 136,290.5C 136.229,284.082 137.062,277.748 138.5,271.5C 138.253,270.287 137.586,269.62 136.5,269.5C 136.167,269.5 135.833,269.5 135.5,269.5C 134.5,269.5 133.5,269.5 132.5,269.5 Z"/></g>
<g><path style="opacity:1" fill="#160306" d="M 146.5,273.5 C 145.703,287.553 141.703,300.553 134.5,312.5C 130.894,314.603 127.727,317.269 125,320.5C 123.475,324.203 120.975,327.203 117.5,329.5C 111.402,330.984 105.402,332.651 99.5,334.5C 99.5,335.5 99.5,336.5 99.5,337.5C 94.9501,337.723 90.2834,337.223 85.5,336C 80.6282,334.535 75.6282,332.702 70.5,330.5C 70.1261,327.112 68.1261,325.278 64.5,325C 64.8333,324.667 65.1667,324.333 65.5,324C 64.1667,323.333 62.8333,322.667 61.5,322C 55.1157,315.548 49.449,308.715 44.5,301.5C 50.1858,306.19 55.8525,310.857 61.5,315.5C 66.6001,319.445 70.9335,324.278 74.5,330C 82.5837,332.885 90.9171,333.885 99.5,333C 104.784,331.453 110.118,330.12 115.5,329C 116.252,328.329 116.586,327.496 116.5,326.5C 117.947,325.378 118.947,323.878 119.5,322C 122.822,320.428 125.656,318.261 128,315.5C 136.462,304.742 141.462,292.408 143,278.5C 144.286,276.817 145.453,275.151 146.5,273.5 Z"/></g>
<g><path style="opacity:1" fill="#b6b4b1" d="M 138.5,316.5 C 136.792,320.572 134.126,323.905 130.5,326.5C 130.5,326.167 130.5,325.833 130.5,325.5C 132.942,322.271 135.608,319.271 138.5,316.5 Z"/></g>
<g><path style="opacity:1" fill="#787a76" d="M 23.5,292.5 C 34.6613,303.494 45.9946,314.328 57.5,325C 61.5,327.667 65.5,330.333 69.5,333C 80.6168,340.362 92.6168,342.362 105.5,339C 114.782,336.03 123.115,331.53 130.5,325.5C 130.5,325.833 130.5,326.167 130.5,326.5C 117.228,339.09 101.562,343.924 83.5,341C 74.2911,337.395 65.6244,332.728 57.5,327C 45.2743,316.275 33.941,304.775 23.5,292.5 Z"/></g>
<g><path style="opacity:1" fill="#230506" d="M 61.5,315.5 C 64.9527,317.739 68.286,320.239 71.5,323C 76.2654,324.926 80.932,327.093 85.5,329.5C 91.9883,330.817 98.3217,330.817 104.5,329.5C 108.603,328.91 112.603,327.91 116.5,326.5C 116.586,327.496 116.252,328.329 115.5,329C 110.118,330.12 104.784,331.453 99.5,333C 90.9171,333.885 82.5837,332.885 74.5,330C 70.9335,324.278 66.6001,319.445 61.5,315.5 Z"/></g>
</svg>
