<?xml version="1.0" encoding="UTF-8"?>
<!DOCTYPE svg PUBLIC "-//W3C//DTD SVG 1.1//EN" "http://www.w3.org/Graphics/SVG/1.1/DTD/svg11.dtd">
<svg xmlns="http://www.w3.org/2000/svg" version="1.1" width="349px" height="341px" style="shape-rendering:geometricPrecision; text-rendering:geometricPrecision; image-rendering:optimizeQuality; fill-rule:evenodd; clip-rule:evenodd" xmlns:xlink="http://www.w3.org/1999/xlink">
<g><path style="opacity:1" fill="#fefefe" d="M -0.5,-0.5 C 115.833,-0.5 232.167,-0.5 348.5,-0.5C 348.5,113.167 348.5,226.833 348.5,340.5C 232.167,340.5 115.833,340.5 -0.5,340.5C -0.5,226.833 -0.5,113.167 -0.5,-0.5 Z"/></g>
<g><path style="opacity:1" fill="#dadbda" d="M 313.5,8.5 C 312.444,9.87651 311.111,10.7098 309.5,11C 310.774,11.9772 310.774,12.8106 309.5,13.5C 307.552,12.8688 305.719,11.8688 304,10.5C 304.429,7.05339 306.429,4.72006 310,3.5C 311.626,4.95546 312.792,6.62213 313.5,8.5 Z"/></g>
<g><path style="opacity:1" fill="#c7c1b6" d="M 315.5,12.5 C 318.633,12.7611 319.8,14.4277 319,17.5C 315.534,19.35 313.701,18.35 313.5,14.5C 313.833,13.5 314.5,12.8333 315.5,12.5 Z"/></g>
<g><path style="opacity:1" fill="#805a42" d="M 331.5,7.5 C 333.84,8.08603 336.007,9.08603 338,10.5C 342.027,17.2109 343.86,24.3776 343.5,32C 342.255,32.7914 340.922,33.2914 339.5,33.5C 337.859,32.853 336.526,31.853 335.5,30.5C 333.638,28.5252 331.638,28.1919 329.5,29.5C 328.069,28.2196 327.402,26.5529 327.5,24.5C 326.127,24.3433 324.793,24.51 323.5,25C 311.914,35.4208 300.914,46.2541 290.5,57.5C 289.5,57.1667 288.833,56.5 288.5,55.5C 295.896,47.0431 302.562,38.0431 308.5,28.5C 309.833,28.5 310.5,27.8333 310.5,26.5C 313.804,25.5059 317.137,24.5059 320.5,23.5C 320.844,19.1615 323.177,16.8281 327.5,16.5C 330.291,18.7888 332.958,21.2888 335.5,24C 336.448,24.4828 337.448,24.6495 338.5,24.5C 338.52,22.857 337.853,21.5237 336.5,20.5C 336.709,19.914 337.043,19.414 337.5,19C 334.148,18.9957 331.815,17.4957 330.5,14.5C 330.543,12.1819 330.876,9.84855 331.5,7.5 Z"/></g>
<g><path style="opacity:1" fill="#996f51" d="M 324.5,5.5 C 327.228,5.17057 329.562,5.83724 331.5,7.5C 330.876,9.84855 330.543,12.1819 330.5,14.5C 331.815,17.4957 334.148,18.9957 337.5,19C 337.043,19.414 336.709,19.914 336.5,20.5C 337.853,21.5237 338.52,22.857 338.5,24.5C 337.448,24.6495 336.448,24.4828 335.5,24C 332.958,21.2888 330.291,18.7888 327.5,16.5C 323.177,16.8281 320.844,19.1615 320.5,23.5C 317.137,24.5059 313.804,25.5059 310.5,26.5C 310.771,24.6203 310.104,23.287 308.5,22.5C 307.643,21.1982 307.143,19.8649 307,18.5C 308.667,16.8333 310.333,15.1667 312,13.5C 312.383,14.056 312.883,14.3893 313.5,14.5C 313.701,18.35 315.534,19.35 319,17.5C 319.8,14.4277 318.633,12.7611 315.5,12.5C 316.478,7.51856 319.478,5.18522 324.5,5.5 Z"/></g>
<g><path style="opacity:1" fill="#c5bcaf" d="M 308.5,22.5 C 310.104,23.287 310.771,24.6203 310.5,26.5C 310.5,27.8333 309.833,28.5 308.5,28.5C 304.65,28.2993 303.65,26.4659 305.5,23C 306.448,22.5172 307.448,22.3505 308.5,22.5 Z"/></g>
<g><path style="opacity:1" fill="#96745a" d="M 324.5,5.5 C 319.478,5.18522 316.478,7.51856 315.5,12.5C 314.5,12.8333 313.833,13.5 313.5,14.5C 312.883,14.3893 312.383,14.056 312,13.5C 310.333,15.1667 308.667,16.8333 307,18.5C 307.143,19.8649 307.643,21.1982 308.5,22.5C 307.448,22.3505 306.448,22.5172 305.5,23C 303.65,26.4659 304.65,28.2993 308.5,28.5C 302.562,38.0431 295.896,47.0431 288.5,55.5C 286.086,54.0892 284.419,52.0892 283.5,49.5C 286.782,45.165 288.616,40.165 289,34.5C 289.833,33.6667 290.667,32.8333 291.5,32C 289.026,31.8871 287.026,30.8871 285.5,29C 287.047,28.6666 288.38,29.1666 289.5,30.5C 291.452,28.9048 293.452,28.4048 295.5,29C 297.333,27.1667 299.167,25.3333 301,23.5C 301.617,22.5509 301.451,21.7175 300.5,21C 304.417,19.743 307.417,17.243 309.5,13.5C 310.774,12.8106 310.774,11.9772 309.5,11C 311.111,10.7098 312.444,9.87651 313.5,8.5C 314.692,6.12173 316.359,4.12173 318.5,2.5C 320.444,3.80073 322.444,4.80073 324.5,5.5 Z"/></g>
<g><path style="opacity:1" fill="#bbb3a9" d="M 335.5,30.5 C 335.454,34.2349 333.787,35.5683 330.5,34.5C 331.326,33.549 331.492,32.549 331,31.5C 328.573,32.567 328.073,31.9003 329.5,29.5C 331.638,28.1919 333.638,28.5252 335.5,30.5 Z"/></g>
<g><path style="opacity:1" fill="#c9c1b4" d="M 295.5,32.5 C 300.159,32.0146 301.492,33.848 299.5,38C 295.266,38.267 293.933,36.4336 295.5,32.5 Z"/></g>
<g><path style="opacity:1" fill="#cfd0cf" d="M 338.5,35.5 C 342.67,37.3385 343.337,40.0052 340.5,43.5C 335.554,45.5609 333.554,43.8943 334.5,38.5C 335.117,38.6107 335.617,38.944 336,39.5C 336.122,37.563 336.955,36.2297 338.5,35.5 Z"/></g>
<g><path style="opacity:1" fill="#87654e" d="M 329.5,29.5 C 328.073,31.9003 328.573,32.567 331,31.5C 331.492,32.549 331.326,33.549 330.5,34.5C 333.787,35.5683 335.454,34.2349 335.5,30.5C 336.526,31.853 337.859,32.853 339.5,33.5C 339.167,34.1667 338.833,34.8333 338.5,35.5C 336.955,36.2297 336.122,37.563 336,39.5C 335.617,38.944 335.117,38.6107 334.5,38.5C 329.848,39.8191 326.848,42.8191 325.5,47.5C 324.549,46.6744 323.549,46.5078 322.5,47C 320.63,49.0396 318.63,50.8729 316.5,52.5C 315.599,53.2905 314.932,54.2905 314.5,55.5C 311.052,58.0723 307.052,59.239 302.5,59C 300.121,59.7162 298.121,60.8828 296.5,62.5C 293.911,61.5806 291.911,59.914 290.5,57.5C 300.914,46.2541 311.914,35.4208 323.5,25C 324.793,24.51 326.127,24.3433 327.5,24.5C 327.402,26.5529 328.069,28.2196 329.5,29.5 Z"/></g>
<g><path style="opacity:1" fill="#c0bab2" d="M 319.5,37.5 C 324.159,37.0146 325.492,38.848 323.5,43C 320.142,43.3726 319.808,42.5392 322.5,40.5C 321.132,39.4063 319.965,39.7397 319,41.5C 318.421,40.0715 318.588,38.7382 319.5,37.5 Z"/></g>
<g><path style="opacity:1" fill="#b7b3ac" d="M 309.5,46.5 C 314.159,46.0146 315.492,47.848 313.5,52C 308.728,52.8104 307.395,50.9771 309.5,46.5 Z"/></g>
<g><path style="opacity:1" fill="#9a9a99" d="M 316.5,52.5 C 316.683,54.9363 316.016,57.103 314.5,59C 316.007,59.8373 316.507,61.0039 316,62.5C 313.318,60.6233 312.818,58.2899 314.5,55.5C 314.932,54.2905 315.599,53.2905 316.5,52.5 Z"/></g>
<g><path style="opacity:1" fill="#5b574c" d="M 285.5,56.5 C 288.167,58.8333 290.833,61.1667 293.5,63.5C 287.863,70.8041 281.53,77.4707 274.5,83.5C 273.85,83.1961 273.183,82.8627 272.5,82.5C 269.789,86.2119 266.456,89.2119 262.5,91.5C 261.585,90.6721 260.919,89.6721 260.5,88.5C 262.817,85.6826 265.317,83.0159 268,80.5C 268,79.1667 268,77.8333 268,76.5C 272.527,71.973 277.027,67.473 281.5,63C 279.255,63.1953 277.422,64.3619 276,66.5C 275.333,65.8333 275.333,65.1667 276,64.5C 278.766,61.2232 281.933,58.5566 285.5,56.5 Z"/></g>
<g><path style="opacity:1" fill="#e3dcc9" d="M 283.5,49.5 C 284.419,52.0892 286.086,54.0892 288.5,55.5C 288.833,56.5 289.5,57.1667 290.5,57.5C 291.911,59.914 293.911,61.5806 296.5,62.5C 295.791,63.404 294.791,63.7373 293.5,63.5C 290.833,61.1667 288.167,58.8333 285.5,56.5C 284.415,54.4131 282.749,53.0798 280.5,52.5C 281.5,51.5 282.5,50.5 283.5,49.5 Z"/></g>
<g><path style="opacity:1" fill="#726d61" d="M 280.5,52.5 C 282.749,53.0798 284.415,54.4131 285.5,56.5C 281.933,58.5566 278.766,61.2232 276,64.5C 275.333,65.1667 275.333,65.8333 276,66.5C 277.422,64.3619 279.255,63.1953 281.5,63C 277.027,67.473 272.527,71.973 268,76.5C 268,77.8333 268,79.1667 268,80.5C 265.317,83.0159 262.817,85.6826 260.5,88.5C 260.919,89.6721 261.585,90.6721 262.5,91.5C 266.456,89.2119 269.789,86.2119 272.5,82.5C 273.183,82.8627 273.85,83.1961 274.5,83.5C 248.133,110.201 221.466,136.534 194.5,162.5C 192.255,164.567 191.921,166.9 193.5,169.5C 192.542,169.047 191.708,168.381 191,167.5C 188.747,169.189 186.914,171.189 185.5,173.5C 184.833,173.5 184.5,173.833 184.5,174.5C 183.5,174.833 182.833,175.5 182.5,176.5C 182.167,176.5 181.833,176.5 181.5,176.5C 180.5,176.833 179.833,177.5 179.5,178.5C 175.5,181.833 171.833,185.5 168.5,189.5C 167.5,189.833 166.833,190.5 166.5,191.5C 163.372,187.382 160.706,187.715 158.5,192.5C 157.833,192.5 157.5,192.167 157.5,191.5C 157.157,189.775 156.157,189.275 154.5,190C 147.833,196.667 141.167,203.333 134.5,210C 133.833,210.667 133.167,210.667 132.5,210C 139.833,202.667 147.167,195.333 154.5,188C 154,187.5 153.5,187 153,186.5C 143.328,195.339 133.828,204.339 124.5,213.5C 124.5,213.167 124.5,212.833 124.5,212.5C 133.328,202.839 142.662,193.672 152.5,185C 152,184.5 151.5,184 151,183.5C 140.31,191.69 130.81,201.024 122.5,211.5C 121.655,210.329 120.989,208.995 120.5,207.5C 121.552,207.649 122.552,207.483 123.5,207C 131.03,199.135 138.864,191.635 147,184.5C 147.464,183.906 147.631,183.239 147.5,182.5C 148.506,182.062 148.506,181.396 147.5,180.5C 150.233,177.761 153.233,175.427 156.5,173.5C 154.768,178.019 155.768,178.685 159.5,175.5C 165.618,168.041 172.618,161.708 180.5,156.5C 176.889,161.78 172.556,166.447 167.5,170.5C 168.989,170.533 170.322,171.033 171.5,172C 169.833,173.667 168.167,175.333 166.5,177C 167,177.5 167.5,178 168,178.5C 172.691,173.229 177.524,168.063 182.5,163C 183.527,162.487 184.527,161.987 185.5,161.5C 188.116,160.52 190.449,159.02 192.5,157C 206.272,142.806 220.272,128.806 234.5,115C 233.5,114.667 232.5,114.333 231.5,114C 235,110.5 238.5,107 242,103.5C 242.249,104.624 242.749,105.624 243.5,106.5C 248.819,101.682 253.985,96.6818 259,91.5C 259.311,90.2575 258.811,89.2575 257.5,88.5C 258.76,87.6184 259.926,86.6184 261,85.5C 261,84.1667 261,82.8333 261,81.5C 262.5,80 264,78.5 265.5,77C 265,76.5 264.5,76 264,75.5C 261.297,78.3714 258.464,81.0381 255.5,83.5C 255.082,82.7784 254.416,82.2784 253.5,82C 257.5,78 261.5,74 265.5,70C 264.906,69.5357 264.239,69.369 263.5,69.5C 268.86,63.4729 274.527,57.8063 280.5,52.5 Z"/></g>
<g><path style="opacity:1" fill="#868172" d="M 263.5,69.5 C 264.239,69.369 264.906,69.5357 265.5,70C 261.5,74 257.5,78 253.5,82C 254.416,82.2784 255.082,82.7784 255.5,83.5C 253.569,86.0974 251.236,88.4307 248.5,90.5C 248.167,90.3333 247.833,90.1667 247.5,90C 249.5,88 251.5,86 253.5,84C 252.5,83.3333 251.5,83.3333 250.5,84C 242.938,91.7298 235.272,99.2298 227.5,106.5C 219.871,112.959 212.371,119.625 205,126.5C 204.329,125.748 203.496,125.414 202.5,125.5C 222.676,106.593 243.009,87.9264 263.5,69.5 Z"/></g>
<g><path style="opacity:1" fill="#797365" d="M 196.5,141.5 C 201.5,138.5 205.5,134.5 208.5,129.5C 208.483,127.972 207.816,127.472 206.5,128C 202.289,132.547 197.789,136.714 193,140.5C 192.5,140.333 192,140.167 191.5,140C 194.167,137.333 196.833,134.667 199.5,132C 198.748,131.329 198.414,130.496 198.5,129.5C 199.833,128.167 201.167,126.833 202.5,125.5C 203.496,125.414 204.329,125.748 205,126.5C 212.371,119.625 219.871,112.959 227.5,106.5C 229.65,106.095 231.65,105.595 233.5,105C 227.051,110.282 221.051,116.115 215.5,122.5C 216.002,123.521 216.668,123.688 217.5,123C 220.509,119.957 223.509,116.957 226.5,114C 227.965,113.399 228.965,113.899 229.5,115.5C 221.841,119.32 216.508,125.154 213.5,133C 212.833,133.667 212.167,133.667 211.5,133C 213.975,131.257 213.975,130.257 211.5,130C 206.833,134.667 202.167,139.333 197.5,144C 196.833,144.667 196.167,144.667 195.5,144C 196.252,143.329 196.586,142.496 196.5,141.5 Z"/></g>
<g><path style="opacity:1" fill="#666154" d="M 185.5,161.5 C 186.396,158.931 188.062,156.931 190.5,155.5C 189.998,154.479 189.332,154.312 188.5,155C 186.487,158.069 183.82,159.735 180.5,160C 182.833,157.667 185.167,155.333 187.5,153C 185.123,153.827 182.789,154.994 180.5,156.5C 183.927,151.568 187.927,147.068 192.5,143C 193.745,142.209 195.078,141.709 196.5,141.5C 196.586,142.496 196.252,143.329 195.5,144C 196.167,144.667 196.833,144.667 197.5,144C 202.167,139.333 206.833,134.667 211.5,130C 213.975,130.257 213.975,131.257 211.5,133C 212.167,133.667 212.833,133.667 213.5,133C 216.508,125.154 221.841,119.32 229.5,115.5C 228.965,113.899 227.965,113.399 226.5,114C 223.509,116.957 220.509,119.957 217.5,123C 216.668,123.688 216.002,123.521 215.5,122.5C 221.051,116.115 227.051,110.282 233.5,105C 231.65,105.595 229.65,106.095 227.5,106.5C 235.272,99.2298 242.938,91.7298 250.5,84C 251.5,83.3333 252.5,83.3333 253.5,84C 251.5,86 249.5,88 247.5,90C 247.833,90.1667 248.167,90.3333 248.5,90.5C 251.236,88.4307 253.569,86.0974 255.5,83.5C 258.464,81.0381 261.297,78.3714 264,75.5C 264.5,76 265,76.5 265.5,77C 264,78.5 262.5,80 261,81.5C 261,82.8333 261,84.1667 261,85.5C 259.926,86.6184 258.76,87.6184 257.5,88.5C 258.811,89.2575 259.311,90.2575 259,91.5C 253.985,96.6818 248.819,101.682 243.5,106.5C 242.749,105.624 242.249,104.624 242,103.5C 238.5,107 235,110.5 231.5,114C 232.5,114.333 233.5,114.667 234.5,115C 220.272,128.806 206.272,142.806 192.5,157C 190.449,159.02 188.116,160.52 185.5,161.5 Z"/></g>
<g><path style="opacity:1" fill="#5f5b4f" d="M 208.5,129.5 C 205.5,134.5 201.5,138.5 196.5,141.5C 199.5,136.5 203.5,132.5 208.5,129.5 Z"/></g>
<g><path style="opacity:1" fill="#7d7d79" d="M 154.5,133.5 C 156.027,133.427 157.027,134.094 157.5,135.5C 155.973,135.573 154.973,134.906 154.5,133.5 Z"/></g>
<g><path style="opacity:1" fill="#787775" d="M 157.5,135.5 C 159.027,135.427 160.027,136.094 160.5,137.5C 158.973,137.573 157.973,136.906 157.5,135.5 Z"/></g>
<g><path style="opacity:1" fill="#767674" d="M 160.5,137.5 C 162.749,138.08 164.415,139.413 165.5,141.5C 163.251,140.92 161.585,139.587 160.5,137.5 Z"/></g>
<g><path style="opacity:1" fill="#86391b" d="M 163.5,160.5 C 163.167,161.5 162.5,162.167 161.5,162.5C 158.89,157.365 155.223,152.865 150.5,149C 143.852,145.775 137.186,145.775 130.5,149C 125.589,153.406 121.255,158.24 117.5,163.5C 114.192,166.471 110.859,169.471 107.5,172.5C 114.543,161.952 122.876,152.452 132.5,144C 148.394,139.652 158.727,145.152 163.5,160.5 Z"/></g>
<g><path style="opacity:1" fill="#878173" d="M 208.5,129.5 C 203.5,132.5 199.5,136.5 196.5,141.5C 195.078,141.709 193.745,142.209 192.5,143C 187.927,147.068 183.927,151.568 180.5,156.5C 172.618,161.708 165.618,168.041 159.5,175.5C 155.768,178.685 154.768,178.019 156.5,173.5C 157.552,173.649 158.552,173.483 159.5,173C 168.848,163.463 178.515,154.13 188.5,145C 188,144.5 187.5,144 187,143.5C 180.918,150.61 174.085,156.444 166.5,161C 168.464,159.549 169.797,157.716 170.5,155.5C 171.625,153.871 172.959,152.371 174.5,151C 171.296,147.964 168.296,144.797 165.5,141.5C 168.056,142.543 170.223,144.21 172,146.5C 172.928,144.665 174.094,144.332 175.5,145.5C 175.88,147.021 176.046,148.687 176,150.5C 183.586,143.618 191.086,136.618 198.5,129.5C 198.414,130.496 198.748,131.329 199.5,132C 196.833,134.667 194.167,137.333 191.5,140C 192,140.167 192.5,140.333 193,140.5C 197.789,136.714 202.289,132.547 206.5,128C 207.816,127.472 208.483,127.972 208.5,129.5 Z"/></g>
<g><path style="opacity:1" fill="#6c6456" d="M 156.5,173.5 C 157.203,171.284 158.536,169.451 160.5,168C 159.552,167.517 158.552,167.351 157.5,167.5C 158.833,165.833 160.167,164.167 161.5,162.5C 162.5,162.167 163.167,161.5 163.5,160.5C 164.167,160.167 164.833,159.833 165.5,159.5C 167.167,158.167 168.833,156.833 170.5,155.5C 169.797,157.716 168.464,159.549 166.5,161C 174.085,156.444 180.918,150.61 187,143.5C 187.5,144 188,144.5 188.5,145C 178.515,154.13 168.848,163.463 159.5,173C 158.552,173.483 157.552,173.649 156.5,173.5 Z"/></g>
<g><path style="opacity:1" fill="#a4642d" d="M 161.5,162.5 C 160.167,164.167 158.833,165.833 157.5,167.5C 155.063,169.433 152.729,171.6 150.5,174C 148.613,174.78 146.946,174.613 145.5,173.5C 148.978,169.885 151.978,165.885 154.5,161.5C 153.521,157.88 151.355,155.213 148,153.5C 147.517,152.552 147.351,151.552 147.5,150.5C 145.599,150.567 143.766,150.233 142,149.5C 132.177,153.658 123.677,159.658 116.5,167.5C 116.833,166.167 117.167,164.833 117.5,163.5C 121.255,158.24 125.589,153.406 130.5,149C 137.186,145.775 143.852,145.775 150.5,149C 155.223,152.865 158.89,157.365 161.5,162.5 Z"/></g>
<g><path style="opacity:1" fill="#898374" d="M 185.5,161.5 C 184.527,161.987 183.527,162.487 182.5,163C 177.524,168.063 172.691,173.229 168,178.5C 167.5,178 167,177.5 166.5,177C 168.167,175.333 169.833,173.667 171.5,172C 170.322,171.033 168.989,170.533 167.5,170.5C 172.556,166.447 176.889,161.78 180.5,156.5C 182.789,154.994 185.123,153.827 187.5,153C 185.167,155.333 182.833,157.667 180.5,160C 183.82,159.735 186.487,158.069 188.5,155C 189.332,154.312 189.998,154.479 190.5,155.5C 188.062,156.931 186.396,158.931 185.5,161.5 Z"/></g>
<g><path style="opacity:1" fill="#2f0d10" d="M 124.5,146.5 C 121.018,149.484 118.518,153.151 117,157.5C 111.606,162.894 106.106,168.394 100.5,174C 98.3083,174.926 96.3083,176.093 94.5,177.5C 99.629,172.697 104.796,167.697 110,162.5C 112.312,158.53 114.978,154.863 118,151.5C 119.777,149.21 121.944,147.543 124.5,146.5 Z"/></g>
<g><path style="opacity:1" fill="#6d6c69" d="M 193.5,169.5 C 195.587,170.585 196.92,172.251 197.5,174.5C 195.413,173.415 194.08,171.749 193.5,169.5 Z"/></g>
<g><path style="opacity:1" fill="#bc7e3a" d="M 145.5,173.5 C 137.078,172.389 129.411,174.223 122.5,179C 121.748,179.671 121.414,180.504 121.5,181.5C 119.089,182.517 117.422,184.184 116.5,186.5C 115.108,188.273 113.941,190.273 113,192.5C 112.501,196.821 112.334,201.154 112.5,205.5C 111.677,202.023 111.177,198.356 111,194.5C 110.333,193.167 109.667,193.167 109,194.5C 108,192.849 106.833,191.182 105.5,189.5C 103.518,190.97 101.852,190.636 100.5,188.5C 97.1667,191.167 94.1667,194.167 91.5,197.5C 88.4955,199.448 85.3289,201.115 82,202.5C 81.7103,205.443 80.5437,207.943 78.5,210C 78.9111,211.144 79.2444,212.311 79.5,213.5C 78.6221,216.13 77.9555,218.797 77.5,221.5C 76.2727,218.41 74.9394,215.41 73.5,212.5C 73.4914,210.692 73.9914,209.025 75,207.5C 77.706,205.129 80.0394,202.463 82,199.5C 88.5029,197.495 93.3362,193.495 96.5,187.5C 103.446,181.221 110.113,174.554 116.5,167.5C 123.677,159.658 132.177,153.658 142,149.5C 143.766,150.233 145.599,150.567 147.5,150.5C 147.351,151.552 147.517,152.552 148,153.5C 151.355,155.213 153.521,157.88 154.5,161.5C 151.978,165.885 148.978,169.885 145.5,173.5 Z"/></g>
<g><path style="opacity:1" fill="#581a12" d="M 152.5,142.5 C 160.282,145.606 164.615,151.272 165.5,159.5C 164.833,159.833 164.167,160.167 163.5,160.5C 158.727,145.152 148.394,139.652 132.5,144C 122.876,152.452 114.543,161.952 107.5,172.5C 106.833,172.5 106.5,172.833 106.5,173.5C 101.478,175.682 97.1449,178.849 93.5,183C 87.6606,185.084 82.3273,187.917 77.5,191.5C 71.0138,193.913 64.6805,196.58 58.5,199.5C 52.4326,200.193 46.766,201.86 41.5,204.5C 45.7991,200.236 51.1324,198.069 57.5,198C 61.2938,194.192 65.9605,191.859 71.5,191C 72.5505,189.615 73.8839,188.615 75.5,188C 80.2661,187.445 84.2661,185.612 87.5,182.5C 90.0472,181.066 92.3805,179.4 94.5,177.5C 96.3083,176.093 98.3083,174.926 100.5,174C 106.106,168.394 111.606,162.894 117,157.5C 118.518,153.151 121.018,149.484 124.5,146.5C 130.357,141.868 137.024,139.702 144.5,140C 146.941,141.446 149.608,142.279 152.5,142.5 Z"/></g>
<g><path style="opacity:1" fill="#88481c" d="M 117.5,163.5 C 117.167,164.833 116.833,166.167 116.5,167.5C 108.514,174.484 100.514,181.484 92.5,188.5C 81.509,193.928 70.1756,198.761 58.5,203C 52.777,207.182 46.4437,210.015 39.5,211.5C 39.7804,214.388 38.4471,215.888 35.5,216C 33.0087,219.49 30.1754,222.657 27,225.5C 22.141,239.239 22.4743,252.905 28,266.5C 32.33,275.504 38.33,283.17 46,289.5C 48.507,295.18 52.6737,299.18 58.5,301.5C 59.6253,303.129 60.9586,304.629 62.5,306C 69.452,309.862 76.7853,312.862 84.5,315C 91.779,316.247 99.1124,316.747 106.5,316.5C 108.482,316.005 110.482,315.505 112.5,315C 114.416,312.91 116.416,311.077 118.5,309.5C 116.715,313.12 114.048,315.953 110.5,318C 93.1869,323.084 77.5202,320.084 63.5,309C 61.3921,308.64 59.3921,307.973 57.5,307C 53.0633,301.563 47.73,297.23 41.5,294C 39.2625,291.97 37.7625,289.47 37,286.5C 35.8873,285.695 34.7206,285.028 33.5,284.5C 33.6602,282.801 33.4935,281.134 33,279.5C 29.5114,276.018 26.8447,272.018 25,267.5C 23.1203,261.358 20.9536,255.358 18.5,249.5C 19.269,240.098 21.769,231.098 26,222.5C 30.4928,220.007 33.9928,216.507 36.5,212C 39.7574,211.251 42.4241,209.584 44.5,207C 48.7741,206.103 52.7741,204.603 56.5,202.5C 57.1925,201.482 57.8592,200.482 58.5,199.5C 64.6805,196.58 71.0138,193.913 77.5,191.5C 80.2165,191.322 82.8832,190.822 85.5,190C 88.2448,187.965 91.2448,186.299 94.5,185C 97.9155,180.477 101.915,176.644 106.5,173.5C 106.5,172.833 106.833,172.5 107.5,172.5C 110.859,169.471 114.192,166.471 117.5,163.5 Z"/></g>
<g><path style="opacity:1" fill="#100b0b" d="M 154.5,133.5 C 154.973,134.906 155.973,135.573 157.5,135.5C 157.973,136.906 158.973,137.573 160.5,137.5C 161.585,139.587 163.251,140.92 165.5,141.5C 168.296,144.797 171.296,147.964 174.5,151C 172.959,152.371 171.625,153.871 170.5,155.5C 168.833,156.833 167.167,158.167 165.5,159.5C 164.615,151.272 160.282,145.606 152.5,142.5C 143.219,136.701 134.219,137.201 125.5,144C 124.748,144.671 124.414,145.504 124.5,146.5C 121.944,147.543 119.777,149.21 118,151.5C 114.978,154.863 112.312,158.53 110,162.5C 104.796,167.697 99.629,172.697 94.5,177.5C 92.3805,179.4 90.0472,181.066 87.5,182.5C 72.7282,186.949 58.3949,192.449 44.5,199C 32.2886,205.189 22.4553,214.022 15,225.5C 11.8607,236.076 11.6941,246.743 14.5,257.5C 14.7472,258.713 15.4138,259.38 16.5,259.5C 16.3398,261.199 16.5065,262.866 17,264.5C 21.7901,273.246 27.1234,281.579 33,289.5C 35.0367,291.706 37.2034,293.706 39.5,295.5C 42.1667,297.5 44.5,299.833 46.5,302.5C 53.2317,311.083 61.8983,316.75 72.5,319.5C 74.2608,320.313 75.9275,321.313 77.5,322.5C 86.7077,326.796 96.3744,327.629 106.5,325C 111.605,323.256 116.272,320.59 120.5,317C 122.43,313.947 124.93,311.447 128,309.5C 131.468,302.018 135.801,295.018 141,288.5C 143.755,283.581 145.755,278.248 147,272.5C 151.035,266.426 154.535,260.093 157.5,253.5C 158.496,253.586 159.329,253.252 160,252.5C 166.401,243.816 173.567,235.816 181.5,228.5C 184.177,224.316 187.843,221.483 192.5,220C 203.07,211.313 205.57,200.813 200,188.5C 195.716,183.048 190.883,178.048 185.5,173.5C 186.914,171.189 188.747,169.189 191,167.5C 191.708,168.381 192.542,169.047 193.5,169.5C 194.08,171.749 195.413,173.415 197.5,174.5C 208.245,184.663 212.078,196.996 209,211.5C 206.309,217.197 202.475,222.03 197.5,226C 185.38,233.644 174.547,242.81 165,253.5C 157.039,268.377 150.039,283.711 144,299.5C 127.952,331.448 103.119,341.615 69.5,330C 44.2414,313.409 23.7414,292.242 8,266.5C -3.64867,237.035 3.85133,213.869 30.5,197C 45.6022,190.078 60.9356,183.745 76.5,178C 84.5936,174.876 91.7602,170.376 98,164.5C 106.114,153.386 115.28,143.22 125.5,134C 135.052,128.211 144.719,128.044 154.5,133.5 Z"/></g>
<g><path style="opacity:1" fill="#6c2d16" d="M 150.5,257.5 C 151.376,257.369 152.043,257.702 152.5,258.5C 146.846,269.634 141.68,280.968 137,292.5C 131.54,295.708 127.707,300.374 125.5,306.5C 121.11,311.212 116.443,315.712 111.5,320C 109.389,320.845 107.389,321.678 105.5,322.5C 93.9342,323.515 82.9342,321.848 72.5,317.5C 71.1266,317.657 69.7932,317.49 68.5,317C 66.404,315.234 64.0707,313.901 61.5,313C 56.8291,309.001 51.8291,305.501 46.5,302.5C 44.5,299.833 42.1667,297.5 39.5,295.5C 37.5,291.833 35.5,288.167 33.5,284.5C 34.7206,285.028 35.8873,285.695 37,286.5C 37.7625,289.47 39.2625,291.97 41.5,294C 47.73,297.23 53.0633,301.563 57.5,307C 59.3921,307.973 61.3921,308.64 63.5,309C 77.5202,320.084 93.1869,323.084 110.5,318C 114.048,315.953 116.715,313.12 118.5,309.5C 122.12,307.715 124.953,305.048 127,301.5C 130.676,294.494 134.343,287.494 138,280.5C 138.49,279.207 138.657,277.873 138.5,276.5C 139.822,276.67 140.989,276.337 142,275.5C 143.729,270.069 145.562,264.736 147.5,259.5C 146.5,259.5 145.5,259.5 144.5,259.5C 143.5,259.5 142.5,259.5 141.5,259.5C 144.345,258.656 147.345,257.99 150.5,257.5 Z"/></g>
<g><path style="opacity:1" fill="#370d10" d="M 46.5,302.5 C 51.8291,305.501 56.8291,309.001 61.5,313C 64.0707,313.901 66.404,315.234 68.5,317C 69.7932,317.49 71.1266,317.657 72.5,317.5C 72.5,318.167 72.5,318.833 72.5,319.5C 61.8983,316.75 53.2317,311.083 46.5,302.5 Z"/></g>
<g><path style="opacity:1" fill="#cf933d" d="M 93.5,251.5 C 96.8761,254.878 100.543,257.878 104.5,260.5C 107.415,263.959 110.748,266.959 114.5,269.5C 116.363,271.492 118.696,272.992 121.5,274C 120.5,275 119.5,276 118.5,277C 120.425,276.865 122.425,276.698 124.5,276.5C 124.405,279.358 123.238,281.691 121,283.5C 114.334,290.499 107.334,297.165 100,303.5C 98.85,302.576 97.85,302.576 97,303.5C 97,302.167 97,300.833 97,299.5C 96.1074,300.081 95.1074,300.415 94,300.5C 92.1227,299.747 90.2893,298.914 88.5,298C 88.8333,297.667 89.1667,297.333 89.5,297C 88.3333,296.5 87.5,295.667 87,294.5C 85.3116,296.848 83.4783,297.015 81.5,295C 85.4206,291.9 85.0873,290.234 80.5,290C 80.8333,289.667 81.1667,289.333 81.5,289C 79.3065,286.515 76.9732,285.015 74.5,284.5C 73.7492,285.376 73.2492,286.376 73,287.5C 72.3333,286.167 71.6667,286.167 71,287.5C 69.9783,286.646 69.1449,285.646 68.5,284.5C 69.4847,282.902 69.6514,281.235 69,279.5C 67.6569,280.214 66.3236,279.88 65,278.5C 64.7238,276.233 64.0571,273.9 63,271.5C 61.6015,272.051 60.2682,272.384 59,272.5C 58.6258,271.584 58.1258,270.75 57.5,270C 59.0383,268.068 60.205,265.901 61,263.5C 61.414,263.957 61.914,264.291 62.5,264.5C 63.7112,263.726 63.7112,262.893 62.5,262C 63.3279,261.085 64.3279,260.419 65.5,260C 64.5838,259.626 63.7504,259.126 63,258.5C 62.6924,259.308 62.1924,259.975 61.5,260.5C 59.0868,258.07 59.0868,255.737 61.5,253.5C 61.0032,250.45 59.5032,249.45 57,250.5C 56.3828,249.551 56.5494,248.718 57.5,248C 56.8333,247.667 56.1667,247.333 55.5,247C 57.6515,244.531 59.1515,241.698 60,238.5C 63.7556,239.865 65.2556,242.365 64.5,246C 65.5,246.5 66.5,247 67.5,247.5C 69.2012,247.81 70.8678,247.31 72.5,246C 71.6638,242.791 72.9971,240.625 76.5,239.5C 77.8425,240.902 78.6758,240.569 79,238.5C 82.2609,242.414 85.7609,246.08 89.5,249.5C 90.6223,250.63 91.9557,251.297 93.5,251.5 Z"/></g>
<g><path style="opacity:1" fill="#995623" d="M 144.5,259.5 C 145.5,259.5 146.5,259.5 147.5,259.5C 145.562,264.736 143.729,270.069 142,275.5C 140.989,276.337 139.822,276.67 138.5,276.5C 138.657,277.873 138.49,279.207 138,280.5C 134.343,287.494 130.676,294.494 127,301.5C 124.953,305.048 122.12,307.715 118.5,309.5C 116.416,311.077 114.416,312.91 112.5,315C 110.482,315.505 108.482,316.005 106.5,316.5C 113.407,311.099 119.907,305.099 126,298.5C 127.118,296.235 127.951,293.901 128.5,291.5C 129.478,287.408 131.645,284.075 135,281.5C 138.474,274.202 141.641,266.869 144.5,259.5 Z"/></g>
<g><path style="opacity:1" fill="#c28537" d="M 65.5,217.5 C 66.2719,218.694 67.2719,219.694 68.5,220.5C 70.0828,222.663 71.4161,224.996 72.5,227.5C 71.5,227.5 70.5,227.5 69.5,227.5C 69.5,226.5 69.5,225.5 69.5,224.5C 67.4176,224.528 65.5843,223.861 64,222.5C 62.9942,224.937 62.4942,227.437 62.5,230C 61.5,230.5 60.5,231 59.5,231.5C 59.1654,229.997 59.1654,228.664 59.5,227.5C 57.1333,230.347 54.1333,232.18 50.5,233C 51.0606,234.566 50.3939,235.899 48.5,237C 49.8333,237.667 51.1667,238.333 52.5,239C 51.5,239.333 50.5,239.667 49.5,240C 49.8333,240.333 50.1667,240.667 50.5,241C 47.3352,243.979 47.1685,246.812 50,249.5C 50.6838,250.784 50.5171,251.951 49.5,253C 53.4828,253.23 54.1494,254.563 51.5,257C 52.1667,257.333 52.8333,257.667 53.5,258C 52.2567,259.154 51.2567,260.488 50.5,262C 50.5,264 50.5,266 50.5,268C 51.4491,268.617 52.2825,268.451 53,267.5C 53.3333,268.833 53.6667,270.167 54,271.5C 54.3333,271.167 54.6667,270.833 55,270.5C 56.3681,271.993 56.5348,273.493 55.5,275C 56.7441,275.456 57.5774,274.956 58,273.5C 59.2547,274.211 60.4214,275.044 61.5,276C 58.8841,278.421 58.8841,279.921 61.5,280.5C 60.2385,282.575 60.4052,284.575 62,286.5C 62.3242,284.431 63.1575,284.098 64.5,285.5C 65.5794,287.543 67.246,288.876 69.5,289.5C 70.316,291.287 71.316,292.954 72.5,294.5C 75.8795,295.688 78.7128,297.688 81,300.5C 81.6667,299.833 82.3333,299.167 83,298.5C 84.1403,302.253 85.9736,302.919 88.5,300.5C 90.8537,301.06 93.187,301.727 95.5,302.5C 95.2907,303.086 94.9574,303.586 94.5,304C 95.7659,304.309 96.9326,304.809 98,305.5C 99.3333,304.167 100.667,304.167 102,305.5C 103.098,304.033 104.598,303.199 106.5,303C 107.701,302.097 108.535,300.931 109,299.5C 110.68,300.603 112.18,300.27 113.5,298.5C 114.812,293.22 117.645,288.887 122,285.5C 122.414,285.957 122.914,286.291 123.5,286.5C 124.804,282.56 126.637,278.893 129,275.5C 130.308,270.723 130.808,266.056 130.5,261.5C 130.833,261.5 131.167,261.5 131.5,261.5C 133.277,262.6 135.277,263.434 137.5,264C 136.333,264.5 135.5,265.333 135,266.5C 133.511,271.457 132.178,276.457 131,281.5C 127.342,286.494 123.675,291.494 120,296.5C 114.9,300.113 110.4,304.28 106.5,309C 101.646,310.441 96.8125,310.941 92,310.5C 89.7313,308.381 87.2313,307.714 84.5,308.5C 80.6196,307.282 76.9529,305.615 73.5,303.5C 72.5036,300.668 70.5036,299.335 67.5,299.5C 66.7764,295.12 64.1097,293.12 59.5,293.5C 59.5,292.5 59.5,291.5 59.5,290.5C 58.448,290.649 57.448,290.483 56.5,290C 54.2046,286.703 51.538,283.703 48.5,281C 48.8333,280.667 49.1667,280.333 49.5,280C 47.4993,276.675 45.4993,273.342 43.5,270C 44.6257,266.807 43.2923,265.14 39.5,265C 40.1771,262.463 39.1771,260.463 36.5,259C 36.9574,258.586 37.2907,258.086 37.5,257.5C 35.5776,256.04 34.9109,254.373 35.5,252.5C 36.1667,252.167 36.8333,251.833 37.5,251.5C 36.3208,245.42 37.6541,239.92 41.5,235C 40.2889,233.887 40.2889,232.72 41.5,231.5C 45.8017,231.562 48.4683,229.228 49.5,224.5C 52.2972,222.779 54.6305,220.613 56.5,218C 59.1272,215.983 61.6272,216.15 64,218.5C 64.3826,217.944 64.8826,217.611 65.5,217.5 Z"/></g>
<g><path style="opacity:1" fill="#585046" d="M 112.5,255.5 C 113.01,258.674 114.677,261.008 117.5,262.5C 119.45,264.026 121.783,265.026 124.5,265.5C 122.62,270.374 119.286,271.707 114.5,269.5C 110.748,266.959 107.415,263.959 104.5,260.5C 106.439,259.986 107.439,258.653 107.5,256.5C 106.9,254.532 105.567,253.532 103.5,253.5C 104.234,252.292 104.567,250.959 104.5,249.5C 102.263,248.551 99.9294,247.884 97.5,247.5C 96.5084,247.672 95.8417,247.338 95.5,246.5C 97.4646,246.052 97.7979,245.052 96.5,243.5C 95.8165,243.863 95.1499,244.196 94.5,244.5C 93.5084,244.672 92.8417,244.338 92.5,243.5C 94.0481,243.179 94.7148,242.179 94.5,240.5C 93.5,240.5 92.5,240.5 91.5,240.5C 91.5106,238.314 92.5106,237.481 94.5,238C 98.8063,242.306 103.14,246.64 107.5,251C 108.793,251.49 110.127,251.657 111.5,251.5C 111.232,253.099 111.566,254.432 112.5,255.5 Z"/></g>
<g><path style="opacity:1" fill="#3a1111" d="M 156.5,251.5 C 157.338,251.842 157.672,252.508 157.5,253.5C 154.535,260.093 151.035,266.426 147,272.5C 145.755,278.248 143.755,283.581 141,288.5C 135.801,295.018 131.468,302.018 128,309.5C 124.93,311.447 122.43,313.947 120.5,317C 116.272,320.59 111.605,323.256 106.5,325C 96.3744,327.629 86.7077,326.796 77.5,322.5C 83.2879,323.49 89.1212,324.157 95,324.5C 98.8048,324.696 102.305,324.03 105.5,322.5C 107.389,321.678 109.389,320.845 111.5,320C 116.443,315.712 121.11,311.212 125.5,306.5C 127.707,300.374 131.54,295.708 137,292.5C 141.68,280.968 146.846,269.634 152.5,258.5C 152.043,257.702 151.376,257.369 150.5,257.5C 152.167,255.167 154.167,253.167 156.5,251.5 Z"/></g>
<g><path style="opacity:1" fill="#9e6126" d="M 116.5,167.5 C 110.113,174.554 103.446,181.221 96.5,187.5C 93.9888,190.113 90.9888,192.28 87.5,194C 84.7679,194.413 82.1013,195.08 79.5,196C 77.9721,198.24 75.9721,199.907 73.5,201C 49.2921,206.055 34.2921,220.221 28.5,243.5C 28.8333,244.167 29.1667,244.833 29.5,245.5C 28.2606,247.311 27.5939,249.311 27.5,251.5C 28.9501,255.405 30.1168,259.405 31,263.5C 38.4657,277.547 47.6324,290.213 58.5,301.5C 52.6737,299.18 48.507,295.18 46,289.5C 38.33,283.17 32.33,275.504 28,266.5C 22.4743,252.905 22.141,239.239 27,225.5C 30.1754,222.657 33.0087,219.49 35.5,216C 38.4471,215.888 39.7804,214.388 39.5,211.5C 46.4437,210.015 52.777,207.182 58.5,203C 70.1756,198.761 81.509,193.928 92.5,188.5C 100.514,181.484 108.514,174.484 116.5,167.5 Z"/></g>
<g><path style="opacity:1" fill="#8c806e" d="M 92.5,230.5 C 99.1727,236.506 105.506,242.839 111.5,249.5C 112.466,251.396 112.799,253.396 112.5,255.5C 111.566,254.432 111.232,253.099 111.5,251.5C 110.127,251.657 108.793,251.49 107.5,251C 103.14,246.64 98.8063,242.306 94.5,238C 92.5106,237.481 91.5106,238.314 91.5,240.5C 90.5,240.5 89.5,240.5 88.5,240.5C 88.5,239.5 88.5,238.5 88.5,237.5C 91.5476,237.506 92.0476,236.506 90,234.5C 88.6766,237.059 86.8433,237.725 84.5,236.5C 85.5175,235.148 86.8508,234.148 88.5,233.5C 88.1373,232.817 87.8039,232.15 87.5,231.5C 88.9806,231.635 90.6473,231.301 92.5,230.5 Z"/></g>
<g><path style="opacity:1" fill="#979285" d="M 97.5,247.5 C 99.9294,247.884 102.263,248.551 104.5,249.5C 104.567,250.959 104.234,252.292 103.5,253.5C 102.761,253.631 102.094,253.464 101.5,253C 99.7898,251.349 98.4564,249.516 97.5,247.5 Z"/></g>
<g><path style="opacity:1" fill="#bebbab" d="M 95.5,246.5 C 94.6618,246.158 94.3284,245.492 94.5,244.5C 95.1499,244.196 95.8165,243.863 96.5,243.5C 97.7979,245.052 97.4646,246.052 95.5,246.5 Z"/></g>
<g><path style="opacity:1" fill="#ccc9ba" d="M 91.5,240.5 C 92.5,240.5 93.5,240.5 94.5,240.5C 94.7148,242.179 94.0481,243.179 92.5,243.5C 91.596,242.791 91.2627,241.791 91.5,240.5 Z"/></g>
<g><path style="opacity:1" fill="#1f0d0e" d="M 181.5,228.5 C 173.567,235.816 166.401,243.816 160,252.5C 159.329,253.252 158.496,253.586 157.5,253.5C 157.672,252.508 157.338,251.842 156.5,251.5C 160.953,245.59 164.62,239.256 167.5,232.5C 167.47,233.497 167.97,234.164 169,234.5C 171.902,232.363 175.069,230.697 178.5,229.5C 179.391,228.89 180.391,228.557 181.5,228.5 Z"/></g>
<g><path style="opacity:1" fill="#453e34" d="M 87.5,231.5 C 87.8039,232.15 88.1373,232.817 88.5,233.5C 86.8508,234.148 85.5175,235.148 84.5,236.5C 86.8433,237.725 88.6766,237.059 90,234.5C 92.0476,236.506 91.5476,237.506 88.5,237.5C 88.5,238.5 88.5,239.5 88.5,240.5C 89.5,240.5 90.5,240.5 91.5,240.5C 91.2627,241.791 91.596,242.791 92.5,243.5C 92.8417,244.338 93.5084,244.672 94.5,244.5C 94.3284,245.492 94.6618,246.158 95.5,246.5C 95.8417,247.338 96.5084,247.672 97.5,247.5C 98.4564,249.516 99.7898,251.349 101.5,253C 102.094,253.464 102.761,253.631 103.5,253.5C 105.567,253.532 106.9,254.532 107.5,256.5C 107.439,258.653 106.439,259.986 104.5,260.5C 100.543,257.878 96.8761,254.878 93.5,251.5C 87.5,244.5 81.5,237.5 75.5,230.5C 78.8258,230.033 79.1591,228.866 76.5,227C 77.8333,225 79.1667,225 80.5,227C 79.6198,228.356 79.2865,229.856 79.5,231.5C 81.9288,231.415 83.9288,230.415 85.5,228.5C 86.1757,229.602 86.8423,230.602 87.5,231.5 Z"/></g>
<g><path style="opacity:1" fill="#913a1b" d="M 197.5,205.5 C 197.579,206.93 197.246,208.264 196.5,209.5C 186.864,216.97 177.697,224.97 169,233.5C 168.517,232.552 168.351,231.552 168.5,230.5C 168.328,229.508 168.662,228.842 169.5,228.5C 171.95,226.771 174.617,225.271 177.5,224C 184.389,217.939 191.056,211.772 197.5,205.5 Z"/></g>
<g><path style="opacity:1" fill="#642112" d="M 38.5,206.5 C 31.6474,212.861 25.6474,220.028 20.5,228C 17.6984,235.135 17.0317,242.301 18.5,249.5C 20.9536,255.358 23.1203,261.358 25,267.5C 26.8447,272.018 29.5114,276.018 33,279.5C 33.4935,281.134 33.6602,282.801 33.5,284.5C 32.2794,283.972 31.1127,283.305 30,282.5C 26.2755,275.134 22.6088,267.8 19,260.5C 11.4276,239.493 16.2609,222.16 33.5,208.5C 35.1667,207.833 36.8333,207.167 38.5,206.5 Z"/></g>
<g><path style="opacity:1" fill="#d19848" d="M 112.5,207.5 C 113.338,207.842 113.672,208.508 113.5,209.5C 115.564,212.621 117.397,215.954 119,219.5C 120.758,221.765 122.925,223.432 125.5,224.5C 127.738,226.116 130.071,227.449 132.5,228.5C 129.144,233.177 125.311,237.511 121,241.5C 120,248.169 121.5,254.169 125.5,259.5C 123.058,260.994 120.391,261.994 117.5,262.5C 114.677,261.008 113.01,258.674 112.5,255.5C 112.799,253.396 112.466,251.396 111.5,249.5C 105.506,242.839 99.1727,236.506 92.5,230.5C 92.5,230.167 92.5,229.833 92.5,229.5C 99.4303,224.074 105.93,218.074 112,211.5C 112.49,210.207 112.657,208.873 112.5,207.5 Z"/></g>
<g><path style="opacity:1" fill="#99938b" d="M 165.5,194.5 C 166.207,197.786 166.54,201.119 166.5,204.5C 164.552,213.671 159.552,220.671 151.5,225.5C 145.202,226.884 138.869,227.884 132.5,228.5C 130.071,227.449 127.738,226.116 125.5,224.5C 125.918,223.778 126.584,223.278 127.5,223C 125.34,222.004 123.673,220.504 122.5,218.5C 125.65,220.577 128.984,222.41 132.5,224C 143.244,226.877 152.077,224.043 159,215.5C 160.009,213.975 160.509,212.308 160.5,210.5C 160.5,210.167 160.5,209.833 160.5,209.5C 161.497,209.53 162.164,209.03 162.5,208C 163.239,203.873 163.739,199.706 164,195.5C 164.383,194.944 164.883,194.611 165.5,194.5 Z"/></g>
<g><path style="opacity:1" fill="#5a5046" d="M 73.5,212.5 C 74.9394,215.41 76.2727,218.41 77.5,221.5C 77.9528,222.458 78.6195,223.292 79.5,224C 84.6032,224.37 88.9366,226.203 92.5,229.5C 92.5,229.833 92.5,230.167 92.5,230.5C 90.6473,231.301 88.9806,231.635 87.5,231.5C 86.8423,230.602 86.1757,229.602 85.5,228.5C 83.9288,230.415 81.9288,231.415 79.5,231.5C 79.2865,229.856 79.6198,228.356 80.5,227C 79.1667,225 77.8333,225 76.5,227C 79.1591,228.866 78.8258,230.033 75.5,230.5C 74.8333,229.167 73.8333,228.167 72.5,227.5C 71.4161,224.996 70.0828,222.663 68.5,220.5C 68.5364,216.8 70.2031,214.133 73.5,212.5 Z"/></g>
<g><path style="opacity:1" fill="#c88b39" d="M 72.5,227.5 C 73.8333,228.167 74.8333,229.167 75.5,230.5C 81.5,237.5 87.5,244.5 93.5,251.5C 91.9557,251.297 90.6223,250.63 89.5,249.5C 85.7609,246.08 82.2609,242.414 79,238.5C 78.6758,240.569 77.8425,240.902 76.5,239.5C 72.9971,240.625 71.6638,242.791 72.5,246C 70.8678,247.31 69.2012,247.81 67.5,247.5C 66.5,247 65.5,246.5 64.5,246C 65.2556,242.365 63.7556,239.865 60,238.5C 59.1515,241.698 57.6515,244.531 55.5,247C 56.1667,247.333 56.8333,247.667 57.5,248C 56.5494,248.718 56.3828,249.551 57,250.5C 59.5032,249.45 61.0032,250.45 61.5,253.5C 59.0868,255.737 59.0868,258.07 61.5,260.5C 62.1924,259.975 62.6924,259.308 63,258.5C 63.7504,259.126 64.5838,259.626 65.5,260C 64.3279,260.419 63.3279,261.085 62.5,262C 63.7112,262.893 63.7112,263.726 62.5,264.5C 61.914,264.291 61.414,263.957 61,263.5C 60.205,265.901 59.0383,268.068 57.5,270C 58.1258,270.75 58.6258,271.584 59,272.5C 60.2682,272.384 61.6015,272.051 63,271.5C 64.0571,273.9 64.7238,276.233 65,278.5C 66.3236,279.88 67.6569,280.214 69,279.5C 69.6514,281.235 69.4847,282.902 68.5,284.5C 69.1449,285.646 69.9783,286.646 71,287.5C 71.6667,286.167 72.3333,286.167 73,287.5C 73.2492,286.376 73.7492,285.376 74.5,284.5C 76.9732,285.015 79.3065,286.515 81.5,289C 81.1667,289.333 80.8333,289.667 80.5,290C 85.0873,290.234 85.4206,291.9 81.5,295C 83.4783,297.015 85.3116,296.848 87,294.5C 87.5,295.667 88.3333,296.5 89.5,297C 89.1667,297.333 88.8333,297.667 88.5,298C 90.2893,298.914 92.1227,299.747 94,300.5C 95.1074,300.415 96.1074,300.081 97,299.5C 97,300.833 97,302.167 97,303.5C 97.85,302.576 98.85,302.576 100,303.5C 107.334,297.165 114.334,290.499 121,283.5C 123.238,281.691 124.405,279.358 124.5,276.5C 122.425,276.698 120.425,276.865 118.5,277C 119.5,276 120.5,275 121.5,274C 118.696,272.992 116.363,271.492 114.5,269.5C 119.286,271.707 122.62,270.374 124.5,265.5C 121.783,265.026 119.45,264.026 117.5,262.5C 120.391,261.994 123.058,260.994 125.5,259.5C 127.284,259.893 128.95,260.559 130.5,261.5C 130.808,266.056 130.308,270.723 129,275.5C 126.637,278.893 124.804,282.56 123.5,286.5C 122.914,286.291 122.414,285.957 122,285.5C 117.645,288.887 114.812,293.22 113.5,298.5C 112.18,300.27 110.68,300.603 109,299.5C 108.535,300.931 107.701,302.097 106.5,303C 104.598,303.199 103.098,304.033 102,305.5C 100.667,304.167 99.3333,304.167 98,305.5C 96.9326,304.809 95.7659,304.309 94.5,304C 94.9574,303.586 95.2907,303.086 95.5,302.5C 93.187,301.727 90.8537,301.06 88.5,300.5C 85.9736,302.919 84.1403,302.253 83,298.5C 82.3333,299.167 81.6667,299.833 81,300.5C 78.7128,297.688 75.8795,295.688 72.5,294.5C 71.316,292.954 70.316,291.287 69.5,289.5C 67.246,288.876 65.5794,287.543 64.5,285.5C 63.1575,284.098 62.3242,284.431 62,286.5C 60.4052,284.575 60.2385,282.575 61.5,280.5C 58.8841,279.921 58.8841,278.421 61.5,276C 60.4214,275.044 59.2547,274.211 58,273.5C 57.5774,274.956 56.7441,275.456 55.5,275C 56.5348,273.493 56.3681,271.993 55,270.5C 54.6667,270.833 54.3333,271.167 54,271.5C 53.6667,270.167 53.3333,268.833 53,267.5C 52.2825,268.451 51.4491,268.617 50.5,268C 50.5,266 50.5,264 50.5,262C 51.2567,260.488 52.2567,259.154 53.5,258C 52.8333,257.667 52.1667,257.333 51.5,257C 54.1494,254.563 53.4828,253.23 49.5,253C 50.5171,251.951 50.6838,250.784 50,249.5C 47.1685,246.812 47.3352,243.979 50.5,241C 50.1667,240.667 49.8333,240.333 49.5,240C 50.5,239.667 51.5,239.333 52.5,239C 51.1667,238.333 49.8333,237.667 48.5,237C 50.3939,235.899 51.0606,234.566 50.5,233C 54.1333,232.18 57.1333,230.347 59.5,227.5C 59.1654,228.664 59.1654,229.997 59.5,231.5C 60.5,231 61.5,230.5 62.5,230C 62.4942,227.437 62.9942,224.937 64,222.5C 65.5843,223.861 67.4176,224.528 69.5,224.5C 69.5,225.5 69.5,226.5 69.5,227.5C 70.5,227.5 71.5,227.5 72.5,227.5 Z"/></g>
<g><path style="opacity:1" fill="#440c10" d="M 33.5,208.5 C 16.2609,222.16 11.4276,239.493 19,260.5C 22.6088,267.8 26.2755,275.134 30,282.5C 31.1127,283.305 32.2794,283.972 33.5,284.5C 35.5,288.167 37.5,291.833 39.5,295.5C 37.2034,293.706 35.0367,291.706 33,289.5C 27.1234,281.579 21.7901,273.246 17,264.5C 16.5065,262.866 16.3398,261.199 16.5,259.5C 13.8717,248.512 13.8717,237.512 16.5,226.5C 20.374,218.707 26.0407,212.707 33.5,208.5 Z"/></g>
<g><path style="opacity:1" fill="#b4aea4" d="M 116.5,208.5 C 116.977,212.793 118.977,216.127 122.5,218.5C 123.673,220.504 125.34,222.004 127.5,223C 126.584,223.278 125.918,223.778 125.5,224.5C 122.925,223.432 120.758,221.765 119,219.5C 117.397,215.954 115.564,212.621 113.5,209.5C 114.29,208.391 114.79,207.058 115,205.5C 115.232,206.737 115.732,207.737 116.5,208.5 Z"/></g>
<g><path style="opacity:1" fill="#b57933" d="M 65.5,217.5 C 64.8826,217.611 64.3826,217.944 64,218.5C 61.6272,216.15 59.1272,215.983 56.5,218C 54.6305,220.613 52.2972,222.779 49.5,224.5C 48.4683,229.228 45.8017,231.562 41.5,231.5C 40.2889,232.72 40.2889,233.887 41.5,235C 37.6541,239.92 36.3208,245.42 37.5,251.5C 36.8333,251.833 36.1667,252.167 35.5,252.5C 34.9109,254.373 35.5776,256.04 37.5,257.5C 37.2907,258.086 36.9574,258.586 36.5,259C 39.1771,260.463 40.1771,262.463 39.5,265C 43.2923,265.14 44.6257,266.807 43.5,270C 45.4993,273.342 47.4993,276.675 49.5,280C 49.1667,280.333 48.8333,280.667 48.5,281C 51.538,283.703 54.2046,286.703 56.5,290C 57.448,290.483 58.448,290.649 59.5,290.5C 59.5,291.5 59.5,292.5 59.5,293.5C 64.1097,293.12 66.7764,295.12 67.5,299.5C 70.5036,299.335 72.5036,300.668 73.5,303.5C 76.9529,305.615 80.6196,307.282 84.5,308.5C 87.2313,307.714 89.7313,308.381 92,310.5C 96.8125,310.941 101.646,310.441 106.5,309C 110.4,304.28 114.9,300.113 120,296.5C 123.675,291.494 127.342,286.494 131,281.5C 132.178,276.457 133.511,271.457 135,266.5C 135.5,265.333 136.333,264.5 137.5,264C 135.277,263.434 133.277,262.6 131.5,261.5C 135.032,261.69 138.365,261.023 141.5,259.5C 142.5,259.5 143.5,259.5 144.5,259.5C 141.641,266.869 138.474,274.202 135,281.5C 131.645,284.075 129.478,287.408 128.5,291.5C 125.812,292.024 124.312,293.691 124,296.5C 120.728,299.527 117.561,302.694 114.5,306C 111.53,307.153 108.863,308.82 106.5,311C 103.925,311.958 101.259,312.458 98.5,312.5C 91.0913,310.915 83.7579,309.748 76.5,309C 73.8759,305.541 70.5425,303.041 66.5,301.5C 62.6682,298.113 58.6682,294.946 54.5,292C 53.283,290.352 52.4497,288.519 52,286.5C 48.1148,283.617 44.9482,280.117 42.5,276C 41.5533,273.812 41.5533,271.478 42.5,269C 40.5516,268.017 38.7183,266.85 37,265.5C 36.626,263.133 35.4593,261.3 33.5,260C 35.1663,257.508 34.833,255.341 32.5,253.5C 34.9733,251.246 34.9733,249.08 32.5,247C 34.3937,245.921 34.727,244.587 33.5,243C 34.1667,241.667 35.1667,240.667 36.5,240C 35.8333,239.667 35.1667,239.333 34.5,239C 35.2266,237.601 35.7266,236.101 36,234.5C 38.2178,233.076 39.7178,231.076 40.5,228.5C 44.4813,226.491 48.148,224.157 51.5,221.5C 51.5,220.5 51.5,219.5 51.5,218.5C 52.552,218.649 53.552,218.483 54.5,218C 57.1565,214.853 60.3232,212.353 64,210.5C 65.2022,212.677 65.7022,215.011 65.5,217.5 Z"/></g>
<g><path style="opacity:1" fill="#423324" d="M 157.5,191.5 C 149.838,198.995 142.004,206.328 134,213.5C 133.885,215.107 134.385,216.607 135.5,218C 135.257,218.902 134.923,219.735 134.5,220.5C 130.078,219.63 126.745,217.297 124.5,213.5C 133.828,204.339 143.328,195.339 153,186.5C 153.5,187 154,187.5 154.5,188C 147.167,195.333 139.833,202.667 132.5,210C 133.167,210.667 133.833,210.667 134.5,210C 141.167,203.333 147.833,196.667 154.5,190C 156.157,189.275 157.157,189.775 157.5,191.5 Z"/></g>
<g><path style="opacity:1" fill="#ca9956" d="M 145.5,179.5 C 146.492,179.328 147.158,179.662 147.5,180.5C 148.506,181.396 148.506,182.062 147.5,182.5C 147.167,182.5 146.833,182.5 146.5,182.5C 145.791,181.596 144.791,181.263 143.5,181.5C 127.245,181.087 119.578,188.753 120.5,204.5C 120.5,204.833 120.5,205.167 120.5,205.5C 120.5,206.167 120.5,206.833 120.5,207.5C 120.989,208.995 121.655,210.329 122.5,211.5C 122.842,212.338 123.508,212.672 124.5,212.5C 124.5,212.833 124.5,213.167 124.5,213.5C 126.745,217.297 130.078,219.63 134.5,220.5C 137.604,221.775 140.604,221.775 143.5,220.5C 155.019,217.291 160.353,209.624 159.5,197.5C 159.672,196.508 159.338,195.842 158.5,195.5C 158.5,194.833 158.5,194.167 158.5,193.5C 158.5,193.167 158.5,192.833 158.5,192.5C 159.5,193.167 160.5,193.833 161.5,194.5C 161.726,199.562 161.392,204.562 160.5,209.5C 160.5,209.833 160.5,210.167 160.5,210.5C 151.778,223.68 140.445,226.514 126.5,219C 116.472,209.757 114.972,199.257 122,187.5C 128.306,180.564 136.14,177.897 145.5,179.5 Z"/></g>
<g><path style="opacity:1" fill="#40403e" d="M 166.5,204.5 C 165.875,212.915 162.208,219.748 155.5,225C 154.207,225.49 152.873,225.657 151.5,225.5C 159.552,220.671 164.552,213.671 166.5,204.5 Z"/></g>
<g><path style="opacity:1" fill="#36090f" d="M 185.5,173.5 C 190.883,178.048 195.716,183.048 200,188.5C 205.57,200.813 203.07,211.313 192.5,220C 187.843,221.483 184.177,224.316 181.5,228.5C 180.391,228.557 179.391,228.89 178.5,229.5C 184.71,222.619 191.544,216.285 199,210.5C 201.142,206.03 201.809,201.363 201,196.5C 198.398,192.294 196.064,187.961 194,183.5C 190.884,180.211 187.717,177.211 184.5,174.5C 184.5,173.833 184.833,173.5 185.5,173.5 Z"/></g>
<g><path style="opacity:1" fill="#aa6f2e" d="M 96.5,187.5 C 93.3362,193.495 88.5029,197.495 82,199.5C 80.0394,202.463 77.706,205.129 75,207.5C 73.9914,209.025 73.4914,210.692 73.5,212.5C 70.2031,214.133 68.5364,216.8 68.5,220.5C 67.2719,219.694 66.2719,218.694 65.5,217.5C 65.7022,215.011 65.2022,212.677 64,210.5C 60.3232,212.353 57.1565,214.853 54.5,218C 53.552,218.483 52.552,218.649 51.5,218.5C 51.5,219.5 51.5,220.5 51.5,221.5C 48.148,224.157 44.4813,226.491 40.5,228.5C 39.7178,231.076 38.2178,233.076 36,234.5C 35.7266,236.101 35.2266,237.601 34.5,239C 35.1667,239.333 35.8333,239.667 36.5,240C 35.1667,240.667 34.1667,241.667 33.5,243C 34.727,244.587 34.3937,245.921 32.5,247C 34.9733,249.08 34.9733,251.246 32.5,253.5C 34.833,255.341 35.1663,257.508 33.5,260C 35.4593,261.3 36.626,263.133 37,265.5C 38.7183,266.85 40.5516,268.017 42.5,269C 41.5533,271.478 41.5533,273.812 42.5,276C 44.9482,280.117 48.1148,283.617 52,286.5C 52.4497,288.519 53.283,290.352 54.5,292C 58.6682,294.946 62.6682,298.113 66.5,301.5C 70.5425,303.041 73.8759,305.541 76.5,309C 83.7579,309.748 91.0913,310.915 98.5,312.5C 101.259,312.458 103.925,311.958 106.5,311C 108.863,308.82 111.53,307.153 114.5,306C 117.561,302.694 120.728,299.527 124,296.5C 124.312,293.691 125.812,292.024 128.5,291.5C 127.951,293.901 127.118,296.235 126,298.5C 119.907,305.099 113.407,311.099 106.5,316.5C 99.1124,316.747 91.779,316.247 84.5,315C 76.7853,312.862 69.452,309.862 62.5,306C 60.9586,304.629 59.6253,303.129 58.5,301.5C 47.6324,290.213 38.4657,277.547 31,263.5C 30.1168,259.405 28.9501,255.405 27.5,251.5C 27.5939,249.311 28.2606,247.311 29.5,245.5C 29.1667,244.833 28.8333,244.167 28.5,243.5C 34.2921,220.221 49.2921,206.055 73.5,201C 75.9721,199.907 77.9721,198.24 79.5,196C 82.1013,195.08 84.7679,194.413 87.5,194C 90.9888,192.28 93.9888,190.113 96.5,187.5 Z"/></g>
<g><path style="opacity:1" fill="#753215" d="M 58.5,199.5 C 57.8592,200.482 57.1925,201.482 56.5,202.5C 52.7741,204.603 48.7741,206.103 44.5,207C 42.4241,209.584 39.7574,211.251 36.5,212C 33.9928,216.507 30.4928,220.007 26,222.5C 21.769,231.098 19.269,240.098 18.5,249.5C 17.0317,242.301 17.6984,235.135 20.5,228C 25.6474,220.028 31.6474,212.861 38.5,206.5C 39.7095,206.068 40.7095,205.401 41.5,204.5C 46.766,201.86 52.4326,200.193 58.5,199.5 Z"/></g>
<g><path style="opacity:1" fill="#5f1312" d="M 184.5,174.5 C 187.717,177.211 190.884,180.211 194,183.5C 196.064,187.961 198.398,192.294 201,196.5C 201.809,201.363 201.142,206.03 199,210.5C 191.544,216.285 184.71,222.619 178.5,229.5C 175.069,230.697 171.902,232.363 169,234.5C 167.97,234.164 167.47,233.497 167.5,232.5C 167.328,231.508 167.662,230.842 168.5,230.5C 168.351,231.552 168.517,232.552 169,233.5C 177.697,224.97 186.864,216.97 196.5,209.5C 197.246,208.264 197.579,206.93 197.5,205.5C 199.026,204.508 199.693,203.008 199.5,201C 198.772,197.372 197.606,193.872 196,190.5C 191.969,185.304 187.469,180.637 182.5,176.5C 182.833,175.5 183.5,174.833 184.5,174.5 Z"/></g>
<g><path style="opacity:1" fill="#baa27d" d="M 165.5,193.5 C 165.5,193.833 165.5,194.167 165.5,194.5C 164.883,194.611 164.383,194.944 164,195.5C 163.739,199.706 163.239,203.873 162.5,208C 162.164,209.03 161.497,209.53 160.5,209.5C 161.392,204.562 161.726,199.562 161.5,194.5C 162.833,194.167 164.167,193.833 165.5,193.5 Z"/></g>
<g><path style="opacity:1" fill="#ca883f" d="M 172.5,216.5 C 172.868,208.72 172.202,201.053 170.5,193.5C 170.511,191.983 171.177,190.816 172.5,190C 174.526,188.041 176.692,187.207 179,187.5C 186.181,192.066 188.848,198.399 187,206.5C 186,207.167 185,207.833 184,208.5C 181.799,213.869 178.299,218.203 173.5,221.5C 172.548,219.955 172.215,218.288 172.5,216.5 Z"/></g>
<g><path style="opacity:1" fill="#c98b3b" d="M 112.5,205.5 C 112.5,206.167 112.5,206.833 112.5,207.5C 112.657,208.873 112.49,210.207 112,211.5C 105.93,218.074 99.4303,224.074 92.5,229.5C 88.9366,226.203 84.6032,224.37 79.5,224C 78.6195,223.292 77.9528,222.458 77.5,221.5C 77.9555,218.797 78.6221,216.13 79.5,213.5C 79.2444,212.311 78.9111,211.144 78.5,210C 80.5437,207.943 81.7103,205.443 82,202.5C 85.3289,201.115 88.4955,199.448 91.5,197.5C 94.1667,194.167 97.1667,191.167 100.5,188.5C 101.852,190.636 103.518,190.97 105.5,189.5C 106.833,191.182 108,192.849 109,194.5C 109.667,193.167 110.333,193.167 111,194.5C 111.177,198.356 111.677,202.023 112.5,205.5 Z"/></g>
<g><path style="opacity:1" fill="#b37132" d="M 179.5,178.5 C 179.461,179.583 179.127,180.583 178.5,181.5C 180.5,182.333 182.5,183.167 184.5,184C 187.236,188.577 190.569,192.744 194.5,196.5C 195.648,200.147 195.648,203.814 194.5,207.5C 192.692,207.491 191.025,207.991 189.5,209C 182.284,214.721 175.617,220.888 169.5,227.5C 169.742,223.521 170.742,219.854 172.5,216.5C 172.215,218.288 172.548,219.955 173.5,221.5C 178.299,218.203 181.799,213.869 184,208.5C 185,207.833 186,207.167 187,206.5C 188.848,198.399 186.181,192.066 179,187.5C 176.692,187.207 174.526,188.041 172.5,190C 171.177,190.816 170.511,191.983 170.5,193.5C 169.655,192.329 168.989,190.995 168.5,189.5C 171.833,185.5 175.5,181.833 179.5,178.5 Z"/></g>
<g><path style="opacity:1" fill="#121010" d="M 168.5,189.5 C 168.989,190.995 169.655,192.329 170.5,193.5C 172.202,201.053 172.868,208.72 172.5,216.5C 170.742,219.854 169.742,223.521 169.5,227.5C 169.5,227.833 169.5,228.167 169.5,228.5C 168.662,228.842 168.328,229.508 168.5,230.5C 167.662,230.842 167.328,231.508 167.5,232.5C 164.62,239.256 160.953,245.59 156.5,251.5C 154.167,253.167 152.167,255.167 150.5,257.5C 147.345,257.99 144.345,258.656 141.5,259.5C 138.365,261.023 135.032,261.69 131.5,261.5C 131.167,261.5 130.833,261.5 130.5,261.5C 128.95,260.559 127.284,259.893 125.5,259.5C 121.5,254.169 120,248.169 121,241.5C 125.311,237.511 129.144,233.177 132.5,228.5C 138.869,227.884 145.202,226.884 151.5,225.5C 152.873,225.657 154.207,225.49 155.5,225C 162.208,219.748 165.875,212.915 166.5,204.5C 166.54,201.119 166.207,197.786 165.5,194.5C 165.5,194.167 165.5,193.833 165.5,193.5C 165.833,192.833 166.167,192.167 166.5,191.5C 166.833,190.5 167.5,189.833 168.5,189.5 Z"/></g>
<g><path style="opacity:1" fill="#310b0e" d="M 87.5,182.5 C 84.2661,185.612 80.2661,187.445 75.5,188C 73.8839,188.615 72.5505,189.615 71.5,191C 65.9605,191.859 61.2938,194.192 57.5,198C 51.1324,198.069 45.7991,200.236 41.5,204.5C 40.7095,205.401 39.7095,206.068 38.5,206.5C 36.8333,207.167 35.1667,207.833 33.5,208.5C 26.0407,212.707 20.374,218.707 16.5,226.5C 13.8717,237.512 13.8717,248.512 16.5,259.5C 15.4138,259.38 14.7472,258.713 14.5,257.5C 11.6941,246.743 11.8607,236.076 15,225.5C 22.4553,214.022 32.2886,205.189 44.5,199C 58.3949,192.449 72.7282,186.949 87.5,182.5 Z"/></g>
<g><path style="opacity:1" fill="#3c2e20" d="M 158.5,193.5 C 158.5,194.167 158.5,194.833 158.5,195.5C 152.036,202.465 145.369,209.298 138.5,216C 137.035,216.601 136.035,216.101 135.5,214.5C 142.881,207.115 150.548,200.115 158.5,193.5 Z"/></g>
<g><path style="opacity:1" fill="#57493a" d="M 157.5,191.5 C 157.5,192.167 157.833,192.5 158.5,192.5C 158.5,192.833 158.5,193.167 158.5,193.5C 150.548,200.115 142.881,207.115 135.5,214.5C 136.035,216.101 137.035,216.601 138.5,216C 145.369,209.298 152.036,202.465 158.5,195.5C 159.338,195.842 159.672,196.508 159.5,197.5C 152.368,204.131 145.368,210.964 138.5,218C 139.653,219.883 141.319,220.716 143.5,220.5C 140.604,221.775 137.604,221.775 134.5,220.5C 134.923,219.735 135.257,218.902 135.5,218C 134.385,216.607 133.885,215.107 134,213.5C 142.004,206.328 149.838,198.995 157.5,191.5 Z"/></g>
<g><path style="opacity:1" fill="#403120" d="M 146.5,182.5 C 146.833,182.5 147.167,182.5 147.5,182.5C 147.631,183.239 147.464,183.906 147,184.5C 138.864,191.635 131.03,199.135 123.5,207C 122.552,207.483 121.552,207.649 120.5,207.5C 120.5,206.833 120.5,206.167 120.5,205.5C 129.186,197.811 137.853,190.144 146.5,182.5 Z"/></g>
<g><path style="opacity:1" fill="#873119" d="M 181.5,176.5 C 181.833,176.5 182.167,176.5 182.5,176.5C 187.469,180.637 191.969,185.304 196,190.5C 197.606,193.872 198.772,197.372 199.5,201C 199.693,203.008 199.026,204.508 197.5,205.5C 197.963,201.172 197.13,197.172 195,193.5C 192.443,187.44 188.276,182.774 182.5,179.5C 181.614,178.675 181.281,177.675 181.5,176.5 Z"/></g>
<g><path style="opacity:1" fill="#3d2e1f" d="M 159.5,197.5 C 160.353,209.624 155.019,217.291 143.5,220.5C 141.319,220.716 139.653,219.883 138.5,218C 145.368,210.964 152.368,204.131 159.5,197.5 Z"/></g>
<g><path style="opacity:1" fill="#82796e" d="M 116.5,186.5 C 117.043,186.56 117.376,186.893 117.5,187.5C 113.979,192.692 112.813,198.359 114,204.5C 114.242,200.57 115.075,196.903 116.5,193.5C 116.5,198.5 116.5,203.5 116.5,208.5C 115.732,207.737 115.232,206.737 115,205.5C 114.79,207.058 114.29,208.391 113.5,209.5C 113.672,208.508 113.338,207.842 112.5,207.5C 112.5,206.833 112.5,206.167 112.5,205.5C 112.334,201.154 112.501,196.821 113,192.5C 113.941,190.273 115.108,188.273 116.5,186.5 Z"/></g>
<g><path style="opacity:1" fill="#3e2f1f" d="M 124.5,212.5 C 123.508,212.672 122.842,212.338 122.5,211.5C 130.81,201.024 140.31,191.69 151,183.5C 151.5,184 152,184.5 152.5,185C 142.662,193.672 133.328,202.839 124.5,212.5 Z"/></g>
<g><path style="opacity:1" fill="#b9a07d" d="M 145.5,179.5 C 136.14,177.897 128.306,180.564 122,187.5C 114.972,199.257 116.472,209.757 126.5,219C 140.445,226.514 151.778,223.68 160.5,210.5C 160.509,212.308 160.009,213.975 159,215.5C 152.077,224.043 143.244,226.877 132.5,224C 128.984,222.41 125.65,220.577 122.5,218.5C 118.977,216.127 116.977,212.793 116.5,208.5C 116.5,203.5 116.5,198.5 116.5,193.5C 119.459,187.88 123.459,183.213 128.5,179.5C 133.704,177.746 139.037,177.246 144.5,178C 145.056,178.383 145.389,178.883 145.5,179.5 Z"/></g>
<g><path style="opacity:1" fill="#5a584d" d="M 166.5,191.5 C 166.167,192.167 165.833,192.833 165.5,193.5C 164.167,193.833 162.833,194.167 161.5,194.5C 160.5,193.833 159.5,193.167 158.5,192.5C 160.706,187.715 163.372,187.382 166.5,191.5 Z"/></g>
<g><path style="opacity:1" fill="#7c6d56" d="M 143.5,181.5 C 144.791,181.263 145.791,181.596 146.5,182.5C 137.853,190.144 129.186,197.811 120.5,205.5C 120.5,205.167 120.5,204.833 120.5,204.5C 128.473,197.194 136.14,189.527 143.5,181.5 Z"/></g>
<g><path style="opacity:1" fill="#4b3b28" d="M 143.5,181.5 C 136.14,189.527 128.473,197.194 120.5,204.5C 119.578,188.753 127.245,181.087 143.5,181.5 Z"/></g>
<g><path style="opacity:1" fill="#a35423" d="M 181.5,176.5 C 181.281,177.675 181.614,178.675 182.5,179.5C 188.276,182.774 192.443,187.44 195,193.5C 197.13,197.172 197.963,201.172 197.5,205.5C 191.056,211.772 184.389,217.939 177.5,224C 174.617,225.271 171.95,226.771 169.5,228.5C 169.5,228.167 169.5,227.833 169.5,227.5C 175.617,220.888 182.284,214.721 189.5,209C 191.025,207.991 192.692,207.491 194.5,207.5C 195.648,203.814 195.648,200.147 194.5,196.5C 190.569,192.744 187.236,188.577 184.5,184C 182.5,183.167 180.5,182.333 178.5,181.5C 179.127,180.583 179.461,179.583 179.5,178.5C 179.833,177.5 180.5,176.833 181.5,176.5 Z"/></g>
<g><path style="opacity:1" fill="#9f9a94" d="M 128.5,179.5 C 123.459,183.213 119.459,187.88 116.5,193.5C 115.075,196.903 114.242,200.57 114,204.5C 112.813,198.359 113.979,192.692 117.5,187.5C 117.376,186.893 117.043,186.56 116.5,186.5C 117.422,184.184 119.089,182.517 121.5,181.5C 124.834,179.166 128.501,177.333 132.5,176C 136.833,175.333 141.167,175.333 145.5,176C 141.5,176.333 137.5,176.667 133.5,177C 131.509,177.374 129.842,178.207 128.5,179.5 Z"/></g>
<g><path style="opacity:1" fill="#7d3818" d="M 106.5,173.5 C 101.915,176.644 97.9155,180.477 94.5,185C 91.2448,186.299 88.2448,187.965 85.5,190C 82.8832,190.822 80.2165,191.322 77.5,191.5C 82.3273,187.917 87.6606,185.084 93.5,183C 97.1449,178.849 101.478,175.682 106.5,173.5 Z"/></g>
<g><path style="opacity:1" fill="#7e7669" d="M 157.5,167.5 C 158.552,167.351 159.552,167.517 160.5,168C 158.536,169.451 157.203,171.284 156.5,173.5C 153.233,175.427 150.233,177.761 147.5,180.5C 147.158,179.662 146.492,179.328 145.5,179.5C 145.389,178.883 145.056,178.383 144.5,178C 139.037,177.246 133.704,177.746 128.5,179.5C 129.842,178.207 131.509,177.374 133.5,177C 137.5,176.667 141.5,176.333 145.5,176C 141.167,175.333 136.833,175.333 132.5,176C 128.501,177.333 124.834,179.166 121.5,181.5C 121.414,180.504 121.748,179.671 122.5,179C 129.411,174.223 137.078,172.389 145.5,173.5C 146.946,174.613 148.613,174.78 150.5,174C 152.729,171.6 155.063,169.433 157.5,167.5 Z"/></g>
<g><path style="opacity:1" fill="#340a11" d="M 152.5,142.5 C 149.608,142.279 146.941,141.446 144.5,140C 137.024,139.702 130.357,141.868 124.5,146.5C 124.414,145.504 124.748,144.671 125.5,144C 134.219,137.201 143.219,136.701 152.5,142.5 Z"/></g>
<g><path style="opacity:1" fill="#4d1511" d="M 72.5,317.5 C 82.9342,321.848 93.9342,323.515 105.5,322.5C 102.305,324.03 98.8048,324.696 95,324.5C 89.1212,324.157 83.2879,323.49 77.5,322.5C 75.9275,321.313 74.2608,320.313 72.5,319.5C 72.5,318.833 72.5,318.167 72.5,317.5 Z"/></g>
</svg>
