<?xml version="1.0" encoding="UTF-8"?>
<!DOCTYPE svg PUBLIC "-//W3C//DTD SVG 1.1//EN" "http://www.w3.org/Graphics/SVG/1.1/DTD/svg11.dtd">
<svg xmlns="http://www.w3.org/2000/svg" version="1.1" width="358px" height="357px" style="shape-rendering:geometricPrecision; text-rendering:geometricPrecision; image-rendering:optimizeQuality; fill-rule:evenodd; clip-rule:evenodd" xmlns:xlink="http://www.w3.org/1999/xlink">
<g><path style="opacity:1" fill="#fefefe" d="M -0.5,-0.5 C 118.833,-0.5 238.167,-0.5 357.5,-0.5C 357.5,118.5 357.5,237.5 357.5,356.5C 238.167,356.5 118.833,356.5 -0.5,356.5C -0.5,237.5 -0.5,118.5 -0.5,-0.5 Z"/></g>
<g><path style="opacity:1" fill="#b4b4b6" d="M 334.5,15.5 C 334.167,15.5 333.833,15.5 333.5,15.5C 326.173,14.2251 325.673,11.8918 332,8.5C 333.107,8.58524 334.107,8.91858 335,9.5C 335.18,11.4884 335.014,13.4884 334.5,15.5 Z"/></g>
<g><path style="opacity:1" fill="#b2b3b5" d="M 324.5,20.5 C 322.5,20.5 320.5,20.5 318.5,20.5C 317.454,16.2445 318.954,13.5778 323,12.5C 324.833,13 326,14.1667 326.5,16C 325.586,17.4064 324.92,18.9064 324.5,20.5 Z"/></g>
<g><path style="opacity:1" fill="#b8b9bb" d="M 314.5,25.5 C 312.396,25.7989 310.396,25.4656 308.5,24.5C 307.521,18.8413 309.854,17.1747 315.5,19.5C 315.833,20.1667 316.167,20.8333 316.5,21.5C 315.37,22.6223 314.703,23.9557 314.5,25.5 Z"/></g>
<g><path style="opacity:1" fill="#b0967a" d="M 349.5,31.5 C 349.5,32.1667 349.167,32.5 348.5,32.5C 346.143,32.6633 343.81,32.4966 341.5,32C 340.149,29.7355 338.483,27.9022 336.5,26.5C 336.5,25.1667 336.5,23.8333 336.5,22.5C 337.158,23.3984 337.824,24.3984 338.5,25.5C 340.883,21.5417 344.216,20.5417 348.5,22.5C 350.782,25.2536 351.115,28.2536 349.5,31.5 Z"/></g>
<g><path style="opacity:1" fill="#a9abac" d="M 305.5,31.5 C 305.167,31.5 304.833,31.5 304.5,31.5C 303.791,30.596 302.791,30.2627 301.5,30.5C 301.714,28.8561 301.38,27.3561 300.5,26C 302.631,22.7127 304.631,22.7127 306.5,26C 305.767,27.7659 305.433,29.5992 305.5,31.5 Z"/></g>
<g><path style="opacity:1" fill="#b3b4b7" d="M 295.5,36.5 C 295.167,36.5 294.833,36.5 294.5,36.5C 289.866,36.2992 288.2,34.1326 289.5,30C 292.416,27.6566 294.75,27.9899 296.5,31C 295.767,32.7659 295.433,34.5992 295.5,36.5 Z"/></g>
<g><path style="opacity:1" fill="#b0b1b4" d="M 286.5,40.5 C 286.158,41.3382 285.492,41.6716 284.5,41.5C 278.956,40.91 277.623,38.41 280.5,34C 282.579,33.1923 284.579,33.359 286.5,34.5C 286.792,36.6887 286.792,38.6887 286.5,40.5 Z"/></g>
<g><path style="opacity:1" fill="#685f55" d="M 297.5,42.5 C 298.158,46.6772 296.492,48.1772 292.5,47C 291.944,46.6174 291.611,46.1174 291.5,45.5C 291.884,41.5564 293.884,40.5564 297.5,42.5 Z"/></g>
<g><path style="opacity:1" fill="#ceaf90" d="M 311.5,34.5 C 311.722,37.0764 313.055,37.9098 315.5,37C 316.38,35.6439 316.714,34.1439 316.5,32.5C 320.285,34.44 320.452,36.7733 317,39.5C 315.506,38.2528 314.006,38.2528 312.5,39.5C 313.243,40.1818 313.909,40.8485 314.5,41.5C 313.005,41.4148 312.005,42.0815 311.5,43.5C 312.85,44.9501 314.516,45.6168 316.5,45.5C 316.587,48.5983 316.087,48.9316 315,46.5C 314.53,48.7738 313.53,50.7738 312,52.5C 309.618,48.565 309.118,48.8983 310.5,53.5C 309.865,54.9663 309.031,56.2997 308,57.5C 307.667,56.8333 307.333,56.1667 307,55.5C 306,57.5 305,59.5 304,61.5C 299.626,60.0732 298.793,61.0732 301.5,64.5C 297.126,65.0023 294.459,67.3356 293.5,71.5C 292.209,71.2627 291.209,71.596 290.5,72.5C 288.589,73.075 286.922,74.075 285.5,75.5C 284.19,73.8523 282.857,72.1856 281.5,70.5C 282.48,69.0186 283.647,67.6853 285,66.5C 285.494,64.8659 285.66,63.1992 285.5,61.5C 281.853,61.6216 279.019,63.2882 277,66.5C 275.629,64.9586 274.129,63.6253 272.5,62.5C 272.5,61.8333 272.833,61.5 273.5,61.5C 276.833,58.8333 279.833,55.8333 282.5,52.5C 286.5,53.1667 288.167,51.5 287.5,47.5C 288.315,46.5707 289.148,45.5707 290,44.5C 290.383,45.056 290.883,45.3893 291.5,45.5C 291.611,46.1174 291.944,46.6174 292.5,47C 296.492,48.1772 298.158,46.6772 297.5,42.5C 296.411,40.8829 294.744,40.0496 292.5,40C 293.416,39.7216 294.082,39.2216 294.5,38.5C 294.5,37.8333 294.5,37.1667 294.5,36.5C 294.833,36.5 295.167,36.5 295.5,36.5C 296.959,36.5674 298.292,36.2341 299.5,35.5C 300.239,35.369 300.906,35.5357 301.5,36C 300.199,37.6155 300.199,39.1155 301.5,40.5C 302.932,42.6469 304.765,42.9802 307,41.5C 308.077,38.7383 307.244,37.0717 304.5,36.5C 305.234,35.2921 305.567,33.9587 305.5,32.5C 307.718,32.6138 309.718,33.2804 311.5,34.5 Z"/></g>
<g><path style="opacity:1" fill="#5d544b" d="M 304.5,36.5 C 307.244,37.0717 308.077,38.7383 307,41.5C 304.765,42.9802 302.932,42.6469 301.5,40.5C 301.088,38.0274 302.088,36.6941 304.5,36.5 Z"/></g>
<g><path style="opacity:1" fill="#d4b799" d="M 349.5,31.5 C 351.115,28.2536 350.782,25.2536 348.5,22.5C 344.216,20.5417 340.883,21.5417 338.5,25.5C 337.824,24.3984 337.158,23.3984 336.5,22.5C 335.749,21.4265 334.749,21.2599 333.5,22C 333.833,22.3333 334.167,22.6667 334.5,23C 330.52,26.5316 331.186,27.6983 336.5,26.5C 338.483,27.9022 340.149,29.7355 341.5,32C 343.81,32.4966 346.143,32.6633 348.5,32.5C 344.097,32.9871 339.764,34.1538 335.5,36C 323.712,47.4478 313.046,59.7811 303.5,73C 299.195,72.923 294.862,72.7563 290.5,72.5C 291.209,71.596 292.209,71.2627 293.5,71.5C 294.459,67.3356 297.126,65.0023 301.5,64.5C 303.413,67.0416 303.747,66.7083 302.5,63.5C 306.106,61.3972 309.273,58.7306 312,55.5C 314.438,56.8663 314.938,56.3663 313.5,54C 315.506,51.3287 317.506,48.662 319.5,46C 317.76,44.483 316.094,42.983 314.5,41.5C 313.909,40.8485 313.243,40.1818 312.5,39.5C 314.006,38.2528 315.506,38.2528 317,39.5C 320.452,36.7733 320.285,34.44 316.5,32.5C 315.399,31.4017 314.066,31.235 312.5,32C 314.857,33.22 314.524,34.0533 311.5,34.5C 309.718,33.2804 307.718,32.6138 305.5,32.5C 305.567,33.9587 305.234,35.2921 304.5,36.5C 302.088,36.6941 301.088,38.0274 301.5,40.5C 300.199,39.1155 300.199,37.6155 301.5,36C 300.906,35.5357 300.239,35.369 299.5,35.5C 301.506,34.5149 303.173,33.1816 304.5,31.5C 304.833,31.5 305.167,31.5 305.5,31.5C 308.366,30.2407 311.366,29.2407 314.5,28.5C 314.5,27.5 314.5,26.5 314.5,25.5C 315.15,25.8039 315.817,26.1373 316.5,26.5C 318.979,24.9239 321.646,23.9239 324.5,23.5C 324.5,22.5 324.5,21.5 324.5,20.5C 328.352,20.7344 331.352,19.0678 333.5,15.5C 333.833,15.5 334.167,15.5 334.5,15.5C 346.684,10.6603 352.851,14.6603 353,27.5C 352.34,29.3237 351.173,30.657 349.5,31.5 Z"/></g>
<g><path style="opacity:1" fill="#816f5b" d="M 327.5,38.5 C 328.043,38.56 328.376,38.8933 328.5,39.5C 326.808,41.3586 325.308,43.3586 324,45.5C 323.5,45 323,44.5 322.5,44C 324.373,42.2962 326.04,40.4628 327.5,38.5 Z"/></g>
<g><path style="opacity:1" fill="#4f463d" d="M 316.5,32.5 C 316.714,34.1439 316.38,35.6439 315.5,37C 313.055,37.9098 311.722,37.0764 311.5,34.5C 314.524,34.0533 314.857,33.22 312.5,32C 314.066,31.235 315.399,31.4017 316.5,32.5 Z"/></g>
<g><path style="opacity:1" fill="#443d37" d="M 323.5,27.5 C 325.023,26.2541 326.023,26.7541 326.5,29C 325.531,32.737 323.864,33.237 321.5,30.5C 322.5,29.6667 323.5,28.8333 324.5,28C 324.272,27.6012 323.938,27.4346 323.5,27.5 Z"/></g>
<g><path style="opacity:1" fill="#453e38" d="M 336.5,22.5 C 336.5,23.8333 336.5,25.1667 336.5,26.5C 331.186,27.6983 330.52,26.5316 334.5,23C 334.167,22.6667 333.833,22.3333 333.5,22C 334.749,21.2599 335.749,21.4265 336.5,22.5 Z"/></g>
<g><path style="opacity:1" fill="#635a4f" d="M 287.5,47.5 C 288.167,51.5 286.5,53.1667 282.5,52.5C 282.48,50.857 283.147,49.5237 284.5,48.5C 284.291,47.914 283.957,47.414 283.5,47C 285.066,46.235 286.399,46.4017 287.5,47.5 Z"/></g>
<g><path style="opacity:1" fill="#dabea2" d="M 294.5,38.5 C 294.082,39.2216 293.416,39.7216 292.5,40C 294.744,40.0496 296.411,40.8829 297.5,42.5C 293.884,40.5564 291.884,41.5564 291.5,45.5C 290.883,45.3893 290.383,45.056 290,44.5C 289.148,45.5707 288.315,46.5707 287.5,47.5C 286.399,46.4017 285.066,46.235 283.5,47C 283.957,47.414 284.291,47.914 284.5,48.5C 283.147,49.5237 282.48,50.857 282.5,52.5C 279.833,55.8333 276.833,58.8333 273.5,61.5C 273.685,59.8042 274.519,58.4709 276,57.5C 276.003,53.4334 276.17,49.4334 276.5,45.5C 279.259,44.1207 281.925,42.7874 284.5,41.5C 285.492,41.6716 286.158,41.3382 286.5,40.5C 289.006,39.2504 291.673,38.5838 294.5,38.5 Z"/></g>
<g><path style="opacity:1" fill="#8a7662" d="M 314.5,41.5 C 316.094,42.983 317.76,44.483 319.5,46C 317.506,48.662 315.506,51.3287 313.5,54C 314.938,56.3663 314.438,56.8663 312,55.5C 309.273,58.7306 306.106,61.3972 302.5,63.5C 303.747,66.7083 303.413,67.0416 301.5,64.5C 298.793,61.0732 299.626,60.0732 304,61.5C 305,59.5 306,57.5 307,55.5C 307.333,56.1667 307.667,56.8333 308,57.5C 309.031,56.2997 309.865,54.9663 310.5,53.5C 309.118,48.8983 309.618,48.565 312,52.5C 313.53,50.7738 314.53,48.7738 315,46.5C 316.087,48.9316 316.587,48.5983 316.5,45.5C 314.516,45.6168 312.85,44.9501 311.5,43.5C 312.005,42.0815 313.005,41.4148 314.5,41.5 Z"/></g>
<g><path style="opacity:1" fill="#554c42" d="M 285.5,75.5 C 284.833,75.8333 284.167,76.1667 283.5,76.5C 278.742,72.7469 274.742,68.4136 271.5,63.5C 271.5,62.8333 271.833,62.5 272.5,62.5C 274.129,63.6253 275.629,64.9586 277,66.5C 279.019,63.2882 281.853,61.6216 285.5,61.5C 285.66,63.1992 285.494,64.8659 285,66.5C 283.647,67.6853 282.48,69.0186 281.5,70.5C 282.857,72.1856 284.19,73.8523 285.5,75.5 Z"/></g>
<g><path style="opacity:1" fill="#c3a381" d="M 271.5,63.5 C 274.742,68.4136 278.742,72.7469 283.5,76.5C 261.319,100.067 238.985,123.4 216.5,146.5C 213.853,144.189 211.186,141.856 208.5,139.5C 209.32,137.889 210.654,137.222 212.5,137.5C 212.026,133.843 210.693,133.676 208.5,137C 203.613,136.944 199.613,138.777 196.5,142.5C 195.718,140.671 196.384,139.171 198.5,138C 196.432,138.017 194.766,139.017 193.5,141C 192.552,141.483 191.552,141.649 190.5,141.5C 217.367,115.638 244.367,89.6378 271.5,63.5 Z"/></g>
<g><path style="opacity:1" fill="#6f695f" d="M 141.5,143.5 C 140.194,142.533 139.527,141.199 139.5,139.5C 141.806,137.986 143.139,138.652 143.5,141.5C 143.253,142.713 142.586,143.38 141.5,143.5 Z"/></g>
<g><path style="opacity:1" fill="#cba985" d="M 215.5,147.5 C 213.5,150.167 211.167,152.5 208.5,154.5C 205.203,151.704 202.036,148.704 199,145.5C 199.027,143.583 199.861,141.916 201.5,140.5C 202.328,139.585 203.328,138.919 204.5,138.5C 207.915,141.925 211.581,144.925 215.5,147.5 Z"/></g>
<g><path style="opacity:1" fill="#ab3732" d="M 136.5,141.5 C 137.525,141.897 137.692,142.563 137,143.5C 132.215,150.092 127.715,156.758 123.5,163.5C 122.41,161.237 121.077,161.07 119.5,163C 120.351,169.866 120.685,177.032 120.5,184.5C 119.07,184.421 117.736,184.754 116.5,185.5C 116.167,185.167 115.833,184.833 115.5,184.5C 118.178,182.51 117.845,181.177 114.5,180.5C 113.328,180.919 112.328,181.585 111.5,182.5C 109.162,180.989 108.496,181.323 109.5,183.5C 108.635,184.583 107.635,184.749 106.5,184C 107.495,181.945 106.662,180.779 104,180.5C 99.4642,184.425 94.9642,189.092 90.5,194.5C 93.3076,187.408 96.3076,180.408 99.5,173.5C 103.203,164.607 108.536,156.773 115.5,150C 121.619,144.939 128.619,142.106 136.5,141.5 Z"/></g>
<g><path style="opacity:1" fill="#cc706c" d="M 136.5,141.5 C 128.619,142.106 121.619,144.939 115.5,150C 108.536,156.773 103.203,164.607 99.5,173.5C 100.826,169.51 102.16,165.51 103.5,161.5C 108.833,154.167 115.167,147.833 122.5,142.5C 125.825,141.84 129.158,141.174 132.5,140.5C 134.045,140.511 135.378,140.844 136.5,141.5 Z"/></g>
<g><path style="opacity:1" fill="#7c4644" d="M 122.5,142.5 C 115.167,147.833 108.833,154.167 103.5,161.5C 107.5,152.833 113.833,146.5 122.5,142.5 Z"/></g>
<g><path style="opacity:1" fill="#caa986" d="M 207.5,155.5 C 205.833,157.833 203.833,159.833 201.5,161.5C 196.928,158.437 192.761,154.77 189,150.5C 188.731,147.72 189.898,145.554 192.5,144C 193.5,143.333 194.5,143.333 195.5,144C 199.369,148.037 203.369,151.87 207.5,155.5 Z"/></g>
<g><path style="opacity:1" fill="#cdaf90" d="M 190.5,141.5 C 189.861,143.76 188.694,145.76 187,147.5C 183.736,150.484 180.57,153.651 177.5,157C 178.624,157.249 179.624,157.749 180.5,158.5C 179.352,160.149 178.019,161.649 176.5,163C 174.953,163.333 173.62,162.833 172.5,161.5C 170.35,163.149 168.35,164.982 166.5,167C 165.552,167.483 164.552,167.649 163.5,167.5C 172.473,158.861 181.473,150.194 190.5,141.5 Z"/></g>
<g><path style="opacity:1" fill="#c9a885" d="M 199.5,163.5 C 198.167,165.5 196.5,167.167 194.5,168.5C 189.928,165.437 185.761,161.77 182,157.5C 181.974,154.16 183.64,151.827 187,150.5C 191.37,154.702 195.537,159.036 199.5,163.5 Z"/></g>
<g><path style="opacity:1" fill="#caa884" d="M 192.5,170.5 C 190.804,172.525 189.137,174.525 187.5,176.5C 184.538,173.036 181.371,169.703 178,166.5C 177.91,163.538 179.243,161.204 182,159.5C 185.704,163.036 189.204,166.702 192.5,170.5 Z"/></g>
<g><path style="opacity:1" fill="#9f5c5b" d="M 103.5,161.5 C 102.16,165.51 100.826,169.51 99.5,173.5C 96.3076,180.408 93.3076,187.408 90.5,194.5C 89.8333,194.5 89.1667,194.5 88.5,194.5C 92.8067,185.426 96.6401,176.093 100,166.5C 100.697,164.416 101.864,162.749 103.5,161.5 Z"/></g>
<g><path style="opacity:1" fill="#38211f" d="M 139.5,139.5 C 139.527,141.199 140.194,142.533 141.5,143.5C 133.291,151.245 127.624,160.578 124.5,171.5C 123.087,174.219 122.42,177.219 122.5,180.5C 122.167,180.5 121.833,180.5 121.5,180.5C 121.209,174.697 121.875,169.031 123.5,163.5C 127.715,156.758 132.215,150.092 137,143.5C 137.692,142.563 137.525,141.897 136.5,141.5C 135.378,140.844 134.045,140.511 132.5,140.5C 129.158,141.174 125.825,141.84 122.5,142.5C 123.6,141.442 124.934,140.608 126.5,140C 130.821,139.501 135.154,139.334 139.5,139.5 Z"/></g>
<g><path style="opacity:1" fill="#ad9273" d="M 216.5,146.5 C 216.5,147.167 216.167,147.5 215.5,147.5C 211.581,144.925 207.915,141.925 204.5,138.5C 203.328,138.919 202.328,139.585 201.5,140.5C 199.861,141.916 199.027,143.583 199,145.5C 202.036,148.704 205.203,151.704 208.5,154.5C 208.5,155.167 208.167,155.5 207.5,155.5C 203.369,151.87 199.369,148.037 195.5,144C 194.5,143.333 193.5,143.333 192.5,144C 189.898,145.554 188.731,147.72 189,150.5C 192.761,154.77 196.928,158.437 201.5,161.5C 201.167,162.5 200.5,163.167 199.5,163.5C 195.537,159.036 191.37,154.702 187,150.5C 183.64,151.827 181.974,154.16 182,157.5C 185.761,161.77 189.928,165.437 194.5,168.5C 194.167,169.5 193.5,170.167 192.5,170.5C 189.204,166.702 185.704,163.036 182,159.5C 179.243,161.204 177.91,163.538 178,166.5C 181.371,169.703 184.538,173.036 187.5,176.5C 182.26,172.767 177.426,168.434 173,163.5C 171.372,164.819 171.539,166.152 173.5,167.5C 171.993,168.739 170.826,168.405 170,166.5C 168.297,168.347 168.464,170.181 170.5,172C 168.953,172.333 167.62,171.833 166.5,170.5C 165.5,171.167 164.5,171.833 163.5,172.5C 162.167,173.5 162.167,174.5 163.5,175.5C 167.522,179.854 171.522,184.187 175.5,188.5C 175.5,189.167 175.167,189.5 174.5,189.5C 170.158,183.977 165.158,179.477 159.5,176C 157.671,177.113 156.837,178.613 157,180.5C 161.369,185.037 165.869,189.37 170.5,193.5C 170.5,194.167 170.167,194.5 169.5,194.5C 164.188,189.854 159.188,184.854 154.5,179.5C 157.15,176.349 159.984,173.349 163,170.5C 163.483,169.552 163.649,168.552 163.5,167.5C 164.552,167.649 165.552,167.483 166.5,167C 168.35,164.982 170.35,163.149 172.5,161.5C 173.62,162.833 174.953,163.333 176.5,163C 178.019,161.649 179.352,160.149 180.5,158.5C 179.624,157.749 178.624,157.249 177.5,157C 180.57,153.651 183.736,150.484 187,147.5C 188.694,145.76 189.861,143.76 190.5,141.5C 191.552,141.649 192.552,141.483 193.5,141C 194.766,139.017 196.432,138.017 198.5,138C 196.384,139.171 195.718,140.671 196.5,142.5C 199.613,138.777 203.613,136.944 208.5,137C 210.693,133.676 212.026,133.843 212.5,137.5C 210.654,137.222 209.32,137.889 208.5,139.5C 211.186,141.856 213.853,144.189 216.5,146.5 Z"/></g>
<g><path style="opacity:1" fill="#5e4d3f" d="M 195.5,150.5 C 197.337,150.639 197.67,151.306 196.5,152.5C 195.702,152.043 195.369,151.376 195.5,150.5 Z"/></g>
<g><path style="opacity:1" fill="#c6a582" d="M 187.5,176.5 C 183.527,180.473 179.527,184.473 175.5,188.5C 171.522,184.187 167.522,179.854 163.5,175.5C 162.167,174.5 162.167,173.5 163.5,172.5C 164.5,171.833 165.5,171.167 166.5,170.5C 167.62,171.833 168.953,172.333 170.5,172C 168.464,170.181 168.297,168.347 170,166.5C 170.826,168.405 171.993,168.739 173.5,167.5C 171.539,166.152 171.372,164.819 173,163.5C 177.426,168.434 182.26,172.767 187.5,176.5 Z"/></g>
<g><path style="opacity:1" fill="#51413d" d="M 124.5,171.5 C 122.657,179.966 125.323,186.466 132.5,191C 134.473,191.495 136.473,191.662 138.5,191.5C 138.167,192.5 137.5,193.167 136.5,193.5C 128.189,193.288 123.522,188.954 122.5,180.5C 122.42,177.219 123.087,174.219 124.5,171.5 Z"/></g>
<g><path style="opacity:1" fill="#caa784" d="M 174.5,189.5 C 173.5,191.167 172.167,192.5 170.5,193.5C 165.869,189.37 161.369,185.037 157,180.5C 156.837,178.613 157.671,177.113 159.5,176C 165.158,179.477 170.158,183.977 174.5,189.5 Z"/></g>
<g><path style="opacity:1" fill="#998266" d="M 160.5,203.5 C 160.5,204.167 160.167,204.5 159.5,204.5C 156.536,202.038 153.703,199.371 151,196.5C 150.751,197.624 150.251,198.624 149.5,199.5C 148.355,198.224 148.355,196.891 149.5,195.5C 148.687,194.186 147.687,193.019 146.5,192C 147.167,191.333 147.833,191.333 148.5,192C 152.369,196.037 156.369,199.87 160.5,203.5 Z"/></g>
<g><path style="opacity:1" fill="#c2a281" d="M 163.5,167.5 C 163.649,168.552 163.483,169.552 163,170.5C 159.984,173.349 157.15,176.349 154.5,179.5C 159.188,184.854 164.188,189.854 169.5,194.5C 166.833,197.833 163.833,200.833 160.5,203.5C 156.369,199.87 152.369,196.037 148.5,192C 147.833,191.333 147.167,191.333 146.5,192C 147.687,193.019 148.687,194.186 149.5,195.5C 148.355,196.891 148.355,198.224 149.5,199.5C 150.251,198.624 150.751,197.624 151,196.5C 153.703,199.371 156.536,202.038 159.5,204.5C 157.547,208.12 154.881,211.12 151.5,213.5C 146.703,208.202 141.703,203.035 136.5,198C 132.742,199.717 129.409,202.384 126.5,206C 128.684,208.016 130.684,210.183 132.5,212.5C 132,213.5 131.5,214.5 131,215.5C 128.653,212.579 126.153,210.579 123.5,209.5C 128.917,214.909 133.917,220.576 138.5,226.5C 137.833,227.5 137.167,228.5 136.5,229.5C 136.5,230.5 136.5,231.5 136.5,232.5C 134.488,231.772 132.488,230.938 130.5,230C 126.694,224.861 122.194,220.361 117,216.5C 116.333,215.167 116.333,213.833 117,212.5C 120.773,209.236 123.94,205.57 126.5,201.5C 130.572,199.792 133.905,197.126 136.5,193.5C 137.5,193.167 138.167,192.5 138.5,191.5C 146.833,183.5 155.167,175.5 163.5,167.5 Z"/></g>
<g><path style="opacity:1" fill="#c3b8bb" d="M 125.5,195.5 C 123.77,194.024 122.437,194.358 121.5,196.5C 122.376,197.251 123.376,197.751 124.5,198C 120.66,199.418 117.326,201.585 114.5,204.5C 116.937,201.143 119.27,197.643 121.5,194C 123.463,193.156 124.796,193.656 125.5,195.5 Z"/></g>
<g><path style="opacity:1" fill="#7f4746" d="M 86.5,197.5 C 83.8592,202.992 79.5259,206.325 73.5,207.5C 78.3354,204.905 82.6688,201.571 86.5,197.5 Z"/></g>
<g><path style="opacity:1" fill="#c1a17e" d="M 150.5,214.5 C 148.5,217.167 146.167,219.5 143.5,221.5C 138.658,216.491 133.991,211.324 129.5,206C 131.385,202.796 133.218,202.963 135,206.5C 135.333,204.953 134.833,203.62 133.5,202.5C 134.145,201.354 134.978,200.354 136,199.5C 137.833,201.333 139.667,203.167 141.5,205C 140.027,205.71 139.36,206.876 139.5,208.5C 141.124,208.64 142.29,207.973 143,206.5C 145.733,209.062 148.233,211.729 150.5,214.5 Z"/></g>
<g><path style="opacity:1" fill="#a28a6d" d="M 151.5,213.5 C 151.5,214.167 151.167,214.5 150.5,214.5C 148.233,211.729 145.733,209.062 143,206.5C 142.29,207.973 141.124,208.64 139.5,208.5C 139.36,206.876 140.027,205.71 141.5,205C 139.667,203.167 137.833,201.333 136,199.5C 134.978,200.354 134.145,201.354 133.5,202.5C 134.833,203.62 135.333,204.953 135,206.5C 133.218,202.963 131.385,202.796 129.5,206C 133.991,211.324 138.658,216.491 143.5,221.5C 143.5,222.167 143.167,222.5 142.5,222.5C 140.205,219.703 137.705,217.036 135,214.5C 134.5,215.667 133.667,216.5 132.5,217C 135.039,219.37 137.372,221.87 139.5,224.5C 139.672,225.492 139.338,226.158 138.5,226.5C 133.917,220.576 128.917,214.909 123.5,209.5C 126.153,210.579 128.653,212.579 131,215.5C 131.5,214.5 132,213.5 132.5,212.5C 130.684,210.183 128.684,208.016 126.5,206C 129.409,202.384 132.742,199.717 136.5,198C 141.703,203.035 146.703,208.202 151.5,213.5 Z"/></g>
<g><path style="opacity:1" fill="#613d3b" d="M 73.5,207.5 C 70.8589,209.453 67.8589,210.953 64.5,212C 52.9345,215.199 41.6011,218.699 30.5,222.5C 27.3516,223.576 24.3516,224.909 21.5,226.5C 20.8333,226.5 20.1667,226.5 19.5,226.5C 22.9901,223.585 26.9901,221.418 31.5,220C 45.5405,215.894 59.5405,211.727 73.5,207.5 Z"/></g>
<g><path style="opacity:1" fill="#c76966" d="M 88.5,194.5 C 89.1667,194.5 89.8333,194.5 90.5,194.5C 88.1009,199.735 84.4343,203.902 79.5,207C 74.6203,209.607 69.6203,211.94 64.5,214C 53.02,217.191 41.6866,220.691 30.5,224.5C 29.4937,224.062 29.4937,223.396 30.5,222.5C 41.6011,218.699 52.9345,215.199 64.5,212C 67.8589,210.953 70.8589,209.453 73.5,207.5C 79.5259,206.325 83.8592,202.992 86.5,197.5C 86.427,195.973 87.0937,194.973 88.5,194.5 Z"/></g>
<g><path style="opacity:1" fill="#c5a47e" d="M 142.5,222.5 C 142.5,223.167 142.167,223.5 141.5,223.5C 140.833,223.833 140.167,224.167 139.5,224.5C 137.372,221.87 135.039,219.37 132.5,217C 133.667,216.5 134.5,215.667 135,214.5C 137.705,217.036 140.205,219.703 142.5,222.5 Z"/></g>
<g><path style="opacity:1" fill="#a0332f" d="M 123.5,163.5 C 121.875,169.031 121.209,174.697 121.5,180.5C 121.748,183.58 122.414,186.58 123.5,189.5C 123.392,190.442 123.059,191.275 122.5,192C 120.616,192.216 118.949,192.883 117.5,194C 118.167,194.333 118.833,194.667 119.5,195C 118.151,195.772 117.318,196.939 117,198.5C 115.406,197.284 113.906,195.951 112.5,194.5C 110.275,195.101 108.109,195.434 106,195.5C 104.915,194.707 103.748,194.04 102.5,193.5C 100.146,194.998 97.8127,196.332 95.5,197.5C 95.1742,199.661 94.1742,201.494 92.5,203C 93.8331,204.84 93.6665,205.34 92,204.5C 88.4169,206.576 85.2502,209.242 82.5,212.5C 80.2567,211.617 78.59,212.451 77.5,215C 78.1667,216.333 79.1667,217.333 80.5,218C 80.1667,218.333 79.8333,218.667 79.5,219C 77.9526,218.287 76.2859,217.454 74.5,216.5C 72.6297,217.866 70.6297,219.033 68.5,220C 69.9733,220.71 70.6399,221.876 70.5,223.5C 66.5882,222.956 64.2549,224.623 63.5,228.5C 62.5,229 61.5,229.5 60.5,230C 61.731,231.183 61.731,232.349 60.5,233.5C 59.1476,232.482 58.1476,231.149 57.5,229.5C 55.5103,232.488 53.1769,235.155 50.5,237.5C 47.078,234.71 46.4113,234.877 48.5,238C 47.5509,238.617 46.7175,238.451 46,237.5C 45.6924,238.308 45.1924,238.975 44.5,239.5C 43.8333,238.167 43.1667,236.833 42.5,235.5C 41.0802,238.966 38.7469,239.966 35.5,238.5C 33.399,238.632 31.899,239.632 31,241.5C 30.6012,241.272 30.4346,240.938 30.5,240.5C 30.5,235.167 30.5,229.833 30.5,224.5C 41.6866,220.691 53.02,217.191 64.5,214C 69.6203,211.94 74.6203,209.607 79.5,207C 84.4343,203.902 88.1009,199.735 90.5,194.5C 94.9642,189.092 99.4642,184.425 104,180.5C 106.662,180.779 107.495,181.945 106.5,184C 107.635,184.749 108.635,184.583 109.5,183.5C 108.496,181.323 109.162,180.989 111.5,182.5C 112.328,181.585 113.328,180.919 114.5,180.5C 117.845,181.177 118.178,182.51 115.5,184.5C 115.833,184.833 116.167,185.167 116.5,185.5C 117.736,184.754 119.07,184.421 120.5,184.5C 120.685,177.032 120.351,169.866 119.5,163C 121.077,161.07 122.41,161.237 123.5,163.5 Z"/></g>
<g><path style="opacity:1" fill="#e1e0e8" d="M 125.5,195.5 C 126.15,197.435 126.483,199.435 126.5,201.5C 123.94,205.57 120.773,209.236 117,212.5C 116.333,213.833 116.333,215.167 117,216.5C 122.194,220.361 126.694,224.861 130.5,230C 132.488,230.938 134.488,231.772 136.5,232.5C 138.006,239.217 141.673,244.217 147.5,247.5C 149.196,247.685 150.529,248.519 151.5,250C 153.5,250.167 155.5,250.333 157.5,250.5C 163.101,250.188 168.434,248.854 173.5,246.5C 175.288,247.36 176.955,248.36 178.5,249.5C 172.944,258.293 164.944,263.626 154.5,265.5C 154.656,264.502 154.156,263.502 153,262.5C 152.275,263.059 151.442,263.392 150.5,263.5C 148.673,261.512 146.007,260.012 142.5,259C 140.167,258.333 137.833,258.333 135.5,259C 126.871,265.321 118.205,271.655 109.5,278C 108.184,278.528 107.517,278.028 107.5,276.5C 113.829,269.338 120.662,262.671 128,256.5C 128.667,255.833 128.667,255.167 128,254.5C 121.552,261.18 114.718,267.347 107.5,273C 106.034,273.635 104.7,274.469 103.5,275.5C 102.537,275.03 102.537,274.363 103.5,273.5C 104.412,272.262 104.579,270.928 104,269.5C 95.1667,260.667 86.3333,251.833 77.5,243C 76.4232,242.53 75.4232,242.697 74.5,243.5C 74.3398,241.801 74.5065,240.134 75,238.5C 76.2975,239.784 77.4642,239.617 78.5,238C 77.376,237.751 76.376,237.251 75.5,236.5C 76.6302,235.378 77.2969,234.044 77.5,232.5C 77.8333,231.833 78.1667,231.167 78.5,230.5C 85.1418,225.841 92.1418,221.675 99.5,218C 104.669,213.663 109.669,209.163 114.5,204.5C 117.326,201.585 120.66,199.418 124.5,198C 123.376,197.751 122.376,197.251 121.5,196.5C 122.437,194.358 123.77,194.024 125.5,195.5 Z"/></g>
<g><path style="opacity:1" fill="#dad7d2" d="M 106.5,215.5 C 108.746,216.21 111.08,216.71 113.5,217C 114.219,219.556 115.886,220.723 118.5,220.5C 118.491,222.308 118.991,223.975 120,225.5C 124.034,228.022 127.701,231.022 131,234.5C 131.287,236.891 131.787,239.224 132.5,241.5C 130.235,242.647 127.902,242.814 125.5,242C 120.691,235.692 115.025,230.192 108.5,225.5C 106.515,222.261 105.849,218.927 106.5,215.5 Z"/></g>
<g><path style="opacity:1" fill="#973f3e" d="M 19.5,226.5 C 20.1667,226.5 20.8333,226.5 21.5,226.5C 21.0388,228.55 20.3721,230.55 19.5,232.5C 20.176,239.838 20.176,247.005 19.5,254C 20.2567,255.512 21.2567,256.846 22.5,258C 22.3349,259.117 22.0016,260.284 21.5,261.5C 23.8559,264.664 23.8559,268.164 21.5,272C 21.8123,275.163 22.479,278.497 23.5,282C 22.8333,282.667 22.1667,283.333 21.5,284C 23.0226,293.253 24.0226,302.42 24.5,311.5C 21.6442,308.995 19.6442,305.995 18.5,302.5C 18.1193,301.069 17.1193,300.236 15.5,300C 15.5,298 15.5,296 15.5,294C 13.2189,292.149 13.2189,290.482 15.5,289C 15,288.5 14.5,288 14,287.5C 13.6227,283.981 13.1227,280.481 12.5,277C 12.3126,272.803 12.6459,268.803 13.5,265C 12.8333,264.333 12.1667,263.667 11.5,263C 14.128,259.535 14.128,256.035 11.5,252.5C 12.4415,252.511 13.1081,252.011 13.5,251C 13.5118,247.309 13.1785,243.809 12.5,240.5C 13.819,238.532 13.819,236.532 12.5,234.5C 12.8457,233.304 13.3457,233.304 14,234.5C 15.7467,231.724 17.5801,229.057 19.5,226.5 Z"/></g>
<g><path style="opacity:1" fill="#97312f" d="M 121.5,180.5 C 121.833,180.5 122.167,180.5 122.5,180.5C 123.522,188.954 128.189,193.288 136.5,193.5C 133.905,197.126 130.572,199.792 126.5,201.5C 126.483,199.435 126.15,197.435 125.5,195.5C 124.796,193.656 123.463,193.156 121.5,194C 119.27,197.643 116.937,201.143 114.5,204.5C 109.669,209.163 104.669,213.663 99.5,218C 92.1418,221.675 85.1418,225.841 78.5,230.5C 76.7988,230.966 75.2988,230.966 74,230.5C 72.907,233.586 71.0737,236.086 68.5,238C 68.8333,238.333 69.1667,238.667 69.5,239C 66.3113,239.981 65.978,241.314 68.5,243C 67.2161,243.684 66.0495,243.517 65,242.5C 64.5439,243.744 65.0439,244.577 66.5,245C 62.1935,245.866 61.8601,246.866 65.5,248C 63.5614,248.908 62.5614,250.408 62.5,252.5C 58.0522,253.387 53.7188,253.387 49.5,252.5C 47.2975,254.295 46.1308,256.629 46,259.5C 44.3117,258.675 44.1451,257.675 45.5,256.5C 44.7261,255.289 43.8928,255.289 43,256.5C 42.6667,255.833 42.3333,255.167 42,254.5C 40.6054,256.14 39.1054,257.64 37.5,259C 36.1011,259.595 34.7678,259.428 33.5,258.5C 32.2888,259.274 32.2888,260.107 33.5,261C 32.376,261.249 31.376,261.749 30.5,262.5C 31.5063,263.396 31.5063,264.062 30.5,264.5C 29.5344,262.604 29.2011,260.604 29.5,258.5C 29.1771,252.31 29.5104,246.31 30.5,240.5C 30.4346,240.938 30.6012,241.272 31,241.5C 31.899,239.632 33.399,238.632 35.5,238.5C 38.7469,239.966 41.0802,238.966 42.5,235.5C 43.1667,236.833 43.8333,238.167 44.5,239.5C 45.1924,238.975 45.6924,238.308 46,237.5C 46.7175,238.451 47.5509,238.617 48.5,238C 46.4113,234.877 47.078,234.71 50.5,237.5C 53.1769,235.155 55.5103,232.488 57.5,229.5C 58.1476,231.149 59.1476,232.482 60.5,233.5C 61.731,232.349 61.731,231.183 60.5,230C 61.5,229.5 62.5,229 63.5,228.5C 64.2549,224.623 66.5882,222.956 70.5,223.5C 70.6399,221.876 69.9733,220.71 68.5,220C 70.6297,219.033 72.6297,217.866 74.5,216.5C 76.2859,217.454 77.9526,218.287 79.5,219C 79.8333,218.667 80.1667,218.333 80.5,218C 79.1667,217.333 78.1667,216.333 77.5,215C 78.59,212.451 80.2567,211.617 82.5,212.5C 85.2502,209.242 88.4169,206.576 92,204.5C 93.6665,205.34 93.8331,204.84 92.5,203C 94.1742,201.494 95.1742,199.661 95.5,197.5C 97.8127,196.332 100.146,194.998 102.5,193.5C 103.748,194.04 104.915,194.707 106,195.5C 108.109,195.434 110.275,195.101 112.5,194.5C 113.906,195.951 115.406,197.284 117,198.5C 117.318,196.939 118.151,195.772 119.5,195C 118.833,194.667 118.167,194.333 117.5,194C 118.949,192.883 120.616,192.216 122.5,192C 123.059,191.275 123.392,190.442 123.5,189.5C 122.414,186.58 121.748,183.58 121.5,180.5 Z"/></g>
<g><path style="opacity:1" fill="#7e3634" d="M 136.5,229.5 C 137.496,229.414 138.329,229.748 139,230.5C 140.121,235.408 142.287,239.741 145.5,243.5C 145.062,243.435 144.728,243.601 144.5,244C 145.71,245.039 146.71,246.206 147.5,247.5C 141.673,244.217 138.006,239.217 136.5,232.5C 136.5,231.5 136.5,230.5 136.5,229.5 Z"/></g>
<g><path style="opacity:1" fill="#8a2e2d" d="M 78.5,230.5 C 78.1667,231.167 77.8333,231.833 77.5,232.5C 73.6555,235.449 72.6555,239.116 74.5,243.5C 74.5,244.167 74.5,244.833 74.5,245.5C 70.7367,248.317 67.4033,251.651 64.5,255.5C 64.1667,255.5 63.8333,255.5 63.5,255.5C 62.3775,257.288 62.2109,259.288 63,261.5C 65.6645,262.474 65.8312,263.141 63.5,263.5C 61.6203,263.229 60.287,263.896 59.5,265.5C 55.8333,268.5 52.5,271.833 49.5,275.5C 48.213,276.768 47.213,276.435 46.5,274.5C 43.6748,275.383 41.0081,276.55 38.5,278C 39.7472,279.494 39.7472,280.994 38.5,282.5C 36.2993,283.79 34.6326,285.623 33.5,288C 32.4267,289.416 32.4267,290.75 33.5,292C 30.3323,292.582 29.999,293.582 32.5,295C 29.4557,295.359 29.1224,296.026 31.5,297C 30.4267,298.25 30.4267,299.584 31.5,301C 30.6604,302.171 29.8271,303.338 29,304.5C 28.8227,308.356 28.3227,312.023 27.5,315.5C 26.8333,315.5 26.5,315.167 26.5,314.5C 27.3293,295.728 28.3293,277.061 29.5,258.5C 29.2011,260.604 29.5344,262.604 30.5,264.5C 31.5063,264.062 31.5063,263.396 30.5,262.5C 31.376,261.749 32.376,261.249 33.5,261C 32.2888,260.107 32.2888,259.274 33.5,258.5C 34.7678,259.428 36.1011,259.595 37.5,259C 39.1054,257.64 40.6054,256.14 42,254.5C 42.3333,255.167 42.6667,255.833 43,256.5C 43.8928,255.289 44.7261,255.289 45.5,256.5C 44.1451,257.675 44.3117,258.675 46,259.5C 46.1308,256.629 47.2975,254.295 49.5,252.5C 53.7188,253.387 58.0522,253.387 62.5,252.5C 62.5614,250.408 63.5614,248.908 65.5,248C 61.8601,246.866 62.1935,245.866 66.5,245C 65.0439,244.577 64.5439,243.744 65,242.5C 66.0495,243.517 67.2161,243.684 68.5,243C 65.978,241.314 66.3113,239.981 69.5,239C 69.1667,238.667 68.8333,238.333 68.5,238C 71.0737,236.086 72.907,233.586 74,230.5C 75.2988,230.966 76.7988,230.966 78.5,230.5 Z"/></g>
<g><path style="opacity:1" fill="#b09e9f" d="M 77.5,232.5 C 77.2969,234.044 76.6302,235.378 75.5,236.5C 76.376,237.251 77.376,237.751 78.5,238C 77.4642,239.617 76.2975,239.784 75,238.5C 74.5065,240.134 74.3398,241.801 74.5,243.5C 72.6555,239.116 73.6555,235.449 77.5,232.5 Z"/></g>
<g><path style="opacity:1" fill="#d7d4cd" d="M 98.5,232.5 C 99.2485,233.531 99.9152,234.698 100.5,236C 105.308,240.137 110.141,244.304 115,248.5C 116.021,251.105 116.855,253.772 117.5,256.5C 115.167,257.833 112.833,257.833 110.5,256.5C 105.132,251.966 100.299,246.966 96,241.5C 95.6667,241.833 95.3333,242.167 95,242.5C 94.6824,240.939 93.8491,239.772 92.5,239C 94.3348,238.072 94.6682,236.906 93.5,235.5C 95.5435,234.935 97.2102,233.935 98.5,232.5 Z"/></g>
<g><path style="opacity:1" fill="#8a3635" d="M 12.5,240.5 C 13.1785,243.809 13.5118,247.309 13.5,251C 13.1081,252.011 12.4415,252.511 11.5,252.5C 14.128,256.035 14.128,259.535 11.5,263C 12.1667,263.667 12.8333,264.333 13.5,265C 12.6459,268.803 12.3126,272.803 12.5,277C 13.1227,280.481 13.6227,283.981 14,287.5C 14.5,288 15,288.5 15.5,289C 13.2189,290.482 13.2189,292.149 15.5,294C 15.5,296 15.5,298 15.5,300C 17.1193,300.236 18.1193,301.069 18.5,302.5C 17.609,301.89 16.609,301.557 15.5,301.5C 14.2632,300.035 13.2632,298.368 12.5,296.5C 12.196,293.478 11.696,290.478 11,287.5C 10.3058,286.182 9.47251,285.349 8.5,285C 8.73546,284.127 9.0688,283.293 9.5,282.5C 8.04187,278.967 7.04187,275.301 6.5,271.5C 7.74684,269.958 7.74684,268.458 6.5,267C 7.30806,266.692 7.97473,266.192 8.5,265.5C 7.85033,256.157 7.85033,247.324 8.5,239C 8.63008,237.941 9.13008,237.108 10,236.5C 10.9344,237.858 11.7677,239.192 12.5,240.5 Z"/></g>
<g><path style="opacity:1" fill="#b15956" d="M 180.5,242.5 C 180.565,242.062 180.399,241.728 180,241.5C 177.674,243.066 175.508,244.732 173.5,246.5C 168.434,248.854 163.101,250.188 157.5,250.5C 155.5,250.333 153.5,250.167 151.5,250C 150.529,248.519 149.196,247.685 147.5,247.5C 146.71,246.206 145.71,245.039 144.5,244C 144.728,243.601 145.062,243.435 145.5,243.5C 153.939,248.416 162.606,248.75 171.5,244.5C 174.349,242.575 177.349,240.909 180.5,239.5C 182.529,239.98 182.529,240.98 180.5,242.5 Z"/></g>
<g><path style="opacity:1" fill="#413230" d="M 141.5,223.5 C 139.936,234.507 144.603,241.673 155.5,245C 160.331,245.778 164.997,245.278 169.5,243.5C 170.492,243.328 171.158,243.662 171.5,244.5C 162.606,248.75 153.939,248.416 145.5,243.5C 142.287,239.741 140.121,235.408 139,230.5C 138.329,229.748 137.496,229.414 136.5,229.5C 137.167,228.5 137.833,227.5 138.5,226.5C 139.338,226.158 139.672,225.492 139.5,224.5C 140.167,224.167 140.833,223.833 141.5,223.5 Z"/></g>
<g><path style="opacity:1" fill="#c2bec1" d="M 180.5,242.5 C 180.662,244.527 180.495,246.527 180,248.5C 179.617,249.056 179.117,249.389 178.5,249.5C 176.955,248.36 175.288,247.36 173.5,246.5C 175.508,244.732 177.674,243.066 180,241.5C 180.399,241.728 180.565,242.062 180.5,242.5 Z"/></g>
<g><path style="opacity:1" fill="#b8b7b6" d="M 184.5,238.5 C 185.638,241.304 185.805,244.304 185,247.5C 184.617,248.056 184.117,248.389 183.5,248.5C 184.299,245.57 184.632,242.57 184.5,239.5C 184.5,239.167 184.5,238.833 184.5,238.5 Z"/></g>
<g><path style="opacity:1" fill="#817c74" d="M 63.5,255.5 C 63.8333,255.5 64.1667,255.5 64.5,255.5C 65.7574,256.623 65.4241,257.289 63.5,257.5C 63.5,256.833 63.5,256.167 63.5,255.5 Z"/></g>
<g><path style="opacity:1" fill="#43403d" d="M 103.5,273.5 C 103.167,273.5 102.833,273.5 102.5,273.5C 100.931,271.012 99.5982,269.012 98.5,267.5C 92.3686,261.87 86.3686,256.036 80.5,250C 79.552,249.517 78.552,249.351 77.5,249.5C 77.5323,247.381 76.5323,246.048 74.5,245.5C 74.5,244.833 74.5,244.167 74.5,243.5C 75.4232,242.697 76.4232,242.53 77.5,243C 86.3333,251.833 95.1667,260.667 104,269.5C 104.579,270.928 104.412,272.262 103.5,273.5 Z"/></g>
<g><path style="opacity:1" fill="#d8d8e0" d="M 154.5,265.5 C 142.221,269.076 133.387,276.743 128,288.5C 126.265,298.865 122.432,308.199 116.5,316.5C 113.812,316.834 111.479,316.168 109.5,314.5C 108.739,307.548 108.239,300.548 108,293.5C 106.347,288.861 104.181,284.528 101.5,280.5C 103.223,278.782 105.223,277.449 107.5,276.5C 107.517,278.028 108.184,278.528 109.5,278C 118.205,271.655 126.871,265.321 135.5,259C 137.833,258.333 140.167,258.333 142.5,259C 146.007,260.012 148.673,261.512 150.5,263.5C 151.442,263.392 152.275,263.059 153,262.5C 154.156,263.502 154.656,264.502 154.5,265.5 Z"/></g>
<g><path style="opacity:1" fill="#7e3634" d="M 19.5,226.5 C 17.5801,229.057 15.7467,231.724 14,234.5C 13.3457,233.304 12.8457,233.304 12.5,234.5C 13.819,236.532 13.819,238.532 12.5,240.5C 11.7677,239.192 10.9344,237.858 10,236.5C 9.13008,237.108 8.63008,237.941 8.5,239C 7.85033,247.324 7.85033,256.157 8.5,265.5C 7.97473,266.192 7.30806,266.692 6.5,267C 7.74684,268.458 7.74684,269.958 6.5,271.5C 7.04187,275.301 8.04187,278.967 9.5,282.5C 9.0688,283.293 8.73546,284.127 8.5,285C 9.47251,285.349 10.3058,286.182 11,287.5C 11.696,290.478 12.196,293.478 12.5,296.5C 2.75765,279.953 -0.0756812,262.286 4,243.5C 6.95573,235.715 12.1224,230.049 19.5,226.5 Z"/></g>
<g><path style="opacity:1" fill="#563435" d="M 184.5,238.5 C 184.5,238.833 184.5,239.167 184.5,239.5C 183.03,242.949 181.864,246.616 181,250.5C 176.57,255.878 171.403,260.378 165.5,264C 158.568,266.137 151.901,268.804 145.5,272C 145.728,272.399 146.062,272.565 146.5,272.5C 144.525,274.137 142.525,275.804 140.5,277.5C 140.103,276.475 139.437,276.308 138.5,277C 131.107,286.153 126.607,296.653 125,308.5C 124.066,309.858 123.232,311.192 122.5,312.5C 122.565,312.062 122.399,311.728 122,311.5C 120.924,314.079 119.091,315.746 116.5,316.5C 122.432,308.199 126.265,298.865 128,288.5C 133.387,276.743 142.221,269.076 154.5,265.5C 164.944,263.626 172.944,258.293 178.5,249.5C 179.117,249.389 179.617,249.056 180,248.5C 180.495,246.527 180.662,244.527 180.5,242.5C 182.529,240.98 182.529,239.98 180.5,239.5C 177.349,240.909 174.349,242.575 171.5,244.5C 171.158,243.662 170.492,243.328 169.5,243.5C 173.103,241.36 176.77,239.193 180.5,237C 182.352,236.227 183.686,236.727 184.5,238.5 Z"/></g>
<g><path style="opacity:1" fill="#a24747" d="M 30.5,222.5 C 29.4937,223.396 29.4937,224.062 30.5,224.5C 30.5,229.833 30.5,235.167 30.5,240.5C 29.5104,246.31 29.1771,252.31 29.5,258.5C 28.3293,277.061 27.3293,295.728 26.5,314.5C 25.5987,313.71 24.9321,312.71 24.5,311.5C 24.0226,302.42 23.0226,293.253 21.5,284C 22.1667,283.333 22.8333,282.667 23.5,282C 22.479,278.497 21.8123,275.163 21.5,272C 23.8559,268.164 23.8559,264.664 21.5,261.5C 22.0016,260.284 22.3349,259.117 22.5,258C 21.2567,256.846 20.2567,255.512 19.5,254C 20.176,247.005 20.176,239.838 19.5,232.5C 20.3721,230.55 21.0388,228.55 21.5,226.5C 24.3516,224.909 27.3516,223.576 30.5,222.5 Z"/></g>
<g><path style="opacity:1" fill="#291f1e" d="M 184.5,239.5 C 184.632,242.57 184.299,245.57 183.5,248.5C 180.898,253.874 177.231,258.374 172.5,262C 164.009,265.995 155.343,269.495 146.5,272.5C 146.062,272.565 145.728,272.399 145.5,272C 151.901,268.804 158.568,266.137 165.5,264C 171.403,260.378 176.57,255.878 181,250.5C 181.864,246.616 183.03,242.949 184.5,239.5 Z"/></g>
<g><path style="opacity:1" fill="#35312f" d="M 74.5,245.5 C 76.5323,246.048 77.5323,247.381 77.5,249.5C 75.2729,250.401 74.2729,252.067 74.5,254.5C 68.4248,254.803 67.0914,257.47 70.5,262.5C 75.9587,267.457 81.292,272.624 86.5,278C 90.3482,278.987 92.3482,277.487 92.5,273.5C 96.6971,273.806 98.6971,271.806 98.5,267.5C 99.5982,269.012 100.931,271.012 102.5,273.5C 100.366,274.703 99.0322,276.537 98.5,279C 95.7777,281.358 92.7777,283.191 89.5,284.5C 80.8333,275.5 72.1667,266.5 63.5,257.5C 65.4241,257.289 65.7574,256.623 64.5,255.5C 67.4033,251.651 70.7367,248.317 74.5,245.5 Z"/></g>
<g><path style="opacity:1" fill="#7e7977" d="M 59.5,265.5 C 57.9663,267.342 58.2997,268.675 60.5,269.5C 61.5905,267.985 62.9239,267.152 64.5,267C 63.8333,269 62.5,270.333 60.5,271C 64.1317,273.63 67.465,276.63 70.5,280C 68.6874,279.954 67.0207,280.12 65.5,280.5C 65.0894,279.738 64.9227,278.738 65,277.5C 63.3315,280.6 61.1649,281.1 58.5,279C 59.5,278.167 60.5,277.333 61.5,276.5C 62.5063,275.604 62.5063,274.938 61.5,274.5C 59.8513,275.648 58.3513,276.981 57,278.5C 54.9849,276.527 55.1516,274.86 57.5,273.5C 57.1667,273.167 56.8333,272.833 56.5,272.5C 54.3089,273.881 52.9756,275.881 52.5,278.5C 51.8165,278.137 51.1499,277.804 50.5,277.5C 49.6618,277.158 49.3284,276.492 49.5,275.5C 52.5,271.833 55.8333,268.5 59.5,265.5 Z"/></g>
<g><path style="opacity:1" fill="#d8d3ca" d="M 77.5,249.5 C 78.552,249.351 79.552,249.517 80.5,250C 86.3686,256.036 92.3686,261.87 98.5,267.5C 98.6971,271.806 96.6971,273.806 92.5,273.5C 92.3482,277.487 90.3482,278.987 86.5,278C 81.292,272.624 75.9587,267.457 70.5,262.5C 67.0914,257.47 68.4248,254.803 74.5,254.5C 74.2729,252.067 75.2729,250.401 77.5,249.5 Z"/></g>
<g><path style="opacity:1" fill="#7d2a29" d="M 49.5,275.5 C 49.3284,276.492 49.6618,277.158 50.5,277.5C 55.2572,283.323 60.2572,288.989 65.5,294.5C 65.6495,295.552 65.4828,296.552 65,297.5C 64.6667,297.167 64.3333,296.833 64,296.5C 62.6667,297.833 61.3333,299.167 60,300.5C 59.6667,300.167 59.3333,299.833 59,299.5C 59.2626,300.951 59.0959,302.284 58.5,303.5C 57.8333,303.167 57.1667,302.833 56.5,302.5C 55.646,303.522 54.646,304.355 53.5,305C 55.2112,306.133 55.7112,307.633 55,309.5C 54.6924,308.692 54.1924,308.025 53.5,307.5C 51.6293,308.767 49.7959,308.767 48,307.5C 44.8899,309.793 41.5566,311.793 38,313.5C 37.5,313 37,312.5 36.5,312C 37.624,311.751 38.624,311.251 39.5,310.5C 39.3333,310.167 39.1667,309.833 39,309.5C 35.9987,310.754 33.1654,312.087 30.5,313.5C 30.5,314.833 30.5,316.167 30.5,317.5C 29.5,317.5 28.5,317.5 27.5,317.5C 27.5,316.833 27.5,316.167 27.5,315.5C 28.3227,312.023 28.8227,308.356 29,304.5C 29.8271,303.338 30.6604,302.171 31.5,301C 30.4267,299.584 30.4267,298.25 31.5,297C 29.1224,296.026 29.4557,295.359 32.5,295C 29.999,293.582 30.3323,292.582 33.5,292C 32.4267,290.75 32.4267,289.416 33.5,288C 34.6326,285.623 36.2993,283.79 38.5,282.5C 39.7472,280.994 39.7472,279.494 38.5,278C 41.0081,276.55 43.6748,275.383 46.5,274.5C 47.213,276.435 48.213,276.768 49.5,275.5 Z"/></g>
<g><path style="opacity:1" fill="#7c302e" d="M 63.5,255.5 C 63.5,256.167 63.5,256.833 63.5,257.5C 72.1667,266.5 80.8333,275.5 89.5,284.5C 88.5637,285.974 87.2303,286.974 85.5,287.5C 78.5918,279.252 71.2584,271.252 63.5,263.5C 65.8312,263.141 65.6645,262.474 63,261.5C 62.2109,259.288 62.3775,257.288 63.5,255.5 Z"/></g>
<g><path style="opacity:1" fill="#969596" d="M 107.5,276.5 C 105.223,277.449 103.223,278.782 101.5,280.5C 96.8792,281.809 92.8792,284.142 89.5,287.5C 86.4887,288.669 83.822,290.336 81.5,292.5C 79.4832,293.529 77.4832,294.529 75.5,295.5C 74.3552,294.207 74.6885,293.041 76.5,292C 79.8217,291.674 82.8217,290.174 85.5,287.5C 87.2303,286.974 88.5637,285.974 89.5,284.5C 92.7777,283.191 95.7777,281.358 98.5,279C 99.0322,276.537 100.366,274.703 102.5,273.5C 102.833,273.5 103.167,273.5 103.5,273.5C 102.537,274.363 102.537,275.03 103.5,275.5C 104.7,274.469 106.034,273.635 107.5,273C 114.718,267.347 121.552,261.18 128,254.5C 128.667,255.167 128.667,255.833 128,256.5C 120.662,262.671 113.829,269.338 107.5,276.5 Z"/></g>
<g><path style="opacity:1" fill="#703736" d="M 101.5,280.5 C 104.181,284.528 106.347,288.861 108,293.5C 108.239,300.548 108.739,307.548 109.5,314.5C 108.883,314.389 108.383,314.056 108,313.5C 107.502,310.183 107.335,306.85 107.5,303.5C 107.665,300.482 107.498,297.482 107,294.5C 106.29,293.027 105.124,292.36 103.5,292.5C 103.167,292.5 102.833,292.5 102.5,292.5C 102.5,291.833 102.167,291.5 101.5,291.5C 99.6112,290.258 97.6112,290.258 95.5,291.5C 97.3717,289.938 99.7051,288.938 102.5,288.5C 102.023,287.522 101.357,286.689 100.5,286C 96.9965,285.593 93.3299,286.093 89.5,287.5C 92.8792,284.142 96.8792,281.809 101.5,280.5 Z"/></g>
<g><path style="opacity:1" fill="#635f5d" d="M 63.5,263.5 C 71.2584,271.252 78.5918,279.252 85.5,287.5C 82.8217,290.174 79.8217,291.674 76.5,292C 74.6885,293.041 74.3552,294.207 75.5,295.5C 74.3303,297.279 72.6636,298.279 70.5,298.5C 68.8278,297.13 67.1612,295.797 65.5,294.5C 60.2572,288.989 55.2572,283.323 50.5,277.5C 51.1499,277.804 51.8165,278.137 52.5,278.5C 52.9756,275.881 54.3089,273.881 56.5,272.5C 56.8333,272.833 57.1667,273.167 57.5,273.5C 55.1516,274.86 54.9849,276.527 57,278.5C 58.3513,276.981 59.8513,275.648 61.5,274.5C 62.5063,274.938 62.5063,275.604 61.5,276.5C 60.5,277.333 59.5,278.167 58.5,279C 61.1649,281.1 63.3315,280.6 65,277.5C 64.9227,278.738 65.0894,279.738 65.5,280.5C 67.0207,280.12 68.6874,279.954 70.5,280C 67.465,276.63 64.1317,273.63 60.5,271C 62.5,270.333 63.8333,269 64.5,267C 62.9239,267.152 61.5905,267.985 60.5,269.5C 58.2997,268.675 57.9663,267.342 59.5,265.5C 60.287,263.896 61.6203,263.229 63.5,263.5 Z"/></g>
<g><path style="opacity:1" fill="#231717" d="M 140.5,277.5 C 134.366,283.859 130.699,291.526 129.5,300.5C 128.076,302.515 127.41,304.848 127.5,307.5C 124.065,321.114 117.398,332.948 107.5,343C 98.4095,349.393 88.4095,351.893 77.5,350.5C 81.9819,349.674 86.6486,349.174 91.5,349C 92.4158,348.722 93.0825,348.222 93.5,347.5C 96.3113,347.174 98.978,346.341 101.5,345C 111.58,336.1 118.58,325.267 122.5,312.5C 123.232,311.192 124.066,309.858 125,308.5C 126.607,296.653 131.107,286.153 138.5,277C 139.437,276.308 140.103,276.475 140.5,277.5 Z"/></g>
<g><path style="opacity:1" fill="#bbb5b4" d="M 101.5,291.5 C 99.7816,292.224 97.9483,292.891 96,293.5C 95.5357,292.906 95.369,292.239 95.5,291.5C 97.6112,290.258 99.6112,290.258 101.5,291.5 Z"/></g>
<g><path style="opacity:1" fill="#635f5f" d="M 95.5,291.5 C 95.369,292.239 95.5357,292.906 96,293.5C 97.9483,292.891 99.7816,292.224 101.5,291.5C 102.167,291.5 102.5,291.833 102.5,292.5C 102.543,296.893 102.043,297.226 101,293.5C 100.252,295.751 98.7525,297.084 96.5,297.5C 94.5252,295.638 94.1919,293.638 95.5,291.5 Z"/></g>
<g><path style="opacity:1" fill="#554f4e" d="M 81.5,292.5 C 81.3784,296.147 79.7118,298.981 76.5,301C 74.4372,300.475 72.4372,299.641 70.5,298.5C 72.6636,298.279 74.3303,297.279 75.5,295.5C 77.4832,294.529 79.4832,293.529 81.5,292.5 Z"/></g>
<g><path style="opacity:1" fill="#713836" d="M 15.5,301.5 C 16.609,301.557 17.609,301.89 18.5,302.5C 19.6442,305.995 21.6442,308.995 24.5,311.5C 24.9321,312.71 25.5987,313.71 26.5,314.5C 26.5,315.167 26.8333,315.5 27.5,315.5C 27.5,316.167 27.5,316.833 27.5,317.5C 23.025,312.563 19.025,307.23 15.5,301.5 Z"/></g>
<g><path style="opacity:1" fill="#b4b3b3" d="M 129.5,300.5 C 129.59,303.152 128.924,305.485 127.5,307.5C 127.41,304.848 128.076,302.515 129.5,300.5 Z"/></g>
<g><path style="opacity:1" fill="#6e2525" d="M 95.5,291.5 C 94.1919,293.638 94.5252,295.638 96.5,297.5C 101.648,299.906 103.982,298.239 103.5,292.5C 105.124,292.36 106.29,293.027 107,294.5C 107.498,297.482 107.665,300.482 107.5,303.5C 104.621,306.743 100.955,308.743 96.5,309.5C 97.3688,312.413 97.7022,315.246 97.5,318C 97.1639,319.03 96.4972,319.53 95.5,319.5C 92.7837,317.914 90.4503,318.247 88.5,320.5C 87.6618,320.842 87.3284,321.508 87.5,322.5C 84.871,322.144 82.2043,322.644 79.5,324C 77.9632,325.11 77.2965,326.61 77.5,328.5C 75.1727,328.753 73.1727,328.086 71.5,326.5C 69.2179,330.284 66.3845,333.617 63,336.5C 61.6439,335.62 60.1439,335.286 58.5,335.5C 57.4008,330.927 54.9008,330.261 51,333.5C 50.6667,332.833 50.3333,332.167 50,331.5C 49.8047,333.207 49.8047,334.874 50,336.5C 49.3292,335.748 48.4959,335.414 47.5,335.5C 41.2729,331.945 35.9396,327.278 31.5,321.5C 30.7377,319.738 29.4044,318.738 27.5,318.5C 27.5,318.167 27.5,317.833 27.5,317.5C 28.5,317.5 29.5,317.5 30.5,317.5C 30.5,316.167 30.5,314.833 30.5,313.5C 33.1654,312.087 35.9987,310.754 39,309.5C 39.1667,309.833 39.3333,310.167 39.5,310.5C 38.624,311.251 37.624,311.751 36.5,312C 37,312.5 37.5,313 38,313.5C 41.5566,311.793 44.8899,309.793 48,307.5C 49.7959,308.767 51.6293,308.767 53.5,307.5C 54.1924,308.025 54.6924,308.692 55,309.5C 55.7112,307.633 55.2112,306.133 53.5,305C 54.646,304.355 55.646,303.522 56.5,302.5C 57.1667,302.833 57.8333,303.167 58.5,303.5C 59.0959,302.284 59.2626,300.951 59,299.5C 59.3333,299.833 59.6667,300.167 60,300.5C 61.3333,299.167 62.6667,297.833 64,296.5C 64.3333,296.833 64.6667,297.167 65,297.5C 65.4828,296.552 65.6495,295.552 65.5,294.5C 67.1612,295.797 68.8278,297.13 70.5,298.5C 72.4372,299.641 74.4372,300.475 76.5,301C 79.7118,298.981 81.3784,296.147 81.5,292.5C 83.822,290.336 86.4887,288.669 89.5,287.5C 93.3299,286.093 96.9965,285.593 100.5,286C 101.357,286.689 102.023,287.522 102.5,288.5C 99.7051,288.938 97.3717,289.938 95.5,291.5 Z"/></g>
<g><path style="opacity:1" fill="#352322" d="M 102.5,292.5 C 102.833,292.5 103.167,292.5 103.5,292.5C 103.982,298.239 101.648,299.906 96.5,297.5C 98.7525,297.084 100.252,295.751 101,293.5C 102.043,297.226 102.543,296.893 102.5,292.5 Z"/></g>
<g><path style="opacity:1" fill="#483832" d="M 27.5,318.5 C 29.4044,318.738 30.7377,319.738 31.5,321.5C 30.2502,321.577 29.4169,322.244 29,323.5C 27.647,322.315 26.4803,320.981 25.5,319.5C 25.9569,318.702 26.6236,318.369 27.5,318.5 Z"/></g>
<g><path style="opacity:1" fill="#bdb6b4" d="M 95.5,319.5 C 95.5,319.833 95.5,320.167 95.5,320.5C 92.7638,319.415 90.4305,319.415 88.5,320.5C 90.4503,318.247 92.7837,317.914 95.5,319.5 Z"/></g>
<g><path style="opacity:1" fill="#642222" d="M 107.5,303.5 C 107.335,306.85 107.502,310.183 108,313.5C 108.383,314.056 108.883,314.389 109.5,314.5C 111.479,316.168 113.812,316.834 116.5,316.5C 119.091,315.746 120.924,314.079 122,311.5C 122.399,311.728 122.565,312.062 122.5,312.5C 118.58,325.267 111.58,336.1 101.5,345C 98.978,346.341 96.3113,347.174 93.5,347.5C 84.4461,348.897 75.4461,348.563 66.5,346.5C 63.3271,345.83 60.3271,344.664 57.5,343C 53.6997,341.021 50.3664,338.521 47.5,335.5C 48.4959,335.414 49.3292,335.748 50,336.5C 49.8047,334.874 49.8047,333.207 50,331.5C 50.3333,332.167 50.6667,332.833 51,333.5C 54.9008,330.261 57.4008,330.927 58.5,335.5C 60.1439,335.286 61.6439,335.62 63,336.5C 66.3845,333.617 69.2179,330.284 71.5,326.5C 73.1727,328.086 75.1727,328.753 77.5,328.5C 77.2965,326.61 77.9632,325.11 79.5,324C 82.2043,322.644 84.871,322.144 87.5,322.5C 88.8333,323.167 89.8333,324.167 90.5,325.5C 90.6107,326.117 90.944,326.617 91.5,327C 97.4938,328.841 99.8271,326.674 98.5,320.5C 97.5,320.5 96.5,320.5 95.5,320.5C 95.5,320.167 95.5,319.833 95.5,319.5C 96.4972,319.53 97.1639,319.03 97.5,318C 97.7022,315.246 97.3688,312.413 96.5,309.5C 100.955,308.743 104.621,306.743 107.5,303.5 Z"/></g>
<g><path style="opacity:1" fill="#5a5755" d="M 95.5,320.5 C 94.8333,323.167 93.1667,324.833 90.5,325.5C 89.8333,324.167 88.8333,323.167 87.5,322.5C 87.3284,321.508 87.6618,320.842 88.5,320.5C 90.4305,319.415 92.7638,319.415 95.5,320.5 Z"/></g>
<g><path style="opacity:1" fill="#3b1918" d="M 95.5,320.5 C 96.5,320.5 97.5,320.5 98.5,320.5C 99.8271,326.674 97.4938,328.841 91.5,327C 90.944,326.617 90.6107,326.117 90.5,325.5C 93.1667,324.833 94.8333,323.167 95.5,320.5 Z"/></g>
<g><path style="opacity:1" fill="#401f1f" d="M 66.5,346.5 C 75.4461,348.563 84.4461,348.897 93.5,347.5C 93.0825,348.222 92.4158,348.722 91.5,349C 86.6486,349.174 81.9819,349.674 77.5,350.5C 73.6052,349.538 69.9385,348.204 66.5,346.5 Z"/></g>
</svg>
