<?xml version="1.0" encoding="UTF-8"?>
<!DOCTYPE svg PUBLIC "-//W3C//DTD SVG 1.1//EN" "http://www.w3.org/Graphics/SVG/1.1/DTD/svg11.dtd">
<svg xmlns="http://www.w3.org/2000/svg" version="1.1" width="336px" height="324px" style="shape-rendering:geometricPrecision; text-rendering:geometricPrecision; image-rendering:optimizeQuality; fill-rule:evenodd; clip-rule:evenodd" xmlns:xlink="http://www.w3.org/1999/xlink">
<g><path style="opacity:1" fill="#fefefe" d="M -0.5,-0.5 C 111.5,-0.5 223.5,-0.5 335.5,-0.5C 335.5,107.5 335.5,215.5 335.5,323.5C 223.5,323.5 111.5,323.5 -0.5,323.5C -0.5,215.5 -0.5,107.5 -0.5,-0.5 Z"/></g>
<g><path style="opacity:1" fill="#d1cec7" d="M 315.5,10.5 C 314.653,11.9663 313.32,12.7996 311.5,13C 314.072,13.4315 315.406,14.9315 315.5,17.5C 313.952,17.8212 313.285,18.8212 313.5,20.5C 312.448,20.3505 311.448,20.5172 310.5,21C 309.349,23.2003 307.682,24.7003 305.5,25.5C 306.626,24.1417 306.626,22.8084 305.5,21.5C 304.264,22.2458 302.93,22.5792 301.5,22.5C 301.418,20.7483 302.251,19.7483 304,19.5C 305.766,20.2335 307.599,20.5668 309.5,20.5C 309.67,19.1779 309.337,18.0113 308.5,17C 306.115,16.4436 303.782,16.6103 301.5,17.5C 300.833,14.8333 300.167,12.1667 299.5,9.5C 301.167,9.5 302.833,9.5 304.5,9.5C 304.478,16.714 306.478,17.214 310.5,11C 310.507,9.18778 309.84,7.68778 308.5,6.5C 309.668,4.78256 311.335,4.11589 313.5,4.5C 313.025,7.08209 313.692,9.08209 315.5,10.5 Z"/></g>
<g><path style="opacity:1" fill="#bac3ca" d="M 295.5,20.5 C 294.391,20.5569 293.391,20.8902 292.5,21.5C 292.1,19.6233 291.1,18.1233 289.5,17C 290.385,13.8223 292.218,12.9889 295,14.5C 295.495,16.4727 295.662,18.4727 295.5,20.5 Z"/></g>
<g><path style="opacity:1" fill="#bdc4ca" d="M 287.5,24.5 C 286.486,25.6737 285.153,26.3404 283.5,26.5C 283.551,24.4305 282.885,22.5971 281.5,21C 282.687,18.4103 284.52,17.9103 287,19.5C 286.904,21.3806 287.071,23.0473 287.5,24.5 Z"/></g>
<g><path style="opacity:1" fill="#b2bbc5" d="M 277.5,29.5 C 276.391,29.5569 275.391,29.8902 274.5,30.5C 274.117,28.4986 273.783,26.1652 273.5,23.5C 274.822,23.33 275.989,23.6634 277,24.5C 276.474,26.2275 276.641,27.8941 277.5,29.5 Z"/></g>
<g><path style="opacity:1" fill="#e6d4bd" d="M 298.5,44.5 C 293.664,50.8424 288.998,57.3424 284.5,64C 281.685,63.1106 278.685,62.6106 275.5,62.5C 272.837,62.3187 270.503,62.9854 268.5,64.5C 264.924,61.9713 264.757,59.3047 268,56.5C 268.986,54.0752 268.319,52.4085 266,51.5C 264.669,52.9958 263.169,54.3291 261.5,55.5C 259.971,54.2371 258.305,53.2371 256.5,52.5C 259.066,47.9478 260.233,42.9478 260,37.5C 261.78,36.4063 263.614,35.4063 265.5,34.5C 261.214,30.5902 261.881,28.4235 267.5,28C 268.343,29.7866 268.51,31.6199 268,33.5C 270.294,32.5783 272.461,31.5783 274.5,30.5C 275.391,29.8902 276.391,29.5569 277.5,29.5C 279.574,28.4861 281.574,27.4861 283.5,26.5C 285.153,26.3404 286.486,25.6737 287.5,24.5C 289.565,24.047 291.232,23.047 292.5,21.5C 293.391,20.8902 294.391,20.5569 295.5,20.5C 297.97,20.3465 299.97,19.3465 301.5,17.5C 303.782,16.6103 306.115,16.4436 308.5,17C 309.337,18.0113 309.67,19.1779 309.5,20.5C 307.599,20.5668 305.766,20.2335 304,19.5C 302.251,19.7483 301.418,20.7483 301.5,22.5C 301.694,24.9118 303.027,25.9118 305.5,25.5C 307.682,24.7003 309.349,23.2003 310.5,21C 311.448,20.5172 312.448,20.3505 313.5,20.5C 314.906,20.0269 315.573,19.0269 315.5,17.5C 315.406,14.9315 314.072,13.4315 311.5,13C 313.32,12.7996 314.653,11.9663 315.5,10.5C 321.415,8.31027 326.249,9.6436 330,14.5C 331.445,19.7233 329.945,23.89 325.5,27C 321.713,27.1596 318.046,27.8263 314.5,29C 308.637,33.6979 303.303,38.8646 298.5,44.5 Z"/></g>
<g><path style="opacity:1" fill="#71706b" d="M 275.5,34.5 C 276.542,33.2089 277.708,33.2089 279,34.5C 280.174,38.6615 278.841,39.9948 275,38.5C 274.911,36.8866 275.745,35.7199 277.5,35C 276.906,34.5357 276.239,34.369 275.5,34.5 Z"/></g>
<g><path style="opacity:1" fill="#5c5852" d="M 283.5,31.5 C 285.288,31.2148 286.955,31.5481 288.5,32.5C 286.203,35.2896 284.536,34.9563 283.5,31.5 Z"/></g>
<g><path style="opacity:1" fill="#53514d" d="M 296.5,25.5 C 297.434,26.5676 297.768,27.901 297.5,29.5C 296.5,29.5 295.5,29.5 294.5,29.5C 294.527,27.8007 295.194,26.4674 296.5,25.5 Z"/></g>
<g><path style="opacity:1" fill="#b1a28e" d="M 321.5,16.5 C 327.041,15.4125 328.708,17.7458 326.5,23.5C 324.579,24.641 322.579,24.8077 320.5,24C 321.624,23.7508 322.624,23.2508 323.5,22.5C 322.109,22.8914 321.109,22.0581 320.5,20C 322.002,19.4169 323.335,18.5836 324.5,17.5C 323.675,16.6143 322.675,16.281 321.5,16.5 Z"/></g>
<g><path style="opacity:1" fill="#706f69" d="M 305.5,25.5 C 303.027,25.9118 301.694,24.9118 301.5,22.5C 302.93,22.5792 304.264,22.2458 305.5,21.5C 306.626,22.8084 306.626,24.1417 305.5,25.5 Z"/></g>
<g><path style="opacity:1" fill="#333431" d="M 315.5,17.5 C 315.573,19.0269 314.906,20.0269 313.5,20.5C 313.285,18.8212 313.952,17.8212 315.5,17.5 Z"/></g>
<g><path style="opacity:1" fill="#6c6963" d="M 267.5,40.5 C 269.355,40.272 270.188,40.9387 270,42.5C 268.506,43.7472 267.006,43.7472 265.5,42.5C 266.243,41.8182 266.909,41.1515 267.5,40.5 Z"/></g>
<g><path style="opacity:1" fill="#b8a996" d="M 298.5,44.5 C 297.761,44.369 297.094,44.5357 296.5,45C 293.862,47.9744 291.195,50.9744 288.5,54C 286.681,54.7828 285.348,54.2828 284.5,52.5C 288.586,48.0444 292.586,43.5444 296.5,39C 297.793,38.51 299.127,38.3433 300.5,38.5C 300.296,40.6854 299.63,42.6854 298.5,44.5 Z"/></g>
<g><path style="opacity:1" fill="#5e5853" d="M 268.5,64.5 C 265.194,68.4729 261.527,72.1396 257.5,75.5C 253.521,72.1877 249.854,68.521 246.5,64.5C 249.925,61.0855 252.925,57.4188 255.5,53.5C 255.5,52.8333 255.833,52.5 256.5,52.5C 258.305,53.2371 259.971,54.2371 261.5,55.5C 263.169,54.3291 264.669,52.9958 266,51.5C 268.319,52.4085 268.986,54.0752 268,56.5C 264.757,59.3047 264.924,61.9713 268.5,64.5 Z"/></g>
<g><path style="opacity:1" fill="#8d8781" d="M 255.5,53.5 C 252.925,57.4188 249.925,61.0855 246.5,64.5C 249.854,68.521 253.521,72.1877 257.5,75.5C 257.167,76.5 256.5,77.1667 255.5,77.5C 252.604,73.0954 249.104,69.0954 245,65.5C 238.526,71.6389 232.026,77.8056 225.5,84C 229.699,87.7002 233.699,91.5335 237.5,95.5C 237.5,96.1667 237.167,96.5 236.5,96.5C 232.52,92.8553 228.52,89.1886 224.5,85.5C 222.144,87.69 219.644,89.69 217,91.5C 217.333,93.1667 217.667,94.8333 218,96.5C 217,95.5 216,94.5 215,93.5C 210.219,98.7365 205.219,103.736 200,108.5C 199.333,109.167 199.333,109.833 200,110.5C 204.083,114.426 208.25,118.093 212.5,121.5C 212.167,122.5 211.5,123.167 210.5,123.5C 206.537,119.036 202.37,114.702 198,110.5C 196.292,112.543 194.292,114.21 192,115.5C 192.333,117.167 192.667,118.833 193,120.5C 192,119.5 191,118.5 190,117.5C 183.5,124 177,130.5 170.5,137C 173.016,139.683 175.683,142.183 178.5,144.5C 180.139,145.916 180.973,147.583 181,149.5C 177.288,145.452 173.288,141.785 169,138.5C 165.032,141.301 161.532,144.634 158.5,148.5C 158.808,149.308 159.308,149.975 160,150.5C 161.279,148.063 162.779,147.563 164.5,149C 163.5,149.833 162.5,150.667 161.5,151.5C 162.833,152.62 163.333,153.953 163,155.5C 160.763,153.719 158.763,151.719 157,149.5C 155.5,151 154,152.5 152.5,154C 155.168,155.544 156.668,157.711 157,160.5C 155.316,158.649 153.483,156.982 151.5,155.5C 150.019,156.48 148.685,157.647 147.5,159C 149.667,160.5 151.5,162.333 153,164.5C 153.667,165.167 153.667,165.833 153,166.5C 150.323,163.99 147.823,161.323 145.5,158.5C 181.561,122.77 218.227,87.7704 255.5,53.5 Z"/></g>
<g><path style="opacity:1" fill="#645c57" d="M 255.5,77.5 C 249.833,83.8333 243.833,89.8333 237.5,95.5C 233.699,91.5335 229.699,87.7002 225.5,84C 232.026,77.8056 238.526,71.6389 245,65.5C 249.104,69.0954 252.604,73.0954 255.5,77.5 Z"/></g>
<g><path style="opacity:1" fill="#685e58" d="M 236.5,96.5 C 228.472,104.86 220.472,113.193 212.5,121.5C 208.25,118.093 204.083,114.426 200,110.5C 199.333,109.833 199.333,109.167 200,108.5C 205.219,103.736 210.219,98.7365 215,93.5C 216,94.5 217,95.5 218,96.5C 217.667,94.8333 217.333,93.1667 217,91.5C 219.644,89.69 222.144,87.69 224.5,85.5C 228.52,89.1886 232.52,92.8553 236.5,96.5 Z"/></g>
<g><path style="opacity:1" fill="#6e6258" d="M 131.5,128.5 C 131.483,126.435 131.15,124.435 130.5,122.5C 132.092,123.602 132.925,122.935 133,120.5C 133.637,122.303 134.803,123.636 136.5,124.5C 134.814,125.857 133.148,127.19 131.5,128.5 Z"/></g>
<g><path style="opacity:1" fill="#675d57" d="M 210.5,123.5 C 192.806,141.527 175.139,159.527 157.5,177.5C 151.167,173.167 145.833,167.833 141.5,161.5C 142.833,160.5 144.167,159.5 145.5,158.5C 147.823,161.323 150.323,163.99 153,166.5C 153.667,165.833 153.667,165.167 153,164.5C 151.5,162.333 149.667,160.5 147.5,159C 148.685,157.647 150.019,156.48 151.5,155.5C 153.483,156.982 155.316,158.649 157,160.5C 156.668,157.711 155.168,155.544 152.5,154C 154,152.5 155.5,151 157,149.5C 158.763,151.719 160.763,153.719 163,155.5C 163.333,153.953 162.833,152.62 161.5,151.5C 162.5,150.667 163.5,149.833 164.5,149C 162.779,147.563 161.279,148.063 160,150.5C 159.308,149.975 158.808,149.308 158.5,148.5C 161.532,144.634 165.032,141.301 169,138.5C 173.288,141.785 177.288,145.452 181,149.5C 180.973,147.583 180.139,145.916 178.5,144.5C 175.683,142.183 173.016,139.683 170.5,137C 177,130.5 183.5,124 190,117.5C 191,118.5 192,119.5 193,120.5C 192.667,118.833 192.333,117.167 192,115.5C 194.292,114.21 196.292,112.543 198,110.5C 202.37,114.702 206.537,119.036 210.5,123.5 Z"/></g>
<g><path style="opacity:1" fill="#8a6850" d="M 118.5,146.5 C 116.954,153.278 117.288,159.945 119.5,166.5C 116.718,163.668 115.385,160.168 115.5,156C 115.637,153.102 116.137,150.269 117,147.5C 117.383,146.944 117.883,146.611 118.5,146.5 Z"/></g>
<g><path style="opacity:1" fill="#918b81" d="M 141.5,161.5 C 145.833,167.833 151.167,173.167 157.5,177.5C 157.167,178.5 156.5,179.167 155.5,179.5C 150.87,174.369 146.037,169.369 141,164.5C 139.833,165.667 138.667,166.833 137.5,168C 142.342,173.009 147.342,177.842 152.5,182.5C 152.167,183.5 151.5,184.167 150.5,184.5C 149.287,181.775 147.454,179.441 145,177.5C 141.209,182.896 138.543,182.563 137,176.5C 138.019,177.687 139.186,178.687 140.5,179.5C 141.506,179.062 141.506,178.396 140.5,177.5C 141.603,177.002 142.603,176.669 143.5,176.5C 141.452,173.257 138.785,171.09 135.5,170C 134.382,171.074 133.382,172.24 132.5,173.5C 131.702,173.043 131.369,172.376 131.5,171.5C 134.527,167.806 137.86,164.473 141.5,161.5 Z"/></g>
<g><path style="opacity:1" fill="#645953" d="M 155.5,179.5 C 154.833,180.833 153.833,181.833 152.5,182.5C 147.342,177.842 142.342,173.009 137.5,168C 138.667,166.833 139.833,165.667 141,164.5C 146.037,169.369 150.87,174.369 155.5,179.5 Z"/></g>
<g><path style="opacity:1" fill="#6d655e" d="M 119.5,166.5 C 122.791,169.81 126.791,171.477 131.5,171.5C 131.369,172.376 131.702,173.043 132.5,173.5C 133.382,172.24 134.382,171.074 135.5,170C 138.785,171.09 141.452,173.257 143.5,176.5C 142.603,176.669 141.603,177.002 140.5,177.5C 141.506,178.396 141.506,179.062 140.5,179.5C 139.186,178.687 138.019,177.687 137,176.5C 138.543,182.563 141.209,182.896 145,177.5C 147.454,179.441 149.287,181.775 150.5,184.5C 145.5,190.167 140.167,195.5 134.5,200.5C 133.126,195.803 131.126,195.469 128.5,199.5C 127.064,195.864 125.397,195.697 123.5,199C 125.5,201 127.5,203 129.5,205C 129.167,205.167 128.833,205.333 128.5,205.5C 123.121,200.956 118.288,195.956 114,190.5C 113.292,191.381 112.458,192.047 111.5,192.5C 111.709,191.078 112.209,189.745 113,188.5C 116.388,186.579 118.888,183.913 120.5,180.5C 123.899,178.612 126.899,176.112 129.5,173C 126.624,172.562 123.957,171.562 121.5,170C 120.177,169.184 119.511,168.017 119.5,166.5 Z"/></g>
<g><path style="opacity:1" fill="#4f4c49" d="M 134.5,200.5 C 133.167,204.167 133.167,207.833 134.5,211.5C 133.883,211.389 133.383,211.056 133,210.5C 132.667,208.5 132.333,206.5 132,204.5C 130.961,205.71 129.794,206.71 128.5,207.5C 124.825,207.246 121.991,205.58 120,202.5C 112.646,210.311 112.146,209.977 118.5,201.5C 118.192,200.692 117.692,200.025 117,199.5C 114.219,202.736 111.219,205.736 108,208.5C 107.517,209.448 107.351,210.448 107.5,211.5C 104.666,212.558 101.999,213.724 99.5,215C 104.64,209.86 109.806,204.694 115,199.5C 115.688,198.668 115.521,198.002 114.5,197.5C 107.848,202.949 101.515,208.783 95.5,215C 94.8333,215.667 94.1667,215.667 93.5,215C 97.6937,210.806 101.86,206.64 106,202.5C 106.591,201.517 106.257,200.85 105,200.5C 100.571,203.924 96.4044,207.757 92.5,212C 91.8333,212.667 91.1667,212.667 90.5,212C 95.563,207.681 99.3964,203.181 102,198.5C 102.893,199.711 103.726,199.711 104.5,198.5C 104.291,197.914 103.957,197.414 103.5,197C 104.833,196.667 106.167,196.333 107.5,196C 106.692,195.692 106.025,195.192 105.5,194.5C 106.651,193.269 107.817,193.269 109,194.5C 109.708,193.619 110.542,192.953 111.5,192.5C 112.458,192.047 113.292,191.381 114,190.5C 118.288,195.956 123.121,200.956 128.5,205.5C 128.833,205.333 129.167,205.167 129.5,205C 127.5,203 125.5,201 123.5,199C 125.397,195.697 127.064,195.864 128.5,199.5C 131.126,195.469 133.126,195.803 134.5,200.5 Z"/></g>
<g><path style="opacity:1" fill="#cca277" d="M 130.5,122.5 C 131.15,124.435 131.483,126.435 131.5,128.5C 126.36,133.965 122.027,139.965 118.5,146.5C 117.883,146.611 117.383,146.944 117,147.5C 116.137,150.269 115.637,153.102 115.5,156C 115.385,160.168 116.718,163.668 119.5,166.5C 119.511,168.017 120.177,169.184 121.5,170C 123.957,171.562 126.624,172.562 129.5,173C 126.899,176.112 123.899,178.612 120.5,180.5C 120.244,177.76 119.244,175.426 117.5,173.5C 113.145,178.187 108.812,182.854 104.5,187.5C 100.416,192.976 95.7492,196.976 90.5,199.5C 86.7712,201.023 83.4379,203.023 80.5,205.5C 77.2933,206.532 74.7933,208.532 73,211.5C 72.6886,212.742 73.1886,213.742 74.5,214.5C 73.7261,215.711 72.8928,215.711 72,214.5C 71.6667,216.833 71.3333,219.167 71,221.5C 67.6667,224.833 64.3333,228.167 61,231.5C 60.5304,232.577 60.6971,233.577 61.5,234.5C 60.3065,235.272 59.3065,236.272 58.5,237.5C 55.4992,240.332 52.3325,242.998 49,245.5C 47.9914,247.025 47.4914,248.692 47.5,250.5C 47.8333,251.167 48.1667,251.833 48.5,252.5C 49.1383,254.46 49.1383,256.293 48.5,258C 49.8333,258.333 51.1667,258.667 52.5,259C 48.6331,261.89 46.1331,265.723 45,270.5C 42.5224,274.327 41.0224,274.327 40.5,270.5C 36.3762,275.125 32.0429,279.625 27.5,284C 25.3111,284.322 23.3111,283.822 21.5,282.5C 19.1468,280.14 17.1468,277.473 15.5,274.5C 16.9769,269.241 18.8103,263.908 21,258.5C 20.1667,260 19,261.167 17.5,262C 17.9574,262.414 18.2907,262.914 18.5,263.5C 17.4688,264.7 16.6355,266.034 16,267.5C 13.8333,265 11.6667,262.5 9.5,260C 14.3793,253.91 19.7127,248.243 25.5,243C 24.4267,241.75 24.4267,240.416 25.5,239C 25.3893,237.278 24.8893,237.112 24,238.5C 23.8333,234.333 21.6667,232.167 17.5,232C 20.0667,230.254 22.4001,228.92 24.5,228C 21.5345,227.652 19.0345,226.485 17,224.5C 15.9895,224.892 15.4895,225.559 15.5,226.5C 14.3417,222.441 16.0083,219.941 20.5,219C 18.4311,218.676 18.0977,217.842 19.5,216.5C 19.2907,215.914 18.9574,215.414 18.5,215C 15.3054,214.819 12.3054,214.319 9.5,213.5C 13.3517,207.385 18.685,202.885 25.5,200C 37.6149,195.555 49.9482,191.889 62.5,189C 70.8288,186.255 77.6622,181.421 83,174.5C 87.779,165.495 91.779,156.162 95,146.5C 100.25,135.583 108.417,127.749 119.5,123C 123.152,122.501 126.818,122.335 130.5,122.5 Z"/></g>
<g><path style="opacity:1" fill="#d0a16f" d="M 104.5,187.5 C 103.504,187.586 102.671,187.252 102,186.5C 101.667,187.5 101.333,188.5 101,189.5C 99.8173,188.269 98.6507,188.269 97.5,189.5C 96.316,191.046 95.316,192.713 94.5,194.5C 93.914,194.291 93.414,193.957 93,193.5C 92.1004,195.398 90.9337,197.064 89.5,198.5C 88.8076,197.975 88.3076,197.308 88,196.5C 86.6667,197.833 85.3333,199.167 84,200.5C 82.6667,199.833 81.6667,198.833 81,197.5C 78.8646,199.278 76.3646,199.945 73.5,199.5C 75.059,196.904 76.7257,194.237 78.5,191.5C 90.2455,180.855 101.746,169.855 113,158.5C 115.099,161.304 115.932,164.304 115.5,167.5C 117.167,168.667 118.833,169.833 120.5,171C 118.559,171.743 116.726,171.576 115,170.5C 113.884,172.801 113.051,175.135 112.5,177.5C 109.612,177.22 108.112,178.553 108,181.5C 106.407,179.715 104.907,179.548 103.5,181C 104.672,181.419 105.672,182.085 106.5,183C 104.893,184.049 104.227,185.549 104.5,187.5 Z"/></g>
<g><path style="opacity:1" fill="#272b2e" d="M 120.5,180.5 C 118.888,183.913 116.388,186.579 113,188.5C 112.209,189.745 111.709,191.078 111.5,192.5C 110.542,192.953 109.708,193.619 109,194.5C 107.817,193.269 106.651,193.269 105.5,194.5C 106.025,195.192 106.692,195.692 107.5,196C 106.167,196.333 104.833,196.667 103.5,197C 103.957,197.414 104.291,197.914 104.5,198.5C 103.726,199.711 102.893,199.711 102,198.5C 99.3964,203.181 95.563,207.681 90.5,212C 91.1667,212.667 91.8333,212.667 92.5,212C 96.4044,207.757 100.571,203.924 105,200.5C 106.257,200.85 106.591,201.517 106,202.5C 101.86,206.64 97.6937,210.806 93.5,215C 94.1667,215.667 94.8333,215.667 95.5,215C 101.515,208.783 107.848,202.949 114.5,197.5C 115.521,198.002 115.688,198.668 115,199.5C 109.806,204.694 104.64,209.86 99.5,215C 101.999,213.724 104.666,212.558 107.5,211.5C 107.351,210.448 107.517,209.448 108,208.5C 111.219,205.736 114.219,202.736 117,199.5C 117.692,200.025 118.192,200.692 118.5,201.5C 112.146,209.977 112.646,210.311 120,202.5C 121.991,205.58 124.825,207.246 128.5,207.5C 129.123,213.4 131.789,218.067 136.5,221.5C 139.779,225.631 144.113,227.297 149.5,226.5C 156.951,226.443 163.617,224.11 169.5,219.5C 170.386,220.325 170.719,221.325 170.5,222.5C 168.503,227.012 165.503,230.845 161.5,234C 154.51,237.996 147.177,241.162 139.5,243.5C 132.292,246.537 126.792,251.537 123,258.5C 118.636,257.294 118.469,257.794 122.5,260C 120.463,264.278 119.13,268.778 118.5,273.5C 116.641,276.912 115.474,280.578 115,284.5C 112.508,286.497 109.675,287.497 106.5,287.5C 105.496,286.317 104.662,284.984 104,283.5C 103.775,276.782 103.108,270.115 102,263.5C 100.974,260.761 99.4741,258.428 97.5,256.5C 97.2671,254.938 96.6005,253.605 95.5,252.5C 95.0825,251.778 94.4158,251.278 93.5,251C 95.3513,249.316 97.018,247.483 98.5,245.5C 97.8333,245.167 97.1667,244.833 96.5,244.5C 93.3753,247.123 90.3753,249.956 87.5,253C 86.8333,253.667 86.1667,253.667 85.5,253C 86.9983,248.254 89.1649,244.087 92,240.5C 88.2385,244.77 84.0719,248.437 79.5,251.5C 75.8333,248.5 72.5,245.167 69.5,241.5C 69.6941,239.088 71.0274,238.088 73.5,238.5C 73.6509,234.686 75.6509,233.019 79.5,233.5C 79.8146,231.774 79.9813,230.107 80,228.5C 78.5295,230.872 77.3628,230.872 76.5,228.5C 77.5589,225.932 79.2256,223.765 81.5,222C 78.7121,222.553 76.0455,223.719 73.5,225.5C 69.7243,223.884 70.0577,222.884 74.5,222.5C 74.7394,220.533 74.4061,218.699 73.5,217C 75.0993,215.214 75.9326,213.047 76,210.5C 77.7073,208.963 79.2073,207.296 80.5,205.5C 83.4379,203.023 86.7712,201.023 90.5,199.5C 95.7492,196.976 100.416,192.976 104.5,187.5C 108.812,182.854 113.145,178.187 117.5,173.5C 119.244,175.426 120.244,177.76 120.5,180.5 Z"/></g>
<g><path style="opacity:1" fill="#c5a584" d="M 169.5,213.5 C 171.88,214.463 172.88,216.297 172.5,219C 172.392,220.681 171.725,221.848 170.5,222.5C 170.719,221.325 170.386,220.325 169.5,219.5C 163.617,224.11 156.951,226.443 149.5,226.5C 144.113,227.297 139.779,225.631 136.5,221.5C 143.892,222.996 151.225,222.829 158.5,221C 157.906,220.536 157.239,220.369 156.5,220.5C 160.926,218.452 165.26,216.118 169.5,213.5 Z"/></g>
<g><path style="opacity:1" fill="#ba936e" d="M 134.5,211.5 C 139.677,219.413 147.01,222.413 156.5,220.5C 157.239,220.369 157.906,220.536 158.5,221C 151.225,222.829 143.892,222.996 136.5,221.5C 131.789,218.067 129.123,213.4 128.5,207.5C 129.794,206.71 130.961,205.71 132,204.5C 132.333,206.5 132.667,208.5 133,210.5C 133.383,211.056 133.883,211.389 134.5,211.5 Z"/></g>
<g><path style="opacity:1" fill="#383a39" d="M 80.5,205.5 C 79.2073,207.296 77.7073,208.963 76,210.5C 75.9326,213.047 75.0993,215.214 73.5,217C 74.4061,218.699 74.7394,220.533 74.5,222.5C 70.0577,222.884 69.7243,223.884 73.5,225.5C 76.0455,223.719 78.7121,222.553 81.5,222C 79.2256,223.765 77.5589,225.932 76.5,228.5C 77.3628,230.872 78.5295,230.872 80,228.5C 79.9813,230.107 79.8146,231.774 79.5,233.5C 75.6509,233.019 73.6509,234.686 73.5,238.5C 71.0274,238.088 69.6941,239.088 69.5,241.5C 67.0316,238.842 64.3649,236.509 61.5,234.5C 60.6971,233.577 60.5304,232.577 61,231.5C 64.3333,228.167 67.6667,224.833 71,221.5C 71.3333,219.167 71.6667,216.833 72,214.5C 72.8928,215.711 73.7261,215.711 74.5,214.5C 73.1886,213.742 72.6886,212.742 73,211.5C 74.7933,208.532 77.2933,206.532 80.5,205.5 Z"/></g>
<g><path style="opacity:1" fill="#c3966c" d="M 9.5,213.5 C 12.3054,214.319 15.3054,214.819 18.5,215C 18.9574,215.414 19.2907,215.914 19.5,216.5C 18.0977,217.842 18.4311,218.676 20.5,219C 16.0083,219.941 14.3417,222.441 15.5,226.5C 15.4895,225.559 15.9895,224.892 17,224.5C 19.0345,226.485 21.5345,227.652 24.5,228C 22.4001,228.92 20.0667,230.254 17.5,232C 21.6667,232.167 23.8333,234.333 24,238.5C 24.8893,237.112 25.3893,237.278 25.5,239C 24.4267,240.416 24.4267,241.75 25.5,243C 19.7127,248.243 14.3793,253.91 9.5,260C 11.6667,262.5 13.8333,265 16,267.5C 16.6355,266.034 17.4688,264.7 18.5,263.5C 18.2907,262.914 17.9574,262.414 17.5,262C 19,261.167 20.1667,260 21,258.5C 18.8103,263.908 16.9769,269.241 15.5,274.5C 3.24399,256.964 0.0773244,237.964 6,217.5C 6.94873,215.907 8.11539,214.574 9.5,213.5 Z"/></g>
<g><path style="opacity:1" fill="#9e7e5e" d="M 169.5,213.5 C 172.822,213.489 174.489,215.155 174.5,218.5C 173.289,226.083 169.622,232.25 163.5,237C 156.485,240.726 149.152,243.559 141.5,245.5C 139.007,245.869 138.34,245.203 139.5,243.5C 147.177,241.162 154.51,237.996 161.5,234C 165.503,230.845 168.503,227.012 170.5,222.5C 171.725,221.848 172.392,220.681 172.5,219C 172.88,216.297 171.88,214.463 169.5,213.5 Z"/></g>
<g><path style="opacity:1" fill="#484b4b" d="M 85.5,234.5 C 86.0431,234.56 86.3764,234.893 86.5,235.5C 86.0995,237.434 85.0995,238.934 83.5,240C 84.7487,241.824 85.9153,241.657 87,239.5C 87.6924,240.025 88.1924,240.692 88.5,241.5C 85.3696,242.823 82.8696,244.823 81,247.5C 80.5,247.333 80,247.167 79.5,247C 81.019,245.649 82.3523,244.149 83.5,242.5C 81.4257,240.172 80.4257,240.839 80.5,244.5C 79.1667,244.5 77.8333,244.5 76.5,244.5C 76.5,243.5 76.5,242.5 76.5,241.5C 73.1688,240.907 73.3355,239.574 77,237.5C 77.4828,238.448 77.6495,239.448 77.5,240.5C 80.9895,239.687 83.6562,237.687 85.5,234.5 Z"/></g>
<g><path style="opacity:1" fill="#9b9e9e" d="M 58.5,237.5 C 64.7762,242.107 70.4428,247.441 75.5,253.5C 73.4078,253.439 71.9078,252.439 71,250.5C 70.6924,251.308 70.1924,251.975 69.5,252.5C 67.5,251.167 65.8333,249.5 64.5,247.5C 60.8923,246.549 60.8923,247.382 64.5,250C 62.6951,250.972 61.0284,252.139 59.5,253.5C 60.5901,255.003 61.7567,255.336 63,254.5C 63.6172,255.449 63.4506,256.282 62.5,257C 64.5029,256.581 66.5029,255.747 68.5,254.5C 69.3081,254.808 69.9747,255.308 70.5,256C 68.8333,257.333 67.1667,258.667 65.5,260C 66.5171,261.049 66.6838,262.216 66,263.5C 65,262.167 64,262.167 63,263.5C 62.7811,262.062 62.2811,260.729 61.5,259.5C 58.5709,258.118 56.4042,256.118 55,253.5C 53.3335,254.34 53.1669,253.84 54.5,252C 52.4127,251.208 50.5793,250.041 49,248.5C 48.7216,249.416 48.2216,250.082 47.5,250.5C 47.4914,248.692 47.9914,247.025 49,245.5C 52.3325,242.998 55.4992,240.332 58.5,237.5 Z"/></g>
<g><path style="opacity:1" fill="#363838" d="M 95.5,252.5 C 94.448,252.351 93.448,252.517 92.5,253C 90.6499,255.018 88.6499,256.851 86.5,258.5C 83.8122,256.479 81.4789,254.146 79.5,251.5C 84.0719,248.437 88.2385,244.77 92,240.5C 89.1649,244.087 86.9983,248.254 85.5,253C 86.1667,253.667 86.8333,253.667 87.5,253C 90.3753,249.956 93.3753,247.123 96.5,244.5C 97.1667,244.833 97.8333,245.167 98.5,245.5C 97.018,247.483 95.3513,249.316 93.5,251C 94.4158,251.278 95.0825,251.778 95.5,252.5 Z"/></g>
<g><path style="opacity:1" fill="#b99571" d="M 61.5,234.5 C 64.3649,236.509 67.0316,238.842 69.5,241.5C 72.5,245.167 75.8333,248.5 79.5,251.5C 81.4789,254.146 83.8122,256.479 86.5,258.5C 88.6499,256.851 90.6499,255.018 92.5,253C 93.448,252.517 94.448,252.351 95.5,252.5C 96.6005,253.605 97.2671,254.938 97.5,256.5C 96.2058,255.71 95.0391,254.71 94,253.5C 92.1667,255.333 90.3333,257.167 88.5,259C 86.0481,259.29 83.7148,259.956 81.5,261C 82.4034,263.471 81.7367,265.638 79.5,267.5C 76.1946,269.187 72.8612,270.687 69.5,272C 65.9555,272.571 62.6221,271.904 59.5,270C 60.6721,269.581 61.6721,268.915 62.5,268C 61.244,267.583 60.5774,266.75 60.5,265.5C 62.7225,266.114 64.3892,267.448 65.5,269.5C 66.7678,270.428 68.1011,270.595 69.5,270C 72.7012,266.464 76.2012,263.297 80,260.5C 80.0317,257.332 78.5317,254.999 75.5,253.5C 70.4428,247.441 64.7762,242.107 58.5,237.5C 59.3065,236.272 60.3065,235.272 61.5,234.5 Z"/></g>
<g><path style="opacity:1" fill="#8a8d8d" d="M 75.5,253.5 C 78.5317,254.999 80.0317,257.332 80,260.5C 76.2012,263.297 72.7012,266.464 69.5,270C 68.1011,270.595 66.7678,270.428 65.5,269.5C 64.3892,267.448 62.7225,266.114 60.5,265.5C 57.2297,260.56 53.2297,256.227 48.5,252.5C 48.1667,251.833 47.8333,251.167 47.5,250.5C 48.2216,250.082 48.7216,249.416 49,248.5C 50.5793,250.041 52.4127,251.208 54.5,252C 53.1669,253.84 53.3335,254.34 55,253.5C 56.4042,256.118 58.5709,258.118 61.5,259.5C 62.2811,260.729 62.7811,262.062 63,263.5C 64,262.167 65,262.167 66,263.5C 66.6838,262.216 66.5171,261.049 65.5,260C 67.1667,258.667 68.8333,257.333 70.5,256C 69.9747,255.308 69.3081,254.808 68.5,254.5C 66.5029,255.747 64.5029,256.581 62.5,257C 63.4506,256.282 63.6172,255.449 63,254.5C 61.7567,255.336 60.5901,255.003 59.5,253.5C 61.0284,252.139 62.6951,250.972 64.5,250C 60.8923,247.382 60.8923,246.549 64.5,247.5C 65.8333,249.5 67.5,251.167 69.5,252.5C 70.1924,251.975 70.6924,251.308 71,250.5C 71.9078,252.439 73.4078,253.439 75.5,253.5 Z"/></g>
<g><path style="opacity:1" fill="#8b735d" d="M 139.5,243.5 C 138.34,245.203 139.007,245.869 141.5,245.5C 135.618,248.542 130.785,252.875 127,258.5C 124.037,266.56 121.204,274.56 118.5,282.5C 119.285,278.138 120.285,273.804 121.5,269.5C 121.333,268.833 121.167,268.167 121,267.5C 120.434,269.723 119.6,271.723 118.5,273.5C 119.13,268.778 120.463,264.278 122.5,260C 118.469,257.794 118.636,257.294 123,258.5C 126.792,251.537 132.292,246.537 139.5,243.5 Z"/></g>
<g><path style="opacity:1" fill="#ae8e6b" d="M 118.5,282.5 C 116.818,289.529 113.818,295.862 109.5,301.5C 109.773,299.549 109.107,298.049 107.5,297C 109.025,295.991 110.692,295.491 112.5,295.5C 112.52,293.857 111.853,292.524 110.5,291.5C 110.709,290.914 111.043,290.414 111.5,290C 109.509,289.626 107.842,288.793 106.5,287.5C 109.675,287.497 112.508,286.497 115,284.5C 115.474,280.578 116.641,276.912 118.5,273.5C 119.6,271.723 120.434,269.723 121,267.5C 121.167,268.167 121.333,268.833 121.5,269.5C 120.285,273.804 119.285,278.138 118.5,282.5 Z"/></g>
<g><path style="opacity:1" fill="#c4996f" d="M 48.5,252.5 C 53.2297,256.227 57.2297,260.56 60.5,265.5C 60.5774,266.75 61.244,267.583 62.5,268C 61.6721,268.915 60.6721,269.581 59.5,270C 62.6221,271.904 65.9555,272.571 69.5,272C 72.8612,270.687 76.1946,269.187 79.5,267.5C 81.7367,265.638 82.4034,263.471 81.5,261C 83.7148,259.956 86.0481,259.29 88.5,259C 90.3333,257.167 92.1667,255.333 94,253.5C 95.0391,254.71 96.2058,255.71 97.5,256.5C 99.4741,258.428 100.974,260.761 102,263.5C 103.108,270.115 103.775,276.782 104,283.5C 104.662,284.984 105.496,286.317 106.5,287.5C 107.842,288.793 109.509,289.626 111.5,290C 111.043,290.414 110.709,290.914 110.5,291.5C 111.853,292.524 112.52,293.857 112.5,295.5C 110.692,295.491 109.025,295.991 107.5,297C 109.107,298.049 109.773,299.549 109.5,301.5C 106.007,308.995 100.34,313.995 92.5,316.5C 84.5353,317.569 76.5353,317.736 68.5,317C 66.221,316.527 64.221,315.527 62.5,314C 66.0325,311.632 69.0325,308.798 71.5,305.5C 75.6703,304.167 79.5036,302.167 83,299.5C 83.9454,299.905 84.6121,300.572 85,301.5C 86.7866,300.657 88.6199,300.49 90.5,301C 92.6431,298.881 94.3098,296.547 95.5,294C 95.3369,290.803 94.0036,289.969 91.5,291.5C 91.1667,291.5 90.8333,291.5 90.5,291.5C 89.0821,289.692 87.0821,289.025 84.5,289.5C 84.3713,291.216 84.038,292.883 83.5,294.5C 82.8998,291.375 81.7331,291.042 80,293.5C 78.8869,292.289 77.7202,292.289 76.5,293.5C 75.5,295.167 74.1667,296.5 72.5,297.5C 71.479,296.998 71.3123,296.332 72,295.5C 73.9773,292.688 76.144,290.022 78.5,287.5C 77.635,286.417 76.635,286.251 75.5,287C 75.8333,287.333 76.1667,287.667 76.5,288C 75.5838,288.374 74.7504,288.874 74,289.5C 73.3109,288.643 72.4776,287.977 71.5,287.5C 68.8074,292.703 65.1408,297.203 60.5,301C 61.1667,301.667 61.8333,301.667 62.5,301C 63.6853,299.647 65.0186,298.48 66.5,297.5C 67.521,298.002 67.6877,298.668 67,299.5C 64.1726,301.494 61.6726,303.828 59.5,306.5C 54.3997,309.036 54.2331,308.369 59,304.5C 59.6667,303.833 59.6667,303.167 59,302.5C 57.1667,304.333 55.3333,306.167 53.5,308C 51.4546,308.49 49.4546,308.323 47.5,307.5C 40.6349,303.146 34.4682,297.813 29,291.5C 28.6667,292.5 28.3333,293.5 28,294.5C 26.647,293.315 25.4803,291.981 24.5,290.5C 25.0253,289.808 25.6919,289.308 26.5,289C 24.4611,287.074 22.7945,284.907 21.5,282.5C 23.3111,283.822 25.3111,284.322 27.5,284C 32.0429,279.625 36.3762,275.125 40.5,270.5C 41.0224,274.327 42.5224,274.327 45,270.5C 46.1331,265.723 48.6331,261.89 52.5,259C 51.1667,258.667 49.8333,258.333 48.5,258C 49.1383,256.293 49.1383,254.46 48.5,252.5 Z"/></g>
<g><path style="opacity:1" fill="#a1a2a2" d="M 90.5,291.5 C 89.5275,293.139 88.1942,294.473 86.5,295.5C 85.391,295.443 84.391,295.11 83.5,294.5C 84.038,292.883 84.3713,291.216 84.5,289.5C 87.0821,289.025 89.0821,289.692 90.5,291.5 Z"/></g>
<g><path style="opacity:1" fill="#6d5541" d="M 97.5,266.5 C 98.4511,267.919 98.7845,269.585 98.5,271.5C 95.0581,272.172 92.3914,271.172 90.5,268.5C 91.5832,268.539 92.5832,268.873 93.5,269.5C 94.6422,268.174 95.9755,267.174 97.5,266.5 Z"/></g>
<g><path style="opacity:1" fill="#a9acaf" d="M 97.5,266.5 C 95.9755,267.174 94.6422,268.174 93.5,269.5C 92.5832,268.873 91.5832,268.539 90.5,268.5C 90.1961,265.767 91.3628,264.101 94,263.5C 95.6424,263.978 96.8091,264.978 97.5,266.5 Z"/></g>
<g><path style="opacity:1" fill="#bc9066" d="M 83.5,294.5 C 84.391,295.11 85.391,295.443 86.5,295.5C 87.9187,296.451 89.5853,296.784 91.5,296.5C 91.5,294.833 91.5,293.167 91.5,291.5C 94.0036,289.969 95.3369,290.803 95.5,294C 94.3098,296.547 92.6431,298.881 90.5,301C 88.6199,300.49 86.7866,300.657 85,301.5C 84.6121,300.572 83.9454,299.905 83,299.5C 79.5036,302.167 75.6703,304.167 71.5,305.5C 69.0325,308.798 66.0325,311.632 62.5,314C 64.221,315.527 66.221,316.527 68.5,317C 76.5353,317.736 84.5353,317.569 92.5,316.5C 90.2084,318.267 87.5418,319.267 84.5,319.5C 80.03,318.514 75.3633,318.181 70.5,318.5C 61.8774,316.688 54.2107,313.021 47.5,307.5C 49.4546,308.323 51.4546,308.49 53.5,308C 55.3333,306.167 57.1667,304.333 59,302.5C 59.6667,303.167 59.6667,303.833 59,304.5C 54.2331,308.369 54.3997,309.036 59.5,306.5C 61.6726,303.828 64.1726,301.494 67,299.5C 67.6877,298.668 67.521,298.002 66.5,297.5C 65.0186,298.48 63.6853,299.647 62.5,301C 61.8333,301.667 61.1667,301.667 60.5,301C 65.1408,297.203 68.8074,292.703 71.5,287.5C 72.4776,287.977 73.3109,288.643 74,289.5C 74.7504,288.874 75.5838,288.374 76.5,288C 76.1667,287.667 75.8333,287.333 75.5,287C 76.635,286.251 77.635,286.417 78.5,287.5C 76.144,290.022 73.9773,292.688 72,295.5C 71.3123,296.332 71.479,296.998 72.5,297.5C 74.1667,296.5 75.5,295.167 76.5,293.5C 77.7202,292.289 78.8869,292.289 80,293.5C 81.7331,291.042 82.8998,291.375 83.5,294.5 Z"/></g>
<g><path style="opacity:1" fill="#574639" d="M 90.5,291.5 C 90.8333,291.5 91.1667,291.5 91.5,291.5C 91.5,293.167 91.5,294.833 91.5,296.5C 89.5853,296.784 87.9187,296.451 86.5,295.5C 88.1942,294.473 89.5275,293.139 90.5,291.5 Z"/></g>
<g><path style="opacity:1" fill="#6c594a" d="M 70.5,318.5 C 75.3633,318.181 80.03,318.514 84.5,319.5C 82.422,320.101 80.2554,320.434 78,320.5C 75.1345,320.7 72.6345,320.033 70.5,318.5 Z"/></g>
</svg>
