<?xml version="1.0" encoding="UTF-8"?>
<!DOCTYPE svg PUBLIC "-//W3C//DTD SVG 1.1//EN" "http://www.w3.org/Graphics/SVG/1.1/DTD/svg11.dtd">
<svg xmlns="http://www.w3.org/2000/svg" version="1.1" width="345px" height="343px" style="shape-rendering:geometricPrecision; text-rendering:geometricPrecision; image-rendering:optimizeQuality; fill-rule:evenodd; clip-rule:evenodd" xmlns:xlink="http://www.w3.org/1999/xlink">
<g><path style="opacity:1" fill="#fefefe" d="M -0.5,-0.5 C 114.5,-0.5 229.5,-0.5 344.5,-0.5C 344.5,113.833 344.5,228.167 344.5,342.5C 229.5,342.5 114.5,342.5 -0.5,342.5C -0.5,228.167 -0.5,113.833 -0.5,-0.5 Z"/></g>
<g><path style="opacity:1" fill="#8a96b3" d="M 323.5,10.5 C 322.5,10.5 321.5,10.5 320.5,10.5C 318.744,9.44787 318.077,7.78121 318.5,5.5C 322.5,4.83333 324.167,6.5 323.5,10.5 Z"/></g>
<g><path style="opacity:1" fill="#e6ccb0" d="M 338.5,11.5 C 341.303,14.2036 342.137,17.5369 341,21.5C 339.961,22.7101 338.794,23.7101 337.5,24.5C 337.631,23.7611 337.464,23.0944 337,22.5C 336.329,23.2524 335.496,23.5858 334.5,23.5C 334.5,22.8333 334.5,22.1667 334.5,21.5C 336.549,21.2942 336.883,20.4609 335.5,19C 338.153,16.4242 337.486,14.9242 333.5,14.5C 332.062,14.7189 330.729,15.2189 329.5,16C 328.837,17.5185 327.837,18.6851 326.5,19.5C 326.567,18.0413 326.234,16.7079 325.5,15.5C 325.297,13.6096 325.963,12.1096 327.5,11C 331.221,10.3219 334.888,10.4886 338.5,11.5 Z"/></g>
<g><path style="opacity:1" fill="#8890a9" d="M 314.5,14.5 C 313.791,15.404 312.791,15.7373 311.5,15.5C 309.925,13.8863 309.259,11.8863 309.5,9.5C 313.5,8.83333 315.167,10.5 314.5,14.5 Z"/></g>
<g><path style="opacity:1" fill="#7f7572" d="M 325.5,15.5 C 326.234,16.7079 326.567,18.0413 326.5,19.5C 326.167,19.5 325.833,19.5 325.5,19.5C 325.5,18.1667 324.833,17.5 323.5,17.5C 322.34,15.7973 323.007,15.1307 325.5,15.5 Z"/></g>
<g><path style="opacity:1" fill="#8e98b2" d="M 301.5,14.5 C 303.484,14.484 304.484,15.484 304.5,17.5C 304.547,19.0377 303.88,20.0377 302.5,20.5C 299.145,18.8147 298.811,16.8147 301.5,14.5 Z"/></g>
<g><path style="opacity:1" fill="#3a3532" d="M 323.5,17.5 C 324.833,17.5 325.5,18.1667 325.5,19.5C 324.432,20.4345 323.099,20.7678 321.5,20.5C 320.662,20.1583 320.328,19.4916 320.5,18.5C 321.609,18.4431 322.609,18.1098 323.5,17.5 Z"/></g>
<g><path style="opacity:1" fill="#999391" d="M 316.5,19.5 C 317.494,21.3344 317.494,23.0011 316.5,24.5C 316.53,23.5028 316.03,22.8361 315,22.5C 313.862,22.9891 312.695,23.3225 311.5,23.5C 311.384,20.0897 313.05,18.7564 316.5,19.5 Z"/></g>
<g><path style="opacity:1" fill="#baa993" d="M 334.5,21.5 C 334.719,20.325 334.386,19.325 333.5,18.5C 332.366,20.4385 332.7,22.1052 334.5,23.5C 335.496,23.5858 336.329,23.2524 337,22.5C 337.464,23.0944 337.631,23.7611 337.5,24.5C 332.783,26.3923 329.283,25.0589 327,20.5C 325.057,21.807 323.223,21.807 321.5,20.5C 323.099,20.7678 324.432,20.4345 325.5,19.5C 325.833,19.5 326.167,19.5 326.5,19.5C 327.837,18.6851 328.837,17.5185 329.5,16C 330.729,15.2189 332.062,14.7189 333.5,14.5C 337.486,14.9242 338.153,16.4242 335.5,19C 336.883,20.4609 336.549,21.2942 334.5,21.5 Z"/></g>
<g><path style="opacity:1" fill="#6d665e" d="M 334.5,21.5 C 334.5,22.1667 334.5,22.8333 334.5,23.5C 332.7,22.1052 332.366,20.4385 333.5,18.5C 334.386,19.325 334.719,20.325 334.5,21.5 Z"/></g>
<g><path style="opacity:1" fill="#a8afc1" d="M 297.5,24.5 C 296.817,26.1765 295.483,26.8432 293.5,26.5C 292.008,25.3926 291.008,23.8926 290.5,22C 291.138,18.7072 293.138,17.7072 296.5,19C 296.673,20.9095 297.007,22.7428 297.5,24.5 Z"/></g>
<g><path style="opacity:1" fill="#9fa6ba" d="M 287.5,29.5 C 286.472,29.9258 285.139,29.9258 283.5,29.5C 280.545,26.5149 281.045,24.1815 285,22.5C 288.652,23.8065 289.485,26.1399 287.5,29.5 Z"/></g>
<g><path style="opacity:1" fill="#9a9492" d="M 305.5,24.5 C 306.833,24.5 307.5,25.1667 307.5,26.5C 305.272,26.7769 303.605,27.7769 302.5,29.5C 302.167,29.5 301.833,29.5 301.5,29.5C 301.369,26.6333 302.703,24.9666 305.5,24.5 Z"/></g>
<g><path style="opacity:1" fill="#50443e" d="M 307.5,26.5 C 307.343,30.2729 305.676,31.2729 302.5,29.5C 303.605,27.7769 305.272,26.7769 307.5,26.5 Z"/></g>
<g><path style="opacity:1" fill="#9da7bb" d="M 278.5,33.5 C 277.432,34.4345 276.099,34.7678 274.5,34.5C 272.787,31.5518 273.287,29.2184 276,27.5C 276.772,27.6448 277.439,27.9781 278,28.5C 278.494,30.1341 278.66,31.8008 278.5,33.5 Z"/></g>
<g><path style="opacity:1" fill="#a59f9b" d="M 298.5,30.5 C 296.251,31.0798 294.585,32.4131 293.5,34.5C 292.833,34.5 292.5,34.1667 292.5,33.5C 292.33,32.1779 292.663,31.0113 293.5,30C 295.387,29.2204 297.054,29.3871 298.5,30.5 Z"/></g>
<g><path style="opacity:1" fill="#e4d7c5" d="M 338.5,11.5 C 334.888,10.4886 331.221,10.3219 327.5,11C 325.963,12.1096 325.297,13.6096 325.5,15.5C 323.007,15.1307 322.34,15.7973 323.5,17.5C 322.609,18.1098 321.609,18.4431 320.5,18.5C 318.493,14.4849 317.16,14.8182 316.5,19.5C 313.05,18.7564 311.384,20.0897 311.5,23.5C 310.842,22.6016 310.176,21.6016 309.5,20.5C 308.264,21.2458 306.93,21.5792 305.5,21.5C 305.5,22.5 305.5,23.5 305.5,24.5C 302.703,24.9666 301.369,26.6333 301.5,29.5C 300.391,29.5569 299.391,29.8902 298.5,30.5C 297.054,29.3871 295.387,29.2204 293.5,30C 292.663,31.0113 292.33,32.1779 292.5,33.5C 291.596,32.791 291.263,31.791 291.5,30.5C 288.984,30.7553 286.65,31.5886 284.5,33C 286.058,33.21 287.391,33.71 288.5,34.5C 286.833,34.5 285.167,34.5 283.5,34.5C 283.216,36.4147 283.549,38.0813 284.5,39.5C 283.462,41.6277 282.129,42.6277 280.5,42.5C 280.585,41.0047 279.919,40.0047 278.5,39.5C 277.5,41.1667 276.167,42.5 274.5,43.5C 274.624,44.1067 274.957,44.44 275.5,44.5C 272.833,47.8333 269.833,50.8333 266.5,53.5C 268.155,48.744 268.988,43.744 269,38.5C 270.441,37.7402 271.941,37.0736 273.5,36.5C 274.298,36.0431 274.631,35.3764 274.5,34.5C 276.099,34.7678 277.432,34.4345 278.5,33.5C 281.204,33.3304 282.871,31.9971 283.5,29.5C 285.139,29.9258 286.472,29.9258 287.5,29.5C 289.819,29.0075 291.819,28.0075 293.5,26.5C 295.483,26.8432 296.817,26.1765 297.5,24.5C 299.795,23.8645 301.461,22.5311 302.5,20.5C 303.88,20.0377 304.547,19.0377 304.5,17.5C 304.484,15.484 303.484,14.484 301.5,14.5C 302.884,13.1991 304.384,13.1991 306,14.5C 305.502,16.5269 305.669,18.5269 306.5,20.5C 309.406,19.9132 311.072,18.2465 311.5,15.5C 312.791,15.7373 313.791,15.404 314.5,14.5C 315.117,14.6107 315.617,14.944 316,15.5C 318.2,14.3492 319.7,12.6825 320.5,10.5C 321.5,10.5 322.5,10.5 323.5,10.5C 325.998,9.37299 328.664,8.70632 331.5,8.5C 334.501,8.17161 336.834,9.17161 338.5,11.5 Z"/></g>
<g><path style="opacity:1" fill="#8f8b8a" d="M 288.5,34.5 C 289.167,34.5 289.5,34.8333 289.5,35.5C 287.088,35.6941 286.088,37.0274 286.5,39.5C 285.833,39.5 285.167,39.5 284.5,39.5C 283.549,38.0813 283.216,36.4147 283.5,34.5C 285.167,34.5 286.833,34.5 288.5,34.5 Z"/></g>
<g><path style="opacity:1" fill="#595045" d="M 289.5,35.5 C 289.912,37.9726 288.912,39.3059 286.5,39.5C 286.088,37.0274 287.088,35.6941 289.5,35.5 Z"/></g>
<g><path style="opacity:1" fill="#5d5551" d="M 280.5,42.5 C 279.18,43.9418 277.514,44.6085 275.5,44.5C 274.957,44.44 274.624,44.1067 274.5,43.5C 276.167,42.5 277.5,41.1667 278.5,39.5C 279.919,40.0047 280.585,41.0047 280.5,42.5 Z"/></g>
<g><path style="opacity:1" fill="#d9bea0" d="M 302.5,34.5 C 303.957,36.6282 304.957,38.9616 305.5,41.5C 305.167,42.8333 304.833,44.1667 304.5,45.5C 303.069,44.0975 301.902,42.4308 301,40.5C 300.647,41.6716 300.813,42.8382 301.5,44C 301.164,45.0299 300.497,45.5299 299.5,45.5C 298.904,44.0646 298.904,42.398 299.5,40.5C 295.695,38.9239 292.529,39.5906 290,42.5C 289.667,42.1667 289.333,41.8333 289,41.5C 285.5,45 282,48.5 278.5,52C 279.598,52.7697 279.598,53.603 278.5,54.5C 277.262,53.5876 275.928,53.4209 274.5,54C 272.594,57.6585 270.26,58.1585 267.5,55.5C 266.791,54.596 265.791,54.2627 264.5,54.5C 264.842,53.6618 265.508,53.3284 266.5,53.5C 269.833,50.8333 272.833,47.8333 275.5,44.5C 277.514,44.6085 279.18,43.9418 280.5,42.5C 282.129,42.6277 283.462,41.6277 284.5,39.5C 285.167,39.5 285.833,39.5 286.5,39.5C 288.912,39.3059 289.912,37.9726 289.5,35.5C 290.222,35.9175 290.722,36.5842 291,37.5C 293.064,36.4086 295.231,36.2419 297.5,37C 299.165,38.8401 301.165,39.5068 303.5,39C 301.422,37.7303 301.088,36.2303 302.5,34.5 Z"/></g>
<g><path style="opacity:1" fill="#e8ceb0" d="M 320.5,18.5 C 320.328,19.4916 320.662,20.1583 321.5,20.5C 323.223,21.807 325.057,21.807 327,20.5C 329.283,25.0589 332.783,26.3923 337.5,24.5C 337.047,25.4584 336.381,26.2917 335.5,27C 331.713,27.1596 328.046,27.8263 324.5,29C 312.902,39.2761 303.236,50.9428 295.5,64C 290.515,63.7812 285.515,63.7812 280.5,64C 279.627,65.045 278.627,65.8783 277.5,66.5C 276.315,65.1434 275.315,63.6434 274.5,62C 276.523,59.8251 277.857,57.3251 278.5,54.5C 279.598,53.603 279.598,52.7697 278.5,52C 282,48.5 285.5,45 289,41.5C 289.333,41.8333 289.667,42.1667 290,42.5C 292.529,39.5906 295.695,38.9239 299.5,40.5C 298.904,42.398 298.904,44.0646 299.5,45.5C 297.471,47.0388 295.971,49.0388 295,51.5C 293.989,50.6634 292.822,50.33 291.5,50.5C 291.954,53.1398 293.121,55.4732 295,57.5C 296.445,52.9442 299.111,49.2776 303,46.5C 305.179,47.8398 305.679,47.5065 304.5,45.5C 304.833,44.1667 305.167,42.8333 305.5,41.5C 307.701,41.1416 309.035,39.8083 309.5,37.5C 307.344,35.9907 305.01,34.9907 302.5,34.5C 301.088,36.2303 301.422,37.7303 303.5,39C 301.165,39.5068 299.165,38.8401 297.5,37C 295.231,36.2419 293.064,36.4086 291,37.5C 290.722,36.5842 290.222,35.9175 289.5,35.5C 289.5,34.8333 289.167,34.5 288.5,34.5C 287.391,33.71 286.058,33.21 284.5,33C 286.65,31.5886 288.984,30.7553 291.5,30.5C 291.263,31.791 291.596,32.791 292.5,33.5C 292.5,34.1667 292.833,34.5 293.5,34.5C 297.328,36.3607 298.995,35.0274 298.5,30.5C 299.391,29.8902 300.391,29.5569 301.5,29.5C 301.833,29.5 302.167,29.5 302.5,29.5C 305.676,31.2729 307.343,30.2729 307.5,26.5C 307.5,25.1667 306.833,24.5 305.5,24.5C 305.5,23.5 305.5,22.5 305.5,21.5C 306.93,21.5792 308.264,21.2458 309.5,20.5C 310.176,21.6016 310.842,22.6016 311.5,23.5C 311.791,24.6491 312.624,25.3158 314,25.5C 315.07,25.472 315.903,25.1386 316.5,24.5C 317.494,23.0011 317.494,21.3344 316.5,19.5C 317.16,14.8182 318.493,14.4849 320.5,18.5 Z"/></g>
<g><path style="opacity:1" fill="#867b6c" d="M 304.5,45.5 C 305.679,47.5065 305.179,47.8398 303,46.5C 299.111,49.2776 296.445,52.9442 295,57.5C 293.121,55.4732 291.954,53.1398 291.5,50.5C 292.822,50.33 293.989,50.6634 295,51.5C 295.971,49.0388 297.471,47.0388 299.5,45.5C 300.497,45.5299 301.164,45.0299 301.5,44C 300.813,42.8382 300.647,41.6716 301,40.5C 301.902,42.4308 303.069,44.0975 304.5,45.5 Z"/></g>
<g><path style="opacity:1" fill="#8e7e6f" d="M 302.5,34.5 C 305.01,34.9907 307.344,35.9907 309.5,37.5C 309.035,39.8083 307.701,41.1416 305.5,41.5C 304.957,38.9616 303.957,36.6282 302.5,34.5 Z"/></g>
<g><path style="opacity:1" fill="#766857" d="M 317.5,30.5 C 318.525,30.8966 318.692,31.5632 318,32.5C 316.667,33.8333 315.333,35.1667 314,36.5C 313.333,35.8333 313.333,35.1667 314,34.5C 315.376,33.2949 316.542,31.9616 317.5,30.5 Z"/></g>
<g><path style="opacity:1" fill="#504941" d="M 298.5,30.5 C 298.995,35.0274 297.328,36.3607 293.5,34.5C 294.585,32.4131 296.251,31.0798 298.5,30.5 Z"/></g>
<g><path style="opacity:1" fill="#473f38" d="M 316.5,24.5 C 315.903,25.1386 315.07,25.472 314,25.5C 312.624,25.3158 311.791,24.6491 311.5,23.5C 312.695,23.3225 313.862,22.9891 315,22.5C 316.03,22.8361 316.53,23.5028 316.5,24.5 Z"/></g>
<g><path style="opacity:1" fill="#4e4546" d="M 278.5,54.5 C 277.857,57.3251 276.523,59.8251 274.5,62C 275.315,63.6434 276.315,65.1434 277.5,66.5C 253.53,91.8044 229.196,116.804 204.5,141.5C 200.912,136.907 196.912,132.573 192.5,128.5C 194.167,126.167 196.167,124.167 198.5,122.5C 199.167,123.167 199.833,123.833 200.5,124.5C 201.594,123.132 201.26,121.965 199.5,121C 204.5,116.667 209.167,112 213.5,107C 215.833,108 218.167,109 220.5,110C 218.833,108.333 217.167,106.667 215.5,105C 217.833,102.667 220.167,100.333 222.5,98C 223.996,97.4926 225.163,97.9926 226,99.5C 226.507,98.0039 226.007,96.8373 224.5,96C 233.836,87.676 243.17,78.676 252.5,69C 254.035,69.6609 255.702,69.9942 257.5,70C 256.5,69 255.5,68 254.5,67C 258.428,62.5642 262.761,58.7308 267.5,55.5C 270.26,58.1585 272.594,57.6585 274.5,54C 275.928,53.4209 277.262,53.5876 278.5,54.5 Z"/></g>
<g><path style="opacity:1" fill="#b9b2b4" d="M 242.5,87.5 C 244.337,87.6395 244.67,88.3061 243.5,89.5C 242.702,89.0431 242.369,88.3764 242.5,87.5 Z"/></g>
<g><path style="opacity:1" fill="#483f42" d="M 203.5,142.5 C 201.833,144.5 200.167,146.5 198.5,148.5C 196.231,147.034 194.231,145.201 192.5,143C 195.922,141.594 196.255,139.761 193.5,137.5C 192.571,138.689 192.238,140.022 192.5,141.5C 191.448,141.351 190.448,141.517 189.5,142C 189.833,142.333 190.167,142.667 190.5,143C 187.421,147.807 185.921,147.641 186,142.5C 184.681,144.487 182.848,145.654 180.5,146C 184.4,148.951 184.067,151.618 179.5,154C 178.552,154.483 177.552,154.649 176.5,154.5C 175.688,151.725 174.021,149.558 171.5,148C 177.708,141.624 184.041,135.458 190.5,129.5C 195.188,133.521 199.521,137.854 203.5,142.5 Z"/></g>
<g><path style="opacity:1" fill="#577172" d="M 137.5,177.5 C 137.5,178.167 137.167,178.5 136.5,178.5C 125.946,178.298 120.946,172.798 121.5,162C 123.884,150.733 129.051,140.9 137,132.5C 137.773,130.648 137.273,129.314 135.5,128.5C 135.833,127.833 136.167,127.167 136.5,126.5C 140.517,123.782 142.517,125.115 142.5,130.5C 133.623,137.283 127.456,146.283 124,157.5C 122.001,165.851 124.501,172.351 131.5,177C 133.473,177.495 135.473,177.662 137.5,177.5 Z"/></g>
<g><path style="opacity:1" fill="#564f52" d="M 198.5,148.5 C 195.5,152.167 192.167,155.5 188.5,158.5C 187.588,149.391 184.588,148.558 179.5,156C 181.37,158.04 183.37,159.873 185.5,161.5C 185.5,162.167 185.167,162.5 184.5,162.5C 182.519,160.856 180.519,159.19 178.5,157.5C 172.773,162.92 167.44,167.92 162.5,172.5C 161.833,172.5 161.5,172.167 161.5,171.5C 164.635,168.2 167.969,165.033 171.5,162C 170.944,161.617 170.611,161.117 170.5,160.5C 170.5,159.833 170.5,159.167 170.5,158.5C 170.435,158.062 170.601,157.728 171,157.5C 171.249,158.624 171.749,159.624 172.5,160.5C 175.372,159.059 176.705,157.059 176.5,154.5C 177.552,154.649 178.552,154.483 179.5,154C 184.067,151.618 184.4,148.951 180.5,146C 182.848,145.654 184.681,144.487 186,142.5C 185.921,147.641 187.421,147.807 190.5,143C 190.167,142.667 189.833,142.333 189.5,142C 190.448,141.517 191.448,141.351 192.5,141.5C 192.238,140.022 192.571,138.689 193.5,137.5C 196.255,139.761 195.922,141.594 192.5,143C 194.231,145.201 196.231,147.034 198.5,148.5 Z"/></g>
<g><path style="opacity:1" fill="#6b6668" d="M 264.5,54.5 C 265.791,54.2627 266.791,54.596 267.5,55.5C 262.761,58.7308 258.428,62.5642 254.5,67C 255.5,68 256.5,69 257.5,70C 255.702,69.9942 254.035,69.6609 252.5,69C 243.17,78.676 233.836,87.676 224.5,96C 226.007,96.8373 226.507,98.0039 226,99.5C 225.163,97.9926 223.996,97.4926 222.5,98C 220.167,100.333 217.833,102.667 215.5,105C 217.167,106.667 218.833,108.333 220.5,110C 218.167,109 215.833,108 213.5,107C 209.167,112 204.5,116.667 199.5,121C 201.26,121.965 201.594,123.132 200.5,124.5C 199.833,123.833 199.167,123.167 198.5,122.5C 196.167,124.167 194.167,126.167 192.5,128.5C 196.912,132.573 200.912,136.907 204.5,141.5C 204.5,142.167 204.167,142.5 203.5,142.5C 199.521,137.854 195.188,133.521 190.5,129.5C 184.041,135.458 177.708,141.624 171.5,148C 174.021,149.558 175.688,151.725 176.5,154.5C 174.704,153.207 173.037,151.707 171.5,150C 169.08,150.372 167.08,151.705 165.5,154C 166,154.5 166.5,155 167,155.5C 168.241,153.579 169.741,153.246 171.5,154.5C 168.175,155.504 167.841,156.838 170.5,158.5C 170.5,159.167 170.5,159.833 170.5,160.5C 168.563,158.909 166.563,157.242 164.5,155.5C 162.684,156.815 161.017,158.315 159.5,160C 162.182,162.33 161.849,162.83 158.5,161.5C 156.003,161.935 154.837,163.269 155,165.5C 157.037,167.706 159.203,169.706 161.5,171.5C 161.5,172.167 161.833,172.5 162.5,172.5C 163.793,174.296 165.293,175.963 167,177.5C 168.393,174.875 169.559,174.875 170.5,177.5C 169.833,178.833 168.833,179.833 167.5,180.5C 162.842,175.342 158.009,170.342 153,165.5C 151.647,166.685 150.48,168.019 149.5,169.5C 150.63,170.622 151.297,171.956 151.5,173.5C 150.206,172.71 149.039,171.71 148,170.5C 143.991,174.676 139.824,178.676 135.5,182.5C 134.957,182.44 134.624,182.107 134.5,181.5C 135.193,180.482 135.859,179.482 136.5,178.5C 137.167,178.5 137.5,178.167 137.5,177.5C 180.164,136.836 222.497,95.836 264.5,54.5 Z"/></g>
<g><path style="opacity:1" fill="#99c4ca" d="M 135.5,128.5 C 137.273,129.314 137.773,130.648 137,132.5C 129.051,140.9 123.884,150.733 121.5,162C 120.946,172.798 125.946,178.298 136.5,178.5C 135.859,179.482 135.193,180.482 134.5,181.5C 134.624,182.107 134.957,182.44 135.5,182.5C 134.811,183.774 133.977,183.774 133,182.5C 130.676,183.775 130.176,185.442 131.5,187.5C 130.504,187.586 129.671,187.252 129,186.5C 128.292,187.381 127.458,188.047 126.5,188.5C 126.228,185.371 125.062,182.704 123,180.5C 119.357,184.813 115.69,189.147 112,193.5C 107.522,197.635 103.022,201.635 98.5,205.5C 97.8333,205.5 97.1667,205.5 96.5,205.5C 99.4224,202.921 102.422,200.254 105.5,197.5C 104.975,196.808 104.308,196.308 103.5,196C 104.833,195.333 106.167,194.667 107.5,194C 103.572,192.407 101.072,189.573 100,185.5C 97.3782,186.321 94.5448,186.487 91.5,186C 90.8095,187.067 90.3095,188.234 90,189.5C 89.6667,188.833 89.3333,188.167 89,187.5C 87.9887,188.337 86.8221,188.67 85.5,188.5C 92.4496,179.934 97.2829,170.268 100,159.5C 104.636,148.539 111.803,139.705 121.5,133C 126.423,131.554 131.09,130.054 135.5,128.5 Z"/></g>
<g><path style="opacity:1" fill="#433b3f" d="M 176.5,154.5 C 176.705,157.059 175.372,159.059 172.5,160.5C 171.749,159.624 171.249,158.624 171,157.5C 170.601,157.728 170.435,158.062 170.5,158.5C 167.841,156.838 168.175,155.504 171.5,154.5C 169.741,153.246 168.241,153.579 167,155.5C 166.5,155 166,154.5 165.5,154C 167.08,151.705 169.08,150.372 171.5,150C 173.037,151.707 174.704,153.207 176.5,154.5 Z"/></g>
<g><path style="opacity:1" fill="#423a3d" d="M 188.5,158.5 C 187.833,159.833 186.833,160.833 185.5,161.5C 183.37,159.873 181.37,158.04 179.5,156C 184.588,148.558 187.588,149.391 188.5,158.5 Z"/></g>
<g><path style="opacity:1" fill="#473e41" d="M 170.5,160.5 C 170.611,161.117 170.944,161.617 171.5,162C 167.969,165.033 164.635,168.2 161.5,171.5C 159.203,169.706 157.037,167.706 155,165.5C 154.837,163.269 156.003,161.935 158.5,161.5C 161.849,162.83 162.182,162.33 159.5,160C 161.017,158.315 162.684,156.815 164.5,155.5C 166.563,157.242 168.563,158.909 170.5,160.5 Z"/></g>
<g><path style="opacity:1" fill="#433b3d" d="M 167.5,180.5 C 166.833,181.833 165.833,182.833 164.5,183.5C 161.775,182.287 159.441,180.454 157.5,178C 160.212,175.289 159.878,174.122 156.5,174.5C 157.506,175.396 157.506,176.062 156.5,176.5C 155.06,175.048 153.394,174.048 151.5,173.5C 151.297,171.956 150.63,170.622 149.5,169.5C 150.48,168.019 151.647,166.685 153,165.5C 158.009,170.342 162.842,175.342 167.5,180.5 Z"/></g>
<g><path style="opacity:1" fill="#463e40" d="M 184.5,162.5 C 179.805,167.526 175.139,172.526 170.5,177.5C 169.559,174.875 168.393,174.875 167,177.5C 165.293,175.963 163.793,174.296 162.5,172.5C 167.44,167.92 172.773,162.92 178.5,157.5C 180.519,159.19 182.519,160.856 184.5,162.5 Z"/></g>
<g><path style="opacity:1" fill="#afa7ab" d="M 176.5,161.5 C 179.797,161.329 180.131,161.995 177.5,163.5C 176.702,163.043 176.369,162.376 176.5,161.5 Z"/></g>
<g><path style="opacity:1" fill="#b9d2d4" d="M 136.5,126.5 C 136.167,127.167 135.833,127.833 135.5,128.5C 124.277,128.36 115.11,132.694 108,141.5C 104.493,146.51 101.493,151.843 99,157.5C 96.4284,170.146 90.5951,180.98 81.5,190C 78.1667,192 74.8333,194 71.5,196C 58.1797,199.486 45.1797,203.653 32.5,208.5C 29.994,209.75 27.3274,210.416 24.5,210.5C 41.9972,203.721 59.6639,197.221 77.5,191C 81.7016,187.133 85.5349,182.967 89,178.5C 93.4238,169.8 97.0905,160.8 100,151.5C 105.644,139.855 114.477,131.688 126.5,127C 129.817,126.502 133.15,126.335 136.5,126.5 Z"/></g>
<g><path style="opacity:1" fill="#4f484b" d="M 151.5,173.5 C 153.394,174.048 155.06,175.048 156.5,176.5C 157.506,176.062 157.506,175.396 156.5,174.5C 159.878,174.122 160.212,175.289 157.5,178C 159.441,180.454 161.775,182.287 164.5,183.5C 160.108,188.894 155.108,193.561 149.5,197.5C 146.63,196.922 144.963,195.255 144.5,192.5C 143.878,191.373 143.045,190.373 142,189.5C 140.667,190.833 139.333,192.167 138,193.5C 136.042,191.224 133.875,189.224 131.5,187.5C 130.176,185.442 130.676,183.775 133,182.5C 133.977,183.774 134.811,183.774 135.5,182.5C 139.824,178.676 143.991,174.676 148,170.5C 149.039,171.71 150.206,172.71 151.5,173.5 Z"/></g>
<g><path style="opacity:1" fill="#716c6d" d="M 131.5,187.5 C 133.875,189.224 136.042,191.224 138,193.5C 139.333,192.167 140.667,190.833 142,189.5C 143.045,190.373 143.878,191.373 144.5,192.5C 141.402,193.216 140.069,194.883 140.5,197.5C 137.375,194.877 134.375,192.044 131.5,189C 130.035,188.399 129.035,188.899 128.5,190.5C 130.149,192.65 131.982,194.65 134,196.5C 134.667,197.167 134.667,197.833 134,198.5C 131.667,196.167 129.333,193.833 127,191.5C 126.167,192.333 125.333,193.167 124.5,194C 126.781,196.07 128.947,198.236 131,200.5C 131.414,200.043 131.914,199.709 132.5,199.5C 133.51,201.935 134.343,204.269 135,206.5C 131,202.5 127,198.5 123,194.5C 122.018,195.759 121.685,197.092 122,198.5C 124.5,201 127,203.5 129.5,206C 128.29,207.039 127.29,208.206 126.5,209.5C 125.833,209.5 125.5,209.167 125.5,208.5C 125.953,207.542 126.619,206.708 127.5,206C 125,203.5 122.5,201 120,198.5C 119.005,199.066 118.172,199.733 117.5,200.5C 117.167,200.5 116.833,200.5 116.5,200.5C 118.672,195.65 122.006,191.65 126.5,188.5C 127.458,188.047 128.292,187.381 129,186.5C 129.671,187.252 130.504,187.586 131.5,187.5 Z"/></g>
<g><path style="opacity:1" fill="#c0e0e4" d="M 135.5,128.5 C 131.09,130.054 126.423,131.554 121.5,133C 111.803,139.705 104.636,148.539 100,159.5C 97.2829,170.268 92.4496,179.934 85.5,188.5C 82.0218,192.072 78.0218,194.906 73.5,197C 61.2316,201.973 48.8982,206.473 36.5,210.5C 34.8561,210.286 33.3561,210.62 32,211.5C 31.5304,210.423 31.6971,209.423 32.5,208.5C 45.1797,203.653 58.1797,199.486 71.5,196C 74.8333,194 78.1667,192 81.5,190C 90.5951,180.98 96.4284,170.146 99,157.5C 101.493,151.843 104.493,146.51 108,141.5C 115.11,132.694 124.277,128.36 135.5,128.5 Z"/></g>
<g><path style="opacity:1" fill="#423e3f" d="M 144.5,192.5 C 144.963,195.255 146.63,196.922 149.5,197.5C 146.11,201.558 143.11,205.891 140.5,210.5C 138.205,211.136 136.539,212.469 135.5,214.5C 134.791,215.404 133.791,215.737 132.5,215.5C 130.167,213.833 128.167,211.833 126.5,209.5C 127.29,208.206 128.29,207.039 129.5,206C 127,203.5 124.5,201 122,198.5C 121.685,197.092 122.018,195.759 123,194.5C 127,198.5 131,202.5 135,206.5C 134.343,204.269 133.51,201.935 132.5,199.5C 131.914,199.709 131.414,200.043 131,200.5C 128.947,198.236 126.781,196.07 124.5,194C 125.333,193.167 126.167,192.333 127,191.5C 129.333,193.833 131.667,196.167 134,198.5C 134.667,197.833 134.667,197.167 134,196.5C 131.982,194.65 130.149,192.65 128.5,190.5C 129.035,188.899 130.035,188.399 131.5,189C 134.375,192.044 137.375,194.877 140.5,197.5C 140.069,194.883 141.402,193.216 144.5,192.5 Z"/></g>
<g><path style="opacity:1" fill="#473e41" d="M 125.5,208.5 C 122.5,206.167 119.833,203.5 117.5,200.5C 118.172,199.733 119.005,199.066 120,198.5C 122.5,201 125,203.5 127.5,206C 126.619,206.708 125.953,207.542 125.5,208.5 Z"/></g>
<g><path style="opacity:1" fill="#c0bfc1" d="M 129.5,217.5 C 131.126,220.246 131.793,223.246 131.5,226.5C 129.473,226.662 127.473,226.495 125.5,226C 128.803,224.993 129.97,222.827 129,219.5C 126,216.5 123,213.5 120,210.5C 119.46,212.135 119.96,213.468 121.5,214.5C 119.667,217.29 118.667,216.957 118.5,213.5C 117.5,213.5 116.5,213.5 115.5,213.5C 115.5,212.5 115.5,211.5 115.5,210.5C 116.5,210.5 117.5,210.5 118.5,210.5C 118.351,209.448 118.517,208.448 119,207.5C 122.369,211.037 125.869,214.371 129.5,217.5 Z"/></g>
<g><path style="opacity:1" fill="#8ebec8" d="M 96.5,205.5 C 92.0635,208.559 87.3968,211.392 82.5,214C 81,215.5 79.5,217 78,218.5C 77.4604,220.135 77.9604,221.468 79.5,222.5C 78.675,223.386 77.675,223.719 76.5,223.5C 76.5,224.5 76.5,225.5 76.5,226.5C 77.791,226.263 78.791,226.596 79.5,227.5C 78.448,227.351 77.448,227.517 76.5,228C 72.6667,231.833 68.8333,235.667 65,239.5C 64.6126,242.304 65.7792,244.304 68.5,245.5C 74.5,252.167 80.8333,258.5 87.5,264.5C 88.1667,265.5 88.8333,266.5 89.5,267.5C 87.8564,268.316 86.6897,269.65 86,271.5C 85.6012,271.272 85.4346,270.938 85.5,270.5C 83.9059,267.236 81.5725,264.569 78.5,262.5C 75.3813,258.562 72.048,254.895 68.5,251.5C 67.1984,250.193 65.865,250.193 64.5,251.5C 64.1667,251.167 63.8333,250.833 63.5,250.5C 64.1667,249.833 64.8333,249.167 65.5,248.5C 64.277,247.386 62.9437,247.219 61.5,248C 58.9988,251.667 55.9988,254.834 52.5,257.5C 48.1686,260.469 44.8352,263.802 42.5,267.5C 41.8333,266.5 41.1667,265.5 40.5,264.5C 39.9651,272.456 37.9651,273.123 34.5,266.5C 35.7161,265.904 37.0494,265.737 38.5,266C 37.0953,264.731 35.4286,264.231 33.5,264.5C 33.6641,261.813 33.4974,259.146 33,256.5C 32.362,270.548 31.362,284.548 30,298.5C 27.5838,295.912 25.0838,293.578 22.5,291.5C 6.96196,272.91 1.96196,251.91 7.5,228.5C 8.90082,228.029 10.2342,227.362 11.5,226.5C 10.0811,224.873 10.4144,224.373 12.5,225C 15.1035,228.748 17.4369,232.581 19.5,236.5C 20.5347,240.819 20.5347,245.319 19.5,250C 21.2263,253.008 22.2263,256.341 22.5,260C 21.6684,264.846 22.6684,269.346 25.5,273.5C 25.2907,274.086 24.9574,274.586 24.5,275C 25.1998,277.472 26.1998,279.805 27.5,282C 26.1023,283.649 26.4356,284.982 28.5,286C 27.4464,287.388 27.2797,288.888 28,290.5C 29.4345,284.271 30.4345,277.938 31,271.5C 31.268,252.458 32.268,233.458 34,214.5C 34.6622,213.016 35.4955,211.683 36.5,210.5C 48.8982,206.473 61.2316,201.973 73.5,197C 78.0218,194.906 82.0218,192.072 85.5,188.5C 86.8221,188.67 87.9887,188.337 89,187.5C 89.3333,188.167 89.6667,188.833 90,189.5C 90.3095,188.234 90.8095,187.067 91.5,186C 94.5448,186.487 97.3782,186.321 100,185.5C 101.072,189.573 103.572,192.407 107.5,194C 106.167,194.667 104.833,195.333 103.5,196C 104.308,196.308 104.975,196.808 105.5,197.5C 102.422,200.254 99.4224,202.921 96.5,205.5 Z"/></g>
<g><path style="opacity:1" fill="#f5f6f8" d="M 126.5,188.5 C 122.006,191.65 118.672,195.65 116.5,200.5C 114.637,202.705 112.303,204.039 109.5,204.5C 107.541,208.981 104.541,212.815 100.5,216C 99.1667,216 97.8333,216 96.5,216C 97.9928,217.156 97.8261,217.99 96,218.5C 94.8319,217.491 93.6652,216.491 92.5,215.5C 91.2234,218.034 91.2234,220.534 92.5,223C 89.6306,226.038 86.6306,228.871 83.5,231.5C 83.1667,231.5 82.8333,231.5 82.5,231.5C 81.5,230.167 80.5,228.833 79.5,227.5C 78.791,226.596 77.791,226.263 76.5,226.5C 76.5,225.5 76.5,224.5 76.5,223.5C 77.675,223.719 78.675,223.386 79.5,222.5C 77.9604,221.468 77.4604,220.135 78,218.5C 79.5,217 81,215.5 82.5,214C 87.3968,211.392 92.0635,208.559 96.5,205.5C 97.1667,205.5 97.8333,205.5 98.5,205.5C 103.022,201.635 107.522,197.635 112,193.5C 115.69,189.147 119.357,184.813 123,180.5C 125.062,182.704 126.228,185.371 126.5,188.5 Z"/></g>
<g><path style="opacity:1" fill="#868586" d="M 98.5,205.5 C 100.337,205.639 100.67,206.306 99.5,207.5C 98.7025,207.043 98.3691,206.376 98.5,205.5 Z"/></g>
<g><path style="opacity:1" fill="#e1e1e2" d="M 116.5,200.5 C 116.833,200.5 117.167,200.5 117.5,200.5C 119.833,203.5 122.5,206.167 125.5,208.5C 125.5,209.167 125.833,209.5 126.5,209.5C 128.167,211.833 130.167,213.833 132.5,215.5C 133.9,216.1 134.9,217.1 135.5,218.5C 133.862,217.841 132.195,217.174 130.5,216.5C 129.893,216.624 129.56,216.957 129.5,217.5C 125.869,214.371 122.369,211.037 119,207.5C 118.517,208.448 118.351,209.448 118.5,210.5C 117.5,210.5 116.5,210.5 115.5,210.5C 115.5,211.5 115.5,212.5 115.5,213.5C 115.719,214.675 115.386,215.675 114.5,216.5C 111.622,218.589 108.955,220.923 106.5,223.5C 109.925,226.915 112.925,230.581 115.5,234.5C 113.203,232.706 111.037,230.706 109,228.5C 108.308,229.025 107.808,229.692 107.5,230.5C 109.133,232.503 111.133,233.836 113.5,234.5C 113.5,235.5 113.5,236.5 113.5,237.5C 111.516,237.617 109.85,236.95 108.5,235.5C 108.002,236.603 107.669,237.603 107.5,238.5C 105.695,236.097 103.362,234.43 100.5,233.5C 100,232.5 99.5,231.5 99,230.5C 98.6667,230.833 98.3333,231.167 98,231.5C 97.3333,230.167 96.6667,228.833 96,227.5C 92.8883,230.101 90.3883,233.101 88.5,236.5C 87.1667,235.5 85.8333,234.5 84.5,233.5C 84.1667,232.833 83.8333,232.167 83.5,231.5C 86.6306,228.871 89.6306,226.038 92.5,223C 91.2234,220.534 91.2234,218.034 92.5,215.5C 93.6652,216.491 94.8319,217.491 96,218.5C 97.8261,217.99 97.9928,217.156 96.5,216C 97.8333,216 99.1667,216 100.5,216C 104.541,212.815 107.541,208.981 109.5,204.5C 112.303,204.039 114.637,202.705 116.5,200.5 Z"/></g>
<g><path style="opacity:1" fill="#7c7b7c" d="M 112.5,207.5 C 114.337,207.639 114.67,208.306 113.5,209.5C 112.702,209.043 112.369,208.376 112.5,207.5 Z"/></g>
<g><path style="opacity:1" fill="#9cc8d2" d="M 32.5,208.5 C 31.6971,209.423 31.5304,210.423 32,211.5C 33.3561,210.62 34.8561,210.286 36.5,210.5C 35.4955,211.683 34.6622,213.016 34,214.5C 32.268,233.458 31.268,252.458 31,271.5C 30.4345,277.938 29.4345,284.271 28,290.5C 27.2797,288.888 27.4464,287.388 28.5,286C 26.4356,284.982 26.1023,283.649 27.5,282C 26.1998,279.805 25.1998,277.472 24.5,275C 24.9574,274.586 25.2907,274.086 25.5,273.5C 22.6684,269.346 21.6684,264.846 22.5,260C 22.2263,256.341 21.2263,253.008 19.5,250C 20.5347,245.319 20.5347,240.819 19.5,236.5C 17.4369,232.581 15.1035,228.748 12.5,225C 10.4144,224.373 10.0811,224.873 11.5,226.5C 10.2342,227.362 8.90082,228.029 7.5,228.5C 11.1397,220.529 16.8064,214.529 24.5,210.5C 27.3274,210.416 29.994,209.75 32.5,208.5 Z"/></g>
<g><path style="opacity:1" fill="#5e8486" d="M 140.5,210.5 C 141.591,223.918 148.924,230.251 162.5,229.5C 162.5,229.833 162.5,230.167 162.5,230.5C 162.167,230.5 161.833,230.5 161.5,230.5C 148.66,231.741 140.66,226.074 137.5,213.5C 136.817,213.863 136.15,214.196 135.5,214.5C 136.539,212.469 138.205,211.136 140.5,210.5 Z"/></g>
<g><path style="opacity:1" fill="#8baaae" d="M 178.5,220.5 C 178.833,221.167 179.167,221.833 179.5,222.5C 173.991,225.42 168.325,228.087 162.5,230.5C 162.5,230.167 162.5,229.833 162.5,229.5C 168.117,227.024 173.451,224.024 178.5,220.5 Z"/></g>
<g><path style="opacity:1" fill="#737172" d="M 101.5,225.5 C 103.337,225.639 103.67,226.306 102.5,227.5C 101.702,227.043 101.369,226.376 101.5,225.5 Z"/></g>
<g><path style="opacity:1" fill="#9fc0c5" d="M 161.5,230.5 C 157.688,231.324 153.688,231.824 149.5,232C 154.773,233.767 160.106,233.934 165.5,232.5C 156.006,236.326 147.506,234.66 140,227.5C 138.989,228.337 137.822,228.67 136.5,228.5C 136.36,226.876 137.027,225.71 138.5,225C 137.086,223.007 136.086,220.84 135.5,218.5C 134.9,217.1 133.9,216.1 132.5,215.5C 133.791,215.737 134.791,215.404 135.5,214.5C 136.15,214.196 136.817,213.863 137.5,213.5C 140.66,226.074 148.66,231.741 161.5,230.5 Z"/></g>
<g><path style="opacity:1" fill="#c3dadc" d="M 179.5,222.5 C 179.229,224.43 178.229,225.764 176.5,226.5C 173.6,229.786 169.933,231.786 165.5,232.5C 160.106,233.934 154.773,233.767 149.5,232C 153.688,231.824 157.688,231.324 161.5,230.5C 161.833,230.5 162.167,230.5 162.5,230.5C 168.325,228.087 173.991,225.42 179.5,222.5 Z"/></g>
<g><path style="opacity:1" fill="#1e2022" d="M 79.5,227.5 C 80.5,228.833 81.5,230.167 82.5,231.5C 82.6068,233.379 82.1068,233.712 81,232.5C 79.6976,233.085 78.531,233.751 77.5,234.5C 75.7868,235.635 75.1201,237.302 75.5,239.5C 71.062,238.425 69.062,240.092 69.5,244.5C 69.5,245.167 69.1667,245.5 68.5,245.5C 65.7792,244.304 64.6126,242.304 65,239.5C 68.8333,235.667 72.6667,231.833 76.5,228C 77.448,227.517 78.448,227.351 79.5,227.5 Z"/></g>
<g><path style="opacity:1" fill="#6b6b6a" d="M 82.5,231.5 C 82.8333,231.5 83.1667,231.5 83.5,231.5C 83.8333,232.167 84.1667,232.833 84.5,233.5C 83.5,233.833 82.8333,234.5 82.5,235.5C 80.9582,234.699 79.2915,234.366 77.5,234.5C 78.531,233.751 79.6976,233.085 81,232.5C 82.1068,233.712 82.6068,233.379 82.5,231.5 Z"/></g>
<g><path style="opacity:1" fill="#f2f3f6" d="M 129.5,217.5 C 129.56,216.957 129.893,216.624 130.5,216.5C 132.195,217.174 133.862,217.841 135.5,218.5C 136.086,220.84 137.086,223.007 138.5,225C 137.027,225.71 136.36,226.876 136.5,228.5C 137.822,228.67 138.989,228.337 140,227.5C 147.506,234.66 156.006,236.326 165.5,232.5C 169.933,231.786 173.6,229.786 176.5,226.5C 177.613,227.946 177.78,229.613 177,231.5C 176.107,230.289 175.274,230.289 174.5,231.5C 175.025,232.192 175.692,232.692 176.5,233C 170.889,241.144 163.223,246.311 153.5,248.5C 150.447,246.731 147.114,245.564 143.5,245C 144.938,244.781 146.271,244.281 147.5,243.5C 146.098,242.158 146.431,241.324 148.5,241C 146.567,240.749 144.734,240.249 143,239.5C 142.409,242.145 141.075,242.811 139,241.5C 134.007,243.265 129.173,245.431 124.5,248C 121.457,248.862 120.457,248.029 121.5,245.5C 123.833,242.997 125.999,240.331 128,237.5C 128.667,236.833 128.667,236.167 128,235.5C 124.702,240.801 120.202,244.635 114.5,247C 109.319,251.881 104.485,257.047 100,262.5C 99.5357,261.906 99.369,261.239 99.5,260.5C 100.793,258.704 102.293,257.037 104,255.5C 104.667,254.5 104.667,253.5 104,252.5C 98.6303,247.298 93.4636,241.965 88.5,236.5C 90.3883,233.101 92.8883,230.101 96,227.5C 96.6667,228.833 97.3333,230.167 98,231.5C 98.3333,231.167 98.6667,230.833 99,230.5C 99.5,231.5 100,232.5 100.5,233.5C 103.362,234.43 105.695,236.097 107.5,238.5C 107.669,237.603 108.002,236.603 108.5,235.5C 109.85,236.95 111.516,237.617 113.5,237.5C 113.5,236.5 113.5,235.5 113.5,234.5C 111.133,233.836 109.133,232.503 107.5,230.5C 107.808,229.692 108.308,229.025 109,228.5C 111.037,230.706 113.203,232.706 115.5,234.5C 112.925,230.581 109.925,226.915 106.5,223.5C 108.955,220.923 111.622,218.589 114.5,216.5C 115.386,215.675 115.719,214.675 115.5,213.5C 116.5,213.5 117.5,213.5 118.5,213.5C 118.667,216.957 119.667,217.29 121.5,214.5C 119.96,213.468 119.46,212.135 120,210.5C 123,213.5 126,216.5 129,219.5C 129.97,222.827 128.803,224.993 125.5,226C 127.473,226.495 129.473,226.662 131.5,226.5C 131.793,223.246 131.126,220.246 129.5,217.5 Z"/></g>
<g><path style="opacity:1" fill="#858585" d="M 125.5,220.5 C 127.337,220.639 127.67,221.306 126.5,222.5C 125.702,222.043 125.369,221.376 125.5,220.5 Z"/></g>
<g><path style="opacity:1" fill="#7f807c" d="M 122.5,217.5 C 124.337,217.639 124.67,218.306 123.5,219.5C 122.702,219.043 122.369,218.376 122.5,217.5 Z"/></g>
<g><path style="opacity:1" fill="#a2a4aa" d="M 115.5,234.5 C 116.468,236.607 116.802,238.941 116.5,241.5C 113.927,241.852 111.594,241.352 109.5,240C 113.466,240.143 115.466,238.309 115.5,234.5 Z"/></g>
<g><path style="opacity:1" fill="#3a4446" d="M 69.5,244.5 C 75.2981,249.797 80.9647,255.297 86.5,261C 87.7932,261.49 89.1266,261.657 90.5,261.5C 89.0998,262.1 88.0998,263.1 87.5,264.5C 80.8333,258.5 74.5,252.167 68.5,245.5C 69.1667,245.5 69.5,245.167 69.5,244.5 Z"/></g>
<g><path style="opacity:1" fill="#e3e2e0" d="M 77.5,234.5 C 79.2915,234.366 80.9582,234.699 82.5,235.5C 87.798,240.297 92.9646,245.297 98,250.5C 98.8334,254.836 97.0001,256.836 92.5,256.5C 92.8799,258.698 92.2132,260.365 90.5,261.5C 89.1266,261.657 87.7932,261.49 86.5,261C 80.9647,255.297 75.2981,249.797 69.5,244.5C 69.062,240.092 71.062,238.425 75.5,239.5C 75.1201,237.302 75.7868,235.635 77.5,234.5 Z"/></g>
<g><path style="opacity:1" fill="#e9ebf1" d="M 153.5,248.5 C 152.048,249.713 150.714,249.38 149.5,247.5C 148.289,248.274 148.289,249.107 149.5,250C 140.59,253.376 133.756,259.209 129,267.5C 127.817,266.269 126.651,266.269 125.5,267.5C 126.5,268.167 127.5,268.833 128.5,269.5C 126.858,273.405 125.524,277.405 124.5,281.5C 122.833,281.5 121.167,281.5 119.5,281.5C 120.167,278.833 120.833,276.167 121.5,273.5C 120.5,273.5 119.5,273.5 118.5,273.5C 117.477,276.393 117.477,279.226 118.5,282C 115.875,284.196 114.875,287.03 115.5,290.5C 114.227,291.077 114.227,291.743 115.5,292.5C 116.298,292.043 116.631,291.376 116.5,290.5C 116.435,290.062 116.601,289.728 117,289.5C 117.816,290.823 118.983,291.489 120.5,291.5C 119.673,296.65 116.673,298.65 111.5,297.5C 110.199,296.118 109.366,294.452 109,292.5C 108.667,286.833 108.333,281.167 108,275.5C 106.154,271.145 104.321,266.812 102.5,262.5C 107.908,255.756 114.242,250.09 121.5,245.5C 120.457,248.029 121.457,248.862 124.5,248C 129.173,245.431 134.007,243.265 139,241.5C 141.075,242.811 142.409,242.145 143,239.5C 144.734,240.249 146.567,240.749 148.5,241C 146.431,241.324 146.098,242.158 147.5,243.5C 146.271,244.281 144.938,244.781 143.5,245C 147.114,245.564 150.447,246.731 153.5,248.5 Z"/></g>
<g><path style="opacity:1" fill="#66696f" d="M 68.5,251.5 C 72.048,254.895 75.3813,258.562 78.5,262.5C 78.5198,264.143 77.8532,265.476 76.5,266.5C 77.9814,267.48 79.3147,268.647 80.5,270C 79.2513,271.824 78.0847,271.657 77,269.5C 75.4878,270.257 74.1545,271.257 73,272.5C 71.5806,271.54 70.0806,270.707 68.5,270C 69.7487,268.176 70.9153,268.343 72,270.5C 73.0217,269.646 73.8551,268.646 74.5,267.5C 69.7629,262.297 64.4296,257.797 58.5,254C 59.0253,253.308 59.6919,252.808 60.5,252.5C 63.5607,256.493 66.2273,256.16 68.5,251.5 Z"/></g>
<g><path style="opacity:1" fill="#bbbab8" d="M 84.5,254.5 C 87.2496,254.618 89.2496,255.951 90.5,258.5C 90,258.833 89.5,259.167 89,259.5C 87.2648,257.938 85.7648,256.271 84.5,254.5 Z"/></g>
<g><path style="opacity:1" fill="#535962" d="M 68.5,251.5 C 66.2273,256.16 63.5607,256.493 60.5,252.5C 59.6919,252.808 59.0253,253.308 58.5,254C 64.4296,257.797 69.7629,262.297 74.5,267.5C 73.8551,268.646 73.0217,269.646 72,270.5C 70.9153,268.343 69.7487,268.176 68.5,270C 70.0806,270.707 71.5806,271.54 73,272.5C 74.1545,271.257 75.4878,270.257 77,269.5C 78.0847,271.657 79.2513,271.824 80.5,270C 79.3147,268.647 77.9814,267.48 76.5,266.5C 77.8532,265.476 78.5198,264.143 78.5,262.5C 81.5725,264.569 83.9059,267.236 85.5,270.5C 84.2058,271.29 83.0391,272.29 82,273.5C 81.2825,272.549 80.4491,272.383 79.5,273C 78.2567,274.154 77.2567,275.488 76.5,277C 78.9889,276.763 81.3222,275.929 83.5,274.5C 83.0287,278.503 81.0287,281.669 77.5,284C 76.8333,284.667 76.1667,284.667 75.5,284C 67.9346,277.39 60.6013,270.556 53.5,263.5C 52.5344,261.604 52.2011,259.604 52.5,257.5C 55.9988,254.834 58.9988,251.667 61.5,248C 62.9437,247.219 64.277,247.386 65.5,248.5C 64.8333,249.167 64.1667,249.833 63.5,250.5C 63.8333,250.833 64.1667,251.167 64.5,251.5C 65.865,250.193 67.1984,250.193 68.5,251.5 Z"/></g>
<g><path style="opacity:1" fill="#80b5c0" d="M 52.5,257.5 C 52.2011,259.604 52.5344,261.604 53.5,263.5C 60.6013,270.556 67.9346,277.39 75.5,284C 76.1667,284.667 76.8333,284.667 77.5,284C 81.0287,281.669 83.0287,278.503 83.5,274.5C 89.974,270.761 96.3073,266.761 102.5,262.5C 104.321,266.812 106.154,271.145 108,275.5C 108.333,281.167 108.667,286.833 109,292.5C 109.366,294.452 110.199,296.118 111.5,297.5C 114.287,298.477 117.287,298.81 120.5,298.5C 120.032,302.444 118.699,306.111 116.5,309.5C 115.675,310.386 114.675,310.719 113.5,310.5C 110.628,319.534 104.295,325.701 94.5,329C 81.5236,331.371 69.1902,329.537 57.5,323.5C 48.2562,318.281 39.7562,311.948 32,304.5C 31.6174,305.056 31.1174,305.389 30.5,305.5C 30.5123,302.858 29.179,301.525 26.5,301.5C 26.9175,300.778 27.5842,300.278 28.5,300C 26.1118,297.371 24.1118,294.538 22.5,291.5C 25.0838,293.578 27.5838,295.912 30,298.5C 31.362,284.548 32.362,270.548 33,256.5C 33.4974,259.146 33.6641,261.813 33.5,264.5C 35.4286,264.231 37.0953,264.731 38.5,266C 37.0494,265.737 35.7161,265.904 34.5,266.5C 37.9651,273.123 39.9651,272.456 40.5,264.5C 41.1667,265.5 41.8333,266.5 42.5,267.5C 44.8352,263.802 48.1686,260.469 52.5,257.5 Z"/></g>
<g><path style="opacity:1" fill="#1d1f21" d="M 84.5,233.5 C 85.8333,234.5 87.1667,235.5 88.5,236.5C 93.4636,241.965 98.6303,247.298 104,252.5C 104.667,253.5 104.667,254.5 104,255.5C 102.293,257.037 100.793,258.704 99.5,260.5C 96.7015,263.637 93.3681,265.971 89.5,267.5C 88.8333,266.5 88.1667,265.5 87.5,264.5C 88.0998,263.1 89.0998,262.1 90.5,261.5C 92.2132,260.365 92.8799,258.698 92.5,256.5C 97.0001,256.836 98.8334,254.836 98,250.5C 92.9646,245.297 87.798,240.297 82.5,235.5C 82.8333,234.5 83.5,233.833 84.5,233.5 Z"/></g>
<g><path style="opacity:1" fill="#719aa1" d="M 178.5,220.5 C 181.897,221.258 183.23,223.425 182.5,227C 182.422,232.237 180.589,236.737 177,240.5C 173.266,243.952 169.1,246.785 164.5,249C 158.217,251.487 151.884,253.82 145.5,256C 139.566,259.933 135.066,265.1 132,271.5C 128.345,286.142 123.012,300.142 116,313.5C 104.817,329.675 89.6499,335.175 70.5,330C 65.6324,328.67 61.2991,326.504 57.5,323.5C 69.1902,329.537 81.5236,331.371 94.5,329C 104.295,325.701 110.628,319.534 113.5,310.5C 114.675,310.719 115.675,310.386 116.5,309.5C 118.699,306.111 120.032,302.444 120.5,298.5C 117.287,298.81 114.287,298.477 111.5,297.5C 116.673,298.65 119.673,296.65 120.5,291.5C 122.404,288.466 123.738,285.133 124.5,281.5C 125.524,277.405 126.858,273.405 128.5,269.5C 127.5,268.833 126.5,268.167 125.5,267.5C 126.651,266.269 127.817,266.269 129,267.5C 133.756,259.209 140.59,253.376 149.5,250C 148.289,249.107 148.289,248.274 149.5,247.5C 150.714,249.38 152.048,249.713 153.5,248.5C 163.223,246.311 170.889,241.144 176.5,233C 175.692,232.692 175.025,232.192 174.5,231.5C 175.274,230.289 176.107,230.289 177,231.5C 177.78,229.613 177.613,227.946 176.5,226.5C 178.229,225.764 179.229,224.43 179.5,222.5C 179.167,221.833 178.833,221.167 178.5,220.5 Z"/></g>
<g><path style="opacity:1" fill="#7d8890" d="M 121.5,245.5 C 114.242,250.09 107.908,255.756 102.5,262.5C 96.3073,266.761 89.974,270.761 83.5,274.5C 81.3222,275.929 78.9889,276.763 76.5,277C 77.2567,275.488 78.2567,274.154 79.5,273C 80.4491,272.383 81.2825,272.549 82,273.5C 83.0391,272.29 84.2058,271.29 85.5,270.5C 85.4346,270.938 85.6012,271.272 86,271.5C 86.6897,269.65 87.8564,268.316 89.5,267.5C 93.3681,265.971 96.7015,263.637 99.5,260.5C 99.369,261.239 99.5357,261.906 100,262.5C 104.485,257.047 109.319,251.881 114.5,247C 120.202,244.635 124.702,240.801 128,235.5C 128.667,236.167 128.667,236.833 128,237.5C 125.999,240.331 123.833,242.997 121.5,245.5 Z"/></g>
<g><path style="opacity:1" fill="#3d4751" d="M 98.5,274.5 C 102.476,276.498 102.309,278.498 98,280.5C 96.5659,280.07 95.3992,279.236 94.5,278C 96.0267,276.968 97.36,275.801 98.5,274.5 Z"/></g>
<g><path style="opacity:1" fill="#c2c6d4" d="M 124.5,281.5 C 123.738,285.133 122.404,288.466 120.5,291.5C 118.983,291.489 117.816,290.823 117,289.5C 116.601,289.728 116.435,290.062 116.5,290.5C 116.167,290.5 115.833,290.5 115.5,290.5C 114.875,287.03 115.875,284.196 118.5,282C 117.477,279.226 117.477,276.393 118.5,273.5C 119.5,273.5 120.5,273.5 121.5,273.5C 120.833,276.167 120.167,278.833 119.5,281.5C 121.167,281.5 122.833,281.5 124.5,281.5 Z"/></g>
<g><path style="opacity:1" fill="#797b7f" d="M 115.5,290.5 C 115.833,290.5 116.167,290.5 116.5,290.5C 116.631,291.376 116.298,292.043 115.5,292.5C 114.227,291.743 114.227,291.077 115.5,290.5 Z"/></g>
<g><path style="opacity:1" fill="#424847" d="M 26.5,301.5 C 29.179,301.525 30.5123,302.858 30.5,305.5C 28.2901,305.106 26.9568,303.773 26.5,301.5 Z"/></g>
<g><path style="opacity:1" fill="#3c4851" d="M 91.5,301.5 C 95.314,301.651 96.9807,303.651 96.5,307.5C 93.6354,307.945 91.1354,307.278 89,305.5C 89.1929,303.918 90.0262,302.584 91.5,301.5 Z"/></g>
</svg>
